<?xml version="1.0" encoding="utf-8"?>
<!-- Generator: Adobe Illustrator 19.0.0, SVG Export Plug-In . SVG Version: 6.00 Build 0)  -->
<svg version="1.1" id="Layer_1" xmlns="http://www.w3.org/2000/svg" xmlns:xlink="http://www.w3.org/1999/xlink" x="0px" y="0px"
	 viewBox="0 0 286 199.4" style="enable-background:new 0 0 286 199.4;" xml:space="preserve">
<style type="text/css">
	.st0{fill:#FFFFFF;}
</style>
<g>
	<g>
		<polygon id="XMLID_18_" class="st0" points="63.4,41 103.7,15.4 160.3,8.2 32.2,10.9 		"/>
		<polygon id="XMLID_17_" class="st0" points="139.3,61.6 268.7,27.1 236.5,0 108,17.6 		"/>
		<path class="st0" d="M136.3,64.8l-32-46.3L63,44.5L28.9,10.9l-18.4,19v73.8l125.8,65.5V64.8z M50.8,80.3L19.3,67.7v-4.4l31.5,12.1
			V80.3z M50.8,88.7L19.3,75.4v-4.4l31.5,12.9V88.7z M50.8,96.6L19.3,82.5v-4.4l31.5,13.7V96.6z M50.8,104.2L19.3,89.3v-4.4
			l31.5,14.4V104.2z M121.1,107.5l-45.3-18v-5.3l45.3,17.4V107.5z M121.1,117.7L75.7,98.5v-5.3l45.3,18.5V117.7z M121.1,127.2
			L75.7,107v-5.2l45.3,19.6V127.2z M121.1,136.4l-45.3-21.3v-5.2l45.3,20.6V136.4z"/>
		<path class="st0" d="M141,65v104l128.4-65.8V30.4L141,65L141,65z M250.9,63.5l0-19.5l13.3-4v18.7L250.9,63.5L250.9,63.5z
			 M229.9,50.6L245,46V66l-15.1,5.5V50.6z M206.6,57.1l17.3-5.2v21.3l-17.3,6.3V57.1z M179.6,89.3l0-24.1l19.9-5.9v22.8L179.6,89.3
			L179.6,89.3z M148.3,74l23.2-6.9v24.6l-23.2,8.4V74z"/>
		<polygon id="XMLID_1_" class="st0" points="0,117.5 138.8,199.2 138.8,199.4 139,199.3 139.1,199.4 139.1,199.3 286,112.8 286,98 
			139.2,176.6 0,102.2 		"/>
	</g>
</g>
</svg>
