<?xml version="1.0" encoding="utf-8"?>
<!-- Generator: Adobe Illustrator 19.0.0, SVG Export Plug-In . SVG Version: 6.00 Build 0)  -->
<svg version="1.1" id="Capa_1" xmlns="http://www.w3.org/2000/svg" xmlns:xlink="http://www.w3.org/1999/xlink" x="0px" y="0px"
	 viewBox="-177 302 256 190.1" style="enable-background:new -177 302 256 190.1;" xml:space="preserve">
<style type="text/css">
	.st0{fill:#FFFFFF;}
</style>
<g>
	<g>
		<path class="st0" d="M-44.5,436.4c5.8,0,10.5-4.7,10.5-10.5c0-5.8-4.7-10.4-10.5-10.4l-47.4-34.8l36.9,45.9
			C-54.6,432.1-50.1,436.4-44.5,436.4z"/>
		<rect x="-101.2" y="467.3" class="st0" width="104.4" height="24.8"/>
		<path class="st0" d="M41.5,339.5C17.3,315.3-14.8,302-49,302c-34.2,0-66.3,13.3-90.5,37.5c-24.2,24.2-37.5,56.3-37.5,90.5
			c0,22.1,5.6,43.3,16,62.1h23.9l17.5-10.1l-7.7-13.4l-22.5,13c-7.9-15.5-12.4-33-12.4-51.6c0-3.3,0.1-6.5,0.4-9.8l26.8,4.7
			l2.7-15.2l-27.1-4.8c4.9-21.4,15.8-40.5,30.9-55.5l18.4,21.9l11.8-9.9l-18.5-22.1c17-12.8,37.7-20.9,60.1-22.4v29.3h15.5V317
			c22.5,1.5,43.1,9.6,60.1,22.4L0.3,361.5l11.8,9.9l18.4-21.9c15.1,14.9,26,34.1,30.9,55.5l-27.1,4.8l2.7,15.2l26.8-4.7
			c0.3,3.2,0.4,6.5,0.4,9.8c0,18.6-4.5,36.1-12.4,51.6l-22.5-13l-7.7,13.4L39.1,492H63c10.4-18.8,16-40,16-62.1
			C79,395.8,65.7,363.6,41.5,339.5z"/>
	</g>
</g>
</svg>
