<?xml version="1.0" encoding="utf-8"?>
<!-- Generator: Adobe Illustrator 19.0.0, SVG Export Plug-In . SVG Version: 6.00 Build 0)  -->
<svg version="1.1" id="Modo_de_aislamiento" xmlns="http://www.w3.org/2000/svg" xmlns:xlink="http://www.w3.org/1999/xlink"
	 x="0px" y="0px" viewBox="-639.1 770.1 950 727.7" style="enable-background:new -639.1 770.1 950 727.7;" xml:space="preserve">
<style type="text/css">
	.st0{fill:#FFFFFF;}
</style>
<g>
	<path class="st0" d="M310.9,1163.5V921.1c0-17.4-14.1-31.5-31.5-31.5H139.9L-3.6,786c-14.8-10.7-32-15.9-49.1-15.9
		c-21.6,0-43.2,8.3-59.4,24.6l-64.9,64.9l-64.2,64.2c-24.6,24.6-24.6,64.5,0,89.1l7.9,7.9c12.3,12.3,28.4,18.5,44.5,18.5
		c16.1,0,32.2-6.2,44.5-18.5l40.7-40.7l179.7,214.2c13.4,16,32,26.1,51.9,29.1c4.1,0.6,8.3,0.9,12.4,0.9c6,0,12.1-0.6,18.1-2
		l127.6-28.1C300.6,1191.1,310.9,1178.3,310.9,1163.5z"/>
	<path class="st0" d="M-354.2,1478.9c12.6,12.6,29.1,18.9,45.6,18.9s33-6.3,45.6-18.9c9.8-9.8,15.8-22,18-34.8
		c3.4-19.9-2.6-41.1-18-56.4l-172.9-172.9c-12.6-12.6-29.1-18.9-45.6-18.9s-33,6.3-45.6,18.9l0,0c-5.8,5.8-10.3,12.5-13.4,19.7
		c-10.4,23.6-5.9,52.2,13.4,71.5L-354.2,1478.9z"/>
	<path class="st0" d="M6,1329.4c23.3,15.4,42.4,34.9,73.5,29.9c0,0,85.7-42.1,61.4-112.2c-0.1,0-0.2,0-0.3,0
		c-31.7,0-61.5-13.9-81.8-38.2L-105,1013.8l-23.1,23.1c-16.2,16.2-37.8,25.1-60.7,25.1c-22.9,0-44.5-8.9-60.7-25.1l-7.9-7.9
		c-16.2-16.2-25.1-37.8-25.1-60.7c0-22.9,8.9-44.5,25.1-60.7l65.6-65.6l-13.7-16.3c-25-30.2-67.6-39-102.6-21.3l-178.5,90.5
		l-109.3-44c-20.7-8.3-43.3,6.9-43.3,29.2v296.2h0c0,13.2,8.2,25,20.6,29.6l56.5,20.7c4.3-10.2,10.5-19.7,18.7-27.9
		c16.5-16.5,38.4-25.6,61.7-25.6c23.3,0,45.2,9.1,61.7,25.6l172.9,172.9c24.3,24.3,31.3,59.6,20.8,90.1
		C-159.6,1468-58.5,1378.9,6,1329.4z"/>
</g>
</svg>
