<?xml version="1.0" encoding="utf-8"?>
<!-- Generator: Adobe Illustrator 19.0.0, SVG Export Plug-In . SVG Version: 6.00 Build 0)  -->
<svg version="1.1" id="Layer_1" xmlns="http://www.w3.org/2000/svg" xmlns:xlink="http://www.w3.org/1999/xlink" x="0px" y="0px"
	 viewBox="0 0 197.4 176" style="enable-background:new 0 0 197.4 176;" xml:space="preserve">
<style type="text/css">
	.st0{fill:#FFFFFF;}
</style>
<g id="XMLID_1_">
	<path id="XMLID_2_" class="st0" d="M108.3,13.5c-8.9-1.1-18,4.8-25.8,15.5c-3.6,5-7,11-9.9,17.9C76.4,39.2,80.7,33,85.3,29
		s9.3-6,14.1-5.3c3.4,0.5,6.5,2.3,9.3,5.3h18.2C122.1,20.1,115.8,14.4,108.3,13.5z"/>
	<path id="XMLID_19_" class="st0" d="M159.9,144.5h25.9l-20.2-44.9c16.3-5.9,29.3-20.5,29.3-37c0-10.3-3.3-18.5-9.9-24.5
		c-0.4-0.3-0.8-0.7-1.1-1c-6.6-5.4-16.4-8-29.3-8h-27.3h-18.8L87.1,144.5C83.9,153.9,79,156,74.7,155c-3-0.8-5.7-3.9-8-9
		c4.4,12,10.9,19.7,19,20.9c9.8,1.4,19.8-7.3,27.8-22.3c0,0,0-0.1,0.1-0.1c4.3-10.3,10.6-43.8,10.6-43.8l14.5-0.1l0.3,0.9l-13.6,0.1
		c0,0-6.1,32.5-10.4,43.3c-0.3,0.9-0.7,1.8-1,2.7c-2.9,7.1-8.7,16.6-16.2,21.7c4.4-2.7,8-6.3,10.9-10.1c3.7-4.8,6.3-10,8.1-14
		c4.3-12,9.9-41.9,9.9-41.9l12.9-0.1l17,41.3H159.9z M142.2,76.4h-9.3h-0.4l3.9-20.2h4.8h7.7c4.2,0,7.5,0.6,10,1.7
		c-0.1-0.1-0.2-0.3-0.4-0.5c0.1,0,0.1,0.1,0.2,0.1c-2.6-1.9-6.6-2.9-12-2.9H139h-4.3l-4.3,21.8h-1.1l4.4-22.8h4.4h7.7
		c5.5,0,9.6,1,12.2,3l1,1.1c1.2,1.6,1.9,3.6,1.9,6c0,8.4-6.1,12.6-18.2,12.7C142.5,76.4,142.4,76.4,142.2,76.4z"/>
	<path id="XMLID_21_" class="st0" d="M197.4,65.1c0-8.9-2.4-16.1-7.3-21.8c4,5.4,6,12.1,6,20.1c0,16.5-13,31.1-29.2,37l20.2,44.9
		h-25.9h-2.6l0.7,1.7h3.3h25.9l-20.2-44.9C184.4,96.3,197.4,81.6,197.4,65.1z"/>
	<path id="XMLID_5_" class="st0" d="M98.8,1.2c0,0-1.1-0.3-2.5-0.5c-0.5-0.1-1.9-0.2-1.9-0.2C88-0.2,80-0.1,73.3,0.5
		c-3.2,0.3-6.1,0.7-8.4,1.2c-8.6,2-16.3,7.6-22.9,15.7C30.5,32.8,21.7,53.6,17.7,77.2c-0.9,5.4-1.5,10.8-1.9,16.1
		c-0.1,1.7-0.2,4.7-0.3,6.4l23.2-22.4L58.2,99c0.3-4.6,0.7-9.3,1.4-14.1C65.9,41,87.5,7.7,108,10.5c6.2,0.9,11.6,5,15.9,11.6
		C117.6,10.6,109,3,98.8,1.2z"/>
	<path id="XMLID_7_" class="st0" d="M90,169.5c-0.5,0.1-1,0.2-1.5,0.3c-1.1,0-2.1,0-3.2-0.1c-14.5-2-24.5-21.7-26.8-48.7h14.8
		l-17.4-19.4L38,81.7L15.4,105L0,120.9h16.5c1.2,9.3,3.3,17.9,6.2,25.7c5.9,15,15.3,25.6,27.8,28.2c5.3,1.1,14.8,1.5,22.5,1h0.1
		c0.1,0,0.3,0,0.4,0l4.6-0.5c0,0,0,0,0,0c0,0,0.1,0,0.1,0c5.3-0.1,10.5-1.9,15.7-4.6c3.8-1.9,7.2-4.6,10.3-8.2
		c0.1-0.2,0.3-0.3,0.4-0.5c3.4-4.1,6.3-9.2,8.6-15.2C107.8,159.2,99.9,167.4,90,169.5z"/>
</g>
</svg>
