<?xml version="1.0" encoding="utf-8"?>
<!-- Generator: Adobe Illustrator 19.0.0, SVG Export Plug-In . SVG Version: 6.00 Build 0)  -->
<svg version="1.1" id="Layer_1" xmlns="http://www.w3.org/2000/svg" xmlns:xlink="http://www.w3.org/1999/xlink" x="0px" y="0px"
	 viewBox="-255 349.5 100 95.5" style="enable-background:new -255 349.5 100 95.5;" xml:space="preserve">
<style type="text/css">
	.st0{fill:#FFFFFF;}
</style>
<path class="st0" d="M-670.6,1107.5l-25.8-30.6c0,0-12.4-21.1-13.1-21.9c-1-1.3-2.7-0.5-2.7-0.5s-42,15.8-45.7,16.8
	c-3.6,1-1.5,4.2-1.5,4.2l13.3,24.6l27.2,40.5c0,0,1.6,1.9,4.1,1.6c1.5-0.2,3.2-1.4,3.2-1.4l40.6-28.7c0,0,0.8-0.7,0.9-2.1
	C-669.9,1108.4-670.6,1107.5-670.6,1107.5z M-683.3,1096.2l-4,2.5l-2.9-3.5l4-2.4L-683.3,1096.2z M-729.3,1101.3l3,4.1l-4.8,2.7
	l-2.9-4.2L-729.3,1101.3z M-735.4,1101.8l-1.4-2.1l4.6-2.4l1.5,2L-735.4,1101.8z M-727.2,1094.4l3.9-2l1.4,1.9l-3.9,2.1
	L-727.2,1094.4z M-724.9,1107.4l3.1,4.2l-4.9,3l-3-4.4L-724.9,1107.4z M-720.4,1113.6l3.1,4.2l-5.1,3.2l-3-4.4L-720.4,1113.6z
	 M-705.1,1101.3l-2.8-3.7l3.8-2.1l2.9,3.5L-705.1,1101.3z M-699.7,1100.9l3,3.7l-3.9,2.4l-2.9-3.8L-699.7,1100.9z M-706.9,1086.4
	l-1.4-1.7l4.2-2.2l1.3,1.6L-706.9,1086.4z M-707.2,1102.5l-3.7,2.3l-2.9-3.9l3.8-2.1L-707.2,1102.5z M-713.8,1090l-1.4-1.8l3.6-1.8
	l1.4,1.7L-713.8,1090z M-713,1106.1l-3.9,2.3l-3-4.1l3.9-2.2L-713,1106.1z M-719.4,1093l-1.4-1.8l3.6-1.8l1.4,1.7L-719.4,1093z
	 M-715.9,1119.7l3.1,4.3l-5.3,3.5l-3-4.5L-715.9,1119.7z M-715.4,1110.4l3.9-2.3l3,4l-3.9,2.4L-715.4,1110.4z M-709.4,1106.8
	l3.7-2.3l3,3.8l-3.8,2.4L-709.4,1106.8z M-701.2,1110.3l3.1,4l-3.8,2.6l-3.1-4.1L-701.2,1110.3z M-699.1,1109l4-2.5l3.1,3.8l-4,2.6
	L-699.1,1109z M-693.6,1102.6l-3-3.6l4.1-2.5l2.9,3.5L-693.6,1102.6z M-690.5,1087.9l2.6,3l-4,2.4l-2.7-3.2L-690.5,1087.9z
	 M-694,1094.6l-4.1,2.5l-2.8-3.4l4.2-2.3L-694,1094.6z M-696.5,1080.9l-4,2.1l-1.3-1.6l4-2.1L-696.5,1080.9z M-700.4,1075.6
	c0,0.1,0,0.2-0.1,0.3l-39.9,20h-0.1c-0.1,0-0.1,0-0.2-0.1c0-0.1,0-0.2,0.1-0.3l39.9-20C-700.5,1075.5-700.4,1075.5-700.4,1075.6z
	 M-750.7,1075.3c0.2-0.6,0.6-1.1,1.4-1.5c2.8-1.3,36.4-14.2,36.7-14.3c0,0,0.5-0.3,1.1-0.3c0.5,0,1.2,0.2,1.7,1.1
	c0.5,1,3.2,5.5,3.3,5.5c0,0,0.5,0.8,0.3,1.5c-0.1,0.4-0.4,0.8-0.9,1c-1.3,0.6-34.9,15.5-36.4,16.2c0,0-0.7,0.4-1.5,0.4
	c-0.7,0-1.2-0.3-1.6-0.9c-0.8-1.3-3.7-6.8-3.7-6.9C-750.4,1077.2-751,1076.3-750.7,1075.3z M-712.8,1138.2c-0.6,0.5-1.3,0.7-2,0.7
	c-0.2,0-0.3,0-0.5,0c-1.5-0.3-2.4-1.6-2.5-1.7l-27.3-41.5l-12-22.3c-0.1-0.2,0-0.4,0.2-0.5s0.4,0,0.5,0.2l12,22.3l27.3,41.4
	c0,0,0.8,1.2,2,1.4c0.6,0.1,1.3-0.1,1.9-0.5c0.2-0.1,0.4-0.1,0.5,0.1C-712.6,1137.8-712.6,1138.1-712.8,1138.2z M-713.6,1133.9
	l-3-4.4l5.4-3.5l3.1,4.2L-713.6,1133.9z M-711,1116.5l3.9-2.5l3.1,4.1l-3.9,2.6L-711,1116.5z M-703.3,1126.9l-3.1-4.2l3.9-2.6
	l3.1,4.1L-703.3,1126.9z M-697.3,1122.9l-3.1-4.1l3.8-2.6l3.1,4L-697.3,1122.9z M-691.5,1118.9l-3.1-4l4.1-2.7l3.2,3.9
	L-691.5,1118.9z M-684.2,1114l-7.8-9.5l4.1-2.6l7.8,9.3L-684.2,1114z M-678.1,1109.9l-7.7-9.3l4.1-2.6l4.6,5.4l3.2,3.7
	L-678.1,1109.9z"/>
<path class="st0" d="M-159.6,407.5l-25.8-30.6c0,0-12.4-21.1-13.1-21.9c-1-1.3-2.7-0.5-2.7-0.5s-42,15.8-45.7,16.8
	c-3.6,1-1.5,4.2-1.5,4.2l13.3,24.6l27.2,40.5c0,0,1.6,1.9,4.1,1.6c1.5-0.2,3.2-1.4,3.2-1.4l40.6-28.7c0,0,0.8-0.7,0.9-2.1
	C-158.9,408.4-159.6,407.5-159.6,407.5z M-172.3,396.2l-4,2.5l-2.9-3.5l4-2.4L-172.3,396.2z M-218.3,401.3l3,4.1l-4.8,2.7l-2.9-4.2
	L-218.3,401.3z M-224.4,401.8l-1.4-2.1l4.6-2.4l1.5,2L-224.4,401.8z M-216.2,394.4l3.9-2l1.4,1.9l-3.9,2.1L-216.2,394.4z
	 M-213.9,407.4l3.1,4.2l-4.9,3l-3-4.4L-213.9,407.4z M-209.4,413.6l3.1,4.2l-5.1,3.2l-3-4.4L-209.4,413.6z M-194.1,401.3l-2.8-3.7
	l3.8-2.1l2.9,3.5L-194.1,401.3z M-188.7,400.9l3,3.7l-3.9,2.4l-2.9-3.8L-188.7,400.9z M-195.9,386.4l-1.4-1.7l4.2-2.2l1.3,1.6
	L-195.9,386.4z M-196.2,402.5l-3.7,2.3l-2.9-3.9l3.8-2.1L-196.2,402.5z M-202.8,390l-1.4-1.8l3.6-1.8l1.4,1.7L-202.8,390z
	 M-202,406.1l-3.9,2.3l-3-4.1l3.9-2.2L-202,406.1z M-208.4,393l-1.4-1.8l3.6-1.8l1.4,1.7L-208.4,393z M-204.9,419.7l3.1,4.3
	l-5.3,3.5l-3-4.5L-204.9,419.7z M-204.4,410.4l3.9-2.3l3,4l-3.9,2.4L-204.4,410.4z M-198.4,406.8l3.7-2.3l3,3.8l-3.8,2.4
	L-198.4,406.8z M-190.2,410.3l3.1,4l-3.8,2.6l-3.1-4.1L-190.2,410.3z M-188.1,409l4-2.5l3.1,3.8l-4,2.6L-188.1,409z M-182.6,402.6
	l-3-3.6l4.1-2.5l2.9,3.5L-182.6,402.6z M-179.5,387.9l2.6,3l-4,2.4l-2.7-3.2L-179.5,387.9z M-183,394.6l-4.1,2.5l-2.8-3.4l4.2-2.3
	L-183,394.6z M-185.5,380.9l-4,2.1l-1.3-1.6l4-2.1L-185.5,380.9z M-189.4,375.6c0,0.1,0,0.2-0.1,0.3l-39.9,20h-0.1
	c-0.1,0-0.1,0-0.2-0.1c0-0.1,0-0.2,0.1-0.3l39.9-20C-189.5,375.5-189.4,375.5-189.4,375.6z M-239.7,375.3c0.2-0.6,0.6-1.1,1.4-1.5
	c2.8-1.3,36.4-14.2,36.7-14.3c0,0,0.5-0.3,1.1-0.3c0.5,0,1.2,0.2,1.7,1.1c0.5,1,3.2,5.5,3.3,5.5c0,0,0.5,0.8,0.3,1.5
	c-0.1,0.4-0.4,0.8-0.9,1c-1.3,0.6-34.9,15.5-36.4,16.2c0,0-0.7,0.4-1.5,0.4c-0.7,0-1.2-0.3-1.6-0.9c-0.8-1.3-3.7-6.8-3.7-6.9
	C-239.4,377.2-240,376.3-239.7,375.3z M-201.8,438.2c-0.6,0.5-1.3,0.7-2,0.7c-0.2,0-0.3,0-0.5,0c-1.5-0.3-2.4-1.6-2.5-1.7
	l-27.3-41.5l-12-22.3c-0.1-0.2,0-0.4,0.2-0.5s0.4,0,0.5,0.2l12,22.3l27.3,41.4c0,0,0.8,1.2,2,1.4c0.6,0.1,1.3-0.1,1.9-0.5
	c0.2-0.1,0.4-0.1,0.5,0.1C-201.6,437.8-201.6,438.1-201.8,438.2z M-202.6,433.9l-3-4.4l5.4-3.5l3.1,4.2L-202.6,433.9z M-200,416.5
	l3.9-2.5l3.1,4.1l-3.9,2.6L-200,416.5z M-192.3,426.9l-3.1-4.2l3.9-2.6l3.1,4.1L-192.3,426.9z M-186.3,422.9l-3.1-4.1l3.8-2.6l3.1,4
	L-186.3,422.9z M-180.5,418.9l-3.1-4l4.1-2.7l3.2,3.9L-180.5,418.9z M-173.2,414l-7.8-9.5l4.1-2.6l7.8,9.3L-173.2,414z
	 M-167.1,409.9l-7.7-9.3l4.1-2.6l4.6,5.4l3.2,3.7L-167.1,409.9z"/>
</svg>
