<?xml version="1.0" encoding="utf-8"?>
<!-- Generator: Adobe Illustrator 19.0.0, SVG Export Plug-In . SVG Version: 6.00 Build 0)  -->
<svg version="1.1" id="Layer_1" xmlns="http://www.w3.org/2000/svg" xmlns:xlink="http://www.w3.org/1999/xlink" x="0px" y="0px"
	 viewBox="0 0 160.9 474.6" style="enable-background:new 0 0 160.9 474.6;" xml:space="preserve">
<style type="text/css">
	.st0{fill:url(#XMLID_16_);}
	.st1{fill:url(#XMLID_17_);}
	.st2{fill:#D0D8D8;}
	.st3{fill:#1C1C1C;}
	.st4{fill:url(#XMLID_18_);}
	.st5{fill:url(#XMLID_19_);}
	.st6{fill:#109CE2;}
	.st7{fill:#97B2B0;}
	.st8{fill:url(#XMLID_20_);}
	.st9{fill:#BCCBCE;}
	.st10{fill:url(#XMLID_21_);}
	.st11{fill:#D8D8D7;}
	.st12{fill:url(#XMLID_22_);}
	.st13{fill:url(#XMLID_23_);}
	.st14{fill:#FFCE00;}
	.st15{fill:url(#XMLID_24_);}
	.st16{fill:url(#XMLID_25_);}
	.st17{fill:url(#XMLID_26_);}
	.st18{fill:#006F9B;}
	.st19{fill:#0090C9;}
	.st20{opacity:0.2;fill:url(#XMLID_27_);}
	.st21{fill:url(#XMLID_28_);}
	.st22{opacity:0.4;fill:url(#XMLID_29_);}
	.st23{fill:url(#XMLID_30_);}
	.st24{opacity:0.5;fill:url(#XMLID_31_);}
	.st25{fill:url(#XMLID_32_);}
	.st26{fill:url(#XMLID_33_);}
	.st27{fill:url(#XMLID_34_);}
	.st28{fill:url(#XMLID_35_);}
	.st29{fill:url(#XMLID_36_);}
	.st30{fill:url(#XMLID_37_);}
	.st31{fill:url(#XMLID_38_);}
	.st32{fill:url(#XMLID_39_);}
	.st33{opacity:0.5;fill:url(#XMLID_40_);}
	.st34{fill:url(#XMLID_41_);}
	.st35{fill:url(#XMLID_42_);}
	.st36{fill:url(#XMLID_43_);}
	.st37{fill:#FFFFFF;}
</style>
<g id="XMLID_1_">
	<linearGradient id="XMLID_16_" gradientUnits="userSpaceOnUse" x1="26.413" y1="136.6667" x2="26.413" y2="-4.265530e-010">
		<stop  offset="0" style="stop-color:#000000"/>
		<stop  offset="1" style="stop-color:#000000;stop-opacity:0"/>
	</linearGradient>
	<rect id="XMLID_1019_" x="16.9" class="st0" width="19" height="136.7"/>
	<linearGradient id="XMLID_17_" gradientUnits="userSpaceOnUse" x1="134.5847" y1="136.6667" x2="134.5847" y2="-4.256435e-010">
		<stop  offset="0" style="stop-color:#000000"/>
		<stop  offset="1" style="stop-color:#000000;stop-opacity:0"/>
	</linearGradient>
	<rect id="XMLID_1021_" x="125.1" class="st1" width="19" height="136.7"/>
	<g id="XMLID_497_">
		<path id="XMLID_589_" class="st2" d="M149.5,371.2l8.9-4c1.1-0.5,1.7-1.9,1.1-3l0,0l-13.1,5.8l0,0
			C147,371.2,148.3,371.7,149.5,371.2z"/>
		<path id="XMLID_588_" class="st3" d="M143.2,376.5c0.4,0,0.7-0.1,1.1-0.2l8.9-4c0.7-0.3,1.2-0.8,1.4-1.5c0.3-0.7,0.2-1.4-0.1-2
			l-0.7,0.3c0.2,0.5,0.2,1,0,1.4c-0.2,0.5-0.5,0.8-1,1l-8.9,4c-0.9,0.4-2.1,0-2.5-0.9l-0.7,0.3c0.3,0.7,0.8,1.2,1.5,1.4
			C142.5,376.4,142.8,376.5,143.2,376.5z"/>
		<g id="XMLID_524_">
			<linearGradient id="XMLID_18_" gradientUnits="userSpaceOnUse" x1="54.0187" y1="474.6329" x2="54.0187" y2="418.1955">
				<stop  offset="0" style="stop-color:#FFCE00;stop-opacity:0"/>
				<stop  offset="0.952" style="stop-color:#FFCE00;stop-opacity:0.952"/>
				<stop  offset="1" style="stop-color:#FFCE00"/>
			</linearGradient>
			<polygon id="XMLID_642_" class="st4" points="54,418.2 66.8,446.4 79.6,474.6 54,474.6 28.4,474.6 41.2,446.4 			"/>
			<linearGradient id="XMLID_19_" gradientUnits="userSpaceOnUse" x1="115.0842" y1="474.6329" x2="115.0842" y2="418.1955">
				<stop  offset="0" style="stop-color:#FFCE00;stop-opacity:0"/>
				<stop  offset="0.952" style="stop-color:#FFCE00;stop-opacity:0.952"/>
				<stop  offset="1" style="stop-color:#FFCE00"/>
			</linearGradient>
			<polygon id="XMLID_641_" class="st5" points="115.1,418.2 127.9,446.4 140.7,474.6 115.1,474.6 89.5,474.6 102.3,446.4 			"/>
			<g id="XMLID_525_">
				<path id="XMLID_638_" class="st2" d="M124.5,386.2h-82c-2,0-8.2-3-10-3.5l4.4,44.6c0,6.3,5.1,11.4,11.4,11.4h73.2
					c6.3,0,11.4-5.1,11.4-11.4l2.8-44.4C133.1,384,127.5,386.2,124.5,386.2z"/>
				<path id="XMLID_640_" class="st6" d="M144.9,71.7v204.4c0,19.8-16.2,36-36,36H52c-19.8,0-36-16.2-36-36V71.7H4.2
					c-2.3,0-4.2,1.9-4.2,4.2v236c0,5,4,9,9,9h142.9c5,0,9-4,9-9v-236c0-2.3-1.9-4.2-4.2-4.2H144.9z"/>
				<path id="XMLID_639_" class="st7" d="M127.8,377.4H39.2c-6.6,0-12.5-2.7-16.5-6.9c2.1,9,10.2,15.7,19.8,15.7h82
					c9.7,0,17.7-6.7,19.8-15.7C140.3,374.7,134.4,377.4,127.8,377.4z"/>
				<linearGradient id="XMLID_20_" gradientUnits="userSpaceOnUse" x1="104.6889" y1="438.612" x2="104.6889" y2="386.1862">
					<stop  offset="0" style="stop-color:#9AACAF;stop-opacity:0"/>
					<stop  offset="1" style="stop-color:#9AACAF"/>
				</linearGradient>
				<path id="XMLID_637_" class="st8" d="M93.6,401.4c-6,12.6-2,24.6-2.2,35.4c0,0.6,0,1.2,0,1.8h26.4c2.9-13.9-0.6-40-2.7-52.4
					h-14.6C98.6,390.4,96.3,395.8,93.6,401.4z"/>
				<path id="XMLID_634_" class="st9" d="M21.1,320.8c-4.6,0-8.4,3.8-8.4,8.4s3.8,8.4,8.4,8.4c4.6,0,8.4-3.8,8.4-8.4
					S25.7,320.8,21.1,320.8z M21.1,334.9c-3.2,0-5.7-2.6-5.7-5.7c0-3.2,2.6-5.7,5.7-5.7c3.2,0,5.7,2.6,5.7,5.7
					C26.8,332.3,24.2,334.9,21.1,334.9z"/>
				<linearGradient id="XMLID_21_" gradientUnits="userSpaceOnUse" x1="21.0829" y1="401.1326" x2="21.0829" y2="320.766">
					<stop  offset="0" style="stop-color:#109CE2"/>
					<stop  offset="0.4807" style="stop-color:#0F9AE0"/>
					<stop  offset="0.7248" style="stop-color:#0B93D8"/>
					<stop  offset="0.915" style="stop-color:#0488CB"/>
					<stop  offset="1" style="stop-color:#0080C2"/>
				</linearGradient>
				<path id="XMLID_631_" class="st10" d="M21.1,323.4c-3.2,0-5.7,2.6-5.7,5.7c0,3.2,2.6,5.7,5.7,5.7c3.2,0,5.7-2.6,5.7-5.7
					C26.8,326,24.2,323.4,21.1,323.4z M21.1,333.7c-2.5,0-4.5-2-4.5-4.5s2-4.5,4.5-4.5s4.5,2,4.5,4.5S23.6,333.7,21.1,333.7z"/>
				<path id="XMLID_628_" class="st11" d="M21.1,323.4c-3.2,0-5.7,2.6-5.7,5.7c0,3.2,2.6,5.7,5.7,5.7c3.2,0,5.7-2.6,5.7-5.7
					C26.8,326,24.2,323.4,21.1,323.4z M21.1,333.7c-2.5,0-4.5-2-4.5-4.5s2-4.5,4.5-4.5s4.5,2,4.5,4.5S23.6,333.7,21.1,333.7z"/>
				<linearGradient id="XMLID_22_" gradientUnits="userSpaceOnUse" x1="21.083" y1="401.1326" x2="21.083" y2="320.766">
					<stop  offset="0" style="stop-color:#109CE2"/>
					<stop  offset="0.4807" style="stop-color:#0F9AE0"/>
					<stop  offset="0.7248" style="stop-color:#0B93D8"/>
					<stop  offset="0.915" style="stop-color:#0488CB"/>
					<stop  offset="1" style="stop-color:#0080C2"/>
				</linearGradient>
				<circle id="XMLID_627_" class="st12" cx="21.1" cy="329.2" r="4.5"/>
				<linearGradient id="XMLID_23_" gradientUnits="userSpaceOnUse" x1="21.083" y1="378.2693" x2="21.083" y2="323.4339">
					<stop  offset="0" style="stop-color:#109CE2"/>
					<stop  offset="0.4807" style="stop-color:#0F9AE0"/>
					<stop  offset="0.7248" style="stop-color:#0B93D8"/>
					<stop  offset="0.915" style="stop-color:#0488CB"/>
					<stop  offset="1" style="stop-color:#0080C2"/>
				</linearGradient>
				<circle id="XMLID_626_" class="st13" cx="21.1" cy="329.2" r="4.5"/>
				<circle id="XMLID_625_" class="st3" cx="21.1" cy="329.2" r="4.5"/>
				<path id="XMLID_624_" class="st9" d="M111.4,386.2H109H61.5h-2.5h-2.6v4l6.1,37c0,6.3,3.1,11.4,6.9,11.4H101
					c3.8,0,6.9-5.1,6.9-11.4l6.1-37v-4H111.4z"/>
				<path id="XMLID_623_" class="st14" d="M48.2,438.6c-0.2,0-0.4,0-0.6,0c0.7,1.6,3.3,2.7,6.5,2.7c3.1,0,5.7-1.1,6.4-2.7H48.2z"/>
				<path id="XMLID_622_" class="st14" d="M109.7,438.6c-0.2,0-0.4,0-0.6,0c0.7,1.6,3.3,2.7,6.5,2.7c3.1,0,5.7-1.1,6.4-2.7H109.7z"
					/>
				<linearGradient id="XMLID_24_" gradientUnits="userSpaceOnUse" x1="48.7649" y1="591.073" x2="48.7649" y2="312.1499">
					<stop  offset="0" style="stop-color:#109CE2"/>
					<stop  offset="0.4807" style="stop-color:#0F9AE0"/>
					<stop  offset="0.7248" style="stop-color:#0B93D8"/>
					<stop  offset="0.915" style="stop-color:#0488CB"/>
					<stop  offset="1" style="stop-color:#0080C2"/>
				</linearGradient>
				<path id="XMLID_621_" class="st15" d="M48.8,364.7c0.7,0,1.4-0.6,1.4-1.4V321h-2.7v42.4C47.4,364.1,48,364.7,48.8,364.7z"/>
				<path id="XMLID_620_" class="st9" d="M48.8,364.7c0.7,0,1.4-0.6,1.4-1.4V321h-2.7v42.4C47.4,364.1,48,364.7,48.8,364.7z"/>
				<linearGradient id="XMLID_25_" gradientUnits="userSpaceOnUse" x1="83.6487" y1="591.073" x2="83.6487" y2="312.1499">
					<stop  offset="0" style="stop-color:#109CE2"/>
					<stop  offset="0.4807" style="stop-color:#0F9AE0"/>
					<stop  offset="0.7248" style="stop-color:#0B93D8"/>
					<stop  offset="0.915" style="stop-color:#0488CB"/>
					<stop  offset="1" style="stop-color:#0080C2"/>
				</linearGradient>
				<path id="XMLID_619_" class="st16" d="M83.6,364.7c0.7,0,1.4-0.6,1.4-1.4V321h-2.7v42.4C82.3,364.1,82.9,364.7,83.6,364.7z"/>
				<path id="XMLID_618_" class="st9" d="M83.6,364.7c0.7,0,1.4-0.6,1.4-1.4V321h-2.7v42.4C82.3,364.1,82.9,364.7,83.6,364.7z"/>
				<linearGradient id="XMLID_26_" gradientUnits="userSpaceOnUse" x1="118.5325" y1="591.073" x2="118.5325" y2="312.1499">
					<stop  offset="0" style="stop-color:#109CE2"/>
					<stop  offset="0.4807" style="stop-color:#0F9AE0"/>
					<stop  offset="0.7248" style="stop-color:#0B93D8"/>
					<stop  offset="0.915" style="stop-color:#0488CB"/>
					<stop  offset="1" style="stop-color:#0080C2"/>
				</linearGradient>
				<path id="XMLID_617_" class="st17" d="M118.5,364.7c0.7,0,1.4-0.6,1.4-1.4V321h-2.7v42.4C117.2,364.1,117.8,364.7,118.5,364.7z"
					/>
				<path id="XMLID_616_" class="st9" d="M118.5,364.7c0.7,0,1.4-0.6,1.4-1.4V321h-2.7v42.4C117.2,364.1,117.8,364.7,118.5,364.7z"
					/>
				<path id="XMLID_615_" class="st18" d="M36.8,71.7v237c4.6,2.2,9.8,3.4,15.2,3.4h6.7V71.7H36.8z"/>
				<rect id="XMLID_614_" x="58.7" y="71.7" class="st19" width="21.9" height="240.4"/>
				<path id="XMLID_613_" class="st19" d="M16,71.7v204.4c0,14.4,8.5,26.9,20.8,32.6v-237H16z"/>
				<rect id="XMLID_612_" x="80.6" y="71.7" class="st18" width="21.9" height="240.4"/>
				<path id="XMLID_611_" class="st18" d="M124.3,71.7v236.9c12.1-5.8,20.6-18.2,20.6-32.5V71.7H124.3z"/>
				<path id="XMLID_610_" class="st19" d="M102.4,71.7v240.4h6.4c5.5,0,10.8-1.3,15.4-3.5V71.7H102.4z"/>
				<path id="XMLID_609_" class="st2" d="M119.9,321v42.4c0,0.7-0.6,1.4-1.4,1.4c-0.7,0-1.4-0.6-1.4-1.4V321H85v42.4
					c0,0.7-0.6,1.4-1.4,1.4s-1.4-0.6-1.4-1.4V321H50.1v42.4c0,0.7-0.6,1.4-1.4,1.4c-0.7,0-1.4-0.6-1.4-1.4V321H22.8
					c3.8,0.8,6.6,4.2,6.6,8.2c0,3.2-1.8,6-4.5,7.4c-0.8,0.5-1.7,0.8-2.7,0.9v28.3c0,1.6,0.2,3.1,0.5,4.6c4,4.3,9.9,6.9,16.5,6.9H128
					c6.6,0,12.5-2.7,16.5-6.9c0.3-1.5,0.5-3,0.5-4.6V321H119.9z"/>
				<linearGradient id="XMLID_27_" gradientUnits="userSpaceOnUse" x1="134.9791" y1="320.9542" x2="134.9791" y2="71.7206">
					<stop  offset="0" style="stop-color:#FFFFFF"/>
					<stop  offset="0.875" style="stop-color:#FFFFFF;stop-opacity:0.125"/>
					<stop  offset="1" style="stop-color:#FFFFFF;stop-opacity:0"/>
				</linearGradient>
				<path id="XMLID_608_" class="st20" d="M141,321c4.2-19.6,16.2-173.1,10.8-249.2h-6.9v204.4c0,15.5-10,28.8-23.8,33.9
					c-1.3,4.1-2.7,7.7-4.3,11H141z"/>
				<linearGradient id="XMLID_28_" gradientUnits="userSpaceOnUse" x1="27.0562" y1="320.9542" x2="27.0562" y2="71.7206">
					<stop  offset="0" style="stop-color:#006F9B"/>
					<stop  offset="1" style="stop-color:#006F9B;stop-opacity:0"/>
				</linearGradient>
				<path id="XMLID_607_" class="st21" d="M46.2,321c-2.8-3.1-5.2-6.9-7.4-11.3C25.5,304.3,16,291.3,16,276.1V71.7h-5.4
					C1.2,193.2,19.1,313.9,24.7,321H46.2z"/>
				<polygon id="XMLID_585_" class="st9" points="102.4,312.1 103.6,312.1 102.4,311 				"/>
				<linearGradient id="XMLID_29_" gradientUnits="userSpaceOnUse" x1="70.5936" y1="381.5441" x2="135.6913" y2="381.5441">
					<stop  offset="0" style="stop-color:#FFFFFF;stop-opacity:0"/>
					<stop  offset="0.125" style="stop-color:#FFFFFF;stop-opacity:0.125"/>
					<stop  offset="1" style="stop-color:#FFFFFF"/>
				</linearGradient>
				<path id="XMLID_584_" class="st22" d="M70.6,386.2h53.9c4.1,0,8-1.2,11.2-3.4c-0.9-1.7-2-3.7-3.1-5.9c-1.5,0.3-3.1,0.5-4.8,0.5
					H81C77.8,380.5,74.3,383.5,70.6,386.2z"/>
				<linearGradient id="XMLID_30_" gradientUnits="userSpaceOnUse" x1="22.6239" y1="378.3151" x2="51.6965" y2="378.3151">
					<stop  offset="0" style="stop-color:#97B2B0"/>
					<stop  offset="1" style="stop-color:#689490"/>
				</linearGradient>
				<path id="XMLID_580_" class="st23" d="M39.2,377.4c-6.6,0-12.5-2.7-16.5-6.9c2.1,9,10.2,15.7,19.8,15.7h7.6
					c0.3-3.1,0.9-6,1.6-8.8H39.2z"/>
				<linearGradient id="XMLID_31_" gradientUnits="userSpaceOnUse" x1="128.3638" y1="377.3819" x2="128.3638" y2="320.9542">
					<stop  offset="0" style="stop-color:#FFFFFF"/>
					<stop  offset="0.1466" style="stop-color:#FFFFFF;stop-opacity:0.8534"/>
					<stop  offset="1" style="stop-color:#FFFFFF;stop-opacity:0"/>
				</linearGradient>
				<path id="XMLID_579_" class="st24" d="M128.5,321v39.6c0,4-1.1,7.9-3.3,11.3c-1.3,2-3.1,3.9-5.6,5.5h8.4c0.7,0,1.4,0,2.1-0.1
					c3.2-1.8,4.6-4.3,5-6.8c0.5-3.8,1.6-33.4,2.2-49.5H128.5z"/>
				<linearGradient id="XMLID_32_" gradientUnits="userSpaceOnUse" x1="48.7649" y1="364.709" x2="48.7649" y2="344.1827">
					<stop  offset="0" style="stop-color:#9AAFB2;stop-opacity:0"/>
					<stop  offset="1" style="stop-color:#9AAFB2"/>
				</linearGradient>
				<path id="XMLID_578_" class="st25" d="M47.4,344.2v19.2c0,0.7,0.6,1.4,1.4,1.4c0.7,0,1.4-0.6,1.4-1.4v-13.9
					C49,347.8,48.1,346,47.4,344.2z"/>
				<g id="XMLID_537_">
					<linearGradient id="XMLID_33_" gradientUnits="userSpaceOnUse" x1="101.0906" y1="327.3086" x2="101.0906" y2="320.9542">
						<stop  offset="0" style="stop-color:#9AACAF;stop-opacity:0"/>
						<stop  offset="1" style="stop-color:#9AACAF"/>
					</linearGradient>
					<path id="XMLID_574_" class="st26" d="M85,327.3c10.4-1,21.4-1.6,32.2-1.3v-5H85V327.3z"/>
					<linearGradient id="XMLID_34_" gradientUnits="userSpaceOnUse" x1="122.0944" y1="326.2901" x2="122.0944" y2="320.9542">
						<stop  offset="0" style="stop-color:#9AACAF;stop-opacity:0"/>
						<stop  offset="1" style="stop-color:#9AACAF"/>
					</linearGradient>
					<path id="XMLID_573_" class="st27" d="M119.9,321v5.1c1.5,0.1,3,0.1,4.4,0.2c0-2.4-0.1-4.1,0-5.3H119.9z"/>
					<linearGradient id="XMLID_35_" gradientUnits="userSpaceOnUse" x1="41.9709" y1="377.3819" x2="41.9709" y2="320.9542">
						<stop  offset="0" style="stop-color:#9AACAF;stop-opacity:0"/>
						<stop  offset="1" style="stop-color:#9AACAF"/>
					</linearGradient>
					<path id="XMLID_572_" class="st28" d="M50.1,359.9v3.5c0,0.7-0.6,1.4-1.4,1.4c-0.7,0-1.4-0.6-1.4-1.4v-11.2
						c-1.8-6-3.3-12.3-4.4-18.4c1.2-0.3,2.7-0.6,4.4-0.9v-12H34.9H22.8c3.8,0.8,6.6,4.2,6.6,8.2c0,3.2-1.8,6-4.5,7.4
						c-0.8,0.5-1.7,0.8-2.7,0.9v28.3c0,1.6,0.2,3.1,0.5,4.6c4,4.3,9.9,6.9,16.5,6.9h22.4C56.9,373.5,53.1,367.3,50.1,359.9z"/>
					<linearGradient id="XMLID_36_" gradientUnits="userSpaceOnUse" x1="66.2068" y1="332.4172" x2="66.2068" y2="320.9542">
						<stop  offset="0" style="stop-color:#9AACAF;stop-opacity:0"/>
						<stop  offset="1" style="stop-color:#9AACAF"/>
					</linearGradient>
					<path id="XMLID_568_" class="st29" d="M50.1,332.4c8-1.5,19.4-3.5,32.2-4.8V321H50.1V332.4z"/>
				</g>
				<linearGradient id="XMLID_37_" gradientUnits="userSpaceOnUse" x1="48.7649" y1="329.1729" x2="48.7649" y2="320.9542">
					<stop  offset="0" style="stop-color:#9AAFB2"/>
					<stop  offset="1" style="stop-color:#9AAFB2;stop-opacity:0"/>
				</linearGradient>
				<path id="XMLID_536_" class="st30" d="M47.4,329.2c0.9-0.6,1.9-0.8,2.7-0.9V321h-2.7V329.2z"/>
				<linearGradient id="XMLID_38_" gradientUnits="userSpaceOnUse" x1="36.8181" y1="412.0002" x2="52.0955" y2="412.0002">
					<stop  offset="0" style="stop-color:#9AACAF;stop-opacity:0"/>
					<stop  offset="1" style="stop-color:#9AACAF"/>
				</linearGradient>
				<path id="XMLID_535_" class="st31" d="M42.5,386.2c-2,0-3.8-0.3-5.6-0.8v41.8c0,6.3,5.1,11.4,11.4,11.4h3.9
					c-4-2.7-6.8-7.9-6.8-12.8v-39.7H42.5z"/>
				<linearGradient id="XMLID_39_" gradientUnits="userSpaceOnUse" x1="56.4277" y1="412.3991" x2="75.0665" y2="412.3991">
					<stop  offset="0" style="stop-color:#9AAFB2;stop-opacity:0"/>
					<stop  offset="1" style="stop-color:#9AAFB2"/>
				</linearGradient>
				<path id="XMLID_534_" class="st32" d="M61.5,386.2h-2.5h-2.6v4l6.1,37c0,6.3,3.1,11.4,6.9,11.4h5.6
					c-7.2-12.7-10.2-41.2-11.1-52.4H61.5z"/>
				<linearGradient id="XMLID_40_" gradientUnits="userSpaceOnUse" x1="103.422" y1="438.612" x2="103.422" y2="386.1862">
					<stop  offset="0" style="stop-color:#FFFFFF"/>
					<stop  offset="1" style="stop-color:#FFFFFF;stop-opacity:0"/>
				</linearGradient>
				<path id="XMLID_533_" class="st33" d="M109,386.2h-5.4c0.4,29.6-5.6,44.8-10.8,52.4h8.2c3.8,0,6.9-5.1,6.9-11.4l6.1-37v-4h-2.6
					H109z"/>
				<linearGradient id="XMLID_41_" gradientUnits="userSpaceOnUse" x1="119.7527" y1="440.8541" x2="119.7527" y2="438.612">
					<stop  offset="0" style="stop-color:#DB8C00;stop-opacity:0"/>
					<stop  offset="1" style="stop-color:#DB8C00"/>
				</linearGradient>
				<path id="XMLID_532_" class="st34" d="M118.7,440.9c1.6-0.5,2.8-1.3,3.3-2.2h-4.5C117.9,439.3,118.3,440.1,118.7,440.9z"/>
				<linearGradient id="XMLID_42_" gradientUnits="userSpaceOnUse" x1="58.2298" y1="440.8541" x2="58.2298" y2="438.612">
					<stop  offset="0" style="stop-color:#DB8C00;stop-opacity:0"/>
					<stop  offset="1" style="stop-color:#DB8C00"/>
				</linearGradient>
				<path id="XMLID_531_" class="st35" d="M57.2,440.9c1.6-0.5,2.8-1.3,3.3-2.2H56C56.4,439.3,56.8,440.1,57.2,440.9z"/>
				<linearGradient id="XMLID_43_" gradientUnits="userSpaceOnUse" x1="15.9314" y1="329.1506" x2="29.4811" y2="329.1506">
					<stop  offset="0" style="stop-color:#9AACAF"/>
					<stop  offset="1" style="stop-color:#9AACAF;stop-opacity:0"/>
				</linearGradient>
				<path id="XMLID_511_" class="st36" d="M21.1,320.8c-1.9,0-3.7,0.7-5.2,1.8c0.6,0.7,1.1,1.3,1.7,2.1c1-0.7,2.2-1.2,3.5-1.2
					c3.2,0,5.7,2.6,5.7,5.7c0,3-2.3,5.4-5.2,5.7c0.1,0.9,0.1,1.8,0,2.7c4.4-0.3,7.9-3.9,7.9-8.4C29.5,324.5,25.7,320.8,21.1,320.8z"
					/>
			</g>
		</g>
		<path id="XMLID_205_" class="st2" d="M16.3,371.2l-8.9-4c-1.1-0.5-1.7-1.9-1.1-3h0l13.1,5.8l0,0C18.8,371.2,17.5,371.7,16.3,371.2
			z"/>
		<path id="XMLID_590_" class="st3" d="M22.6,376.5c-0.4,0-0.7-0.1-1.1-0.2l-8.9-4c-0.7-0.3-1.2-0.8-1.4-1.5c-0.3-0.7-0.2-1.4,0.1-2
			l0.7,0.3c-0.2,0.5-0.2,1,0,1.4c0.2,0.5,0.5,0.8,1,1l8.9,4c0.9,0.4,2.1,0,2.5-0.9l0.7,0.3c-0.3,0.7-0.8,1.2-1.5,1.4
			C23.3,376.4,22.9,376.5,22.6,376.5z"/>
	</g>
	<g id="XMLID_198_">
		<path id="XMLID_523_" class="st37" d="M83,162.2c-5.1-0.6-10.2,2.7-14.7,8.8c-2.1,2.8-4,6.3-5.6,10.2c2.2-4.4,4.6-7.9,7.2-10.2
			c2.6-2.3,5.3-3.4,8-3c1.9,0.3,3.7,1.3,5.3,3h10.3C90.8,165.9,87.3,162.7,83,162.2z"/>
		<path id="XMLID_522_" class="st37" d="M77.6,155.1c-0.2,0-0.5-0.1-0.7-0.1c-14.5-1.9-29.2,17.3-33.4,43.3l11,12.3
			c0.2-2.6,0.4-5.3,0.8-8c3.6-24.9,15.8-43.8,27.4-42.2c3.5,0.5,6.6,2.8,9,6.6C88.3,160.5,83.4,156.2,77.6,155.1z"/>
		<path id="XMLID_520_" class="st37" d="M65.9,254L65.9,254c-0.7,0-1.5,0-2.2-0.1c-14.9-1.9-24.1-25.5-20.6-52.7c0-0.1,0-0.2,0-0.3
			l0,0c0,0,0,0,0,0L30.4,214c0,0,0,0,0,0l-8.7,9H31c0.7,5.3,1.8,10.2,3.5,14.6c3.4,8.5,8.7,14.5,15.7,16c3,0.6,8.4,0.8,12.8,0.6h0
			l0.1,0c0.1,0,0.1,0,0.2,0c0,0,0,0,0,0L65.9,254z"/>
		<path id="XMLID_521_" class="st37" d="M76.2,154.9c-0.3,0-1.1-0.1-1.1-0.1c-3.6-0.4-8.2-0.3-12,0c-1.8,0.2-3.5,0.4-4.8,0.7
			c-4.9,1.1-9.2,4.3-13,8.9c-6.5,8.7-11.5,20.5-13.8,33.9c-0.5,3.1-0.9,6.1-1.1,9.1c-0.1,1-0.1,2.7-0.2,3.6l13.1-12.6l0-0.1
			c4.2-26,18.8-45.2,33.4-43.3c0.2,0,0.5,0.1,0.7,0.1l0,0C77.6,155.1,77,155,76.2,154.9z"/>
		<path id="XMLID_517_" class="st37" d="M132.1,190c0-5.9-1.9-10.5-5.6-13.9c-0.2-0.2-0.4-0.4-0.7-0.6c-3.7-3-9.3-4.6-16.6-4.6H93.8
			H83.1L71,236.4c-1.8,5.4-4.6,6.5-7,5.9c-1.7-0.4-3.2-2.2-4.5-5.1c2.5,6.8,6.2,11.2,10.8,11.8c5.6,0.8,11.2-4.2,15.8-12.7h0
			c0,0,0-0.1,0-0.1c2.5-5.9,6-24.8,6-24.8l8.3,0l0.3,0.9h0l9.9,24h1.8l14.7,0l-11.4-25.5C124.8,207.6,132.1,199.3,132.1,190z
			 M102.5,197.9c-0.1,0-0.2,0-0.3,0H97h-0.5H95l2.5-12.9h2.5h4.4c3.1,0,5.4,0.6,6.9,1.7l0.6,0.6c0.7,0.9,1.1,2,1.1,3.4
			C112.9,195.4,109.4,197.8,102.5,197.9z"/>
		<path id="XMLID_516_" class="st37" d="M72.6,250.6c-0.3,0.1-0.6,0.1-0.9,0.1c-0.6,0-1.2,0-1.8-0.1c-8.2-1.1-13.9-12.3-15.2-27.6
			h8.4l-9.9-11l-10.1-11.2c0,0,0,0,0,0.1c-3.6,27.3,5.6,51,20.6,52.9c0.7,0.1,1.5,0.1,2.2,0.1c3,0,6-1.1,8.9-2.6
			c2.1-1.1,4.1-2.6,5.9-4.6c0.1-0.1,0.2-0.2,0.2-0.3c1.9-2.3,3.6-5.2,4.9-8.7C82.7,244.8,78.2,249.5,72.6,250.6z"/>
		<g id="XMLID_512_">
			<path id="XMLID_515_" class="st37" d="M133.5,191.4c0-5-1.4-9.2-4.2-12.4c2.3,3.1,3.4,6.9,3.4,11.4c0,9.4-7.4,17.7-16.6,21
				l11.4,25.5l-14.7,0h-1.5l0.4,1h1.8l14.7,0L117,212.4C126.2,209.1,133.5,200.8,133.5,191.4z"/>
			<path id="XMLID_514_" class="st37" d="M100.9,212l-8.3,0c0,0-3.5,18.5-5.9,24.6c-0.2,0.5-0.4,1-0.6,1.5c-1.6,4-4.9,9.4-9.2,12.3
				c2.5-1.5,4.5-3.6,6.2-5.7c2.1-2.7,3.6-5.7,4.6-8c0,0,0,0,0,0v0c2.4-6.8,5.6-23.8,5.6-23.8l7.8,0l0,0h0L100.9,212z"/>
			<path id="XMLID_513_" class="st37" d="M111.5,187c0,0,0.1,0,0.1,0c-1.5-1.1-3.7-1.6-6.8-1.6h-4.3H98l-2.5,12.8h0.9h0.3l2.3-11.9
				l2.7,0h4.3c2.4,0,4.3,0.3,5.7,1C111.7,187.3,111.6,187.1,111.5,187z"/>
		</g>
	</g>
</g>
</svg>
