<?xml version="1.0" encoding="utf-8"?>
<!-- Generator: Adobe Illustrator 19.0.0, SVG Export Plug-In . SVG Version: 6.00 Build 0)  -->
<svg version="1.1" id="Capa_1" xmlns="http://www.w3.org/2000/svg" xmlns:xlink="http://www.w3.org/1999/xlink" x="0px" y="0px"
	 viewBox="-177 269 256 256" style="enable-background:new -177 269 256 256;" xml:space="preserve">
<style type="text/css">
	.st0{fill:#067ABE;}
</style>
<g id="Search">
	<path class="st0" d="M72.7,488.5l-55.6-55.6c-0.3-0.3-0.6-0.5-1-0.8c10.9-16.6,17.3-36.5,17.3-57.8C33.5,316.1-13.6,269-71.8,269
		S-177,316.1-177,374.2c0,58.1,47.1,105.2,105.2,105.2c21.4,0,41.2-6.4,57.8-17.3c0.3,0.3,0.5,0.7,0.8,1l55.6,55.6
		c8.4,8.4,21.9,8.4,30.3,0C81.1,510.4,81.1,496.8,72.7,488.5z M-71.8,443c-38,0-68.8-30.8-68.8-68.8c0-38,30.8-68.8,68.8-68.8
		c38,0,68.8,30.8,68.8,68.8S-33.8,443-71.8,443z"/>
</g>
</svg>
