<?xml version="1.0" encoding="utf-8"?>
<!-- Generator: Adobe Illustrator 19.0.0, SVG Export Plug-In . SVG Version: 6.00 Build 0)  -->
<svg version="1.1" id="Capa_1" xmlns="http://www.w3.org/2000/svg" xmlns:xlink="http://www.w3.org/1999/xlink" x="0px" y="0px"
	 viewBox="-177 269 256 307" style="enable-background:new -177 269 256 307;" xml:space="preserve">
<style type="text/css">
	.st0{fill:#067ABE;}
</style>
<path class="st0" d="M79,395.3C78,324.6,20,268.1-50.7,269c-70.7,0.9-127.2,59-126.3,129.7c0.6,41.8,21.1,78.7,52.5,101.6L-136,576
	l65-52.9c7.7,1.3,15.6,2,23.8,1.9C23.4,524,79.9,466,79,395.3z M-51.1,474.9l-0.7,0c-10.9-0.3-18.6-8.3-18.3-19.1
	c0.3-10.5,8.2-18.2,18.7-18.2l0.6,0c11.2,0.3,18.8,8.3,18.5,19.3C-32.6,467.5-40.3,474.9-51.1,474.9z M-5.3,384
	c-2.6,3.6-8.2,8.2-15.3,13.7l-7.8,5.4c-4.3,3.3-6.9,6.5-7.8,9.6c-0.8,2.4-1.1,3.1-1.2,8l0,1.3h-29.8l0.1-2.5
	c0.4-10.4,0.6-16.5,4.9-21.5c6.7-7.9,21.6-17.5,22.3-17.9c2.1-1.6,3.9-3.4,5.3-5.4c3.1-4.3,4.5-7.7,4.5-11.1c0-4.6-1.4-8.9-4.1-12.7
	c-2.6-3.7-7.6-5.5-14.8-5.5c-7.1,0-12,2.3-14.9,6.9c-3,4.8-4.5,9.8-4.5,14.9v1.3h-30.8l0.1-1.3c0.8-18.8,7.5-32.4,20-40.3
	c7.8-5,17.6-7.6,28.9-7.6c14.9,0,27.4,3.6,37.3,10.7c10,7.2,15.1,18,15.1,32.2C2.1,369.9-0.4,377.3-5.3,384z"/>
</svg>
