<?xml version="1.0" encoding="utf-8"?>
<!-- Generator: Adobe Illustrator 19.0.0, SVG Export Plug-In . SVG Version: 6.00 Build 0)  -->
<svg version="1.1" id="Layer_1" xmlns="http://www.w3.org/2000/svg" xmlns:xlink="http://www.w3.org/1999/xlink" x="0px" y="0px"
	 viewBox="0 0 94.7 94.1" style="enable-background:new 0 0 94.7 94.1;" xml:space="preserve">
<style type="text/css">
	.st0{fill:#FFFFFF;}
</style>
<g id="XMLID_2096_">
	<path id="XMLID_4785_" class="st0" d="M48.4,0c0.2,0,0.3,0.1,0.5,0.1c1.5,0.1,2.9,0.1,4.4,0.2c2.7,0.3,5.3,0.8,7.9,1.6
		c3,0.9,5.8,2.1,8.5,3.5c2.3,1.2,4.5,2.7,6.5,4.4c1.1,0.9,2.1,1.8,3.1,2.7c2.1,1.9,3.9,4,5.6,6.2c1.7,2.2,3.2,4.6,4.5,7.1
		c1.9,3.5,3.3,7.2,4.2,11.1c0.3,1.5,0.5,3,0.6,4.6c0.1,0.7,0.1,1.3,0.1,2c0,0.1,0.1,0.2,0.1,0.4c-4.8,0-9.5,0-14.3,0
		C80,42.9,79.9,42,79.8,41c-0.2-1.7-0.6-3.4-1.2-5c-1.1-3.3-2.8-6.4-5-9.1c-1.3-1.6-2.7-3.1-4.2-4.5c-2-1.9-4.2-3.4-6.6-4.7
		c-1.9-1-3.8-1.9-5.8-2.5c-1.8-0.6-3.7-1.1-5.7-1.2c-1.3-0.1-2.6-0.2-3.9-0.2c-3.1,0.1-6.1,0.6-9,1.4c-2.2,0.6-4.3,1.5-6.3,2.5
		c-1.9,1-3.7,2.1-5.3,3.5c-1.3,1.1-2.6,2.3-3.8,3.5c-1.8,1.9-3.3,4.1-4.6,6.4c-1.5,2.7-2.6,5.5-3.4,8.4c-0.3,1.3-0.5,2.6-0.7,3.9
		c0,0.1-0.2,0.2-0.3,0.3c0,0-0.1,0-0.1,0c-4.5,0-8.9,0-13.4,0c-0.1,0-0.2,0-0.4,0c0.1-0.6,0.1-1.2,0.2-1.9c0.6-3.3,1.4-6.5,2.6-9.6
		c0.7-1.9,1.6-3.9,2.4-5.8c1.1-2.5,2.5-4.9,4.1-7.1c1.1-1.6,2.3-3.1,3.6-4.5c1-1.1,2-2.2,3.2-3.3c2.1-1.9,4.4-3.6,6.8-5.1
		c2.7-1.6,5.5-3,8.5-3.9C33.5,2,35.7,1.5,37.9,1c1.5-0.3,3.1-0.5,4.6-0.7c1.6-0.1,3.1-0.1,4.7-0.2c0.2,0,0.3-0.1,0.5-0.1
		C47.9,0,48.1,0,48.4,0z M30.7,11.7c0,0,0.2-0.1,0.2-0.2c0.3-0.4,0.6-0.9,0.5-1.5C31,9,30.1,8.3,28.9,8.9c-0.8,0.4-1.7,0.9-2.5,1.3
		c-0.3,0.2-0.3,0.3-0.1,0.6c0.7,1.4,1.5,2.8,2.2,4.2c0.2,0.3,0.4,0.6,0.5,0.9c0.2-0.2,0.5-0.3,0.7-0.4c-0.4-0.8-0.8-1.6-1.3-2.4
		c0.3-0.2,0.5-0.3,0.8-0.4c0.5-0.3,1-0.3,1.5,0c0.5,0.3,1.1,0.5,1.6,0.8c0.6,0.3,0.9,0.3,1.4-0.3C32.7,12.7,31.7,12.2,30.7,11.7z
		 M83.1,24.8c-1.9,1-3.7,1.9-5.6,2.8c0.5,0.9,0.9,1.8,1.5,2.7c0.3,0.5,0.8,0.8,1.3,0.9c1.3,0.3,3-0.5,3.8-1.6c0.3-0.5,0.6-1,0.4-1.5
		C84.1,26.9,83.6,25.9,83.1,24.8z M76.6,19.9c-0.9-0.8-1.7-1.6-2.5-2.4c0.5-0.5,0.9-0.9,1.3-1.3c0.1-0.1,0.1-0.2,0.2-0.2
		c0.7,0.9,1.5,1.8,2.3,2.8c0.3-0.3,0.5-0.5,0.6-0.6c-0.1,0.1-0.1,0.1-0.2,0.2c-1-1.1-1.9-2.2-2.9-3.3c-0.2,0.2-0.3,0.3-0.4,0.4
		c-1,1.1-2.1,2.1-3.1,3.2c-0.2,0.2-0.4,0.4-0.6,0.6c-0.1,0.1-0.1,0.4,0,0.4c1,1,2.1,2,3.1,3.1c0.2-0.2,0.4-0.4,0.4-0.4
		c-0.9-1-1.7-1.9-2.6-2.8c0.5-0.4,0.9-0.9,1.4-1.4c0.8,0.8,1.6,1.6,2.4,2.3C76.2,20.2,76.4,20.1,76.6,19.9z M23.7,18.9
		c0-0.1-0.1-0.1-0.1-0.2c-0.8,0.9-1.6,1.9-2.4,2.8c-0.6-0.6-1.1-1.1-1.5-1.5c0.7-0.8,1.5-1.7,2.2-2.5c-0.1-0.1-0.2-0.2-0.4-0.4
		c-0.8,0.8-1.7,1.6-2.5,2.3c-0.4-0.4-0.8-0.9-1.1-1.2c0.8-0.9,1.6-1.8,2.3-2.7c-0.1-0.1-0.3-0.3-0.4-0.5c-1.1,1-2.2,2.1-3.2,3.1
		c1.4,1.5,2.9,3,4.3,4.4c1.1-1.1,2.2-2.1,3.3-3.2C24,19.1,23.9,19,23.7,18.9z M15.3,27.1c0.1,0.1,0.2,0.2,0.3,0.3
		c0.5,0.5,0.6,1.1,0.3,1.8c-0.3,0.7-0.8,1.2-1.6,1.2c-0.9,0-1.7-0.4-2.4-1c-0.6-0.5-0.8-1.3-0.5-2.1c0.3-0.6,0.7-1.3,1.7-1.1
		c0.1,0,0.2,0,0.3,0c0.1-0.3,0.1-0.5,0.2-0.7c-0.6-0.3-1.7,0-2.2,0.6c-1.1,1.3-1.2,3.3,0.4,4.3c0.9,0.6,1.9,0.9,3,0.8
		c1-0.1,2.1-1.5,2.1-2.5c0-0.9-0.2-1.7-1-2.3C15.6,26.7,15.5,26.8,15.3,27.1z M61.6,7.7c0-0.4,0.3-0.7-0.1-0.8
		c-1.2-0.4-2.4-0.7-3.7-1.1c-0.1,0.1-0.1,0.3-0.1,0.4c-0.5,1.6-1,3.3-1.5,4.9c-0.2,0.6-0.1,0.8,0.7,0.7c0.3-0.8,0.5-1.7,0.8-2.6
		c0.9,0.3,1.8,0.5,2.7,0.8c0.3-0.7,0.3-0.7-0.3-0.9c-0.7-0.2-1.4-0.4-2.2-0.7c0.2-0.6,0.3-1.1,0.5-1.8C59.4,7,60.4,7.4,61.6,7.7z
		 M41.2,11.3c0-0.3-0.1-0.6-0.1-1c-0.2-1.3-0.4-2.7-0.6-4c-0.1-0.4,0.1-0.4,0.4-0.5c0.5-0.1,1-0.1,1.6-0.2c0-0.3-0.1-0.5-0.1-0.8
		c-1.7,0.3-3.2,0.5-4.8,0.8c0.1,0.3,0.1,0.5,0.2,0.7c0.7-0.1,1.3-0.2,2-0.3c0.3,1.8,0.6,3.6,0.9,5.4C40.7,11.4,40.9,11.4,41.2,11.3z
		 M48.9,10.8c0.3,0,0.6,0,0.8,0c0.1-2.1,0.3-4.1,0.4-6.1c-0.3,0-0.6,0-0.8,0C49.2,6.7,49.1,8.8,48.9,10.8z M66,15.8
		c1-1.8,2-3.5,3.1-5.3c-0.3-0.1-0.5-0.2-0.7-0.4c-0.1,0.2-0.3,0.4-0.4,0.6c-0.8,1.3-1.5,2.7-2.3,4C65.2,15.5,65.2,15.5,66,15.8z"/>
	<path id="XMLID_4767_" class="st0" d="M0.2,50.3c3.4,0,6.9,0,10.4,0c1.2,0,2.3,0,3.5,0c0.4,0,0.5,0.1,0.5,0.5
		c0.1,3.4,1,6.6,2.3,9.7c1.1,2.6,2.6,5,4.4,7.2c1.1,1.3,2.3,2.7,3.6,3.9c2.2,2,4.6,3.7,7.2,5.1c2.3,1.2,4.6,2.2,7.1,2.8
		c1.3,0.4,2.7,0.6,4.1,0.7c1.2,0.1,2.5,0.3,3.7,0.2c1.9-0.1,3.8-0.4,5.7-0.6c2.4-0.3,4.7-1,6.8-2c1.7-0.8,3.4-1.7,5.1-2.6
		c2.8-1.6,5.2-3.8,7.3-6.2c1.6-1.7,2.9-3.6,4.1-5.6c1.4-2.4,2.5-4.8,3.2-7.5c0.4-1.6,0.7-3.3,1.1-5c0-0.2,0.1-0.4,0.1-0.6
		c0.2,0,0.3,0,0.5,0c4.4,0,8.7,0,13.1,0c0.6,0,0.6,0,0.5,0.7c-0.4,1.9-0.7,3.8-1.2,5.7c-0.7,3-1.7,5.9-3,8.8
		c-1.4,3.3-3.1,6.5-5.2,9.4c-1,1.4-2.1,2.7-3.2,4.1c-0.8,0.9-1.6,1.8-2.4,2.6c-2.5,2.4-5.2,4.5-8.2,6.2c-2.9,1.7-5.9,3-9.1,4
		c-2.2,0.7-4.5,1.3-6.8,1.6c-1.8,0.2-3.6,0.4-5.4,0.6C49.1,94,48.2,94,47.4,94c-1.1,0-2.2,0.1-3.3,0c-1.3-0.1-2.6-0.2-3.9-0.4
		c-2.2-0.2-4.4-0.7-6.5-1.3c-2.9-0.8-5.7-2-8.3-3.4c-2.3-1.3-4.6-2.7-6.7-4.4c-2-1.6-3.9-3.2-5.5-5.1c-1.6-1.7-3-3.6-4.4-5.5
		c-1.8-2.4-3.3-5-4.5-7.8c-1.5-3.2-2.6-6.5-3.3-9.9c-0.3-1.7-0.5-3.3-0.5-5C0.3,51,0.2,50.7,0.2,50.3z M14.2,65.2
		c-1.5,0.6-3,1.1-4.6,1.7c0.1,0.3,0.2,0.5,0.3,0.8c1.9-0.7,3.9-1.4,5.8-2.1c-0.1-0.3-0.1-0.5-0.3-0.8c-0.1-0.1-0.3-0.3-0.4-0.3
		c-1.2,0-2.4,0-3.5,0.1c-0.5,0-1,0-1.7,0c1.1-0.8,2-1.7,3-2.4c1.3-1,1.3-0.9,0.8-2.1c0,0,0,0,0,0c-1.8,0.7-3.7,1.3-5.5,2
		c-0.1,0-0.2,0.3-0.2,0.4c0,0.2,0.1,0.3,0.2,0.5c1.6-0.6,3.1-1.1,4.7-1.7c-0.2,0.2-0.2,0.2-0.3,0.3c-1.1,0.9-2.3,1.8-3.4,2.7
		C9,64.4,8.8,64.5,9,64.8c0.1,0.4,0.4,0.3,0.6,0.3C11.1,65.2,12.7,65.2,14.2,65.2z M80.3,61.1c1.4,1.1,2.8,2.3,4.2,3.4
		c-0.9,0-1.9,0-2.8,0c-0.7,0-1.4-0.1-2.1-0.1c-0.2,0-0.4,0.1-0.5,0.3c-0.2,0.3-0.2,0.6-0.4,0.9c2,0.7,3.9,1.4,5.8,2.1
		c0.1-0.3,0.2-0.5,0.3-0.7c-1.5-0.6-3.1-1.1-4.5-1.6c1.5,0,3.1,0,4.7,0c0.3,0,0.5-0.1,0.6-0.4c0.1-0.3,0-0.5-0.2-0.6
		c-0.6-0.5-1.2-1-1.8-1.4c-0.6-0.5-1.2-1-1.8-1.5c0,0,0,0,0-0.1c1.5,0.5,3,1.1,4.5,1.6c0.1-0.3,0.2-0.5,0.3-0.8
		c-1.9-0.7-3.8-1.4-5.7-2.1c-0.1,0.1-0.1,0.1-0.1,0.2C80.5,60.5,80.4,60.8,80.3,61.1z M34.5,82.5c-0.5,2-1.1,3.9-1.6,5.9
		c0.3,0.1,0.5,0.1,0.8,0.2c0.4-1.6,0.8-3.1,1.3-4.7c0.2,1.5,0.3,3,0.4,4.6c0,0.3,0,0.6,0.4,0.7c0.4,0.1,0.5-0.1,0.7-0.4
		c0.8-1.2,1.7-2.5,2.6-3.8c0,0.2,0,0.3,0,0.3c-0.4,1.3-0.7,2.7-1.1,4c-0.1,0.3,0,0.4,0.3,0.5c0.5,0.2,0.5-0.2,0.6-0.4
		c0.3-1.1,0.6-2.2,0.9-3.2c0.2-0.7,0.4-1.4,0.6-2.2c-1.1-0.3-1.1-0.3-1.6,0.5c0,0,0,0,0,0c-0.8,1.2-1.6,2.4-2.5,3.7
		c-0.1-1.6-0.2-3.1-0.3-4.6c0-0.9,0-0.9-1-1.1C34.7,82.6,34.6,82.6,34.5,82.5z M17.6,71.5C17.6,71.5,17.7,71.6,17.6,71.5
		c-0.4,1.6-0.9,3.2-1.5,4.8c-0.2,0.6-0.1,0.9,0.4,1.3c1.4-1.1,2.8-2.2,4.2-3.3c0.7-0.5,0.7-0.5,0.1-1.1c-1.2,0.9-2.4,1.9-3.6,2.8
		c0.4-1.6,1-3.2,1.5-4.8c0.2-0.7,0.2-0.7-0.4-1.2c-1.6,1.2-3.2,2.5-4.8,3.7c0.2,0.2,0.4,0.4,0.5,0.6C15.2,73.4,16.4,72.5,17.6,71.5z
		 M46.1,86.2c1.1,1.5,2.1,2.8,3,4.2c0.3,0.5,0.6,0.6,1.2,0.3c-0.1-2-0.1-4-0.2-6c-0.3,0-0.5,0-0.8,0c0.1,1.5,0.1,3.1,0.2,4.6
		c-1.1-1.3-2.1-2.7-3.1-4.1c-0.3-0.5-0.7-0.5-1.2-0.4c0.1,2.1,0.1,4.1,0.2,6.1c0.3,0,0.6,0,0.8,0C46.3,89.3,46.2,87.8,46.1,86.2z
		 M26.9,83c-0.1,0.2-0.2,0.3-0.3,0.4c-0.3,0.5-0.6,0.6-1.2,0.4c-0.1,0-0.1,0-0.2,0c-1-0.2-2.2-1.4-1.8-2.7c0.1-0.4,0.4-0.8,0.6-1.1
		c1-1.4,2.8-1.3,3.7,0.1c0.1,0.2,0.3,0.6,0.2,0.8c-0.2,0.6,0.1,0.8,0.7,0.8c0-0.4,0.2-0.8,0.1-1.2c-0.2-1.1-1-1.8-2.1-2.1
		c-0.4-0.1-0.9-0.2-1.3-0.1c-1.2,0.1-1.9,0.9-2.4,1.9c-0.3,0.6-0.5,1.2-0.3,1.9c0.3,1.4,1.6,2.4,3.1,2.7c0.4,0.1,0.9,0.1,1.1-0.1
		c0.5-0.5,0.8-1.2,1.2-1.7c-0.6-0.4-1.1-0.8-1.6-1.1c-0.6-0.4-0.6-0.4-1,0.2C25.9,82.3,26.4,82.6,26.9,83z M83.4,68.3
		c-0.1,0.1-0.1,0.1-0.1,0.1c-0.5,0.9-1,1.9-1.5,2.8c-0.1,0.2-0.2,0.4-0.5,0.2c-0.5-0.3-1-0.6-1.5-0.9c0.5-0.9,0.9-1.8,1.4-2.6
		c0.1-0.2,0.3-0.4,0-0.5c-0.3-0.1-0.5-0.2-0.6,0.2c-0.1,0.4-0.4,0.7-0.6,1.1c-0.3,0.5-0.6,1-0.9,1.5c-0.4-0.2-0.8-0.5-1.1-0.6
		c-0.4-0.2-0.4-0.4-0.2-0.7c0.5-0.9,1-1.8,1.5-2.7c-0.5-0.4-0.6-0.5-0.9,0c-0.6,1.1-1.3,2.3-1.9,3.5c1.8,1,3.6,2,5.4,3
		c0.8-1.4,1.5-2.7,2.2-4.1C83.8,68.5,83.6,68.4,83.4,68.3z M41.3,85c1.2,0.1,2.3,0.3,3.6,0.4c0-0.2,0.1-0.5,0.1-0.7
		c-1.5-0.2-3-0.4-4.4-0.5c0,0.3-0.1,0.6-0.1,0.9c-0.1,1-0.2,1.9-0.4,2.9c-0.1,0.7-0.1,1.3-0.2,2c0,0.3,0.1,0.5,0.4,0.5
		c0.7,0.1,1.5,0.2,2.2,0.3c0.6,0.1,1.2,0.1,1.8,0.2c0.1-0.2,0.1-0.3,0.1-0.4c0-0.1-0.1-0.3-0.3-0.3c-0.4-0.1-0.7-0.1-1.1-0.1
		c-0.8-0.1-1.5-0.2-2.4-0.3c0.1-0.7,0.2-1.3,0.3-2c1.1,0.1,2.2,0.3,3.4,0.4c0-0.3,0.1-0.5,0.1-0.7c-0.1,0-0.2-0.1-0.3-0.1
		c-0.9-0.1-1.8-0.2-2.7-0.3c-0.3,0-0.4-0.1-0.3-0.4C41.2,86.1,41.2,85.6,41.3,85z M30.4,81.5c1.1,0.6,2.2,1.1,3.2,1.6
		c0.1-0.3,0.2-0.5,0.3-0.7c-1.4-0.6-2.7-1.3-4-1.9c-0.9,1.9-1.8,3.7-2.7,5.5c1.4,0.7,2.8,1.4,4.1,2c0.4-0.6,0.4-0.7-0.1-0.9
		c-0.9-0.5-1.9-0.9-2.9-1.4c0.3-0.6,0.6-1.2,0.9-1.8c1,0.5,2,1,3,1.4c0.1-0.2,0.2-0.4,0.3-0.7c-1-0.5-2-1-3-1.5
		C29.9,82.5,30.2,82,30.4,81.5z M74.3,74.8c-0.4-0.1-0.8-0.3-1.1-0.4c-1.2-0.1-1.9,0.6-2.5,1.6c-0.7,1.1,0.1,2.6,1.5,2.4
		c0.3-0.1,0.6-0.2,0.9-0.3c0.6-0.3,1.1-0.6,1.7-0.9c0.6-0.3,1.2,0.1,1.2,0.9c-0.1,0.5-0.7,1.4-1.3,1.6c-0.3,0.1-0.8,0.2-1,0
		c-0.5-0.3-0.8-0.1-1,0.5c0.4,0.1,0.8,0.3,1.2,0.4c1.1,0.1,1.8-0.5,2.4-1.3c0.4-0.5,0.6-1.1,0.4-1.7c-0.2-0.9-1.2-1.7-2.4-1.1
		c-0.7,0.3-1.3,0.7-2,1c-0.2,0.1-0.5,0.1-0.8,0c-0.3-0.1-0.4-0.5-0.3-0.8c0.2-1.1,1.5-1.7,2.4-1.1c0.1-0.1,0.3-0.3,0.4-0.5
		C74.2,75,74.3,75,74.3,74.8z M65.7,81.7c0.8-0.4,0.8-0.6,0.1-1c-0.1,0-0.1-0.1-0.2-0.1c-0.8-0.4-2-0.2-2.8,0.5
		c-0.7,0.6-0.9,1.4-0.5,2.2c0.3,0.6,1,0.8,1.9,0.7c0.6-0.1,1.1-0.3,1.7-0.4c0.4-0.1,0.9-0.1,1,0.3c0.1,0.3,0.2,0.8,0,1.1
		c-0.4,0.6-1,0.9-1.7,0.9c-0.5,0-0.9-0.1-1.2-0.5c-0.1-0.1-0.2-0.1-0.3-0.1c-0.2,0.1-0.3,0.2-0.6,0.3c0.3,0.3,0.5,0.5,0.8,0.7
		c1.1,0.8,3.3-0.2,3.8-1.4c0.4-1.1-0.4-2.5-1.6-2.3c-0.8,0.1-1.6,0.3-2.4,0.4c-0.6,0.1-1-0.2-0.9-0.8c0.1-0.7,0.7-0.9,1.2-1.1
		C64.8,80.9,65.3,81.1,65.7,81.7z M17.2,68c-0.2-0.4-0.4-0.8-1-0.7c-1.6,0.3-3.3,0.5-4.9,0.7c-0.3,0-0.7,0.1-1,0.2
		c0.2,0.4,0.3,0.8,0.9,0.7c0.5-0.1,1-0.2,1.5-0.3c0.4,0.8,0.8,1.5,1.3,2.2c-0.4,0.5-0.8,1-1.3,1.5c0.1,0.3,0.3,0.5,0.5,0.8
		C14.5,71.5,15.8,69.7,17.2,68z M21.2,81.9c0-0.1,0.1-0.2,0.1-0.3c0.7-1.8,1.3-3.7,2-5.5c0.1-0.3,0.2-0.5-0.2-0.6
		c-0.1-0.1-0.3-0.2-0.4-0.4c-2,1-3.9,2-5.8,2.9c0.6,0.7,0.6,0.7,1.3,0.3c0.3-0.2,0.7-0.4,1-0.5c0.4,0.4,0.8,0.7,1.2,1.1
		c0.5,0.4,0.8,0.8,0.3,1.4c-0.1,0.1-0.1,0.3-0.1,0.4C20.4,81.4,20.4,81.4,21.2,81.9z M65.4,80.1c1.2,0.4,2.4,0.8,3.5,1.2
		c0.3,0.1,0.6,0.3,0.8,0.6c0.5,0.5,0.9,1.1,1.3,1.7c0.2-0.2,0.4-0.4,0.6-0.5c-0.3-0.5-0.6-0.9-1-1.3c-0.5-0.5-0.7-1.1-0.6-1.8
		c0-1.1-0.1-2.1-0.1-3.2c0,0,0,0-0.1-0.1c-0.9,0.5-0.8,0.5-0.7,1.4c0.1,0.8,0.1,1.6,0.1,2.4c-0.9-0.3-1.7-0.5-2.5-0.9
		C66.2,79.4,65.9,79.6,65.4,80.1z M76.1,69.9c-1,1.3-2,2.6-3,3.9c0.2,0.2,0.4,0.3,0.6,0.4c0.4-0.6,0.8-1.1,1.2-1.6
		c1.5,1.1,2.9,2.2,4.3,3.3c0.2-0.2,0.3-0.5,0.5-0.7c-1.5-1.1-2.9-2.2-4.3-3.2c0.4-0.6,0.8-1.1,1.2-1.6
		C76.5,70.2,76.3,70.1,76.1,69.9z M53.3,85c0.7-0.1,1.3-0.2,2-0.4c-0.1-0.2-0.1-0.5-0.2-0.7c-1.6,0.3-3.2,0.5-4.7,0.8
		c0,0.7,0.1,0.8,0.7,0.7c0.5-0.1,0.9-0.1,1.4-0.2c0.3,1.8,0.6,3.6,0.9,5.3c0.3-0.1,0.5-0.1,0.8-0.2c-0.1-0.9-0.3-1.7-0.4-2.6
		C53.5,86.8,53.4,85.9,53.3,85z"/>
	<path id="XMLID_4766_" class="st0" d="M76.9,36.6c0,0.7,0,1.3,0,2c-19.7,0-39.5,0-59.2,0c0-0.7,0-1.3,0-2
		C37.4,36.6,57.1,36.6,76.9,36.6z"/>
	<path id="XMLID_4765_" class="st0" d="M54.6,54.1c-0.8,0-1.6,0.1-2.4,0c-0.3,0-0.6-0.4-0.8-0.6c-0.6-0.7-1.2-1.4-1.8-2.1
		c-1.1-1.3-2.3-2.6-3.4-3.9c-0.3-0.3-0.6-0.6-1-1c0,2.6,0,5.2,0,7.7c-1.1,0-2,0-3.1,0c0-4.2,0-8.3,0-12.5c0.9,0,1.8-0.1,2.7,0
		c0.3,0,0.6,0.5,0.9,0.9c0.7,0.7,1.3,1.5,1.9,2.2c1.1,1.3,2.2,2.5,3.4,3.8c0.1,0.1,0.3,0.3,0.4,0.4c0,0,0.1,0,0.1-0.1
		c0-2.4,0-4.8,0-7.2c1.1,0,2.1,0,3.1,0C54.6,45.7,54.6,49.9,54.6,54.1z"/>
	<path id="XMLID_4764_" class="st0" d="M76.8,57.8c0,0.5,0,0.9,0,1.4c-19.7,0-39.3,0-59,0c0-0.5,0-0.9,0-1.4
		C37.4,57.8,57.1,57.8,76.8,57.8z"/>
	<path id="XMLID_4761_" class="st0" d="M65.5,51c0,0.5,0,0.9,0,1.3c0.1,0.5-0.2,0.7-0.5,0.9c-0.9,0.5-1.9,0.7-3,0.9
		c-1.2,0.2-2.3,0-3.4-0.4c-1.6-0.6-2.5-1.8-2.8-3.4c-0.3-1.7,0-3.2,1.1-4.6c0.7-0.9,1.8-1.4,2.9-1.5c1.1-0.1,2.1-0.1,3.2,0.4
		c1.5,0.7,2.3,2,2.6,3.6c0.1,0.5,0.1,0.9,0.1,1.5c-2.3,0-4.6,0-6.8,0c-0.1,1.2,0.7,2.3,1.9,2.6c1.5,0.3,2.9,0,4.1-0.8
		C65,51.3,65.2,51.2,65.5,51z M58.9,48c1.4,0,2.7,0,4.1,0c0-1-0.8-2.1-2.1-2.1C59.6,46,58.8,47.1,58.9,48z"/>
	<path id="XMLID_4760_" class="st0" d="M70,41.5c0,1,0,2,0,3c1.1,0,2.2,0,3.3,0c0,0.7,0,1.3,0,2c-1.1,0-2.1,0-3.2,0
		c0,0.2,0,0.3,0,0.4c0,1.2,0,2.4,0,3.6c0.1,1.1,0.5,1.7,1.5,1.6c0.4,0,0.7-0.1,1.1-0.2c0.2-0.1,0.4-0.1,0.6-0.3c0,0.7,0,1.3,0,2
		c0,0.1-0.1,0.2-0.2,0.2c-0.9,0.2-1.8,0.5-2.6,0.5c-1.9,0-3.1-0.9-3.3-3.1c-0.1-1.3-0.1-2.7-0.1-4c0-0.2,0-0.3,0-0.6
		c-0.5,0-0.9,0-1.3,0c-0.2-0.6,0.3-0.9,0.5-1.2c0.9-1.1,1.9-2.2,2.9-3.3C69.3,41.7,69.5,41.4,70,41.5z"/>
	<path id="XMLID_4759_" class="st0" d="M24.5,54.1c-1,0-1.9,0-2.8,0c0-4.2,0-8.3,0-12.5c1,0,1.9,0,2.8,0
		C24.5,45.7,24.5,49.9,24.5,54.1z"/>
	<path id="XMLID_4758_" class="st0" d="M80.6,48.2c0-0.7,0-1.3,0-2c4.7,0,9.4,0,14.2,0c0,0.6,0,1.1,0,1.7c0,0.1-0.2,0.2-0.3,0.3
		c0,0-0.1,0-0.2,0c-4.4,0-8.9,0-13.3,0C80.8,48.2,80.7,48.2,80.6,48.2z"/>
	<path id="XMLID_4757_" class="st0" d="M14.1,46.3c0,0.6,0,1.3,0,1.9c-4.7,0-9.4,0-14.1,0c0-0.6,0-1.3,0-1.9
		C4.7,46.3,9.4,46.3,14.1,46.3z"/>
	<path id="XMLID_4756_" class="st0" d="M37.1,56.1c0.1-0.2,0.2-0.5,0.3-0.8c-0.2-0.2-0.4-0.4-0.8-0.7c0.7,0.1,1.2-0.1,1.3-0.8
		c0.1,0.7,0.5,1,1.2,0.9c-0.5,0.4-0.9,0.8-0.4,1.4C38.1,55.7,37.6,55.7,37.1,56.1z"/>
	<path id="XMLID_4755_" class="st0" d="M32.3,54.8c0.2-0.6,0.2-1.1-0.5-1.4c0.3,0,0.5,0,0.8,0c0.1-0.3,0.2-0.6,0.3-1
		c0.2,0.6,0.4,1.2,1.2,1c-0.6,0.3-0.7,0.8-0.5,1.4c-0.2-0.1-0.5-0.3-0.7-0.4C32.8,54.5,32.6,54.6,32.3,54.8z"/>
	<path id="XMLID_4754_" class="st0" d="M30.5,52.4c0.3,0,0.5,0,0.9,0c-0.5,0.4-1,0.7-0.6,1.4c-0.2-0.1-0.5-0.3-0.7-0.4
		c-0.2,0.2-0.5,0.3-0.8,0.5c0.3-0.6,0.4-1.1-0.4-1.4c0.8,0.1,1.1-0.2,1.3-0.9C30.3,51.8,30.4,52.1,30.5,52.4z"/>
	<path id="XMLID_4753_" class="st0" d="M36.9,44.4c0.7,0.2,0.9-0.2,1.1-0.9c0.2,0.8,0.5,1.2,1.2,1c-0.2,0.2-0.4,0.3-0.6,0.5
		c0.1,0.3,0.1,0.5,0.2,0.9c-0.5-0.6-1-0.7-1.5-0.1c0.1-0.3,0.1-0.5,0.2-0.8c-0.2-0.1-0.4-0.3-0.6-0.5C36.9,44.5,36.9,44.5,36.9,44.4
		z"/>
	<path id="XMLID_4752_" class="st0" d="M30.5,42.3c0.3,0,0.5,0,0.8,0c-0.5,0.4-0.8,0.8-0.4,1.5c-0.5-0.4-1-0.7-1.5,0
		c0.2-0.6,0.2-1.1-0.4-1.4c0.3,0,0.5,0,0.8,0c0.1-0.3,0.2-0.6,0.3-0.9C30.3,41.7,30.4,42,30.5,42.3z"/>
	<path id="XMLID_4751_" class="st0" d="M37.1,43.6c-0.5-0.4-1-0.7-1.6,0.1c0.4-0.7,0.2-1.1-0.4-1.4c0.8,0.1,1.1-0.2,1.3-0.9
		c0.1,0.3,0.2,0.5,0.3,0.8c0.3,0,0.5,0,0.8,0C36.9,42.6,36.7,43,37.1,43.6z"/>
	<path id="XMLID_4750_" class="st0" d="M27.4,46.5c0.2,0.6,0.3,1.2,1.1,1c-0.2,0.2-0.5,0.3-0.5,0.5c-0.1,0.2,0.1,0.5,0.2,0.8
		c-0.3-0.2-0.5-0.4-0.8-0.4c-0.2,0-0.5,0.3-0.9,0.5c0.4-0.7,0.4-1.1-0.2-1.5c0.2,0,0.5,0,0.7,0C27.2,47.1,27.3,46.8,27.4,46.5z"/>
	<path id="XMLID_4749_" class="st0" d="M33.7,42.2c0.1,0.3,0.2,0.5,0.2,0.8c-0.5-0.4-1-0.6-1.5,0c0.1-0.3,0.2-0.5,0.2-0.7
		c-0.1-0.2-0.4-0.4-0.6-0.6c0.3,0,0.6,0,0.8-0.1c0.2-0.1,0.2-0.5,0.4-0.8c0.2,0.6,0.4,1.1,1.1,1C34.2,41.9,34,42,33.7,42.2z"/>
	<path id="XMLID_4748_" class="st0" d="M39.3,47.4c0.3,0,0.5,0,0.9,0c-0.6,0.4-1,0.7-0.5,1.4c-0.6-0.3-1.1-0.6-1.6,0.1
		c0.4-0.7,0.2-1.1-0.4-1.4c0.3,0,0.5,0,0.8,0c0.1-0.3,0.2-0.6,0.3-0.9C39.1,46.8,39.2,47.1,39.3,47.4z"/>
	<path id="XMLID_4747_" class="st0" d="M33.1,49.7c0.3,0,0.5,0,0.8,0c0.1-0.3,0.2-0.5,0.4-0.9c0.1,0.3,0.2,0.6,0.3,0.9
		c0.3,0,0.5,0,0.8,0c-0.5,0.4-0.8,0.7-0.4,1.3c-0.2-0.1-0.5-0.4-0.7-0.4c-0.2,0-0.5,0.3-0.8,0.4C33.6,50.6,33.8,50.1,33.1,49.7
		C33,49.8,33,49.8,33.1,49.7z"/>
	<path id="XMLID_4746_" class="st0" d="M28.2,43.6c0.4,0.9,0.4,0.9,1.2,1c-0.2,0.2-0.4,0.3-0.6,0.5c0.1,0.3,0.2,0.5,0.3,0.9
		c-0.6-0.5-1.1-0.6-1.6,0c0.2-0.6,0.4-1.1-0.4-1.4C27.9,44.8,28,44.2,28.2,43.6z"/>
	<path id="XMLID_4745_" class="st0" d="M35,52.4c0.8,0.2,1-0.4,1.1-1c0.2,0.5,0.3,1.2,1.1,1c-0.2,0.2-0.4,0.4-0.6,0.5
		c0.1,0.3,0.2,0.5,0.3,0.8c-0.5-0.4-1-0.5-1.5-0.1c0.1-0.2,0.1-0.5,0.2-0.7C35.4,52.8,35.2,52.6,35,52.4z"/>
	<path id="XMLID_4744_" class="st0" d="M29.2,50.3c-0.8,0.3-0.5,0.8-0.3,1.4c-0.5-0.5-1-0.7-1.6-0.1c0.1-0.5,0.3-1-0.5-1.3
		c0.8,0.2,1-0.4,1.1-1C28.3,49.9,28.3,50.6,29.2,50.3z"/>
	<path id="XMLID_4743_" class="st0" d="M38.3,49.3c0.4,1,0.4,1,1.2,1c-0.6,0.3-0.8,0.7-0.4,1.4c-0.5-0.5-1-0.5-1.5,0
		c0.3-0.6,0.3-1-0.4-1.4C38,50.4,38.1,49.9,38.3,49.3z"/>
	<path id="XMLID_4708_" class="st0" d="M28.1,12.4c-0.3-0.6-0.6-1.2-0.9-1.8c0.7-0.3,1.3-0.7,2-1c0.5-0.3,1-0.1,1.3,0.4
		c0.2,0.5,0.1,1-0.4,1.3C29.4,11.7,28.8,12,28.1,12.4z"/>
	<path id="XMLID_4707_" class="st0" d="M82.8,25.9c0.3,0.6,0.6,1.2,0.9,1.8c0.2,0.6,0.1,1.1-0.3,1.5c-0.5,0.6-1.2,0.9-1.9,1.1
		c-0.7,0.2-1.4-0.1-1.8-0.7c-0.1-0.2-0.2-0.3-0.3-0.5c-0.2-0.4-0.4-0.7-0.6-1.1C80,27.3,81.4,26.6,82.8,25.9z"/>
	<path id="XMLID_4706_" class="st0" d="M13.4,68.5c1-0.2,1.9-0.3,2.9-0.5c-0.6,0.7-1.2,1.5-1.9,2.2C14,69.7,13.7,69.1,13.4,68.5z"/>
	<path id="XMLID_4705_" class="st0" d="M19.9,77.4c0.9-0.5,1.7-0.9,2.6-1.4c-0.3,0.9-0.7,1.8-1.1,2.7C20.9,78.3,20.5,77.9,19.9,77.4
		z"/>
</g>
</svg>
