<?xml version="1.0" encoding="utf-8"?>
<!-- Generator: Adobe Illustrator 19.0.0, SVG Export Plug-In . SVG Version: 6.00 Build 0)  -->
<svg version="1.1" id="Layer_1" xmlns="http://www.w3.org/2000/svg" xmlns:xlink="http://www.w3.org/1999/xlink" x="0px" y="0px"
	 viewBox="0 0 211.9 349.9" style="enable-background:new 0 0 211.9 349.9;" xml:space="preserve">
<style type="text/css">
	.st0{fill:#FFFFFF;}
</style>
<g id="XMLID_2101_">
	<path id="XMLID_4065_" class="st0" d="M211.9,175c0,47.9,0,95.8,0,143.7c0,9-3.1,16.7-9.6,22.9c-5.6,5.3-12.4,8.1-20.2,8.3
		c-0.4,0-0.9,0-1.3,0c-49.9,0-99.8,0-149.6,0c-9,0-16.7-3.1-22.8-9.7C3,334.6,0.2,327.9,0,320.1c0-0.5,0-1.1,0-1.6
		c0-95.7,0-191.4,0-287.1c0-7.5,2.1-14.2,6.8-20C12,5,18.7,1.3,26.9,0.3C28.3,0.1,29.6,0,31,0C81,0,130.9,0.1,180.9,0
		c14,0,25.7,9,29.6,21.3c1,3.3,1.4,6.6,1.4,10.1C211.8,79.3,211.9,127.1,211.9,175z M5.2,154c0,2.2,0,4.3,0,6.5
		c0,39.2,0,78.4,0,117.5c0,1.4,0,1.4,1.4,1.4c0.1,0,0.2,0,0.3,0c66,0,132,0,198,0c1.9,0,1.7,0.2,1.7-1.7c0-82,0-164.1,0-246.1
		c0-0.5,0-1.1,0-1.6c-0.1-3.8-0.9-7.4-2.7-10.8c-4.9-9.2-12.7-14-23.1-14c-36.2-0.1-72.5,0-108.7,0c-13.7,0-27.3,0-41,0
		c-4.1,0-8.1,0.7-11.8,2.7c-9.2,4.9-14,12.7-14,23.1C5.2,72.1,5.2,113.1,5.2,154z M166.1,311.6c0.9-5.5-3.1-9.5-7.1-10.4
		c-4.7-1-9.6,2.1-10.7,6.9c-1.1,4.9,2,10,6.8,11.1c5.6,1.2,9.6-2.5,10.4-5.9c-1.3,0-2.7,0-4,0c-0.2,0-0.4,0.2-0.6,0.3
		c-1.4,1.7-3.3,2-5.3,1.6c-1.9-0.4-3.2-2.1-3-3.7C157.1,311.6,161.6,311.6,166.1,311.6z M53.6,309c0-2.1,0-4.3,0-6.4
		c0-0.9-0.3-1.5-0.9-2.1c-1.2-1.2-2.4-2.5-3.7-3.7c-2-2-4.6-2-6.6-0.1c-1.4,1.3-2.6,2.6-4,4c-0.6,0.6-0.6,1.1,0,1.7
		c4.6,4.6,9.3,9.3,13.9,13.9c0.2,0.2,0.6,0.3,0.9,0.5c0.1-0.3,0.3-0.7,0.3-1C53.6,313.4,53.6,311.2,53.6,309z M45.6,333.9
		c1.3,0,2.4-0.5,3.3-1.4c1.3-1.3,2.6-2.6,3.9-3.9c0.6-0.6,0.6-1.2,0-1.8c-4.6-4.6-9.2-9.2-13.8-13.8c-0.2-0.2-0.6-0.3-0.9-0.5
		c-0.1,0.4-0.3,0.7-0.3,1.1c0,4.4,0,8.8,0,13.1c0,0.6,0.3,1.3,0.7,1.8c1.3,1.4,2.6,2.7,4,4.1C43.3,333.4,44.4,333.8,45.6,333.9z
		 M109,301c-5-0.2-9.2,3.9-9.3,9c-0.1,4.9,3.9,9.2,8.7,9.4c5.2,0.2,9.4-3.7,9.6-8.6C118.2,305.3,114.4,301.2,109,301z M120.4,301.5
		c0,2.3,0,4.5,0,6.7c0,3.3,0,6.5,0,9.8c0,0.8,0.2,1.1,1,1c0.7-0.1,1.5,0,2.2,0c0.6,0,0.8-0.2,0.8-0.8c0-2-0.1-3.9,0-5.9
		c0.1-1.5,0.1-3,0.4-4.5c0.3-1.7,1.6-2.6,3.3-2.6c1.8,0,2.9,0.8,3.1,2.7c0.3,2.6,0.3,5.3,0.3,7.9c0,3.4,0,3.4,3.5,3.2
		c0.5,0,0.7-0.2,0.7-0.7c-0.1-3.8,0-7.7-0.2-11.5c-0.2-3.6-3.5-6-7-5.6c-1.5,0.2-2.8,0.8-4,2c0-0.5,0-0.8-0.1-1.1
		c-0.1-0.2-0.4-0.6-0.6-0.6C122.8,301.5,121.7,301.5,120.4,301.5z M185.5,307.8c-0.6-4.2-4.9-7.3-9.5-6.8c-4.7,0.5-8.9,4.7-8.4,10.3
		c0.5,4.8,4.8,8.5,9.9,8.2c4-0.2,7.9-3.6,7.8-6.9c-1.3,0-2.5,0-3.8,0c-0.2,0-0.6,0.3-0.7,0.6c-1.3,2.1-4.2,2.9-6.4,1.6
		c-1.8-1-2.8-3.1-2.5-5.5c0.2-1.8,1.7-3.6,3.3-4c2.2-0.6,4.1,0.1,5.5,1.9c0.2,0.2,0.5,0.6,0.7,0.6
		C182.8,307.8,184.1,307.8,185.5,307.8z M98,307.8c-0.4-3.9-4.5-7-8.8-6.8c-5.1,0.2-9,4.2-9,9.2c0,4.8,3.9,9,8.7,9.2
		c4.7,0.2,8.7-2.8,9.1-6.9c-1.1,0-2.3,0-3.4,0c-0.6,0-0.9,0.2-1.3,0.7c-0.4,0.6-1,1.2-1.6,1.6c-2.3,1.2-5.2,0.3-6.5-1.8
		c-1.4-2.4-0.7-5.6,1.6-7.1c2.1-1.3,5-0.7,6.6,1.4c0.2,0.2,0.5,0.5,0.7,0.6C95.4,307.8,96.7,307.8,98,307.8z M140.4,305.2
		c0,0.6,0,1,0,1.4c0,3.8,0,7.6,0,11.3c0,0.8,0.2,1.2,1.1,1.1c0.7-0.1,1.4-0.1,2.1,0c0.8,0.1,1.1-0.2,1.1-1.1c0-3.8,0-7.6,0-11.4
		c0-0.4,0-0.8,0-1.2c0.9,0,1.8-0.1,2.6-0.1c0-0.7,0-1.3,0-1.9c0-2,0.2-1.7-1.7-1.7c-0.3,0-0.6,0-1-0.1c0-1.7,0-3.4,0-5.1
		c0-0.9-0.3-1.2-1.1-1.1c-0.6,0.1-1.3,0.1-1.9,0c-1-0.1-1.3,0.3-1.2,1.2c0.1,1.6,0,3.3,0,4.9c-0.9,0.1-2-0.1-2.4,0.3
		c-0.4,0.5-0.2,1.6-0.2,2.4c-0.1,0.9,0.2,1.3,1.1,1.1C139.3,305.2,139.8,305.2,140.4,305.2z M35,304.1c-0.5,0.4-0.8,0.6-1,0.8
		c-2.1,2-4.1,4.1-6.2,6.2c-2.1,2.1-2.1,4.8,0,6.9c2,2.1,4.1,4.1,6.2,6.2c0.2,0.2,0.5,0.4,1,0.8C35,318,35,311.2,35,304.1z M56.2,325
		c0.5-0.4,0.8-0.6,1-0.8c2.1-2.1,4.1-4.1,6.2-6.2c2.1-2.1,2.1-4.8,0-6.9c-2-2.1-4.1-4.1-6.2-6.2c-0.2-0.2-0.5-0.4-1-0.8
		C56.2,311.2,56.2,317.9,56.2,325z M77.7,310.2c0-2.6,0-5.1,0-7.7c0-0.7-0.2-1-0.9-0.9c-0.9,0.1-1.9,0-2.8,0c-0.5,0-0.8,0.2-0.8,0.7
		c0,5.3,0,10.6,0,15.9c0,0.6,0.3,0.8,0.8,0.8c0.8,0,1.7-0.1,2.5,0c0.9,0.1,1.2-0.2,1.2-1.1C77.6,315.3,77.7,312.7,77.7,310.2z
		 M179.9,333.9c0-2.7,0-5.1,0-7.8c-0.7,0.1-1.3,0.2-1.9,0.3c-1.8-0.8-3.7-0.5-4.9,0.9c-1.3,1.4-1.3,3.7-0.1,5.2
		c1.4,1.7,3.7,1.8,4.8,1.1C178.6,333.7,179.2,333.8,179.9,333.9z M129.2,326.5c0,0.1,0,0.2-0.1,0.3c-1.8-1.1-3.7-0.8-5,0.6
		c-1.3,1.5-1.3,3.6-0.1,5.2c1.2,1.6,3.2,1.9,5.3,0.8c0.3,0.5,0.8,0.7,1.3,0.5c0.2-0.1,0.4-0.5,0.4-0.8c0-1.6,0-3.1,0-4.7
		c0-0.7,0-1.3,0-2.1C130.3,326.3,129.8,326.4,129.2,326.5z M97.4,330.7c0.9,0,1.7,0,2.6,0c0.8,0,1.7,0,2.5,0c0.6,0,0.9-0.1,0.8-0.8
		c-0.1-1.9-1.5-3.5-3.5-3.8c-1.6-0.3-3.5,0.9-4.1,2.5c-0.7,1.8,0,3.9,1.6,4.8c2.2,1.3,5.1,0.3,5.6-2c-0.9-0.1-1.6-0.2-2.4,0.5
		C99.4,332.8,97.9,332.1,97.4,330.7z M150.8,330c0,2.2,1.7,4,3.9,4c2.2,0,4-1.8,4-4c0-2.2-1.8-4-4-4
		C152.6,326,150.8,327.8,150.8,330z M115.1,326.8c-0.3-0.8-1-0.5-1.5-0.5c-0.2,0-0.4,0.6-0.4,0.9c0,1.9,0,3.8,0,5.7
		c0,0.7,0.2,1,0.9,0.9c0.6,0,1-0.1,1-0.9c0-1.1-0.1-2.3,0-3.4c0.1-1.1,0.6-1.6,1.5-1.6c0.9,0,1.3,0.5,1.4,1.7c0,1.1,0.1,2.3,0,3.4
		c0,0.7,0.4,0.8,1,0.8c0.6,0,1-0.1,0.9-0.8c-0.1-1.2-0.1-2.4,0-3.6C120.1,326.8,117.5,325.1,115.1,326.8z M80.8,326.8
		c-0.4-0.8-1.1-0.5-1.6-0.5c-0.2,0-0.4,0.6-0.4,0.9c0,1.9,0,3.9,0,5.8c0,0.7,0.3,0.9,0.9,0.9c0.6,0,1-0.1,1-0.9c0-1.1,0-2.2,0-3.3
		c0.1-1.2,0.6-1.7,1.5-1.7c0.9,0,1.3,0.5,1.4,1.7c0,1.1,0.1,2.1,0,3.2c0,0.8,0.2,1,1,1c0.8,0,1-0.3,0.9-1c0-1.2,0-2.3,0-3.5
		C85.6,326.3,82.7,325.4,80.8,326.8z M164.1,326.4c-0.6-0.1-1.2-0.2-1.7-0.1c-0.2,0-0.3,0.7-0.3,1.1c0,1.8,0,3.7,0,5.5
		c0,0.7,0.2,0.9,0.9,0.9c0.7,0,0.9-0.2,0.9-0.9c0-1.2,0-2.3,0.1-3.5c0.1-1.2,0.9-1.7,1.9-1.4c0.8,0.2,0.9,1,0.9,1.6
		c0.1,1.1,0.1,2.1,0,3.2c0,0.7,0.1,1,0.9,1c0.8,0,1-0.3,1-1.1c0-1.1,0-2.2,0-3.3C168.8,326.6,166.3,325.3,164.1,326.4z M142,329
		c-0.1-1.7-1.8-3-3.6-2.9c-2.2,0.1-4,1.9-4,4c0,2.1,1.7,3.9,3.8,4c1.9,0.1,3.8-1.3,3.8-3c-0.9-0.1-1.7-0.2-2.4,0.7
		c-0.6,0.8-2,0.6-2.7-0.2c-0.7-0.8-0.8-2.2,0-3c0.7-0.8,2-0.9,2.8-0.1C140.4,329.2,141.2,329.1,142,329z M91.7,326.1
		c0-0.9-0.1-1.6-0.1-2.3c-0.6,0-1.2,0-1.8,0c0,0.8,0,1.6,0,2.4c-1.6-0.2-1.1,0.8-1.1,1.6c1.1,0.3,1.1,0.3,1.1,1.4c0,1.3,0,2.5,0,3.8
		c0,0.6,0.1,0.8,0.8,0.8c0.8,0,1.2-0.2,1.1-1c-0.1-1.6,0-3.2,0-4.7c0.4-0.1,0.7-0.2,1-0.3C92.9,326.9,93,326.1,91.7,326.1z
		 M78,297.9c0-1.4-1.1-2.6-2.5-2.6c-1.4,0-2.5,1.1-2.5,2.5c0,1.4,1,2.6,2.4,2.6C76.8,300.4,77.9,299.3,78,297.9z M185.6,328.8
		c0-1.4,0-2.8,0-4.2c0-0.7-0.3-0.8-0.9-0.8c-0.5,0-1,0-1,0.8c0,2.8,0,5.7,0,8.5c0,0.7,0.4,0.8,1,0.8c0.6,0,0.9-0.1,0.9-0.8
		C185.6,331.6,185.6,330.2,185.6,328.8z M108.5,326.7c0-0.1,0-0.2,0-0.2c-0.5-0.1-1.1-0.3-1.6-0.2c-0.2,0-0.4,0.7-0.4,1
		c0,1.9,0,3.8,0,5.7c0,0.7,0.4,0.8,1,0.8c0.6,0,1-0.1,0.9-0.8c-0.1-0.8,0-1.7,0-2.5c0-1.3,0-2.6,1.7-2.7c0-0.6,0-1.1,0-1.8
		C109.5,326.3,109,326.5,108.5,326.7z M75.1,330.1c0-1.1,0-2.1,0-3.2c0-0.7-0.4-0.7-0.9-0.7c-0.5,0-0.9,0-0.9,0.7c0,2.1,0,4.1,0,6.2
		c0,0.7,0.4,0.8,0.9,0.7c0.5,0,1,0.1,1-0.7C75,332.1,75.1,331.1,75.1,330.1z M147.5,330.1c0-1.1,0-2.1,0-3.2c0-0.7-0.5-0.7-0.9-0.7
		c-0.5,0-0.9,0-0.9,0.7c0,2.1,0,4.1,0,6.2c0,0.7,0.4,0.7,0.9,0.7c0.5,0,1,0,1-0.7C147.5,332.1,147.5,331.1,147.5,330.1z M75.3,325
		c0-0.1,0-0.3,0-0.4c-0.4-0.3-0.8-0.7-1.2-0.7c-0.4,0-0.9,0.6-1,0.9c-0.1,0.6,0.4,1.1,1,1C74.6,325.7,74.9,325.3,75.3,325z
		 M147.7,325c0-0.2,0-0.3,0-0.5c-0.4-0.3-0.8-0.8-1.1-0.8c-0.4,0-0.9,0.5-1,0.9c-0.2,0.6,0.3,1.1,1,1.1
		C146.9,325.7,147.3,325.3,147.7,325z"/>
	<path id="XMLID_4061_" class="st0" d="M42,108.3c-0.4-1.9-0.8-3.7-1.2-5.5c-1.3-6.6-1.6-13.2-1-19.9c0.7-8.5,2.7-16.6,6.3-24.3
		c6.4-13.7,16.4-23.9,29.8-30.9c2.5-1.3,5.1-2.4,7.6-3.5c2.8-1.2,5.3-0.8,7,1.1c1.9,2.1,2.5,5.3,1.4,7.8c-0.6,1.4-1.7,2.4-3.1,2.9
		c-16.2,5.7-31.4,22.2-35.5,41.3c-1.9,9.1-1.5,18.1,0.9,27.1c0.1,0.3,0.2,0.6,0.4,0.8c-0.2-1.5-0.4-3-0.6-4.5
		c-0.5-4.2-0.5-8.5,0-12.7c0.9-7.9,3.3-15.2,7.4-21.9c5.1-8.4,12.1-15,20.5-20c6.4-3.8,13.3-6.4,20.7-7.6c7.3-1.2,14.4-1,21.5,1.3
		c2.9,1,4.7,3.2,4.8,5.8c0.1,3.3-2.5,6.3-6.1,6.5c-1.5,0.1-3.1,0-4.5-0.4c-6.6-1.7-13.1-1.4-19.6,0.7c-11.9,3.8-21.1,11-27.2,21.8
		c-4.2,7.3-5.7,15.3-4.8,23.7c0.3,2.5,0.9,5,1.4,7.5c0.1,0.3,0.2,0.6,0.3,0.9c-0.2-2.4-0.5-4.7-0.6-7c-0.5-11.9,3.8-21.8,12.3-30
		c7.5-7.2,16.5-11.4,26.8-12.6c19.2-2.2,35,6.7,43.5,24.1c1.3,2.6,2.4,5.2,2.2,8.2c-0.2,2.9-2,5.1-4.7,5.6c-1.7,0.3-3.3-0.1-4.8-1.1
		c-1.6-1.1-2.8-2.5-3.5-4.4c-2.1-5.3-5.3-10-9.7-13.6c-5.1-4.2-11-6.3-17.7-6.3c-10.1,0-18.7,3.8-25.2,11.5
		c-6.3,7.5-7.6,16.1-5,25.4c1.5,5.2,3.9,9.9,7.4,14c4,4.7,9.4,7.2,15.3,8.2c7.7,1.4,15.1,0.5,22.1-3.1c3.6-1.8,6.5-4.4,8.7-7.8
		c1-1.5,2-2.9,3.2-4.2c0.9-1.1,2.2-1.8,3.8-1.8c9.2,0,18.4-0.1,27.6-0.1c2.8,0,5.6,0,8.4,0.2c5.6,0.4,10.2,5.9,9.7,11.5
		c-0.1,1.4-0.5,2.7-1.4,3.9c-5.1,7.2-10.5,14.2-16.8,20.4c-10.6,10.2-22.9,17.3-37.3,20.5c-8,1.8-16.2,2.4-24.4,2
		c-6.6-0.3-13.1-1-19.6-2.4c-9.4-2.1-17.9-6.3-25.7-11.8c-15.5-11-26.8-25.3-33.9-43c-2.7-6.7-4.4-13.6-5.2-20.7
		c-2-18.4,2.2-35.3,11.8-50.9c1.2-2,2.5-3.9,4-5.6c1.8-2,4.3-2.7,7-2.1c4.3,1,6.1,5.2,3.8,8.9c-1,1.7-2.3,3.2-3.4,4.8
		c-4.6,7.2-7.4,15-9,23.4c-1,5.4-1.4,10.8-1.2,16.3c0.3,7.1,1.6,14,4.3,20.6c0.1,0.2,0.2,0.4,0.3,0.6C41.7,108,41.8,108.1,42,108.3z
		"/>
	<path id="XMLID_4024_" class="st0" d="M58.2,230.2c0-2.5,0.4-5.2,1.8-7.7c1.6-2.9,3.9-4.6,7.3-4.5c3.4,0,5.7,1.7,7.2,4.6
		c1.6,3.1,2,6.4,1.7,9.8c-0.2,2.4-0.7,4.7-2,6.7c-3.5,5.6-10.9,5.5-14.1-0.3C58.6,236.2,58.1,233.3,58.2,230.2z M72.3,230.6
		c-0.2-3.1-0.7-5.4-1.7-7c-1.8-2.8-5.2-2.8-6.9,0c-0.3,0.5-0.6,1.1-0.8,1.6c-0.8,2.3-0.9,4.8-0.7,7.2c0.2,1.8,0.5,3.6,1.6,5.2
		c1.7,2.6,4.9,2.6,6.6,0c0.3-0.5,0.7-1,0.8-1.6C71.7,234.2,72,232.4,72.3,230.6z"/>
	<path id="XMLID_4021_" class="st0" d="M126.1,230.6c0-3,0.3-5.9,1.7-8.6c1.3-2.6,3.4-4.1,6.4-4.1c3,0,5.1,1.5,6.4,4.2
		c1.7,3.5,2,7.2,1.6,10.9c-0.2,2-0.8,4-1.5,5.8c-1.2,2.8-3.4,4.3-6.5,4.3c-3.1,0-5.1-1.6-6.4-4.3
		C126.5,236.2,126.2,233.3,126.1,230.6z M138.5,230.6c-0.1,0-0.2,0-0.2,0c0-0.8,0.1-1.6,0-2.3c-0.4-1.6-0.6-3.4-1.3-4.9
		c-1.2-2.4-3.9-2.3-5.3,0c-0.3,0.5-0.5,1-0.7,1.5c-1,3.7-1.1,7.5,0,11.3c0.6,2.1,1.9,3.2,3.4,3.2c1.5,0,2.8-1.2,3.3-3.3
		C138.1,234.3,138.2,232.4,138.5,230.6z"/>
	<path id="XMLID_4006_" class="st0" d="M161.3,230.5c0,2.9-0.3,5.7-1.6,8.4c-1.3,2.7-3.4,4.3-6.5,4.3c-3.1,0-5.3-1.5-6.4-4.2
		c-0.8-1.7-1.3-3.7-1.5-5.5c-0.4-3.7-0.3-7.3,1.3-10.8c1.7-3.8,5-5.4,8.7-4.4c2.1,0.6,3.4,2,4.4,3.8
		C161,224.6,161.3,227.5,161.3,230.5z M157.5,230.5c-0.1,0-0.1,0-0.2,0c-0.1-1,0-2.1-0.2-3.1c-0.3-1.3-0.6-2.7-1.2-3.9
		c-0.5-1.1-1.4-1.8-2.7-1.8c-1.3,0-2.1,0.8-2.8,1.9c-0.2,0.3-0.3,0.6-0.4,0.9c-1.2,4.1-1.3,8.1,0,12.2c0.5,1.5,1.4,2.6,3.1,2.7
		c1.3,0.1,2.6-0.9,3.2-2.7C156.9,234.6,157.1,232.6,157.5,230.5z"/>
	<path id="XMLID_4001_" class="st0" d="M55,224.9c-1.1,0-2.1,0.1-3.2,0c-0.2,0-0.5-0.5-0.6-0.8c-0.6-1.7-1.7-2.7-3.2-2.6
		c-1.3,0-2.3,0.7-2.7,2c-0.5,1.4-0.2,2.7,0.9,3.4c0.6,0.4,1.3,0.8,2,1c1,0.4,2,0.7,2.9,1.1c3.5,1.4,4.8,3.9,4.4,7.8
		c-0.6,5.2-5.7,7.9-10.5,5.8c-2.6-1.1-4.3-4.1-4.1-7.3c1.1,0,2.2,0,3.3,0c0.2,0,0.5,0.4,0.6,0.6c0.2,0.5,0.2,1,0.4,1.5
		c0.6,1.5,1.7,2.2,3.3,2.2c1.5-0.1,2.7-1,3.2-2.4c0.5-1.5,0.1-3.1-1.2-3.9c-0.7-0.5-1.5-0.8-2.3-1.2c-0.8-0.3-1.6-0.6-2.3-0.9
		c-4-1.6-5-4.9-4.2-8.6c0.6-2.6,2.4-4.1,5-4.6C51.2,216.9,55,220.1,55,224.9z"/>
	<path id="XMLID_3996_" class="st0" d="M120.4,218.3c0,5.3,0,10.3,0,15.5c0.9,0,1.8,0,2.8,0c0,1.1,0,2.1,0,3.2
		c0,0.2-0.4,0.4-0.7,0.5c-0.7,0.1-1.3,0-2.1,0c0,1.8,0,3.5,0,5.2c-1.4,0-2.7,0-4.1,0c0-1.7,0-3.4,0-5.2c-0.5,0-0.9-0.1-1.3-0.1
		c-2.3,0-4.6,0-6.9,0c-0.7,0-0.9-0.2-1-0.9c-0.1-2.1,0.3-3.9,1.4-5.7c2.4-3.8,4.6-7.8,6.9-11.7c0.4-0.6,0.8-0.9,1.5-0.9
		C118,218.3,119.1,218.3,120.4,218.3z M116.2,225.2c-0.1,0-0.1,0-0.2,0c-1.6,2.8-3.1,5.7-4.7,8.6c1.8,0,3.4,0,5,0
		C116.2,230.8,116.2,228,116.2,225.2z"/>
	<path id="XMLID_3995_" class="st0" d="M95,221.9c-1.3,0-2.5,0-3.8,0c0-1.2,0-2.3,0-3.5c2.5,0,5.1,0,7.8,0c0,8.1,0,16.2,0,24.3
		c-1.3,0-2.6,0-4,0C95,235.8,95,228.9,95,221.9z"/>
	<path id="XMLID_3897_" class="st0" d="M174.6,242.7c-1.3,0-2.6,0-3.9,0c0-6.9,0-13.8,0-20.8c-1.3,0-2.5,0-3.8,0c0-1.2,0-2.3,0-3.5
		c0.2,0,0.5-0.1,0.7-0.1c2.1,0,4.1,0,6.2,0c0.6,0,0.9,0.1,0.9,0.8c0,7.6,0,15.3,0,22.9C174.6,242.2,174.6,242.4,174.6,242.7z"/>
	<path id="XMLID_3840_" class="st0" d="M37,242.7c-0.2,0-0.3,0-0.5,0.1c-1.1,0-2.2,0-3.4,0c0-8.1,0-16.2,0-24.4c1.3,0,2.6,0,3.9,0
		C37,226.4,37,234.5,37,242.7z"/>
	<path id="XMLID_2150_" class="st0" d="M161.7,308.2c-3.1,0-6,0-9,0c0.3-1.8,2-3.2,4.1-3.3C159.1,304.7,160.9,305.9,161.7,308.2z"/>
	<path id="XMLID_2149_" class="st0" d="M104.1,310.3c-0.1-3,1.8-5.1,4.6-5.1c2.8-0.1,4.9,1.9,5,4.7c0.1,3.2-1.8,5.3-4.7,5.4
		C106.1,315.4,104.2,313.4,104.1,310.3z"/>
	<path id="XMLID_2148_" class="st0" d="M174,329.9c0-1.1,1-2,2.1-2c1.1,0.1,2,1.1,1.9,2.3c-0.1,1.1-0.9,1.9-2,1.9
		C174.7,332,173.9,331.1,174,329.9z"/>
	<path id="XMLID_2134_" class="st0" d="M129.1,330c0,1.1-0.9,2-2,2c-1.1,0-2-0.9-2-2c0-1.1,1-2.2,2.1-2.1
		C128.2,327.9,129.1,328.9,129.1,330z"/>
	<path id="XMLID_2131_" class="st0" d="M97.5,329.1c0.3-0.8,0.8-1.2,1.6-1.3c0.9-0.1,1.7,0.2,2.1,1.3
		C100,329.1,98.8,329.1,97.5,329.1z"/>
	<path id="XMLID_2103_" class="st0" d="M152.7,330c0-1.2,0.8-2.1,2-2.2c1.2,0,2.1,0.9,2.1,2.1c0,1.3-0.9,2.2-2.1,2.2
		C153.6,332.2,152.7,331.3,152.7,330z"/>
</g>
</svg>
