<?xml version="1.0" encoding="utf-8"?>
<!-- Generator: Adobe Illustrator 19.0.0, SVG Export Plug-In . SVG Version: 6.00 Build 0)  -->
<svg version="1.1" id="Layer_1" xmlns="http://www.w3.org/2000/svg" xmlns:xlink="http://www.w3.org/1999/xlink" x="0px" y="0px"
	 viewBox="0 0 40.6 71.2" style="enable-background:new 0 0 40.6 71.2;" xml:space="preserve">
<style type="text/css">
	.st0{fill:#FFFFFF;}
</style>
<g id="XMLID_1715_">
	<g id="XMLID_1741_">
		<path id="XMLID_298_" class="st0" d="M5.7,0.2c0.1,0,0.3,0,0.4,0c9.4,0,18.8,0,28.2,0c0.1,0,0.3,0,0.4,0c2.9,0.2,5.3,2.5,5.5,5.5
			c0,0.1,0,0.3,0,0.4c0,18.1,0,36.2,0,54.3c0,0.1,0,0.3,0,0.4c-0.2,2.9-2.5,5.3-5.5,5.5c-0.1,0-0.3,0-0.4,0c-9.4,0-18.8,0-28.2,0
			c-0.1,0-0.3,0-0.4,0c-2.9-0.2-5.3-2.5-5.5-5.5c0-0.1,0-0.3,0-0.4c0-18.1,0-36.2,0-54.3c0-0.1,0-0.3,0-0.4C0.4,2.7,2.8,0.3,5.7,0.2
			z M39.3,52.9c0-0.1,0-0.1,0-0.2c0-15.6,0-31.1,0-46.7c0-0.4-0.1-0.9-0.2-1.3c-0.6-2.1-2.4-3.5-4.7-3.5c-9.4,0-18.9,0-28.3,0
			c-0.4,0-0.9,0.1-1.3,0.2C2.7,1.9,1.3,3.8,1.3,6.1c0,15.5,0,31.1,0,46.6c0,0.1,0,0.1,0,0.2C13.9,52.9,26.6,52.9,39.3,52.9z
			 M31.6,59c0.1-1-0.5-1.8-1.5-2c-0.9-0.1-1.7,0.5-1.9,1.4c-0.2,0.9,0.4,1.8,1.3,2c0.9,0.2,1.8-0.3,1.9-1.1c-0.2,0-0.5,0-0.7,0
			c-0.1,0-0.1,0-0.2,0.1c-0.2,0.2-0.4,0.3-0.6,0.3c-0.5,0.1-1-0.3-1-0.8C29.9,59,30.8,59,31.6,59z M10.3,60c0-0.1,0-0.2,0-0.2
			c0-0.8,0-1.6,0-2.5c0-0.1-0.1-0.3-0.2-0.4c-0.2-0.2-0.4-0.5-0.7-0.7c-0.4-0.4-0.9-0.4-1.3,0c-0.2,0.2-0.5,0.5-0.7,0.7
			c-0.2,0.2-0.2,0.2,0,0.4c0.9,0.9,1.7,1.7,2.6,2.6C10.2,59.9,10.3,59.9,10.3,60z M7.4,60.6c0,0.4,0,0.8,0,1.2
			c0,0.1,0.1,0.2,0.1,0.3c0.2,0.3,0.5,0.5,0.7,0.8c0.3,0.3,0.8,0.4,1.2,0c0.3-0.2,0.5-0.5,0.8-0.8c0.1-0.1,0.1-0.2,0-0.3
			c-0.9-0.9-1.8-1.8-2.7-2.6c0,0-0.1,0-0.1-0.1c0,0.1-0.1,0.1-0.1,0.2C7.4,59.8,7.4,60.2,7.4,60.6z M20.8,57c-0.9,0-1.7,0.7-1.7,1.7
			c0,1,0.7,1.7,1.7,1.8c1,0,1.7-0.7,1.7-1.7C22.6,57.8,21.8,57,20.8,57z M35.3,58.3c-0.1-0.8-1-1.4-1.8-1.3c-1,0.1-1.6,1-1.5,1.9
			c0.1,0.9,0.9,1.6,1.8,1.5c0.8,0,1.5-0.7,1.5-1.3c-0.2,0-0.5,0-0.7,0c0,0-0.1,0-0.1,0.1c-0.3,0.5-0.9,0.5-1.3,0.3
			c-0.3-0.2-0.5-0.6-0.4-1.1c0.1-0.4,0.3-0.7,0.7-0.7c0.4-0.1,0.8,0,1,0.4c0,0,0.1,0.1,0.1,0.1C34.8,58.3,35,58.3,35.3,58.3z
			 M25.9,60.4c0-0.8,0-1.5,0-2.2c0-0.5-0.3-0.9-0.7-1c-0.5-0.2-0.9-0.1-1.3,0.3c0,0,0,0-0.1,0c0-0.1,0-0.2,0-0.3c-0.3,0-0.5,0-0.7,0
			c0,1.1,0,2.2,0,3.2c0.2,0,0.5,0,0.7,0c0-0.5,0-0.9,0-1.3c0-0.3,0-0.5,0.1-0.8c0.1-0.3,0.3-0.5,0.7-0.5c0.3,0,0.5,0.2,0.6,0.5
			c0,0.3,0.1,0.5,0.1,0.8c0,0.4,0,0.9,0,1.3C25.4,60.4,25.6,60.4,25.9,60.4z M18.8,58.3c-0.2-0.8-1-1.4-1.9-1.2
			c-0.9,0.1-1.5,0.9-1.5,1.8c0.1,0.9,0.8,1.6,1.7,1.7c0.8,0,1.6-0.6,1.6-1.3c-0.2,0-0.4,0-0.6,0c-0.1,0-0.1,0-0.2,0.1
			c-0.1,0.1-0.2,0.3-0.3,0.3c-0.4,0.2-1,0-1.2-0.4c-0.2-0.5-0.1-1.1,0.3-1.3c0.4-0.3,1-0.1,1.3,0.3c0,0,0.1,0.1,0.2,0.1
			C18.3,58.3,18.5,58.3,18.8,58.3z M26.8,56c0,0.4,0,0.8,0,1.2c-0.2,0-0.3,0-0.5,0c0,0.2,0,0.4,0,0.7c0.2,0,0.3,0,0.5,0
			c0,0.9,0,1.7,0,2.6c0.3,0,0.5,0,0.8,0c0-0.9,0-1.7,0-2.6c0.2,0,0.3,0,0.5,0c0-0.2,0-0.5,0-0.7c-0.2,0-0.3,0-0.5,0
			c0-0.4,0-0.8,0-1.2C27.3,56,27.1,56,26.8,56z M6.9,61.5c0-1.3,0-2.6,0-3.9c-0.1,0.1-0.1,0.1-0.2,0.1c-0.4,0.4-0.8,0.8-1.2,1.2
			c-0.4,0.4-0.4,0.9,0,1.3c0.4,0.4,0.8,0.8,1.1,1.1C6.7,61.4,6.8,61.5,6.9,61.5z M10.9,61.5c0.1-0.1,0.1-0.1,0.2-0.2
			c0.4-0.4,0.8-0.8,1.1-1.1c0.4-0.4,0.4-0.9,0-1.3c-0.4-0.4-0.8-0.8-1.1-1.1c0,0-0.1-0.1-0.2-0.2C10.9,58.9,10.9,60.2,10.9,61.5z
			 M14.9,57.1c-0.3,0-0.5,0-0.8,0c0,1.1,0,2.2,0,3.2c0.3,0,0.5,0,0.8,0C14.9,59.3,14.9,58.2,14.9,57.1z M33.9,61.9
			c-0.3-0.2-0.7-0.2-0.9,0.1c-0.3,0.3-0.3,0.7,0,1c0.2,0.3,0.7,0.4,0.9,0.2c0.1,0,0.3,0.1,0.4,0.1c0-0.5,0-1,0-1.4
			C34.1,61.8,34,61.7,33.9,61.9z M25,63.2c0-0.5,0-0.9,0-1.4c-0.1,0-0.3-0.1-0.3,0.1c-0.3-0.2-0.7-0.2-0.9,0.1c-0.3,0.3-0.3,0.7,0,1
			c0.2,0.3,0.6,0.3,1,0.1C24.7,63.3,24.9,63.2,25,63.2z M19.7,62.6c0-0.4-0.2-0.8-0.6-0.8c-0.4-0.1-0.8,0.2-0.8,0.6
			c-0.1,0.4,0.2,0.8,0.5,0.9c0.4,0.1,0.7-0.1,0.9-0.5c-0.2,0.1-0.3,0.1-0.5,0.2c-0.3,0.2-0.6,0-0.6-0.3C19,62.6,19.4,62.6,19.7,62.6
			z M29.5,61.8c-0.4,0-0.7,0.3-0.7,0.7c0,0.4,0.3,0.7,0.7,0.7c0.4,0,0.7-0.3,0.7-0.8C30.2,62.1,29.9,61.8,29.5,61.8z M22.9,63.2
			c0-0.3,0-0.6,0-0.8c0-0.2-0.1-0.4-0.3-0.5c-0.2-0.1-0.4-0.1-0.6,0.1c-0.1-0.2-0.2-0.1-0.3-0.1c0,0.5,0,0.9,0,1.4
			c0.1,0,0.2,0,0.3,0c0-0.1,0-0.3,0-0.4c0-0.2,0-0.3,0-0.5c0-0.2,0.3-0.3,0.4-0.2c0.1,0.1,0.1,0.2,0.1,0.3c0,0.3,0,0.5,0,0.8
			C22.7,63.2,22.8,63.2,22.9,63.2z M16.4,63.2c0-0.3,0-0.6,0-0.9c0-0.2-0.1-0.4-0.3-0.5c-0.2-0.1-0.4-0.1-0.6,0.1
			c-0.1-0.2-0.2-0.1-0.3-0.1c0,0.5,0,0.9,0,1.4c0.1,0,0.2,0,0.3,0c0-0.1,0-0.3,0-0.4c0-0.2,0-0.3,0-0.5c0-0.1,0.1-0.2,0.3-0.2
			c0.2,0,0.2,0.1,0.3,0.2c0,0.1,0,0.2,0,0.3c0,0.2,0,0.4,0,0.6C16.2,63.2,16.3,63.2,16.4,63.2z M32.1,63.2c0-0.3,0-0.6,0-0.8
			c0-0.6-0.6-0.7-0.9-0.5c-0.1-0.2-0.2-0.1-0.3-0.1c0,0.5,0,0.9,0,1.4c0.1,0,0.2,0,0.3,0c0-0.1,0-0.2,0-0.3c0-0.2,0-0.4,0-0.5
			c0-0.1,0.1-0.2,0.3-0.2c0.1,0,0.2,0.1,0.3,0.2c0,0.1,0,0.2,0,0.3c0,0.2,0,0.4,0,0.6C31.9,63.2,32,63.2,32.1,63.2z M27.1,62.6
			c-0.1,0-0.3,0.1-0.4,0.1c-0.2,0.1-0.4,0.2-0.6,0c-0.2-0.1-0.2-0.4-0.1-0.6c0.1-0.2,0.4-0.2,0.6,0c0.1,0.2,0.3,0.1,0.4,0.1
			c-0.1-0.4-0.4-0.6-0.7-0.5c-0.4,0-0.7,0.4-0.7,0.7c0,0.4,0.3,0.7,0.7,0.7C26.7,63.3,27,63,27.1,62.6z M17.2,63.2
			c0.1,0,0.2,0,0.3,0c0-0.4,0-0.7,0-1.1c0.1,0,0.1,0,0.2,0c0-0.1,0-0.2,0-0.3c-0.1,0-0.1,0-0.2,0c0-0.2,0-0.3,0-0.4
			c-0.1,0-0.2,0-0.3,0c0,0.2,0,0.3,0,0.5c-0.1,0-0.1,0-0.2,0c0,0.1,0,0.2,0,0.3c0.1,0,0.1,0,0.2,0C17.2,62.5,17.2,62.8,17.2,63.2z
			 M15,56.4c0-0.3-0.2-0.5-0.5-0.5c-0.3,0-0.5,0.2-0.5,0.5c0,0.2,0.2,0.5,0.5,0.5C14.8,56.9,15,56.7,15,56.4z M35,61.3
			c0,0.6,0,1.2,0,1.8c0.1,0,0.2,0,0.3,0c0-0.6,0-1.2,0-1.8C35.2,61.3,35.1,61.3,35,61.3z M20.4,63.2c0.1,0,0.2,0,0.3,0
			c0-0.2,0-0.4,0-0.6c0-0.3,0-0.4,0.3-0.5c0-0.1,0-0.2,0-0.3c-0.1,0.1-0.2,0.1-0.3,0.1c-0.1-0.2-0.2-0.1-0.3-0.1
			C20.4,62.3,20.4,62.7,20.4,63.2z M14.1,61.8c0,0.5,0,0.9,0,1.4c0.1,0,0.2,0,0.3,0c0-0.5,0-0.9,0-1.4
			C14.3,61.8,14.2,61.8,14.1,61.8z M28.1,61.8c-0.1,0-0.2,0-0.3,0c0,0.5,0,0.9,0,1.4c0.1,0,0.2,0,0.3,0
			C28.1,62.7,28.1,62.3,28.1,61.8z M14.3,61.2c-0.1,0.1-0.2,0.2-0.2,0.3c0,0.1,0.1,0.2,0.2,0.2c0.1,0,0.2-0.1,0.2-0.2
			C14.4,61.4,14.4,61.4,14.3,61.2z M27.9,61.7C27.9,61.7,27.9,61.7,27.9,61.7c0.1-0.1,0.2-0.1,0.2-0.2c0-0.1-0.1-0.2-0.2-0.2
			c-0.1,0-0.2,0.1-0.2,0.2C27.8,61.6,27.8,61.6,27.9,61.7z"/>
	</g>
	<g id="XMLID_1740_">
		<path id="XMLID_296_" class="st0" d="M13.1,19.8c0-0.2,0-0.4,0-0.6c-0.2-2.9,1-5.1,3.3-6.7c1.2-0.9,2.5-1.4,4-1.6
			c3.6-0.4,6.7,1.2,8.3,4.5c0.2,0.4,0.4,0.9,0.4,1.4c0,0.6-0.3,1.2-0.9,1.3c-0.3,0.1-0.7,0-0.9-0.2c-0.3-0.2-0.5-0.5-0.7-0.8
			c-0.5-1.2-1.2-2.2-2.2-2.9c-1.1-0.7-2.3-1-3.6-0.9c-1.3,0.1-2.4,0.6-3.4,1.4c-1.7,1.5-2.2,3.3-1.6,5.5c0.3,1,0.7,1.9,1.4,2.7
			c0.8,0.9,1.8,1.4,2.9,1.6c1.4,0.3,2.8,0.1,4.2-0.6c0.7-0.3,1.2-0.8,1.6-1.4c0.2-0.3,0.4-0.5,0.6-0.8c0.2-0.3,0.5-0.4,0.8-0.4
			c2.2,0,4.3,0,6.5,0c1.2,0,2.1,1,2.1,2.2c0,0.3-0.1,0.5-0.2,0.8c-1,1.4-2,2.7-3.2,3.9c-2,1.9-4.3,3.3-7,3.9
			c-1.8,0.4-3.6,0.5-5.4,0.3c-1-0.1-1.9-0.2-2.9-0.4c-1-0.2-1.9-0.6-2.8-1c-4.2-2.2-7.1-5.5-8.7-9.9c-0.7-1.8-0.9-3.6-0.9-5.5
			c0.1-2.8,1-5.4,2.5-7.8C7.5,7.3,7.7,6.9,8,6.7c0.5-0.4,1.2-0.4,1.7,0c0.4,0.3,0.5,0.8,0.3,1.3C9.8,8.2,9.7,8.4,9.6,8.6
			c-1,1.4-1.6,2.9-2,4.6c-0.2,1.1-0.3,2.3-0.3,3.4c0,1.3,0.3,2.5,0.7,3.7c0,0.1,0.1,0.1,0.1,0.2C8.1,20.1,8,19.9,8,19.6
			c-0.3-1.4-0.3-2.8-0.2-4.3c0.2-1.4,0.5-2.8,1.1-4.1c1.2-2.6,3.1-4.5,5.7-5.9c0.5-0.2,0.9-0.4,1.4-0.6c0.5-0.2,1-0.1,1.4,0.2
			c0.4,0.4,0.5,1,0.2,1.5C17.5,6.7,17.3,6.9,17,7c-2.3,0.9-4,2.4-5.3,4.4c-0.7,1.2-1.2,2.4-1.5,3.8c-0.3,1.5-0.2,3,0.2,4.5
			c0,0,0,0,0.1,0.1c0-0.1,0-0.1,0-0.2c0-0.1,0-0.2,0-0.2c-0.4-4.2,1.2-7.5,4.6-10c1.4-1,3.1-1.7,4.8-1.9c1.3-0.2,2.6-0.1,3.8,0.3
			c0.4,0.1,0.7,0.4,0.9,0.8C24.8,9,24.5,9.6,24,9.9c-0.4,0.2-0.8,0.3-1.2,0.1c-1.5-0.4-3-0.3-4.4,0.3c-2,0.8-3.6,2.1-4.6,3.9
			C12.8,15.9,12.6,17.8,13.1,19.8C13.1,19.7,13.1,19.8,13.1,19.8C13.1,19.8,13.1,19.8,13.1,19.8z"/>
	</g>
	<g id="XMLID_1736_">
		<path id="XMLID_292_" class="st0" d="M14.7,43.7c0,0.5-0.1,1.1-0.4,1.5c-0.3,0.5-0.7,0.8-1.4,0.8c-0.6,0-1.1-0.3-1.4-0.8
			c-0.3-0.6-0.4-1.2-0.3-1.8c0-0.4,0.1-0.7,0.2-1.1c0.3-0.6,0.7-1,1.5-1c0.7,0,1.2,0.4,1.5,1C14.6,42.8,14.7,43.2,14.7,43.7z
			 M13.9,43.7C13.9,43.7,13.9,43.7,13.9,43.7c0-0.1,0-0.2-0.1-0.3c0-0.4-0.1-0.8-0.3-1.1c-0.3-0.4-0.8-0.4-1.1,0
			c-0.1,0.1-0.2,0.3-0.2,0.4c-0.2,0.5-0.2,1.1-0.1,1.6c0,0.3,0.1,0.5,0.3,0.7c0.3,0.4,0.8,0.4,1.2,0c0.1-0.1,0.2-0.2,0.2-0.4
			C13.8,44.4,13.9,44,13.9,43.7z"/>
	</g>
	<g id="XMLID_1733_">
		<path id="XMLID_288_" class="st0" d="M30.7,43.5c0,0.7-0.1,1.2-0.3,1.7c-0.3,0.5-0.7,0.8-1.2,0.8c-0.6,0-1-0.3-1.2-0.8
			c-0.3-0.5-0.3-1.1-0.3-1.7c0-0.6,0.1-1.1,0.4-1.6c0.3-0.5,0.7-0.7,1.2-0.7c0.5,0,0.9,0.3,1.2,0.7c0.1,0.2,0.2,0.5,0.3,0.7
			C30.7,43.1,30.7,43.4,30.7,43.5z M30,43.7C30,43.7,29.9,43.7,30,43.7c-0.1-0.2,0-0.3-0.1-0.5c0-0.3-0.1-0.7-0.3-1
			c-0.2-0.3-0.6-0.3-0.9,0c-0.1,0.1-0.2,0.2-0.2,0.4c-0.2,0.7-0.2,1.4,0,2.1c0.1,0.4,0.3,0.6,0.6,0.6c0.3,0,0.5-0.2,0.6-0.6
			C29.9,44.4,29.9,44.1,30,43.7z"/>
	</g>
	<g id="XMLID_1730_">
		<path id="XMLID_284_" class="st0" d="M27.2,43.7c0,0.6-0.1,1.1-0.3,1.6c-0.3,0.5-0.7,0.8-1.2,0.8c-0.6,0-1-0.3-1.2-0.8
			c-0.3-0.6-0.3-1.2-0.3-1.9c0-0.5,0.1-0.9,0.3-1.3c0.3-0.5,0.7-0.8,1.2-0.8c0.6,0,1,0.3,1.2,0.8C27.1,42.6,27.2,43.1,27.2,43.7z
			 M24.8,43.7c0.1,0.4,0.1,0.7,0.2,1.1c0.1,0.4,0.3,0.6,0.6,0.6c0.3,0,0.5-0.2,0.6-0.6c0.2-0.7,0.2-1.4,0-2.2
			c-0.1-0.4-0.3-0.6-0.6-0.6c-0.3,0-0.5,0.2-0.6,0.6C24.9,43,24.9,43.3,24.8,43.7z"/>
	</g>
	<g id="XMLID_1729_">
		<path id="XMLID_282_" class="st0" d="M7.9,44.6c0.3,0,0.5,0,0.7,0c0,0.1,0.1,0.3,0.1,0.4c0.1,0.3,0.3,0.4,0.6,0.4
			c0.3,0,0.5-0.2,0.6-0.4c0.1-0.3,0-0.6-0.2-0.7c-0.1-0.1-0.3-0.1-0.4-0.2C9.2,44,9,43.9,8.9,43.9c-0.8-0.3-1-1-0.8-1.7
			c0.1-0.6,0.7-0.9,1.3-0.9c0.8,0,1.2,0.6,1.2,1.4c-0.2,0-0.4,0-0.6,0c0,0-0.1-0.1-0.1-0.1c-0.1-0.2-0.2-0.4-0.4-0.5
			c-0.3-0.1-0.5,0-0.6,0.3C8.7,42.6,8.8,42.9,9,43c0.1,0.1,0.2,0.1,0.4,0.2c0.1,0.1,0.3,0.1,0.4,0.2c0.9,0.3,1.1,1,0.9,1.8
			c-0.2,0.6-0.7,1-1.4,1c-0.6,0-1.1-0.4-1.3-1.1C8,44.9,8,44.7,7.9,44.6z"/>
	</g>
	<g id="XMLID_1726_">
		<path id="XMLID_278_" class="st0" d="M23,45c0,0.3,0,0.7,0,1c-0.3,0-0.5,0-0.8,0c0-0.3,0-0.6,0-1c-0.6,0-1.1,0-1.7,0
			c0-0.4-0.1-0.7,0.1-1c0.5-0.8,1-1.6,1.4-2.5c0.1-0.1,0.1-0.2,0.3-0.2c0.2,0,0.4,0,0.7,0c0,1,0,1.9,0,2.9c0.2,0,0.4,0,0.5,0
			c0,0.2,0,0.5,0,0.7C23.4,45,23.2,45,23,45z M22.2,42.7C22.2,42.7,22.2,42.7,22.2,42.7c-0.3,0.5-0.6,1.1-0.9,1.6c0.3,0,0.6,0,0.9,0
			C22.2,43.8,22.2,43.2,22.2,42.7z"/>
	</g>
	<g id="XMLID_1725_">
		<path id="XMLID_276_" class="st0" d="M18.2,42.1c-0.3,0-0.5,0-0.7,0c0-0.2,0-0.5,0-0.7c0.5,0,1,0,1.5,0c0,1.5,0,3.1,0,4.6
			c-0.3,0-0.5,0-0.8,0C18.2,44.7,18.2,43.4,18.2,42.1z"/>
	</g>
	<g id="XMLID_1724_">
		<path id="XMLID_274_" class="st0" d="M33.3,41.4c0,1.6,0,3.1,0,4.6c-0.3,0-0.5,0-0.8,0c0-1.3,0-2.6,0-3.9c-0.2,0-0.5,0-0.7,0
			c0-0.2,0-0.5,0-0.7C32.2,41.4,32.7,41.4,33.3,41.4z"/>
	</g>
	<g id="XMLID_1723_">
		<path id="XMLID_272_" class="st0" d="M7.3,46c-0.3,0-0.5,0-0.8,0c0-1.5,0-3.1,0-4.6c0.3,0,0.5,0,0.8,0C7.3,42.9,7.3,44.5,7.3,46z"
			/>
	</g>
	<g id="XMLID_1722_">
		<path id="XMLID_270_" class="st0" d="M30.8,58.4c-0.6,0-1.2,0-1.7,0c0.1-0.4,0.5-0.7,0.9-0.7C30.4,57.7,30.7,58,30.8,58.4z"/>
	</g>
	<g id="XMLID_1721_">
		<path id="XMLID_268_" class="st0" d="M21.8,58.7c0,0.6-0.4,1-0.9,1c-0.6,0-0.9-0.4-0.9-1c0-0.6,0.4-1,0.9-1
			C21.4,57.8,21.8,58.2,21.8,58.7z"/>
	</g>
	<g id="XMLID_1719_">
		<path id="XMLID_266_" class="st0" d="M33.1,62.5c0-0.2,0.2-0.4,0.4-0.4c0.2,0,0.4,0.2,0.4,0.4c0,0.2-0.2,0.4-0.4,0.4
			C33.3,62.9,33.1,62.7,33.1,62.5z"/>
	</g>
	<g id="XMLID_1718_">
		<path id="XMLID_264_" class="st0" d="M23.9,62.5c0-0.2,0.2-0.4,0.4-0.4c0.2,0,0.4,0.2,0.4,0.4c0,0.2-0.2,0.4-0.4,0.4
			C24,62.9,23.9,62.7,23.9,62.5z"/>
	</g>
	<g id="XMLID_1717_">
		<path id="XMLID_262_" class="st0" d="M18.7,62.3c0.1-0.2,0.2-0.3,0.4-0.3c0.2,0,0.3,0.1,0.4,0.3C19.2,62.3,18.9,62.3,18.7,62.3z"
			/>
	</g>
	<g id="XMLID_1716_">
		<path id="XMLID_260_" class="st0" d="M29.5,62.1c0.2,0,0.4,0.2,0.4,0.4c0,0.3-0.2,0.4-0.4,0.4c-0.2,0-0.4-0.2-0.4-0.4
			C29.1,62.2,29.3,62.1,29.5,62.1z"/>
	</g>
</g>
<g id="XMLID_32_">
	<path id="XMLID_47_" class="st0" d="M9.5,69.9c0,0.2,0.1,0.6,0.8,0.6c0.4,0,0.8-0.1,0.8-0.5c0-0.3-0.3-0.4-0.7-0.5L10,69.5
		c-0.6-0.1-1.2-0.3-1.2-1.1c0-0.4,0.2-1.1,1.4-1.1c1.1,0,1.4,0.7,1.5,1.2h-0.7c0-0.2-0.1-0.6-0.8-0.6c-0.3,0-0.6,0.1-0.6,0.4
		c0,0.3,0.2,0.4,0.4,0.4l0.9,0.2c0.5,0.1,1,0.3,1,1c0,1.1-1.1,1.2-1.5,1.2c-1.4,0-1.6-0.8-1.6-1.2H9.5z"/>
	<path id="XMLID_44_" class="st0" d="M13.1,71.1h-0.8l1.3-3.7h0.9l1.3,3.7h-0.8l-0.2-0.8h-1.4L13.1,71.1z M13.5,69.7h0.9L14,68.2h0
		L13.5,69.7z"/>
	<path id="XMLID_42_" class="st0" d="M18.1,68h0.1c0.7,0,0.9-0.4,0.9-0.6h0.6v3.7H19v-2.5h-0.9V68z"/>
	<path id="XMLID_39_" class="st0" d="M21.6,70.2L21.6,70.2c0,0.3,0.2,0.4,0.4,0.4c0.3,0,0.6-0.3,0.6-1l0,0c-0.2,0.2-0.5,0.3-0.7,0.3
		c-0.7,0-1.1-0.5-1.1-1.2c0-0.9,0.5-1.3,1.3-1.3c1.3,0,1.3,1.4,1.3,1.9c0,1.4-0.7,1.9-1.3,1.9c-0.6,0-1.1-0.4-1.1-0.9H21.6z
		 M22.1,69.3c0.3,0,0.5-0.2,0.5-0.6c0-0.4-0.2-0.7-0.6-0.7c-0.2,0-0.5,0.1-0.5,0.6C21.5,69.2,21.8,69.3,22.1,69.3z"/>
	<path id="XMLID_37_" class="st0" d="M24.8,68.9H25c0.2,0,0.6,0,0.6-0.5c0-0.1-0.1-0.5-0.5-0.5c-0.5,0-0.5,0.5-0.5,0.6h-0.7
		c0-0.7,0.4-1.2,1.2-1.2c0.5,0,1.1,0.2,1.1,1c0,0.4-0.2,0.6-0.4,0.7v0c0.1,0,0.6,0.2,0.6,0.9c0,0.7-0.5,1.2-1.3,1.2
		c-0.3,0-1.3-0.1-1.3-1.2h0.7l0,0c0,0.2,0.1,0.6,0.5,0.6c0.3,0,0.5-0.2,0.5-0.6c0-0.5-0.5-0.5-0.8-0.5V68.9z"/>
	<path id="XMLID_33_" class="st0" d="M28.4,69.9H27v-0.7h1.4V69.9z"/>
	<path id="XMLID_35_" class="st0" d="M29.1,68h0.1c0.7,0,0.9-0.4,0.9-0.6h0.6v3.7H30v-2.5h-0.9V68z"/>
</g>
</svg>
