<?xml version="1.0" encoding="utf-8"?>
<!-- Generator: Adobe Illustrator 19.0.0, SVG Export Plug-In . SVG Version: 6.00 Build 0)  -->
<svg version="1.1" id="Layer_1" xmlns="http://www.w3.org/2000/svg" xmlns:xlink="http://www.w3.org/1999/xlink" x="0px" y="0px"
	 viewBox="0 0 40.6 71.4" style="enable-background:new 0 0 40.6 71.4;" xml:space="preserve">
<style type="text/css">
	.st0{fill:#FFFFFF;}
</style>
<g id="XMLID_1298_">
	<g id="XMLID_1568_">
		<path id="XMLID_228_" class="st0" d="M5.7,0C5.8,0,5.9,0,6,0c9.5,0,19.1,0,28.6,0c0.1,0,0.2,0,0.4,0c3,0.1,5.4,2.5,5.5,5.5
			c0,0.1,0,0.2,0,0.4c0,18.3,0,36.6,0,54.9c0,0.1,0,0.2,0,0.4c-0.1,3-2.6,5.4-5.5,5.5c-0.1,0-0.2,0-0.4,0c-9.5,0-19.1,0-28.6,0
			c-0.1,0-0.2,0-0.4,0c-3-0.1-5.4-2.5-5.5-5.5c0-0.1,0-0.2,0-0.4c0-18.3,0-36.6,0-54.9c0-0.1,0-0.2,0-0.4C0.3,2.5,2.7,0.1,5.7,0z
			 M39.5,53.3c0-0.1,0-0.1,0-0.2c0-15.7,0-31.5,0-47.2c0-0.4,0-0.7-0.1-1.1C38.9,2.6,37,1,34.6,1C25.1,1,15.5,1,6,1
			C5.5,1,5,1.1,4.5,1.2c-2,0.7-3.4,2.5-3.4,4.7c0,15.7,0,31.4,0,47.2c0,0.1,0,0.1,0,0.2C13.9,53.3,26.7,53.3,39.5,53.3z M31.8,59.4
			c0.1-1.2-0.8-1.9-1.5-2c-1-0.1-1.8,0.6-1.9,1.6c-0.1,0.9,0.6,1.8,1.6,1.9c0.9,0.1,1.6-0.5,1.7-1.1c-0.2,0-0.5,0-0.7,0
			c0,0-0.1,0-0.1,0.1c-0.2,0.2-0.4,0.3-0.6,0.3c-0.6,0.1-1-0.2-1.1-0.8C30,59.4,30.9,59.4,31.8,59.4z M8.7,63.6
			c0.3,0,0.5-0.1,0.7-0.3c0.2-0.2,0.5-0.5,0.7-0.7c0.2-0.2,0.2-0.2,0-0.4c-0.9-0.9-1.7-1.7-2.6-2.6c0,0-0.1-0.1-0.1-0.1
			c-0.1-0.1-0.1,0-0.1,0.1c0,0,0,0.1,0,0.1c0,0.8,0,1.7,0,2.5c0,0.1,0,0.3,0.1,0.4c0.3,0.3,0.5,0.5,0.8,0.8
			C8.4,63.6,8.6,63.6,8.7,63.6z M10.3,58.9c0-0.4,0-0.8,0-1.3c0-0.1-0.1-0.2-0.1-0.3c-0.2-0.3-0.5-0.5-0.8-0.8
			c-0.3-0.3-0.9-0.3-1.2,0c-0.3,0.3-0.5,0.5-0.8,0.8c-0.1,0.1-0.1,0.2,0,0.3c0.9,0.9,1.8,1.8,2.7,2.7c0,0,0.1,0.1,0.2,0.1
			c0-0.1,0-0.1,0-0.2C10.3,59.8,10.3,59.3,10.3,58.9z M22.6,59.1c0-1-0.8-1.7-1.7-1.7c-0.9,0-1.7,0.8-1.7,1.7c0,1,0.7,1.8,1.7,1.8
			C21.8,60.9,22.6,60.2,22.6,59.1z M23.8,60.8c0-0.1,0-0.1,0-0.1c0-0.5,0-1,0-1.5c0-0.2,0-0.4,0.1-0.6c0.1-0.3,0.3-0.4,0.7-0.4
			c0.3,0,0.5,0.2,0.5,0.4c0,0.2,0.1,0.3,0.1,0.5c0,0.5,0,1,0,1.5c0,0.1,0,0.1,0,0.2c0.3,0,0.5,0,0.7,0c0-0.8,0-1.5,0-2.3
			c0-0.6-0.5-1-1.1-1.1c-0.4,0-0.7,0.1-1,0.4c0-0.1,0-0.3,0-0.4c-0.3,0-0.5,0-0.7,0c0,1.1,0,2.2,0,3.3
			C23.3,60.8,23.6,60.8,23.8,60.8z M35.5,58.7c-0.2-0.8-0.9-1.4-1.8-1.3c-0.9,0.1-1.6,0.9-1.6,1.7c0,0.9,0.7,1.7,1.6,1.7
			c0.9,0.1,1.6-0.5,1.8-1.3c-0.2,0-0.5,0-0.7,0c0,0-0.1,0-0.1,0.1c-0.2,0.4-0.7,0.5-1.1,0.4c-0.4-0.1-0.7-0.5-0.7-0.9
			c0-0.5,0.3-0.8,0.6-1c0.4-0.1,0.8,0,1.1,0.4c0,0,0.1,0.1,0.1,0.1C35,58.7,35.2,58.7,35.5,58.7z M18.8,58.7c-0.2-0.8-1-1.4-1.9-1.2
			c-0.9,0.1-1.6,1-1.5,1.9c0.1,0.9,0.9,1.6,1.8,1.6c0.8,0,1.5-0.7,1.5-1.3c-0.2,0-0.5,0-0.7,0c0,0-0.1,0-0.1,0.1
			c-0.1,0.3-0.4,0.4-0.6,0.4c-0.5,0.1-0.9-0.2-1-0.6c-0.2-0.5,0.1-1,0.5-1.2c0.4-0.2,0.9-0.1,1.2,0.3c0,0,0.1,0.1,0.1,0.1
			C18.3,58.7,18.6,58.7,18.8,58.7z M27.7,60.8c0-0.9,0-1.7,0-2.6c0.2,0,0.3,0,0.5,0c0-0.2,0-0.4,0-0.7c-0.2,0-0.3,0-0.5,0
			c0-0.4,0-0.8,0-1.2c-0.3,0-0.5,0-0.8,0c0,0.4,0,0.8,0,1.2c-0.2,0-0.3,0-0.5,0c0,0.2,0,0.4,0,0.7c0.2,0,0.3,0,0.5,0
			c0,0.9,0,1.7,0,2.6C27.2,60.8,27.4,60.8,27.7,60.8z M6.8,58c-0.1,0-0.1,0-0.1,0.1c-0.4,0.4-0.9,0.9-1.3,1.3
			c-0.3,0.3-0.3,0.8,0,1.2c0.4,0.4,0.8,0.8,1.3,1.3c0,0,0.1,0,0.1,0.1C6.8,60.6,6.8,59.3,6.8,58z M10.8,62c0.1-0.1,0.1-0.1,0.1-0.1
			c0.4-0.4,0.8-0.8,1.2-1.2c0.4-0.4,0.4-0.9,0-1.3c-0.4-0.4-0.8-0.8-1.2-1.2c0,0-0.1-0.1-0.1-0.1C10.8,59.3,10.8,60.6,10.8,62z
			 M14.1,57.5c0,1.1,0,2.2,0,3.3c0.3,0,0.5,0,0.8,0c0-1.1,0-2.2,0-3.3C14.6,57.5,14.4,57.5,14.1,57.5z M34.1,62.2c0,0,0,0.1,0,0.1
			c-0.3-0.2-0.6-0.2-0.8-0.1c-0.2,0.2-0.4,0.5-0.3,0.8c0.2,0.6,0.6,0.7,1.2,0.5c0,0,0,0.1,0,0.1c0.1,0,0.2,0,0.3,0
			c0-0.5,0-0.9,0-1.4C34.3,62.2,34.2,62.2,34.1,62.2z M24.8,62.4c-0.3-0.2-0.6-0.2-0.8-0.1c-0.3,0.2-0.4,0.5-0.3,0.8
			c0.2,0.6,0.6,0.7,1.2,0.5c0,0,0,0.1,0,0.1c0.1,0,0.2,0,0.3,0c0-0.5,0-0.9,0-1.4c-0.1,0-0.2,0-0.3,0C24.8,62.3,24.8,62.3,24.8,62.4
			z M19.8,63c0.1-0.5-0.3-0.8-0.7-0.9c-0.4,0-0.7,0.3-0.8,0.6c0,0.4,0.2,0.8,0.6,0.8c0.4,0,0.7-0.2,0.8-0.5c-0.2,0-0.3,0-0.4,0.1
			c-0.2,0.2-0.6,0-0.6-0.3c0.2,0,0.4,0,0.5,0C19.4,63,19.6,63,19.8,63z M29.6,63.7c0.4,0,0.7-0.3,0.8-0.7c0-0.4-0.3-0.7-0.7-0.7
			c-0.4,0-0.7,0.3-0.7,0.7C28.9,63.3,29.2,63.7,29.6,63.7z M15.2,62.2c0,0.5,0,1,0,1.4c0.1,0,0.2,0,0.3,0c0-0.1,0-0.3,0-0.4
			c0-0.2,0-0.3,0-0.5c0-0.1,0.1-0.2,0.3-0.2c0.1,0,0.2,0.1,0.2,0.2c0,0.1,0,0.3,0,0.4c0,0.2,0,0.3,0,0.5c0.1,0,0.2,0,0.3,0
			c0-0.3,0-0.7,0-1c0-0.3-0.3-0.5-0.6-0.4c-0.1,0-0.2,0.1-0.3,0.1C15.4,62.1,15.3,62.3,15.2,62.2z M31.3,63.6c0-0.1,0-0.2,0-0.2
			c0-0.2,0-0.4,0-0.7c0-0.2,0.1-0.2,0.3-0.2c0.2,0,0.2,0.1,0.3,0.2c0,0.1,0,0.2,0,0.3c0,0.2,0,0.4,0,0.5c0.1,0,0.2,0,0.3,0
			c0-0.4,0-0.7,0-1c0-0.3-0.3-0.4-0.5-0.4c-0.1,0-0.2,0.1-0.4,0.1c0,0,0-0.1,0-0.1c-0.1,0-0.2,0-0.3,0c0,0.5,0,0.9,0,1.4
			C31.1,63.6,31.2,63.6,31.3,63.6z M27.2,63.1c-0.3,0-0.3,0-0.4,0.1c-0.1,0.2-0.4,0.2-0.6,0.1c-0.2-0.1-0.2-0.4-0.1-0.6
			c0.1-0.2,0.4-0.2,0.6,0c0.1,0.2,0.3,0.1,0.4,0.1c-0.1-0.4-0.4-0.6-0.8-0.5c-0.4,0-0.7,0.4-0.7,0.8c0,0.4,0.3,0.7,0.7,0.7
			C26.8,63.7,27.1,63.5,27.2,63.1z M22,63.6c0-0.1,0-0.2,0-0.2c0-0.2,0-0.4,0-0.6c0-0.2,0.1-0.2,0.3-0.2c0.2,0,0.2,0.1,0.3,0.2
			c0,0.1,0,0.2,0,0.3c0,0.2,0,0.4,0,0.6c0.1,0,0.2,0,0.3,0c0-0.3,0-0.7,0-1c0-0.3-0.2-0.4-0.5-0.4c-0.1,0-0.3,0.1-0.4,0.1
			c0,0,0,0,0-0.1c-0.1,0-0.2,0-0.3,0c0,0.5,0,0.9,0,1.4C21.8,63.6,21.9,63.6,22,63.6z M17.6,63.6c0-0.4,0-0.7,0-1.1
			c0.1,0,0.1,0,0.2,0c0-0.1,0-0.2,0-0.3c-0.1,0-0.1,0-0.2,0c0-0.2,0-0.3,0-0.5c-0.1,0-0.2,0-0.3,0c0,0.2,0,0.3,0,0.5
			c-0.1,0-0.1,0-0.2,0c0,0.1,0,0.2,0,0.3c0.1,0,0.1,0,0.2,0c0,0.4,0,0.7,0,1.1C17.4,63.6,17.5,63.6,17.6,63.6z M14,56.8
			c0,0.3,0.2,0.5,0.5,0.5c0.3,0,0.5-0.2,0.5-0.5c0-0.3-0.2-0.5-0.5-0.5C14.2,56.3,14,56.5,14,56.8z M20.8,63.6
			C20.8,63.6,20.8,63.6,20.8,63.6c0-0.3,0-0.5,0-0.7c0-0.3,0-0.4,0.3-0.4c0-0.1,0-0.2,0-0.3c-0.1,0.1-0.2,0.1-0.3,0.1
			c0-0.1-0.1-0.1-0.3-0.1c0,0.5,0,0.9,0,1.4C20.6,63.6,20.7,63.6,20.8,63.6z M35.2,61.8c0,0.6,0,1.2,0,1.9c0.1,0,0.2,0,0.3,0
			c0-0.6,0-1.2,0-1.9C35.4,61.8,35.3,61.8,35.2,61.8z M27.9,62.2c0,0.5,0,0.9,0,1.4c0.1,0,0.2,0,0.3,0c0-0.5,0-0.9,0-1.4
			C28.1,62.2,28,62.2,27.9,62.2z M14.1,62.2c0,0.5,0,0.9,0,1.4c0.1,0,0.2,0,0.3,0c0-0.5,0-0.9,0-1.4C14.3,62.2,14.2,62.2,14.1,62.2z
			 M28.2,61.9c0-0.1-0.1-0.2-0.2-0.2c-0.1,0-0.2,0.1-0.2,0.2c0,0.1,0.1,0.2,0.2,0.2C28.2,62.1,28.2,62,28.2,61.9z M14.3,61.7
			c-0.1,0-0.2,0.1-0.2,0.2c0,0.1,0.1,0.2,0.2,0.2c0.1,0,0.2-0.1,0.2-0.2C14.4,61.8,14.4,61.8,14.3,61.7z"/>
	</g>
	<g id="XMLID_1567_">
		<path id="XMLID_226_" class="st0" d="M10.5,19.9c0-0.3-0.1-0.6-0.1-0.9c-0.3-3.3,0.8-6.2,3.2-8.6c1.6-1.6,3.6-2.6,5.8-3.1
			c1.5-0.3,3-0.3,4.4,0.2c0.5,0.2,0.9,0.5,0.9,1.1c0,0.5-0.2,0.8-0.6,1.1c-0.4,0.3-0.8,0.3-1.3,0.2c-1.3-0.4-2.6-0.3-3.8,0
			c-2.3,0.7-4.1,2.1-5.3,4.2c-0.8,1.4-1.1,2.8-0.9,4.4c0,0.5,0.1,1,0.2,1.4c0,0,0,0,0.1,0c0-0.2-0.1-0.5-0.1-0.7
			c-0.1-1.7,0.2-3.3,1.2-4.7c1.3-2,3.2-3.2,5.4-3.7c1.4-0.3,2.9-0.3,4.3,0.1c1.8,0.5,3.1,1.6,4.2,3.1c0.4,0.6,0.7,1.2,1,1.8
			c0.1,0.4,0.2,0.7,0.1,1.1c-0.2,0.8-1,1.1-1.8,0.7c-0.3-0.2-0.5-0.4-0.7-0.8c-0.5-1.1-1.1-2.1-2.1-2.8c-1.1-0.8-2.3-1.1-3.6-1
			c-1.4,0.1-2.6,0.6-3.7,1.5c-1.3,1.2-1.9,2.6-1.8,4.4c0.1,1.1,0.5,2.1,1.1,3c0.8,1.4,2.1,2.1,3.7,2.4c1.4,0.2,2.7,0,4-0.6
			c0.7-0.3,1.2-0.8,1.7-1.5c0.2-0.3,0.4-0.5,0.6-0.8c0.2-0.3,0.5-0.4,0.9-0.4c0.5,0,0.9,0,1.4,0c1.7,0,3.4,0,5.1,0
			c0.9,0,1.5,0.4,1.9,1.2c0.3,0.5,0.3,1.1,0.1,1.6c0,0,0,0.1-0.1,0.1c-1,1.4-2,2.8-3.3,4c-1.7,1.6-3.6,2.9-5.9,3.6
			c-1.1,0.3-2.1,0.5-3.3,0.7c-2.1,0.2-4.1,0-6.2-0.4c-1.5-0.3-2.9-0.9-4.2-1.7c-3.7-2.3-6.2-5.5-7.7-9.6c-0.7-2-0.9-4.1-0.7-6.2
			c0.2-2.2,0.9-4.3,2-6.3C6.9,7.9,7.2,7.4,7.5,7c0.3-0.5,0.8-0.8,1.4-0.7c0.8,0,1.5,0.9,1,1.8C9.7,8.2,9.6,8.3,9.5,8.5
			c-1,1.4-1.6,2.9-2,4.5c-0.3,1.2-0.4,2.5-0.3,3.8C7.3,18,7.5,19.2,8,20.4c0,0,0,0.1,0.1,0.1c0,0,0,0,0,0C8,20.3,8,20,7.9,19.8
			c-0.3-1.3-0.3-2.5-0.2-3.8c0.1-1.7,0.5-3.3,1.2-4.8c1.1-2.3,2.8-4.1,5-5.5c0.7-0.4,1.4-0.8,2.2-1.1c1.1-0.5,1.8,0.5,1.7,1.3
			c-0.1,0.5-0.3,0.8-0.8,1c-1.3,0.4-2.3,1.2-3.3,2.1c-1.5,1.3-2.5,2.9-3.1,4.8C9.9,15.8,9.9,17.8,10.5,19.9
			C10.4,19.8,10.4,19.9,10.5,19.9C10.5,19.9,10.5,19.9,10.5,19.9z"/>
	</g>
	<g id="XMLID_1552_">
		<path id="XMLID_222_" class="st0" d="M18.8,45.1c0.3,0,0.5,0,0.8,0c0.1,0.3,0.3,0.5,0.6,0.5c0.3,0,0.5-0.1,0.6-0.3
			c0.2-0.3,0.2-0.7,0.3-1c0,0,0,0,0,0c-0.4,0.8-1.5,0.6-1.9,0c-0.5-0.6-0.4-1.7,0-2.3c0.5-0.7,2-0.8,2.5,0.3c0.2,0.5,0.3,1,0.3,1.5
			c0,0.6,0,1.1-0.3,1.6c-0.4,0.7-1.3,1.1-2,0.7C19,46,18.8,45.7,18.8,45.1z M21,43.1c-0.1-0.2-0.1-0.4-0.2-0.5c-0.2-0.4-0.8-0.4-1,0
			c-0.2,0.3-0.2,0.7-0.1,1c0.1,0.3,0.3,0.4,0.6,0.4c0.3,0,0.5-0.2,0.6-0.4C20.9,43.4,20.9,43.3,21,43.1z"/>
	</g>
	<g id="XMLID_1547_">
		<path id="XMLID_218_" class="st0" d="M16.5,43.9c0,0.6-0.1,1.2-0.4,1.7c-0.7,1.1-2.1,1-2.7-0.1c-0.3-0.5-0.4-1-0.4-1.6
			c0-0.5,0.1-1.1,0.4-1.6c0.5-0.8,1.4-1.1,2.2-0.6c0.4,0.3,0.7,0.7,0.8,1.2C16.4,43.3,16.4,43.6,16.5,43.9z M15.7,44
			C15.7,44,15.7,44,15.7,44c0-0.1,0-0.2,0-0.3c0-0.4-0.1-0.8-0.3-1.1c-0.3-0.4-0.9-0.4-1.2,0c-0.1,0.1-0.1,0.2-0.2,0.3
			c-0.2,0.5-0.2,1-0.1,1.5c0,0.3,0.1,0.7,0.3,0.9c0.3,0.4,0.9,0.4,1.2,0c0.1-0.1,0.1-0.2,0.2-0.3C15.6,44.6,15.6,44.3,15.7,44z"/>
	</g>
	<g id="XMLID_1543_">
		<path id="XMLID_214_" class="st0" d="M29.1,44.1c0,0.4-0.1,1-0.3,1.5c-0.5,0.9-1.7,1-2.3,0.2c-0.2-0.3-0.3-0.6-0.4-0.9
			c-0.2-0.8-0.2-1.7,0.2-2.5c0.2-0.5,0.5-0.8,1-0.9c0.7-0.1,1.3,0.2,1.6,0.9C29,42.8,29.1,43.4,29.1,44.1z M26.7,43.9
			C26.7,43.9,26.8,43.9,26.7,43.9c0.1,0.2,0,0.3,0.1,0.5c0,0.3,0.1,0.6,0.3,0.9c0.2,0.4,0.7,0.4,0.9,0c0.1-0.1,0.2-0.3,0.2-0.4
			c0.2-0.6,0.2-1.2,0-1.8c0-0.2-0.1-0.4-0.2-0.6c-0.2-0.4-0.7-0.4-0.9,0c-0.1,0.1-0.1,0.2-0.2,0.3C26.8,43.2,26.8,43.6,26.7,43.9z"
			/>
	</g>
	<g id="XMLID_1524_">
		<path id="XMLID_210_" class="st0" d="M22.3,44.1c0-0.8,0.1-1.3,0.3-1.8c0.4-0.7,1.2-1,1.9-0.6c0.4,0.2,0.6,0.6,0.7,1
			c0.3,1,0.3,1.9-0.2,2.9c-0.4,0.7-1.2,1-1.9,0.6c-0.4-0.2-0.6-0.6-0.7-0.9C22.4,44.8,22.3,44.4,22.3,44.1z M23.1,43.9
			C23.1,43.9,23.1,43.9,23.1,43.9c0,0.2,0,0.4,0.1,0.6c0,0.3,0.1,0.6,0.3,0.8c0.2,0.4,0.7,0.4,0.9,0c0.1-0.1,0.2-0.3,0.2-0.5
			c0.1-0.6,0.1-1.1,0-1.7c0-0.2-0.1-0.5-0.2-0.7c-0.2-0.4-0.7-0.4-0.9,0c-0.1,0.1-0.1,0.2-0.1,0.3C23.2,43.2,23.2,43.6,23.1,43.9z"
			/>
	</g>
	<g id="XMLID_1515_">
		<path id="XMLID_208_" class="st0" d="M9.7,44.8c0.3,0,0.5,0,0.7,0c0,0.1,0.1,0.3,0.1,0.4c0.1,0.3,0.3,0.4,0.6,0.4
			c0.3,0,0.5-0.2,0.6-0.5c0.1-0.3,0-0.6-0.3-0.7c-0.2-0.1-0.4-0.2-0.6-0.3c-0.2-0.1-0.3-0.1-0.5-0.2c-0.5-0.3-0.7-0.9-0.6-1.5
			c0.1-0.5,0.6-0.9,1.2-0.9c0.9,0,1.5,0.5,1.4,1.4c-0.2,0-0.5,0-0.7,0c0-0.1-0.1-0.2-0.1-0.3c-0.1-0.2-0.3-0.4-0.6-0.3
			c-0.2,0-0.4,0.2-0.5,0.4c-0.1,0.3,0,0.5,0.3,0.6c0.2,0.1,0.4,0.2,0.5,0.2c0.1,0,0.2,0.1,0.4,0.1c0.9,0.4,1.1,1.7,0.4,2.3
			c-0.4,0.4-1,0.5-1.5,0.3c-0.5-0.2-0.8-0.6-0.9-1.1C9.7,45.1,9.7,45,9.7,44.8z"/>
	</g>
	<g id="XMLID_1314_">
		<path id="XMLID_206_" class="st0" d="M30.8,42.3c-0.3,0-0.5,0-0.7,0c0-0.2,0-0.5,0-0.7c0.5,0,1,0,1.5,0c0,1.6,0,3.1,0,4.7
			c-0.3,0-0.5,0-0.8,0C30.8,45,30.8,43.7,30.8,42.3z"/>
	</g>
	<g id="XMLID_1310_">
		<path id="XMLID_204_" class="st0" d="M9,46.3c-0.3,0-0.5,0-0.8,0c0-1.6,0-3.1,0-4.7c0.3,0,0.5,0,0.8,0C9,43.2,9,44.7,9,46.3z"/>
	</g>
	<g id="XMLID_1309_">
		<path id="XMLID_202_" class="st0" d="M30.9,58.8c-0.6,0-1.2,0-1.7,0c0-0.4,0.4-0.7,0.9-0.7C30.5,58.1,30.9,58.4,30.9,58.8z"/>
	</g>
	<g id="XMLID_1308_">
		<path id="XMLID_200_" class="st0" d="M19.9,59c0-0.3,0.2-0.6,0.5-0.8c0.4-0.2,0.7-0.1,1,0.2c0.3,0.3,0.4,0.9,0.1,1.3
			c-0.2,0.4-0.7,0.5-1.1,0.4C20.2,60,19.9,59.6,19.9,59z"/>
	</g>
	<g id="XMLID_1306_">
		<path id="XMLID_198_" class="st0" d="M33.7,62.5c0.2,0,0.4,0.2,0.4,0.4c0,0.2-0.2,0.4-0.4,0.4c-0.2,0-0.4-0.2-0.4-0.4
			C33.3,62.7,33.4,62.5,33.7,62.5z"/>
	</g>
	<g id="XMLID_1304_">
		<path id="XMLID_196_" class="st0" d="M24.4,63.3c-0.2,0-0.4-0.2-0.4-0.4c0-0.2,0.2-0.4,0.4-0.4c0.2,0,0.4,0.2,0.4,0.4
			C24.7,63.1,24.6,63.3,24.4,63.3z"/>
	</g>
	<g id="XMLID_1302_">
		<path id="XMLID_194_" class="st0" d="M19.4,62.8c-0.3,0-0.5,0-0.7,0c0-0.2,0.2-0.3,0.3-0.3C19.2,62.5,19.4,62.6,19.4,62.8z"/>
	</g>
	<g id="XMLID_1299_">
		<path id="XMLID_192_" class="st0" d="M29.6,63.3c-0.2,0-0.4-0.2-0.4-0.4c0-0.2,0.2-0.4,0.4-0.4c0.2,0,0.4,0.2,0.4,0.4
			C30,63.2,29.9,63.3,29.6,63.3z"/>
	</g>
</g>
<g id="XMLID_28_">
	<path id="XMLID_43_" class="st0" d="M7.3,70.3c0,0.2,0.1,0.6,0.8,0.6c0.4,0,0.8-0.1,0.8-0.5c0-0.3-0.3-0.4-0.7-0.5l-0.4-0.1
		c-0.6-0.1-1.2-0.3-1.2-1.1c0-0.4,0.2-1.1,1.4-1.1c1.1,0,1.4,0.7,1.5,1.2H8.8c0-0.2-0.1-0.6-0.8-0.6c-0.3,0-0.6,0.1-0.6,0.4
		c0,0.3,0.2,0.4,0.4,0.4l0.9,0.2c0.5,0.1,1,0.3,1,1c0,1.1-1.1,1.2-1.5,1.2c-1.4,0-1.6-0.8-1.6-1.2H7.3z"/>
	<path id="XMLID_41_" class="st0" d="M12.8,68.9c-0.1-0.2-0.2-0.6-0.8-0.6c-0.4,0-0.9,0.2-0.9,1.3c0,0.7,0.3,1.3,0.9,1.3
		c0.4,0,0.7-0.2,0.8-0.7h0.8c-0.2,0.8-0.7,1.4-1.6,1.4c-1,0-1.7-0.7-1.7-2c0-1.3,0.8-2,1.7-2c1.1,0,1.6,0.8,1.6,1.3H12.8z"/>
	<path id="XMLID_39_" class="st0" d="M15.8,69c0-1.2,0.9-1.3,1.2-1.3c0.7,0,1.3,0.4,1.3,1.2c0,0.6-0.4,1-0.8,1.2
		c-0.5,0.3-0.7,0.5-0.8,0.7h1.6v0.6h-2.5c0-0.4,0.1-0.9,0.9-1.5c0.7-0.5,0.9-0.7,0.9-1.1c0-0.2-0.2-0.5-0.5-0.5
		c-0.5,0-0.5,0.4-0.5,0.7H15.8z"/>
	<path id="XMLID_37_" class="st0" d="M19.8,69.3h0.1c0.2,0,0.6,0,0.6-0.5c0-0.1-0.1-0.5-0.5-0.5c-0.5,0-0.5,0.5-0.5,0.6h-0.7
		c0-0.7,0.4-1.2,1.2-1.2c0.5,0,1.1,0.2,1.1,1c0,0.4-0.2,0.6-0.4,0.7v0c0.1,0,0.6,0.2,0.6,0.9c0,0.7-0.5,1.2-1.3,1.2
		c-0.3,0-1.3-0.1-1.3-1.2h0.7l0,0c0,0.2,0.1,0.6,0.5,0.6c0.3,0,0.5-0.2,0.5-0.6c0-0.5-0.5-0.5-0.8-0.5V69.3z"/>
	<path id="XMLID_35_" class="st0" d="M22.2,68.4h0.1c0.7,0,0.9-0.4,0.9-0.6h0.6v3.7H23v-2.5h-0.9V68.4z"/>
	<path id="XMLID_33_" class="st0" d="M25.8,69.3h0.1c0.2,0,0.6,0,0.6-0.5c0-0.1-0.1-0.5-0.5-0.5c-0.5,0-0.5,0.5-0.5,0.6h-0.7
		c0-0.7,0.4-1.2,1.2-1.2c0.5,0,1.1,0.2,1.1,1c0,0.4-0.2,0.6-0.4,0.7v0c0.1,0,0.6,0.2,0.6,0.9c0,0.7-0.5,1.2-1.3,1.2
		c-0.3,0-1.3-0.1-1.3-1.2h0.7l0,0c0,0.2,0.1,0.6,0.5,0.6c0.3,0,0.5-0.2,0.5-0.6c0-0.5-0.5-0.5-0.8-0.5V69.3z"/>
	<path id="XMLID_31_" class="st0" d="M29.4,70.3h-1.4v-0.7h1.4V70.3z"/>
	<path id="XMLID_29_" class="st0" d="M30.1,68.4h0.1c0.7,0,0.9-0.4,0.9-0.6h0.6v3.7H31v-2.5h-0.9V68.4z"/>
</g>
</svg>
