<?xml version="1.0" encoding="utf-8"?>
<!-- Generator: Adobe Illustrator 19.0.0, SVG Export Plug-In . SVG Version: 6.00 Build 0)  -->
<svg version="1.1" id="Layer_1" xmlns="http://www.w3.org/2000/svg" xmlns:xlink="http://www.w3.org/1999/xlink" x="0px" y="0px"
	 viewBox="0 0 55.8 92.3" style="enable-background:new 0 0 55.8 92.3;" xml:space="preserve">
<style type="text/css">
	.st0{fill:#FFFFFF;}
</style>
<g id="XMLID_2039_">
	<path id="XMLID_2062_" class="st0" d="M0,46.1C0,33.5,0,20.9,0,8.2c0-1.5,0.3-3,1.1-4.3c1.3-2.2,3.2-3.5,5.7-3.9C7.3,0,7.7,0,8.2,0
		c13.1,0,26.3,0,39.4,0c3.5,0,6.5,2.1,7.6,5.2c0.3,0.9,0.5,1.7,0.5,2.6c0,0.1,0,0.2,0,0.3c0,25.3,0,50.6,0,75.9
		c0,1.9-0.6,3.7-1.8,5.2c-1.4,1.7-3.2,2.7-5.4,3c-0.3,0-0.6,0-1,0c-13.2,0-26.3,0-39.5,0c-3.5,0-6-1.7-7.5-4.8C0.2,86.4,0,85.2,0,84
		c0-7.2,0-14.3,0-21.5C0,57.1,0,51.6,0,46.1z M54.4,40.6c0-10.8,0-21.5,0-32.3c0-0.3,0-0.6,0-0.8c-0.1-1.4-0.6-2.7-1.6-3.8
		c-1.3-1.5-3-2.3-5.1-2.3c-13.2,0-26.4,0-39.7,0c-0.1,0-0.1,0-0.2,0c-1,0-1.9,0.2-2.8,0.7C2.7,3.4,1.4,5.4,1.4,8.2
		c0,21.7,0,43.5,0,65.2c0,0,0,0.1,0,0.1c0,0.1,0,0.2,0.2,0.2c0.1,0,0.1,0,0.2,0c17.4,0,34.9,0,52.3,0c0.1,0,0.1,0,0.2,0
		c0.1,0,0.2,0,0.2-0.2c0-0.1,0-0.1,0-0.2C54.4,62.4,54.4,51.5,54.4,40.6z M40.1,82.1c0.1,0,0.2,0,0.2,0c1.1,0,2.1,0,3.2,0
		c0.2,0,0.2,0,0.2-0.2c0-0.2,0-0.4,0-0.6c-0.2-1.2-1.5-2.1-2.6-1.9c-1.4,0.2-2.3,1.4-2.1,2.8c0.2,1,0.9,1.8,1.9,1.9
		c1.1,0.2,2-0.2,2.5-1.1c0.1-0.1,0.1-0.3,0.2-0.4c-0.4,0-0.7,0-1.1,0c0,0-0.1,0-0.1,0.1c-0.4,0.5-0.9,0.6-1.5,0.4
		C40.4,83,40.1,82.6,40.1,82.1z M14.1,81.5c0-0.6,0-1.1,0-1.7c0-0.2,0-0.4-0.2-0.5c-0.4-0.4-0.7-0.7-1.1-1.1c-0.5-0.5-1.2-0.5-1.7,0
		c-0.4,0.3-0.7,0.7-1.1,1.1c-0.2,0.2-0.2,0.3,0,0.4c1.2,1.2,2.5,2.5,3.7,3.7c0.1,0.1,0.2,0.1,0.2,0.1c0-0.1,0.1-0.2,0.1-0.2
		c0-0.1,0-0.1,0-0.2C14.1,82.5,14.1,82,14.1,81.5z M9.9,84.4c0,0.6,0,1.1,0,1.7c0,0.2,0.1,0.4,0.2,0.5c0.4,0.4,0.7,0.7,1.1,1.1
		c0.5,0.5,1.2,0.5,1.7,0c0.4-0.4,0.7-0.7,1.1-1.1c0.1-0.2,0.1-0.3,0-0.4c-1.2-1.2-2.5-2.5-3.7-3.7c-0.1-0.1-0.2-0.1-0.2-0.1
		c0,0.1-0.1,0.2-0.1,0.2C9.9,83.2,9.9,83.8,9.9,84.4z M31.1,81.8c0-1.3-1.1-2.4-2.4-2.4c-1.3,0-2.4,1.1-2.4,2.4c0,1.3,1,2.5,2.3,2.5
		C30,84.2,31,83.2,31.1,81.8z M35.8,84.1c0-1.1,0-2.2-0.1-3.2c0-0.7-0.4-1.1-1.1-1.3c-0.6-0.2-1.3-0.1-1.8,0.4c0,0,0,0-0.1,0
		c0-0.2,0-0.3,0-0.5c-0.3,0-0.6,0-0.8,0c-0.2,0-0.2,0-0.2,0.2c0,1.4,0,2.8,0,4.1c0,0.1,0,0.1,0,0.2c0.2,0,0.4,0,0.6,0
		c0.5,0,0.5,0,0.5-0.5c0-0.7,0-1.5,0.1-2.2c0-0.6,0.4-0.9,0.9-0.9c0.5,0,0.8,0.2,0.9,0.9c0,0.4,0,0.7,0,1.1c0,0.5,0,1,0,1.4
		c0,0.1,0,0.2,0.1,0.2C35.1,84.1,35.4,84.1,35.8,84.1z M48.8,81.1c-0.1-1-1.2-1.8-2.3-1.8c-1.3,0-2.4,1.1-2.4,2.4
		c0,1.3,1,2.4,2.2,2.5c1.2,0.1,2.3-0.7,2.5-1.8c-0.4,0-0.7,0-1.1,0c0,0-0.1,0.1-0.1,0.1c-0.3,0.6-0.9,0.7-1.5,0.6
		c-0.6-0.1-0.9-0.6-0.9-1.3c0-0.6,0.3-1.2,0.8-1.3c0.6-0.2,1.2,0,1.5,0.5c0,0.1,0.1,0.1,0.2,0.1C48.1,81.1,48.5,81.1,48.8,81.1z
		 M25.8,81.1c-0.1-1-1.2-1.9-2.4-1.8c-1.3,0.1-2.3,1.2-2.3,2.5c0,1.3,1.1,2.3,2.3,2.3c1.2,0,2.3-0.8,2.3-1.8c-0.4,0-0.7,0-1,0
		c0,0-0.1,0.1-0.1,0.1c-0.3,0.6-0.9,0.7-1.5,0.6c-0.5-0.2-0.9-0.7-0.9-1.3c0-0.6,0.3-1.1,0.9-1.3c0.6-0.2,1.1,0,1.5,0.5
		c0,0.1,0.1,0.1,0.1,0.1C25.1,81.1,25.5,81.1,25.8,81.1z M38.1,80.5c0.2,0,0.4,0,0.5,0c0.1,0,0.2,0,0.2-0.2c0-0.2,0-0.4,0-0.6
		c0-0.1,0-0.2-0.2-0.2c-0.2,0-0.3,0-0.5,0c0-0.5,0-1,0-1.4c0-0.1,0-0.2-0.2-0.2c-0.2,0-0.4,0-0.7,0c-0.2,0-0.2,0-0.2,0.2
		c0,0.4,0,0.8,0,1.2c0,0.1-0.1,0.2-0.2,0.2c-0.2,0-0.3,0-0.5,0c0,0.3,0,0.6,0,1c0.2,0,0.4,0,0.7,0c0,1.2,0,2.4,0,3.6
		c0.4,0,0.7,0,1.1,0C38.1,82.9,38.1,81.7,38.1,80.5z M9.2,85.7c0-1.8,0-3.6,0-5.5C9.1,80.3,9,80.3,9,80.4c-0.6,0.6-1.1,1.1-1.7,1.7
		c-0.5,0.5-0.5,1.2,0,1.8c0.6,0.6,1.1,1.1,1.7,1.7C9,85.6,9.1,85.6,9.2,85.7z M14.8,85.7c0.1-0.1,0.2-0.1,0.2-0.1
		c0.6-0.6,1.2-1.2,1.8-1.8c0.5-0.5,0.5-1.2,0-1.7c-0.6-0.6-1.1-1.1-1.7-1.7c0,0-0.1-0.1-0.2-0.1C14.8,82,14.8,83.8,14.8,85.7z
		 M19.3,84.1c0.3,0,0.6,0,1,0c0.2,0,0.2-0.1,0.2-0.2c0-0.4,0-0.7,0-1.1c0-1,0-2.1,0-3.1c0-0.2-0.1-0.2-0.2-0.2c-0.2,0-0.4,0-0.7,0
		c-0.2,0-0.3,0-0.3,0.3c0,1.4,0,2.7,0,4.1C19.3,83.9,19.3,84,19.3,84.1z M34,86.2c-0.5-0.3-1-0.2-1.3,0.1c-0.3,0.4-0.3,1,0,1.4
		c0.2,0.2,0.4,0.3,0.6,0.4c0.3,0,0.5,0,0.7-0.2c0.1,0.2,0.1,0.2,0.5,0.1c0-0.1,0-0.1,0-0.2c0-0.5,0-1,0-1.5c0-0.1-0.1-0.2-0.1-0.2
		C34.3,86,34.1,85.9,34,86.2z M46.9,86.2c-0.5-0.3-1-0.2-1.3,0.1c-0.3,0.4-0.4,1-0.1,1.4c0.3,0.4,0.9,0.5,1.4,0.2
		C47,88,47,88,47.4,88c0-0.1,0-0.1,0-0.2c0-0.5,0-1,0-1.5c0-0.1-0.1-0.2-0.1-0.2C47.1,86,47,85.9,46.9,86.2z M27.2,87.2
		c0.1-0.6-0.3-1.1-0.9-1.2c-0.5-0.1-1.1,0.4-1.1,0.9C25.1,87.5,25.5,88,26,88c0.5,0.1,1-0.3,1.1-0.7c-0.2,0-0.4,0-0.6,0.1
		c-0.2,0.2-0.4,0.1-0.6,0c-0.1-0.1-0.2-0.2-0.2-0.4C26.2,87.2,26.7,87.2,27.2,87.2z M40.7,88.1c0.6,0,1-0.4,1-1c0-0.6-0.5-1-1-1
		c-0.6,0-1,0.5-1,1C39.7,87.6,40.2,88,40.7,88.1z M43.1,88c0-0.1,0-0.2,0-0.2c0-0.3,0-0.7,0-1c0-0.2,0.2-0.3,0.4-0.3
		c0.2,0,0.3,0.1,0.3,0.4c0,0.2,0,0.4,0,0.7c0,0.2,0,0.3,0,0.5c0.2,0,0.3,0,0.4,0c0-0.5,0-0.9,0-1.4c0-0.3-0.3-0.5-0.6-0.6
		c-0.2-0.1-0.5,0-0.7,0.2c0-0.3-0.2-0.1-0.4-0.2c0,0-0.1,0.1-0.1,0.2c0,0.5,0,1,0,1.5c0,0.1,0,0.1,0,0.2C42.8,88,43,88,43.1,88z
		 M22.5,88c0-0.5,0-1,0-1.4c0-0.4-0.3-0.6-0.7-0.6c-0.2,0-0.4,0.1-0.5,0.1C21.2,85.9,21,86,20.9,86c0,0-0.1,0.1-0.1,0.2
		c0,0.2,0,0.4,0,0.7c0,0.3,0,0.7,0,1.1c0.2,0,0.3,0,0.5,0c0-0.2,0-0.5,0-0.7c0-0.2,0-0.4,0.1-0.6c0-0.2,0.2-0.3,0.4-0.3
		c0.2,0,0.3,0.1,0.3,0.3c0,0.2,0,0.3,0,0.5c0,0.2,0,0.5,0,0.7C22.2,88,22.3,88,22.5,88z M37.4,87.3c-0.2,0.1-0.4-0.1-0.6,0.1
		c-0.2,0.2-0.5,0.3-0.7,0.1c-0.2-0.2-0.3-0.6-0.1-0.8c0.2-0.2,0.6-0.3,0.7,0c0.2,0.2,0.4,0.2,0.6,0.2c-0.1-0.5-0.5-0.8-1-0.8
		c-0.5,0-1,0.5-0.9,1c0,0.5,0.4,1,0.9,1C36.9,88.1,37.3,87.8,37.4,87.3z M29.8,88c0.2,0,0.3,0,0.5,0c0-0.2,0-0.3,0-0.5
		c0-0.3,0-0.5,0-0.8c0-0.2,0.2-0.3,0.4-0.3c0.2,0,0.3,0.1,0.3,0.3c0,0.2,0,0.4,0,0.6c0,0.2,0,0.4,0,0.6c0.2,0,0.3,0,0.4,0
		c0-0.5,0-0.9,0-1.4c0-0.4-0.3-0.6-0.7-0.6c-0.2,0-0.4,0.1-0.6,0.1c-0.1-0.2-0.2-0.1-0.4-0.1c0,0-0.1,0.1-0.1,0.1
		C29.8,86.8,29.8,87.4,29.8,88z M24.4,86.4c0.1-0.3,0.1-0.3-0.2-0.4c0,0-0.1-0.1-0.1-0.2c0-0.2,0-0.3,0-0.5c-0.1,0-0.2,0-0.2,0
		c-0.2,0-0.3,0-0.3,0.2c0,0.1,0,0.3,0,0.4c-0.3,0.1-0.4,0.1-0.3,0.4c0.1,0,0.2,0,0.3,0c0,0.4,0,0.8,0,1.1c0,0.4,0,0.4,0.5,0.4
		c0-0.4,0-0.8,0-1.2C24.1,86.5,24.2,86.4,24.4,86.4z M19.2,78.5c0,0.4,0.3,0.7,0.7,0.7c0.4,0,0.7-0.3,0.7-0.7c0-0.4-0.3-0.7-0.7-0.7
		C19.5,77.9,19.2,78.2,19.2,78.5z M48.9,88c0-0.8,0-1.6,0-2.4c0-0.2,0-0.2-0.2-0.2c-0.2,0-0.2,0-0.2,0.2c0,0.7,0,1.4,0,2.2
		c0,0.1,0,0.1,0,0.2C48.6,88,48.7,88,48.9,88z M28.6,86.1C28.5,86,28.3,86,28.2,86c-0.1,0-0.1,0.2-0.1,0.2c0,0.4,0,0.9,0,1.3
		c0,0.4,0,0.4,0.4,0.4c0,0,0,0,0,0c0-0.3,0-0.6,0-0.9c0-0.5,0-0.5,0.5-0.7c0-0.1,0-0.3,0-0.5C28.8,86,28.7,86.1,28.6,86.1z M19.8,88
		c0-0.6,0-1.2,0-1.9c0-0.2-0.2-0.1-0.3-0.1c-0.1,0-0.2,0-0.2,0.2c0,0.3,0,0.7,0,1c0,0.3,0,0.5,0,0.8C19.4,88,19.6,88,19.8,88z
		 M38.8,88C38.8,88,38.8,88,38.8,88c0-0.6,0-1.2,0-1.9c0-0.2-0.2-0.1-0.3-0.1c-0.1,0-0.2,0-0.2,0.1c0,0.4,0,0.8,0,1.2
		c0,0.2,0,0.4,0,0.7C38.5,88,38.7,88,38.8,88z M19.8,85.6c0-0.2-0.1-0.3-0.3-0.3c-0.2,0-0.3,0.1-0.3,0.3c0,0.2,0.1,0.3,0.3,0.3
		C19.7,85.9,19.8,85.8,19.8,85.6z M38.8,85.6c0-0.2-0.1-0.3-0.3-0.3c-0.2,0-0.3,0.1-0.3,0.3c0,0.2,0.1,0.3,0.3,0.3
		C38.8,85.9,38.8,85.8,38.8,85.6z"/>
	<path id="XMLID_2008_" class="st0" d="M14.4,27.8c-0.1-0.5-0.1-1.1-0.2-1.6c-0.1-1-0.1-2,0-3.1c0.2-1.9,0.8-3.7,1.8-5.4
		c1.5-2.6,3.7-4.6,6.4-6c1.5-0.8,3-1.3,4.7-1.6c1.9-0.3,3.8-0.3,5.7,0.4c0.8,0.3,1.2,0.9,1.2,1.6c0,0.8-0.6,1.4-1.4,1.6
		c-0.4,0.1-0.9,0.1-1.3,0c-1.7-0.5-3.4-0.4-5.1,0.1c-3.4,1.1-6,3.2-7.6,6.4c-0.6,1.3-0.9,2.6-1,4c-0.1,1.2,0.1,2.4,0.4,3.6
		c0,0.1,0,0.1,0.1,0.2c0-0.3-0.1-0.6-0.1-0.9c-0.3-2.3,0.1-4.5,1.3-6.5c1.7-2.8,4.2-4.5,7.4-5.3c2.2-0.6,4.5-0.5,6.7,0.2
		c2.6,0.9,4.5,2.6,5.8,5c0.4,0.7,0.8,1.4,1,2.2c0.1,0.5,0.1,1-0.1,1.5c-0.4,0.8-1.3,1.1-2.1,0.7c-0.5-0.3-0.9-0.6-1.1-1.2
		c-0.7-1.7-1.7-3.1-3.2-4.1c-1.5-1-3.1-1.4-4.9-1.2c-1.7,0.1-3.2,0.7-4.5,1.8c-1.6,1.3-2.6,2.9-2.9,5c-0.2,1.4,0.1,2.8,0.7,4.1
		c0.4,1,0.9,1.9,1.6,2.6c1,1.1,2.2,1.7,3.6,2.1c2.2,0.5,4.2,0.3,6.2-0.7c0.9-0.5,1.7-1.1,2.3-2c0.2-0.4,0.5-0.7,0.8-1.1
		c0.3-0.3,0.6-0.5,1.1-0.5c0.9,0,1.7,0,2.6,0c2,0,4.1,0,6.1,0c0.7,0,1.4,0.1,2.1,0.6c0.9,0.6,1.2,1.5,1.2,2.5c0,0.4-0.1,0.7-0.3,1
		c-1.3,1.9-2.8,3.8-4.5,5.4c-2.3,2.3-5,4-8.1,4.9c-1.2,0.4-2.5,0.7-3.8,0.8c-1.2,0.2-2.5,0.2-3.7,0.2c-2.1-0.1-4.3-0.3-6.4-0.8
		c-2.4-0.6-4.6-1.8-6.6-3.3c-4-3-7-6.9-8.7-11.6c-0.7-1.8-1.1-3.7-1.2-5.6c-0.3-3.6,0.4-7,1.9-10.2c0.5-1.2,1.2-2.3,1.9-3.4
		c0.4-0.6,0.9-1,1.6-1.1c0.8-0.1,1.7,0.4,1.9,1.2c0.1,0.5-0.1,1-0.4,1.4c-0.6,0.7-1,1.4-1.4,2.2c-0.9,1.6-1.4,3.4-1.7,5.2
		c-0.2,1.3-0.3,2.6-0.3,3.9c0.1,1.9,0.4,3.8,1.2,5.7c0,0.1,0.1,0.1,0.1,0.2c0,0,0,0,0.1,0c-0.1-0.3-0.1-0.6-0.2-0.8
		c-0.3-1.4-0.5-2.8-0.5-4.2c0-2.4,0.4-4.7,1.2-6.9c1.5-4,4.2-7,7.9-9.1c0.8-0.5,1.7-0.8,2.5-1.2c0.6-0.3,1.1-0.2,1.6,0.2
		c0.8,0.7,0.9,2.1,0,2.7c-0.1,0.1-0.2,0.2-0.4,0.2c-1.8,0.6-3.3,1.6-4.7,2.9c-1.8,1.7-3.2,3.6-4.1,6c-0.5,1.3-0.8,2.6-0.9,4
		c-0.1,1.8,0.1,3.6,0.5,5.3C14.3,27.7,14.3,27.7,14.4,27.8C14.3,27.8,14.4,27.8,14.4,27.8z"/>
	<path id="XMLID_2058_" class="st0" d="M25.8,62.4c0.3,0,0.7,0,1,0c0,0,0.1,0,0.1,0.1c0.1,0.4,0.4,0.5,0.8,0.6
		c0.4,0,0.7-0.1,0.8-0.4c0.2-0.3,0.2-0.6,0.3-1c0-0.2,0-0.3,0-0.5c0,0,0,0,0,0.1c-0.5,0.8-1.5,0.9-2.2,0.4c-0.5-0.3-0.7-0.8-0.8-1.4
		c-0.1-0.6-0.1-1.1,0.2-1.6c0.3-0.8,1-1.2,1.8-1.2c0.9,0,1.5,0.4,1.9,1.2c0.3,0.7,0.4,1.5,0.4,2.3c0,0.7-0.1,1.4-0.4,2.1
		c-0.6,1.2-2.1,1.3-2.9,0.9C26.1,63.6,25.9,63.1,25.8,62.4z M28.8,59.6c-0.1-0.3-0.1-0.6-0.3-0.8c-0.3-0.6-1.1-0.5-1.4,0
		c-0.3,0.5-0.3,1,0,1.6c0.2,0.3,0.4,0.5,0.8,0.5c0.3,0,0.6-0.1,0.8-0.5C28.7,60.2,28.7,59.9,28.8,59.6z"/>
	<path id="XMLID_2055_" class="st0" d="M17.8,60.8c0-0.8,0.1-1.5,0.5-2.2c0.4-0.8,1-1.2,1.9-1.2c0.9,0,1.5,0.5,1.9,1.2
		c0.3,0.5,0.4,1,0.4,1.5c0.1,0.9,0,1.7-0.3,2.5c-0.4,0.9-1,1.4-2,1.4c-1,0-1.6-0.6-2-1.4C17.9,62.1,17.8,61.4,17.8,60.8z M21.5,60.8
		c0-0.3,0-0.5-0.1-0.8c-0.1-0.4-0.2-0.8-0.4-1.1c-0.4-0.6-1.2-0.6-1.7,0c-0.2,0.2-0.3,0.5-0.3,0.7c-0.2,0.7-0.2,1.4-0.1,2.1
		c0.1,0.4,0.2,0.8,0.5,1.1c0.4,0.5,1.1,0.5,1.5,0c0.1-0.2,0.3-0.4,0.3-0.6C21.4,61.8,21.5,61.3,21.5,60.8z"/>
	<path id="XMLID_2052_" class="st0" d="M40,60.8c0,0.8-0.1,1.6-0.5,2.3c-0.7,1.3-2.1,1.2-2.8,0.6c-0.4-0.3-0.6-0.8-0.8-1.3
		c-0.3-1.2-0.3-2.5,0.1-3.7c0.2-0.6,0.6-1,1.2-1.2c1-0.3,1.9,0.2,2.3,1.2C39.9,59.4,40,60.1,40,60.8z M39,60.8
		C39,60.8,38.9,60.8,39,60.8c-0.1-0.3-0.1-0.5-0.1-0.8c-0.1-0.4-0.1-0.9-0.4-1.2c-0.3-0.4-0.9-0.5-1.2,0c-0.1,0.2-0.2,0.4-0.3,0.6
		c-0.2,0.7-0.2,1.5-0.1,2.2c0,0.4,0.1,0.8,0.4,1.1c0.3,0.5,0.9,0.5,1.3,0c0.1-0.1,0.2-0.3,0.2-0.5C38.8,61.8,38.9,61.3,39,60.8z"/>
	<path id="XMLID_2049_" class="st0" d="M35,60.8c0,0.8-0.1,1.6-0.5,2.3c-0.5,1-1.7,1.3-2.6,0.8c-0.5-0.3-0.8-0.7-0.9-1.2
		c-0.4-1.3-0.4-2.6,0.1-3.9c0.3-0.7,0.7-1.1,1.4-1.3c0.9-0.1,1.6,0.2,2,1C34.9,59.2,35,60,35,60.8z M34,60.9c0-0.5,0-0.8-0.1-1.1
		c-0.1-0.3-0.2-0.7-0.4-1c-0.3-0.5-0.9-0.5-1.3,0C32.1,59,32,59.2,32,59.4c-0.2,0.8-0.2,1.6-0.1,2.4c0.1,0.3,0.2,0.7,0.3,1
		c0.3,0.5,1,0.5,1.3,0c0.1-0.1,0.2-0.3,0.2-0.5C33.8,61.7,33.9,61.3,34,60.9z"/>
	<path id="XMLID_1946_" class="st0" d="M17,59.3c-0.3,0-0.7,0-1,0c-0.1-0.1-0.1-0.3-0.2-0.4c-0.2-0.3-0.5-0.5-0.8-0.5
		c-0.3,0-0.6,0.3-0.7,0.6c-0.1,0.4,0,0.7,0.4,0.9c0.2,0.1,0.4,0.2,0.6,0.3c0.2,0.1,0.3,0.1,0.5,0.2c1.2,0.5,1.7,1.9,0.9,3
		c-0.5,0.7-1.1,0.9-1.9,0.8C13.7,64,13.2,63,13.2,62c0.3,0,0.6,0,0.9,0c0,0,0.1,0.1,0.1,0.1c0.1,0.2,0.1,0.3,0.1,0.5
		c0.2,0.4,0.5,0.5,0.8,0.5c0.4,0,0.7-0.2,0.8-0.6c0.1-0.4,0.1-0.8-0.2-1c-0.2-0.1-0.4-0.2-0.7-0.3c-0.2-0.1-0.5-0.2-0.8-0.3
		c-0.8-0.4-1.1-1.1-1-2c0.1-0.9,0.8-1.5,1.7-1.5c1,0,1.6,0.5,1.8,1.4C17,59,17,59.1,17,59.3z"/>
	<path id="XMLID_1945_" class="st0" d="M43.5,64c-0.4,0-0.7,0-1.1,0c0-1.8,0-3.6,0-5.5c-0.3,0-0.7,0-1,0c0-0.3,0-0.6,0-0.9
		c0.7,0,1.4,0,2.1,0C43.5,59.7,43.5,61.8,43.5,64z"/>
	<path id="XMLID_1943_" class="st0" d="M12.3,57.5c0,2.2,0,4.3,0,6.4c-0.3,0-0.6,0-1,0c0,0-0.1-0.1-0.1-0.1c0-0.1,0-0.1,0-0.2
		c0-2,0-3.9,0-5.9c0-0.3,0-0.3,0.3-0.3C11.7,57.5,12,57.5,12.3,57.5z"/>
	<path id="XMLID_1933_" class="st0" d="M42.6,81.3c-0.8,0-1.6,0-2.4,0c0-0.4,0.5-0.8,0.9-0.9C41.8,80.3,42.4,80.6,42.6,81.3z"/>
	<path id="XMLID_1931_" class="st0" d="M27.4,81.8c0-0.7,0.4-1.2,1-1.3c0.7-0.1,1.2,0.2,1.5,0.7c0.3,0.7,0,1.7-0.7,1.9
		C28.2,83.3,27.4,82.9,27.4,81.8z"/>
	<path id="XMLID_1928_" class="st0" d="M34,87c0,0.3-0.2,0.5-0.5,0.5c-0.3,0-0.5-0.2-0.5-0.6c0-0.3,0.2-0.6,0.5-0.6
		C33.8,86.5,34,86.7,34,87z"/>
	<path id="XMLID_1927_" class="st0" d="M46.9,87c0,0.3-0.2,0.5-0.5,0.5c-0.3,0-0.5-0.3-0.5-0.6c0-0.3,0.2-0.6,0.5-0.6
		C46.6,86.5,46.9,86.7,46.9,87z"/>
	<path id="XMLID_1925_" class="st0" d="M26.7,86.8c-0.3,0-0.6,0-1,0c0-0.2,0.2-0.3,0.4-0.4C26.4,86.4,26.5,86.5,26.7,86.8z"/>
	<path id="XMLID_466_" class="st0" d="M40.2,87c0-0.3,0.2-0.6,0.5-0.6c0.3,0,0.5,0.2,0.5,0.6c0,0.4-0.2,0.6-0.5,0.6
		C40.4,87.6,40.2,87.4,40.2,87z"/>
</g>
</svg>
