<?xml version="1.0" encoding="utf-8"?>
<!-- Generator: Adobe Illustrator 19.0.0, SVG Export Plug-In . SVG Version: 6.00 Build 0)  -->
<svg version="1.1" id="Layer_1" xmlns="http://www.w3.org/2000/svg" xmlns:xlink="http://www.w3.org/1999/xlink" x="0px" y="0px"
	 viewBox="0 0 775.1 200.8" style="enable-background:new 0 0 775.1 200.8;" xml:space="preserve">
<style type="text/css">
	.st0{fill:url(#XMLID_210_);}
	.st1{fill:url(#XMLID_211_);}
	.st2{fill:url(#XMLID_212_);}
	.st3{fill:url(#XMLID_213_);}
	.st4{fill:#067ABE;}
	.st5{fill:url(#XMLID_214_);}
	.st6{fill:#1D1D1B;}
	.st7{opacity:0.39;fill:url(#XMLID_215_);}
	.st8{opacity:0.39;fill:url(#XMLID_216_);}
	.st9{opacity:0.39;fill:url(#XMLID_217_);}
	.st10{fill:#1D64A2;}
	.st11{fill:#F8B133;}
	.st12{fill:#F8D600;}
</style>
<g id="XMLID_2_">
	<linearGradient id="XMLID_210_" gradientUnits="userSpaceOnUse" x1="97.2783" y1="30.1904" x2="151.4951" y2="30.1904">
		<stop  offset="0" style="stop-color:#3C3C3B"/>
		<stop  offset="0.1498" style="stop-color:#424241"/>
		<stop  offset="0.3581" style="stop-color:#545453"/>
		<stop  offset="0.6008" style="stop-color:#727271"/>
		<stop  offset="0.8673" style="stop-color:#9A9A9A"/>
		<stop  offset="1" style="stop-color:#B1B1B1"/>
	</linearGradient>
	<path id="XMLID_206_" class="st0" d="M133,13.5c-8.9-1.1-18,4.8-25.8,15.5c-3.6,5-7,11-9.9,17.9c3.8-7.7,8.1-13.9,12.7-17.9
		c4.6-4,9.3-6,14.1-5.3c3.4,0.5,6.5,2.3,9.3,5.3h18.2C146.8,20.1,140.5,14.4,133,13.5z"/>
	<linearGradient id="XMLID_211_" gradientUnits="userSpaceOnUse" x1="63.4024" y1="49.8744" x2="148.5952" y2="49.8744">
		<stop  offset="0" style="stop-color:#868686"/>
		<stop  offset="0.1947" style="stop-color:#717171"/>
		<stop  offset="0.519" style="stop-color:#545453"/>
		<stop  offset="0.7988" style="stop-color:#424241"/>
		<stop  offset="1" style="stop-color:#3C3C3B"/>
	</linearGradient>
	<path id="XMLID_205_" class="st1" d="M123.5,1.2c-0.4-0.1-0.8-0.2-1.3-0.2C96.6-2.4,70.8,31.5,63.4,77.3L82.9,99
		c0.3-4.6,0.7-9.3,1.4-14.1c6.3-43.9,27.9-77.2,48.4-74.4c6.2,0.9,11.6,5,15.9,11.6C142.3,10.6,133.7,3,123.5,1.2z"/>
	<linearGradient id="XMLID_212_" gradientUnits="userSpaceOnUse" x1="40.2461" y1="49.8337" x2="123.542" y2="49.8337">
		<stop  offset="0" style="stop-color:#868686"/>
		<stop  offset="0.3496" style="stop-color:#676767"/>
		<stop  offset="0.7678" style="stop-color:#484847"/>
		<stop  offset="1" style="stop-color:#3C3C3B"/>
	</linearGradient>
	<path id="XMLID_204_" class="st2" d="M121,0.7c-0.5-0.1-1.9-0.2-1.9-0.2c-6.4-0.7-14.4-0.6-21.1,0c-3.2,0.3-6.1,0.7-8.4,1.2
		c-8.6,2-16.3,7.6-22.9,15.7C55.2,32.8,46.4,53.6,42.4,77.2c-0.9,5.4-1.5,10.8-1.9,16.1c-0.1,1.7-0.2,4.7-0.3,6.4l23.1-22.2l0-0.1
		c7.4-45.8,33.2-79.7,58.8-76.4c0.4,0.1,0.8,0.1,1.3,0.2l0.1,0C123.5,1.2,122.4,0.9,121,0.7z"/>
	<linearGradient id="XMLID_213_" gradientUnits="userSpaceOnUse" x1="24.7891" y1="128.847" x2="102.8496" y2="128.847">
		<stop  offset="0" style="stop-color:#39A935"/>
		<stop  offset="0.2202" style="stop-color:#34A435"/>
		<stop  offset="0.4963" style="stop-color:#279434"/>
		<stop  offset="0.801" style="stop-color:#127B34"/>
		<stop  offset="1" style="stop-color:#006633"/>
	</linearGradient>
	<path id="XMLID_203_" class="st3" d="M102.8,175.3L102.8,175.3c-1.3,0-2.6-0.1-3.9-0.2c-26.3-3.4-42.6-45-36.3-92.8
		c0-0.2,0-0.3,0.1-0.5l0,0c0,0,0-0.1,0-0.1l-22.6,23.3c0,0,0,0,0,0l-15.4,15.9h16.5c1.2,9.3,3.3,17.9,6.2,25.7
		c5.9,15,15.3,25.6,27.8,28.2c5.3,1.1,14.8,1.5,22.5,1h0l0.1,0c0.1,0,0.3,0,0.4,0c0,0,0,0,0,0L102.8,175.3z"/>
	<path id="XMLID_200_" class="st4" d="M219.6,62.6c0-10.3-3.3-18.5-9.9-24.5c-0.4-0.3-0.8-0.7-1.1-1c-6.6-5.4-16.4-8-29.3-8H152
		h-18.8c0,0-21.4,115.4-21.4,115.4c-3.2,9.4-8.1,11.5-12.4,10.5c-3-0.8-5.7-3.9-8-9c4.4,12,10.9,19.7,19,20.9
		c9.8,1.4,19.8-7.3,27.8-22.3h0c0,0,0-0.1,0.1-0.1c4.3-10.3,10.6-43.8,10.6-43.8l14.5-0.1l0.5,1.6h0l17.4,42.3h3.3l25.9,0
		l-20.2-44.9C206.6,93.7,219.6,79.1,219.6,62.6z M167.4,76.4c-0.2,0-0.3,0-0.5,0h-9.3h-1h-2.6l4.4-22.8h4.4h7.7c5.5,0,9.6,1,12.2,3
		l1,1.1c1.2,1.6,1.9,3.6,1.9,6C185.6,72.1,179.5,76.3,167.4,76.4z"/>
	<radialGradient id="XMLID_214_" cx="99.6084" cy="128.5054" r="42.7645" gradientUnits="userSpaceOnUse">
		<stop  offset="0" style="stop-color:#93C01F"/>
		<stop  offset="0.1131" style="stop-color:#89BE21"/>
		<stop  offset="0.3028" style="stop-color:#6FB728"/>
		<stop  offset="0.5445" style="stop-color:#45AC32"/>
		<stop  offset="0.6086" style="stop-color:#39A935"/>
		<stop  offset="1" style="stop-color:#008D36"/>
	</radialGradient>
	<path id="XMLID_199_" class="st5" d="M114.7,169.5c-0.5,0.1-1,0.2-1.5,0.3c-1.1,0-2.1,0-3.2-0.1c-14.5-2-24.5-21.7-26.8-48.7H98
		l-17.4-19.4L62.8,81.7c0,0,0,0.1,0,0.1c-6.4,48.1,9.8,89.9,36.3,93.3c1.3,0.2,2.6,0.2,3.8,0.2c5.3-0.1,10.5-1.9,15.7-4.6
		c3.8-1.9,7.2-4.6,10.3-8.2c0.1-0.2,0.3-0.3,0.4-0.5c3.4-4.1,6.3-9.2,8.6-15.2C132.5,159.2,124.6,167.4,114.7,169.5z"/>
	<g id="XMLID_195_">
		<path id="XMLID_198_" class="st6" d="M222.1,65.1c0-8.9-2.4-16.1-7.3-21.8c4,5.4,6,12.1,6,20.1c0,16.5-13,31.1-29.2,37l20.2,44.9
			l-25.9,0h-2.6l0.7,1.7h3.3l25.9,0l-20.2-44.9C209.1,96.3,222.1,81.6,222.1,65.1z"/>
		<path id="XMLID_197_" class="st6" d="M164.6,101.5l-14.5,0.1c0,0-6.1,32.5-10.4,43.3c-0.3,0.9-0.7,1.8-1,2.7
			c-2.9,7.1-8.7,16.6-16.2,21.7c4.4-2.7,8-6.3,10.9-10.1c3.7-4.8,6.3-10,8.1-14c0,0,0,0,0,0h0c4.3-12,9.9-41.9,9.9-41.9l13.7-0.1
			l0,0h0L164.6,101.5z"/>
		<path id="XMLID_196_" class="st6" d="M183.2,57.4c0.1,0,0.1,0.1,0.2,0.1c-2.6-1.9-6.6-2.9-12-2.9h-7.7h-4.3L155,77.1h1.6h0.5
			l4-20.9l4.8,0h7.7c4.2,0,7.5,0.6,10,1.7C183.5,57.8,183.4,57.6,183.2,57.4z"/>
	</g>
	<g id="XMLID_191_">
		<linearGradient id="XMLID_215_" gradientUnits="userSpaceOnUse" x1="83.3564" y1="181.6076" x2="83.7349" y2="189.943">
			<stop  offset="0" style="stop-color:#868686"/>
			<stop  offset="0.4027" style="stop-color:#A7A7A6"/>
			<stop  offset="0.7692" style="stop-color:#BEBEBD"/>
			<stop  offset="1" style="stop-color:#C6C6C5"/>
		</linearGradient>
		<path id="XMLID_194_" class="st7" d="M102.8,175.4l-4.7,0.4c0,0,0,0,0,0c-0.1,0-0.3,0-0.4,0l-0.1,0h0c-1.9,0.1-4,0.2-6,0.2
			l-2.3,1.4l-0.9,0.5l-32.3,20.1h23.7L111,174C108.3,174.9,105.6,175.4,102.8,175.4L102.8,175.4z"/>
		<linearGradient id="XMLID_216_" gradientUnits="userSpaceOnUse" x1="36.4528" y1="183.736" x2="36.8313" y2="192.0712">
			<stop  offset="0" style="stop-color:#868686"/>
			<stop  offset="0.4027" style="stop-color:#A7A7A6"/>
			<stop  offset="0.7692" style="stop-color:#BEBEBD"/>
			<stop  offset="1" style="stop-color:#C6C6C5"/>
		</linearGradient>
		<path id="XMLID_193_" class="st8" d="M0,198.2h20.7l52.4-23.8c-1.4-0.4-2.7-0.9-3.9-1.5L0,198.2z"/>
		<linearGradient id="XMLID_217_" gradientUnits="userSpaceOnUse" x1="53.7045" y1="182.9543" x2="54.083" y2="191.2891">
			<stop  offset="0" style="stop-color:#868686"/>
			<stop  offset="0.4027" style="stop-color:#A7A7A6"/>
			<stop  offset="0.7692" style="stop-color:#BEBEBD"/>
			<stop  offset="1" style="stop-color:#C6C6C5"/>
		</linearGradient>
		<path id="XMLID_192_" class="st9" d="M19.9,200.8h26.7L88,176.1c-4.5-0.1-8.9-0.5-12.1-1L19.9,200.8z"/>
	</g>
	<g id="XMLID_68_">
		<g id="XMLID_430_">
			<path id="XMLID_489_" class="st10" d="M183.6,190v-17.3h3.5v7.7l7.1-7.7h4.7l-6.5,6.7l6.9,10.6h-4.5l-4.8-8.1l-2.8,2.9v5.2H183.6
				z"/>
			<path id="XMLID_486_" class="st10" d="M204,175.8v-3.1h3.3v3.1H204z M204,190v-12.6h3.3V190H204z"/>
			<path id="XMLID_484_" class="st10" d="M213.8,190v-17.3h3.3V190H213.8z"/>
			<path id="XMLID_481_" class="st10" d="M222.8,183.6c0-1.1,0.3-2.2,0.8-3.2c0.5-1,1.3-1.8,2.3-2.4c1-0.5,2.1-0.8,3.3-0.8
				c1.9,0,3.5,0.6,4.7,1.8c1.2,1.2,1.8,2.8,1.8,4.7c0,1.9-0.6,3.5-1.8,4.7c-1.2,1.2-2.8,1.9-4.6,1.9c-1.2,0-2.2-0.3-3.3-0.8
				c-1-0.5-1.8-1.3-2.4-2.3C223.1,186.2,222.8,185,222.8,183.6z M226.2,183.7c0,1.2,0.3,2.2,0.9,2.9c0.6,0.7,1.3,1,2.2,1
				s1.6-0.3,2.2-1c0.6-0.7,0.9-1.6,0.9-2.9c0-1.2-0.3-2.2-0.9-2.8c-0.6-0.7-1.3-1-2.2-1s-1.6,0.3-2.2,1
				C226.5,181.5,226.2,182.5,226.2,183.7z"/>
			<path id="XMLID_479_" class="st10" d="M241.1,177.5h3.1v1.7c1.1-1.3,2.4-2,3.9-2c0.8,0,1.5,0.2,2.1,0.5c0.6,0.3,1.1,0.8,1.5,1.5
				c0.6-0.7,1.1-1.2,1.8-1.5c0.6-0.3,1.3-0.5,2-0.5c0.9,0,1.7,0.2,2.3,0.6c0.6,0.4,1.1,0.9,1.4,1.6c0.2,0.5,0.3,1.4,0.3,2.6v8h-3.3
				v-7.2c0-1.2-0.1-2-0.3-2.4c-0.3-0.5-0.8-0.7-1.4-0.7c-0.5,0-0.9,0.1-1.3,0.4c-0.4,0.3-0.7,0.7-0.9,1.2c-0.2,0.5-0.3,1.4-0.3,2.6
				v6h-3.3v-6.9c0-1.2-0.1-2-0.2-2.4c-0.1-0.4-0.3-0.6-0.5-0.8c-0.2-0.2-0.6-0.3-1-0.3c-0.5,0-1,0.1-1.4,0.4
				c-0.4,0.3-0.7,0.7-0.9,1.2c-0.2,0.5-0.3,1.4-0.3,2.6v6.1h-3.3V177.5z"/>
			<path id="XMLID_476_" class="st10" d="M273.2,186l3.3,0.6c-0.4,1.2-1.1,2.1-2,2.8c-0.9,0.6-2.1,1-3.4,1c-2.2,0-3.8-0.7-4.8-2.1
				c-0.8-1.1-1.2-2.6-1.2-4.3c0-2.1,0.5-3.7,1.6-4.9c1.1-1.2,2.5-1.8,4.1-1.8c1.9,0,3.3,0.6,4.4,1.8c1.1,1.2,1.6,3.1,1.5,5.7h-8.3
				c0,1,0.3,1.8,0.8,2.3c0.5,0.5,1.1,0.8,1.9,0.8c0.5,0,1-0.1,1.3-0.4C272.7,187.1,273,186.6,273.2,186z M273.4,182.7
				c0-1-0.3-1.7-0.7-2.2c-0.5-0.5-1-0.8-1.7-0.8c-0.7,0-1.3,0.3-1.8,0.8c-0.5,0.5-0.7,1.2-0.7,2.2H273.4z"/>
			<path id="XMLID_474_" class="st10" d="M288.1,177.5v2.6h-2.3v5.1c0,1,0,1.6,0.1,1.8c0,0.2,0.1,0.3,0.3,0.4
				c0.2,0.1,0.3,0.2,0.6,0.2c0.3,0,0.8-0.1,1.3-0.3l0.3,2.6c-0.8,0.3-1.6,0.5-2.6,0.5c-0.6,0-1.1-0.1-1.6-0.3
				c-0.5-0.2-0.8-0.5-1.1-0.8c-0.2-0.3-0.4-0.8-0.5-1.3c-0.1-0.4-0.1-1.2-0.1-2.3v-5.5H281v-2.6h1.5V175l3.3-1.9v4.4H288.1z"/>
			<path id="XMLID_472_" class="st10" d="M296.7,190h-3.3v-12.6h3.1v1.8c0.5-0.8,1-1.4,1.4-1.7c0.4-0.3,0.9-0.4,1.4-0.4
				c0.8,0,1.5,0.2,2.2,0.6l-1,2.9c-0.6-0.4-1.1-0.5-1.6-0.5c-0.5,0-0.9,0.1-1.2,0.4c-0.3,0.3-0.6,0.7-0.8,1.4
				c-0.2,0.7-0.3,2.1-0.3,4.2V190z"/>
			<path id="XMLID_469_" class="st10" d="M305.2,183.6c0-1.1,0.3-2.2,0.8-3.2c0.5-1,1.3-1.8,2.3-2.4c1-0.5,2.1-0.8,3.3-0.8
				c1.9,0,3.5,0.6,4.7,1.8c1.2,1.2,1.8,2.8,1.8,4.7c0,1.9-0.6,3.5-1.8,4.7c-1.2,1.2-2.8,1.9-4.6,1.9c-1.2,0-2.2-0.3-3.3-0.8
				c-1-0.5-1.8-1.3-2.4-2.3C305.4,186.2,305.2,185,305.2,183.6z M308.6,183.7c0,1.2,0.3,2.2,0.9,2.9c0.6,0.7,1.3,1,2.2,1
				s1.6-0.3,2.2-1c0.6-0.7,0.9-1.6,0.9-2.9c0-1.2-0.3-2.2-0.9-2.8c-0.6-0.7-1.3-1-2.2-1s-1.6,0.3-2.2,1
				C308.9,181.5,308.6,182.5,308.6,183.7z"/>
			<path id="XMLID_467_" class="st10" d="M322.6,186.4l3.3-0.5c0.1,0.6,0.4,1.1,0.9,1.5c0.4,0.3,1,0.5,1.8,0.5
				c0.9,0,1.5-0.2,1.9-0.5c0.3-0.2,0.4-0.5,0.4-0.9c0-0.3-0.1-0.5-0.2-0.6c-0.2-0.2-0.5-0.3-1.1-0.4c-2.7-0.6-4.4-1.1-5.1-1.6
				c-1-0.7-1.5-1.6-1.5-2.8c0-1.1,0.4-2,1.3-2.7c0.9-0.7,2.2-1.1,4-1.1c1.7,0,3,0.3,3.8,0.8c0.8,0.6,1.4,1.4,1.7,2.5l-3.1,0.6
				c-0.1-0.5-0.4-0.9-0.8-1.1c-0.4-0.3-0.9-0.4-1.6-0.4c-0.9,0-1.5,0.1-1.9,0.4c-0.3,0.2-0.4,0.4-0.4,0.7c0,0.2,0.1,0.4,0.3,0.6
				c0.3,0.2,1.3,0.5,3.1,0.9c1.8,0.4,3,0.9,3.7,1.5c0.7,0.6,1,1.4,1,2.5c0,1.2-0.5,2.1-1.4,3c-1,0.8-2.4,1.2-4.3,1.2
				c-1.7,0-3.1-0.3-4.1-1C323.5,188.6,322.9,187.6,322.6,186.4z"/>
			<path id="XMLID_464_" class="st10" d="M350.3,190.8l3.8,0.5c0.1,0.4,0.2,0.7,0.4,0.9c0.3,0.2,0.8,0.4,1.5,0.4
				c0.9,0,1.5-0.1,2-0.4c0.3-0.2,0.5-0.5,0.7-0.8c0.1-0.3,0.2-0.8,0.2-1.5V188c-1,1.4-2.2,2-3.8,2c-1.7,0-3-0.7-4-2.1
				c-0.8-1.1-1.2-2.5-1.2-4.2c0-2.1,0.5-3.7,1.5-4.8c1-1.1,2.3-1.7,3.8-1.7c1.6,0,2.8,0.7,3.8,2v-1.8h3.1v11.3
				c0,1.5-0.1,2.6-0.4,3.3c-0.2,0.7-0.6,1.3-1,1.7c-0.4,0.4-1,0.7-1.8,1c-0.7,0.2-1.7,0.4-2.8,0.4c-2.1,0-3.6-0.4-4.5-1.1
				c-0.9-0.7-1.3-1.7-1.3-2.8C350.3,191.1,350.3,191,350.3,190.8z M353.3,183.5c0,1.3,0.3,2.3,0.8,2.9c0.5,0.6,1.2,0.9,1.9,0.9
				c0.8,0,1.5-0.3,2.1-1c0.6-0.6,0.8-1.6,0.8-2.8c0-1.3-0.3-2.3-0.8-2.9c-0.5-0.6-1.2-0.9-2-0.9c-0.8,0-1.5,0.3-2,0.9
				C353.6,181.3,353.3,182.2,353.3,183.5z"/>
			<path id="XMLID_461_" class="st10" d="M375.7,186l3.3,0.6c-0.4,1.2-1.1,2.1-2,2.8c-0.9,0.6-2.1,1-3.4,1c-2.2,0-3.8-0.7-4.8-2.1
				c-0.8-1.1-1.2-2.6-1.2-4.3c0-2.1,0.5-3.7,1.6-4.9c1.1-1.2,2.5-1.8,4.1-1.8c1.9,0,3.3,0.6,4.4,1.8c1.1,1.2,1.6,3.1,1.5,5.7h-8.3
				c0,1,0.3,1.8,0.8,2.3c0.5,0.5,1.1,0.8,1.9,0.8c0.5,0,1-0.1,1.3-0.4C375.3,187.1,375.5,186.6,375.7,186z M375.9,182.7
				c0-1-0.3-1.7-0.7-2.2c-0.5-0.5-1-0.8-1.7-0.8c-0.7,0-1.3,0.3-1.8,0.8c-0.5,0.5-0.7,1.2-0.7,2.2H375.9z"/>
			<path id="XMLID_459_" class="st10" d="M396.4,190H393v-6.4c0-1.4-0.1-2.2-0.2-2.6c-0.1-0.4-0.4-0.7-0.7-0.9
				c-0.3-0.2-0.7-0.3-1.2-0.3c-0.6,0-1.1,0.2-1.5,0.5c-0.5,0.3-0.8,0.7-0.9,1.3c-0.2,0.5-0.3,1.5-0.3,2.9v5.7h-3.3v-12.6h3.1v1.8
				c1.1-1.4,2.5-2.1,4.1-2.1c0.7,0,1.4,0.1,2,0.4c0.6,0.3,1.1,0.6,1.4,1c0.3,0.4,0.5,0.9,0.6,1.4c0.1,0.5,0.2,1.3,0.2,2.2V190z"/>
			<path id="XMLID_456_" class="st10" d="M410,186l3.3,0.6c-0.4,1.2-1.1,2.1-2,2.8c-0.9,0.6-2.1,1-3.4,1c-2.2,0-3.8-0.7-4.8-2.1
				c-0.8-1.1-1.2-2.6-1.2-4.3c0-2.1,0.5-3.7,1.6-4.9c1.1-1.2,2.5-1.8,4.1-1.8c1.9,0,3.3,0.6,4.4,1.8c1.1,1.2,1.6,3.1,1.5,5.7h-8.3
				c0,1,0.3,1.8,0.8,2.3c0.5,0.5,1.2,0.8,1.9,0.8c0.5,0,1-0.1,1.3-0.4C409.6,187.1,409.8,186.6,410,186z M410.2,182.7
				c0-1-0.3-1.7-0.7-2.2c-0.5-0.5-1-0.8-1.7-0.8c-0.7,0-1.3,0.3-1.8,0.8c-0.5,0.5-0.7,1.2-0.7,2.2H410.2z"/>
			<path id="XMLID_454_" class="st10" d="M422.4,190h-3.3v-12.6h3.1v1.8c0.5-0.8,1-1.4,1.4-1.7c0.4-0.3,0.9-0.4,1.4-0.4
				c0.8,0,1.5,0.2,2.2,0.6l-1,2.9c-0.6-0.4-1.1-0.5-1.6-0.5c-0.5,0-0.9,0.1-1.2,0.4c-0.3,0.3-0.6,0.7-0.8,1.4
				c-0.2,0.7-0.3,2.1-0.3,4.2V190z"/>
			<path id="XMLID_451_" class="st10" d="M434.2,181.3l-3-0.5c0.3-1.2,0.9-2.1,1.7-2.7c0.8-0.6,2.1-0.9,3.7-0.9
				c1.5,0,2.6,0.2,3.3,0.5c0.7,0.4,1.2,0.8,1.5,1.3c0.3,0.5,0.4,1.5,0.4,3l0,3.9c0,1.1,0.1,1.9,0.2,2.4c0.1,0.5,0.3,1.1,0.6,1.7
				h-3.3c-0.1-0.2-0.2-0.5-0.3-1c-0.1-0.2-0.1-0.3-0.1-0.4c-0.6,0.6-1.2,1-1.8,1.2c-0.6,0.3-1.3,0.4-2.1,0.4c-1.3,0-2.3-0.4-3.1-1.1
				c-0.7-0.7-1.1-1.6-1.1-2.7c0-0.7,0.2-1.3,0.5-1.9c0.3-0.6,0.8-1,1.4-1.3c0.6-0.3,1.5-0.6,2.6-0.8c1.6-0.3,2.6-0.6,3.2-0.8v-0.3
				c0-0.6-0.2-1.1-0.5-1.4c-0.3-0.3-0.9-0.4-1.8-0.4c-0.6,0-1.1,0.1-1.4,0.3C434.6,180.3,434.4,180.7,434.2,181.3z M438.6,184
				c-0.4,0.1-1.1,0.3-2,0.5c-0.9,0.2-1.5,0.4-1.8,0.6c-0.4,0.3-0.7,0.7-0.7,1.2c0,0.5,0.2,0.9,0.5,1.2c0.3,0.3,0.8,0.5,1.3,0.5
				c0.6,0,1.2-0.2,1.7-0.6c0.4-0.3,0.7-0.7,0.8-1.1c0.1-0.3,0.1-0.8,0.1-1.6V184z"/>
			<path id="XMLID_449_" class="st10" d="M459.6,190h-3.3v-6.4c0-1.4-0.1-2.2-0.2-2.6c-0.1-0.4-0.4-0.7-0.7-0.9
				c-0.3-0.2-0.7-0.3-1.2-0.3c-0.6,0-1.1,0.2-1.5,0.5c-0.5,0.3-0.8,0.7-0.9,1.3c-0.2,0.5-0.3,1.5-0.3,2.9v5.7h-3.3v-12.6h3.1v1.8
				c1.1-1.4,2.5-2.1,4.1-2.1c0.7,0,1.4,0.1,2,0.4c0.6,0.3,1.1,0.6,1.4,1s0.5,0.9,0.7,1.4c0.1,0.5,0.2,1.3,0.2,2.2V190z"/>
			<path id="XMLID_446_" class="st10" d="M477.5,190h-3.1v-1.8c-0.5,0.7-1.1,1.3-1.8,1.6c-0.7,0.4-1.4,0.5-2.1,0.5
				c-1.4,0-2.7-0.6-3.7-1.7c-1-1.2-1.5-2.8-1.5-4.9c0-2.1,0.5-3.7,1.5-4.9c1-1.1,2.3-1.7,3.8-1.7c1.4,0,2.6,0.6,3.6,1.7v-6.2h3.3
				V190z M468.6,183.5c0,1.3,0.2,2.3,0.6,2.9c0.5,0.9,1.3,1.3,2.2,1.3c0.8,0,1.4-0.3,2-1c0.5-0.6,0.8-1.6,0.8-2.9
				c0-1.4-0.3-2.5-0.8-3.1c-0.5-0.6-1.2-1-2-1c-0.8,0-1.4,0.3-2,0.9C468.9,181.3,468.6,182.2,468.6,183.5z"/>
			<path id="XMLID_443_" class="st10" d="M483,183.6c0-1.1,0.3-2.2,0.8-3.2c0.5-1,1.3-1.8,2.3-2.4c1-0.5,2.1-0.8,3.3-0.8
				c1.9,0,3.5,0.6,4.7,1.8c1.2,1.2,1.8,2.8,1.8,4.7c0,1.9-0.6,3.5-1.8,4.7c-1.2,1.2-2.8,1.9-4.6,1.9c-1.2,0-2.2-0.3-3.3-0.8
				c-1-0.5-1.8-1.3-2.4-2.3C483.3,186.2,483,185,483,183.6z M486.4,183.7c0,1.2,0.3,2.2,0.9,2.9c0.6,0.7,1.3,1,2.2,1
				c0.9,0,1.6-0.3,2.2-1c0.6-0.7,0.9-1.6,0.9-2.9c0-1.2-0.3-2.2-0.9-2.8c-0.6-0.7-1.3-1-2.2-1c-0.9,0-1.6,0.3-2.2,1
				C486.7,181.5,486.4,182.5,486.4,183.7z"/>
			<path id="XMLID_441_" class="st10" d="M515.5,190l-5.1-12.6h3.5l2.4,6.4l0.7,2.1c0.2-0.5,0.3-0.9,0.3-1.1
				c0.1-0.4,0.2-0.7,0.4-1.1l2.4-6.4h3.4l-5,12.6H515.5z"/>
			<path id="XMLID_438_" class="st10" d="M531,181.3l-3-0.5c0.3-1.2,0.9-2.1,1.7-2.7c0.8-0.6,2.1-0.9,3.7-0.9c1.5,0,2.6,0.2,3.3,0.5
				c0.7,0.4,1.2,0.8,1.5,1.3c0.3,0.5,0.4,1.5,0.4,3l0,3.9c0,1.1,0.1,1.9,0.2,2.4c0.1,0.5,0.3,1.1,0.6,1.7h-3.3
				c-0.1-0.2-0.2-0.5-0.3-1c-0.1-0.2-0.1-0.3-0.1-0.4c-0.6,0.6-1.2,1-1.8,1.2c-0.6,0.3-1.3,0.4-2.1,0.4c-1.3,0-2.3-0.4-3.1-1.1
				c-0.7-0.7-1.1-1.6-1.1-2.7c0-0.7,0.2-1.3,0.5-1.9c0.3-0.6,0.8-1,1.4-1.3c0.6-0.3,1.5-0.6,2.6-0.8c1.6-0.3,2.6-0.6,3.2-0.8v-0.3
				c0-0.6-0.2-1.1-0.5-1.4c-0.3-0.3-0.9-0.4-1.8-0.4c-0.6,0-1.1,0.1-1.4,0.3C531.5,180.3,531.2,180.7,531,181.3z M535.4,184
				c-0.4,0.1-1.1,0.3-2,0.5c-0.9,0.2-1.5,0.4-1.8,0.6c-0.4,0.3-0.7,0.7-0.7,1.2c0,0.5,0.2,0.9,0.5,1.2c0.3,0.3,0.8,0.5,1.3,0.5
				c0.6,0,1.2-0.2,1.7-0.6c0.4-0.3,0.7-0.7,0.8-1.1c0.1-0.3,0.1-0.8,0.1-1.6V184z"/>
			<path id="XMLID_436_" class="st10" d="M545,190v-17.3h3.3V190H545z"/>
			<path id="XMLID_433_" class="st10" d="M554,183.6c0-1.1,0.3-2.2,0.8-3.2c0.5-1,1.3-1.8,2.3-2.4c1-0.5,2.1-0.8,3.3-0.8
				c1.9,0,3.5,0.6,4.7,1.8c1.2,1.2,1.8,2.8,1.8,4.7c0,1.9-0.6,3.5-1.8,4.7c-1.2,1.2-2.8,1.9-4.6,1.9c-1.2,0-2.2-0.3-3.3-0.8
				c-1-0.5-1.8-1.3-2.4-2.3C554.3,186.2,554,185,554,183.6z M557.4,183.7c0,1.2,0.3,2.2,0.9,2.9c0.6,0.7,1.3,1,2.2,1
				c0.9,0,1.6-0.3,2.2-1c0.6-0.7,0.9-1.6,0.9-2.9c0-1.2-0.3-2.2-0.9-2.8c-0.6-0.7-1.3-1-2.2-1c-0.9,0-1.6,0.3-2.2,1
				C557.7,181.5,557.4,182.5,557.4,183.7z"/>
			<path id="XMLID_431_" class="st10" d="M575.7,190h-3.3v-12.6h3.1v1.8c0.5-0.8,1-1.4,1.4-1.7c0.4-0.3,0.9-0.4,1.4-0.4
				c0.8,0,1.5,0.2,2.2,0.6l-1,2.9c-0.6-0.4-1.1-0.5-1.6-0.5c-0.5,0-0.9,0.1-1.2,0.4c-0.3,0.3-0.6,0.7-0.8,1.4
				c-0.2,0.7-0.3,2.1-0.3,4.2V190z"/>
		</g>
	</g>
	<g id="XMLID_42_">
		<path id="XMLID_65_" class="st10" d="M633.4,161.7c0,1.3-0.4,2.4-1.1,3.3c-0.7,0.9-1.8,1.6-3.4,2v0.1l5.6,7.7h-4.1l-5.1-7.3h-2.4
			v7.3h-3.4v-18.8h5.7c0.9,0,1.8,0.1,2.6,0.2c0.8,0.1,1.5,0.3,2.1,0.5c1.1,0.4,2,1,2.6,1.9C633.1,159.4,633.4,160.5,633.4,161.7z
			 M624.6,164.7c0.8,0,1.5,0,2-0.1c0.5-0.1,1-0.2,1.4-0.3c0.7-0.3,1.2-0.6,1.4-1.1c0.3-0.5,0.4-1,0.4-1.6c0-0.5-0.1-1-0.3-1.3
			c-0.2-0.4-0.6-0.7-1.1-0.9c-0.3-0.1-0.7-0.3-1.2-0.3s-1.1-0.1-1.8-0.1h-2.5v5.8H624.6z"/>
		<path id="XMLID_62_" class="st10" d="M643.6,172.5c0.6,0,1.3-0.1,2-0.2c0.7-0.1,1.4-0.3,2.1-0.6v2.7c-0.4,0.2-1.1,0.4-2,0.5
			c-0.9,0.2-1.8,0.3-2.8,0.3c-1,0-1.9-0.1-2.7-0.4c-0.9-0.2-1.6-0.6-2.3-1.2c-0.6-0.6-1.2-1.3-1.5-2.1s-0.6-1.9-0.6-3.2
			c0-1.2,0.2-2.3,0.5-3.2c0.4-0.9,0.8-1.7,1.4-2.3c0.6-0.6,1.3-1.1,2.1-1.4c0.8-0.3,1.6-0.5,2.4-0.5c0.9,0,1.7,0.1,2.4,0.4
			c0.7,0.3,1.4,0.7,1.9,1.2c0.5,0.6,0.9,1.3,1.2,2.2c0.3,0.9,0.4,1.9,0.4,3.1c0,0.5,0,0.9,0,1.2h-8.9c0,0.6,0.2,1.2,0.4,1.6
			c0.2,0.4,0.5,0.8,0.9,1.1c0.4,0.3,0.8,0.5,1.3,0.6C642.4,172.5,643,172.5,643.6,172.5z M642.2,163.5c-0.4,0-0.8,0.1-1.1,0.2
			c-0.3,0.2-0.6,0.4-0.8,0.6c-0.2,0.3-0.4,0.6-0.6,0.9c-0.1,0.4-0.2,0.7-0.3,1.1h5.3c0-0.4-0.1-0.8-0.2-1.1
			c-0.1-0.4-0.3-0.7-0.5-0.9c-0.2-0.3-0.5-0.5-0.8-0.6C643,163.6,642.7,163.5,642.2,163.5z"/>
		<path id="XMLID_59_" class="st10" d="M658.3,172.5c0.6,0,1.3-0.1,2-0.2c0.7-0.1,1.4-0.3,2.1-0.6v2.7c-0.4,0.2-1.1,0.4-2,0.5
			c-0.9,0.2-1.8,0.3-2.8,0.3c-1,0-1.9-0.1-2.7-0.4c-0.9-0.2-1.6-0.6-2.3-1.2c-0.6-0.6-1.2-1.3-1.5-2.1c-0.4-0.9-0.6-1.9-0.6-3.2
			c0-1.2,0.2-2.3,0.5-3.2c0.4-0.9,0.8-1.7,1.4-2.3c0.6-0.6,1.3-1.1,2.1-1.4c0.8-0.3,1.6-0.5,2.4-0.5c0.9,0,1.7,0.1,2.4,0.4
			c0.7,0.3,1.4,0.7,1.9,1.2c0.5,0.6,0.9,1.3,1.2,2.2c0.3,0.9,0.4,1.9,0.4,3.1c0,0.5,0,0.9,0,1.2H654c0,0.6,0.2,1.2,0.4,1.6
			c0.2,0.4,0.5,0.8,0.9,1.1c0.4,0.3,0.8,0.5,1.3,0.6C657.2,172.5,657.7,172.5,658.3,172.5z M657,163.5c-0.4,0-0.8,0.1-1.1,0.2
			c-0.3,0.2-0.6,0.4-0.8,0.6c-0.2,0.3-0.4,0.6-0.6,0.9c-0.1,0.4-0.2,0.7-0.3,1.1h5.3c0-0.4-0.1-0.8-0.2-1.1
			c-0.1-0.4-0.3-0.7-0.5-0.9c-0.2-0.3-0.5-0.5-0.8-0.6C657.8,163.6,657.4,163.5,657,163.5z"/>
		<path id="XMLID_57_" class="st10" d="M669.1,163.1L669.1,163.1c0.3-0.3,0.5-0.6,0.8-0.8c0.3-0.3,0.6-0.5,1-0.7
			c0.4-0.2,0.8-0.4,1.3-0.5c0.5-0.1,1-0.2,1.5-0.2c0.5,0,1,0.1,1.4,0.2c0.5,0.1,0.9,0.3,1.3,0.5c0.4,0.2,0.7,0.5,1,0.9
			c0.3,0.4,0.5,0.8,0.7,1.4c0.1,0.3,0.2,0.6,0.2,0.9c0,0.3,0,0.7,0,1.2v8.8H675v-8.3c0-0.4,0-0.7,0-0.9c0-0.3-0.1-0.5-0.2-0.7
			c-0.2-0.4-0.4-0.7-0.8-0.9c-0.3-0.2-0.8-0.3-1.2-0.3c-0.6,0-1.3,0.2-1.9,0.5c-0.6,0.3-1.1,0.7-1.6,1.3v9.4H666v-13.6h2.8
			L669.1,163.1z"/>
		<path id="XMLID_55_" class="st10" d="M691.8,174.6c-0.4,0.2-0.9,0.3-1.5,0.5c-0.6,0.1-1.2,0.2-1.9,0.2c-1,0-1.9-0.1-2.8-0.4
			c-0.9-0.3-1.6-0.7-2.2-1.3c-0.6-0.6-1.1-1.3-1.5-2.2c-0.4-0.9-0.5-1.9-0.5-3.1c0-1.3,0.2-2.4,0.6-3.4c0.4-0.9,1-1.7,1.6-2.3
			c0.7-0.6,1.4-1,2.3-1.3c0.8-0.3,1.7-0.4,2.5-0.4c0.6,0,1.2,0.1,1.8,0.2c0.6,0.1,1.1,0.3,1.5,0.4v2.7c-0.4-0.2-0.8-0.3-1.3-0.4
			c-0.5-0.1-1-0.2-1.5-0.2s-1,0.1-1.5,0.2c-0.5,0.2-0.9,0.4-1.3,0.8c-0.4,0.4-0.7,0.8-0.9,1.4c-0.2,0.6-0.3,1.3-0.3,2.1
			c0,0.6,0.1,1.2,0.3,1.7c0.2,0.5,0.4,1,0.7,1.4c0.3,0.4,0.7,0.7,1.2,0.9c0.5,0.2,1.1,0.3,1.8,0.3c0.6,0,1.2-0.1,1.7-0.2
			c0.5-0.1,1-0.3,1.4-0.4V174.6z"/>
		<path id="XMLID_52_" class="st10" d="M702.7,173.4L702.7,173.4c-0.2,0.2-0.5,0.4-0.7,0.6c-0.3,0.2-0.6,0.4-0.9,0.6
			c-0.3,0.2-0.7,0.3-1.1,0.4c-0.4,0.1-0.9,0.2-1.3,0.2c-0.6,0-1.2-0.1-1.8-0.3c-0.6-0.2-1-0.5-1.4-0.9c-0.4-0.4-0.7-0.8-0.9-1.4
			c-0.2-0.5-0.3-1.1-0.3-1.8c0-0.7,0.1-1.4,0.4-2c0.3-0.6,0.6-1.1,1.1-1.5c0.5-0.4,1-0.7,1.7-0.9c0.7-0.2,1.4-0.3,2.2-0.3
			c0.6,0,1.1,0,1.6,0.1c0.5,0.1,0.9,0.2,1.3,0.3V166c0-0.3-0.1-0.6-0.2-0.9c-0.1-0.3-0.3-0.6-0.5-0.8c-0.2-0.2-0.5-0.4-0.9-0.5
			c-0.4-0.1-0.9-0.2-1.4-0.2c-0.7,0-1.3,0.1-2,0.2c-0.7,0.1-1.4,0.4-2.2,0.7v-2.6c0.7-0.3,1.4-0.5,2.2-0.7c0.8-0.2,1.6-0.2,2.4-0.3
			c1,0,1.9,0.1,2.6,0.4c0.7,0.2,1.4,0.6,1.9,1c0.5,0.4,0.9,0.9,1.1,1.5c0.2,0.6,0.4,1.2,0.4,1.9v5.1c0,0.9,0,1.7,0,2.3
			c0,0.6,0,1.2,0.1,1.7h-3L702.7,173.4z M702.4,169c-0.3-0.1-0.7-0.1-1.1-0.2c-0.4-0.1-0.8-0.1-1.2-0.1c-0.8,0-1.5,0.2-1.9,0.5
			c-0.5,0.3-0.7,0.8-0.7,1.5c0,0.3,0.1,0.6,0.2,0.8c0.1,0.2,0.3,0.4,0.4,0.6c0.2,0.1,0.4,0.3,0.6,0.3c0.2,0.1,0.5,0.1,0.8,0.1
			c0.3,0,0.7,0,1-0.1c0.3-0.1,0.6-0.2,0.8-0.3c0.3-0.1,0.5-0.3,0.7-0.5c0.2-0.2,0.4-0.3,0.5-0.5V169z"/>
		<path id="XMLID_50_" class="st10" d="M715.5,175.2c-1.4,0-2.5-0.2-3.4-0.7c-0.9-0.5-1.6-1.1-2-1.9c-0.2-0.4-0.4-0.9-0.5-1.4
			c-0.1-0.5-0.2-1.1-0.2-1.7v-8.3h3.3v8c0,0.5,0,0.9,0.1,1.2c0.1,0.3,0.2,0.6,0.3,0.9c0.2,0.4,0.5,0.7,1,0.9
			c0.4,0.2,0.9,0.3,1.5,0.3c0.6,0,1.1-0.1,1.5-0.3c0.4-0.2,0.7-0.6,1-1c0.2-0.4,0.3-1.1,0.3-1.8v-8h3.3v8.3c0,1.1-0.2,2-0.6,2.8
			c-0.2,0.4-0.5,0.8-0.8,1.2c-0.3,0.4-0.7,0.7-1.2,0.9c-0.5,0.2-1,0.4-1.6,0.6C716.8,175.1,716.2,175.2,715.5,175.2z"/>
		<path id="XMLID_48_" class="st10" d="M734.9,174.6c-0.4,0.2-0.9,0.3-1.5,0.5c-0.6,0.1-1.2,0.2-1.9,0.2c-1,0-1.9-0.1-2.8-0.4
			c-0.9-0.3-1.6-0.7-2.2-1.3c-0.6-0.6-1.1-1.3-1.5-2.2c-0.4-0.9-0.5-1.9-0.5-3.1c0-1.3,0.2-2.4,0.6-3.4c0.4-0.9,1-1.7,1.6-2.3
			c0.7-0.6,1.4-1,2.3-1.3c0.8-0.3,1.7-0.4,2.5-0.4c0.6,0,1.2,0.1,1.8,0.2c0.6,0.1,1.1,0.3,1.5,0.4v2.7c-0.4-0.2-0.8-0.3-1.3-0.4
			c-0.5-0.1-1-0.2-1.5-0.2s-1,0.1-1.5,0.2c-0.5,0.2-0.9,0.4-1.3,0.8c-0.4,0.4-0.7,0.8-0.9,1.4c-0.2,0.6-0.3,1.3-0.3,2.1
			c0,0.6,0.1,1.2,0.3,1.7c0.2,0.5,0.4,1,0.7,1.4c0.3,0.4,0.7,0.7,1.2,0.9c0.5,0.2,1.1,0.3,1.8,0.3c0.6,0,1.2-0.1,1.7-0.2
			s1-0.3,1.4-0.4V174.6z"/>
		<path id="XMLID_46_" class="st10" d="M741.2,160.1c0,0.7,0,1.3,0,1.7c0,0.5-0.1,0.9-0.1,1.2h0.1c0.2-0.3,0.4-0.5,0.7-0.8
			c0.3-0.3,0.6-0.5,0.9-0.7c0.3-0.2,0.7-0.3,1.2-0.5c0.4-0.1,0.9-0.2,1.4-0.2c0.4,0,0.9,0,1.3,0.1c0.4,0.1,0.8,0.2,1.2,0.4
			c0.4,0.2,0.7,0.4,1,0.7c0.3,0.3,0.6,0.7,0.8,1.1c0.2,0.4,0.3,0.8,0.4,1.2c0.1,0.4,0.1,1,0.1,1.6v8.7h-3.3v-8.3c0-0.4,0-0.8-0.1-1
			c0-0.3-0.1-0.5-0.2-0.7c-0.2-0.4-0.5-0.7-0.8-0.9c-0.4-0.2-0.8-0.3-1.2-0.3c-0.6,0-1.2,0.2-1.8,0.5c-0.5,0.3-1.1,0.7-1.5,1.3v9.4
			h-3.3v-20.3h3.3V160.1z"/>
		<path id="XMLID_43_" class="st10" d="M760.9,172.5c0.6,0,1.3-0.1,2-0.2c0.7-0.1,1.4-0.3,2.1-0.6v2.7c-0.4,0.2-1.1,0.4-2,0.5
			c-0.9,0.2-1.8,0.3-2.8,0.3c-1,0-1.9-0.1-2.7-0.4c-0.9-0.2-1.6-0.6-2.3-1.2c-0.6-0.6-1.2-1.3-1.5-2.1s-0.6-1.9-0.6-3.2
			c0-1.2,0.2-2.3,0.5-3.2c0.4-0.9,0.8-1.7,1.4-2.3c0.6-0.6,1.3-1.1,2.1-1.4c0.8-0.3,1.6-0.5,2.4-0.5c0.9,0,1.7,0.1,2.4,0.4
			c0.7,0.3,1.4,0.7,1.9,1.2c0.5,0.6,0.9,1.3,1.2,2.2c0.3,0.9,0.4,1.9,0.4,3.1c0,0.5,0,0.9,0,1.2h-8.9c0,0.6,0.2,1.2,0.4,1.6
			c0.2,0.4,0.5,0.8,0.9,1.1c0.4,0.3,0.8,0.5,1.3,0.6C759.7,172.5,760.3,172.5,760.9,172.5z M759.5,163.5c-0.4,0-0.8,0.1-1.1,0.2
			c-0.3,0.2-0.6,0.4-0.8,0.6c-0.2,0.3-0.4,0.6-0.6,0.9c-0.1,0.4-0.2,0.7-0.3,1.1h5.3c0-0.4-0.1-0.8-0.2-1.1
			c-0.1-0.4-0.3-0.7-0.5-0.9c-0.2-0.3-0.5-0.5-0.8-0.6C760.3,163.6,760,163.5,759.5,163.5z"/>
	</g>
	<g id="XMLID_39_">
		<line id="XMLID_41_" class="st11" x1="146.4" y1="165.5" x2="614.2" y2="165.5"/>
		<rect id="XMLID_40_" x="146.4" y="164.7" class="st12" width="467.8" height="1.7"/>
	</g>
	<g id="XMLID_17_">
		<polygon id="XMLID_38_" class="st6" points="256.8,106.8 254,123.7 255.5,123.7 258,108.5 292.3,108.5 295.6,89.1 295.8,87.9 
			294.3,87.9 291.1,106.8 		"/>
		<polygon id="XMLID_37_" class="st6" points="297.8,125.4 296.3,125.4 292.9,145.6 224.4,145.6 224.2,145.6 223.9,147.3 
			225.6,147.3 294.1,147.3 297.6,126.6 		"/>
		<polygon id="XMLID_36_" class="st6" points="262.7,71.2 260.2,86.1 261.7,86.1 263.9,72.9 304.8,72.9 308.1,53.3 308.3,52.1 
			306.8,52.1 303.6,71.2 		"/>
		<path id="XMLID_35_" class="st6" d="M337.8,90.3c0-0.1,0-0.2,0-0.3c-0.5-1.7-1-3.3-1.3-4.7c0.1,1.4,0.1,2.5,0.1,3.3
			c0,2.6-0.4,6.1-1,10.3l-7.8,46.7h-21.5H306l-0.3,1.8h1.7h21.5l7.8-46.7C337.5,96.4,337.8,92.9,337.8,90.3z"/>
		<path id="XMLID_34_" class="st6" d="M370.7,106.2c-0.1-0.9-0.1-1.7-0.1-2.3c-2.5-7.2-6.8-17.1-12.8-29.8l-9.9-20.8l-0.6-1.2h-0.4
			l9.6,20.3C363.8,87.6,368.5,98.9,370.7,106.2z"/>
		<polygon id="XMLID_33_" class="st6" points="402.4,52.1 400.9,52.1 385.3,145.6 365.1,145.6 364.5,145.6 365.4,147.3 366.3,147.3 
			386.5,147.3 402.2,53.3 		"/>
		<path id="XMLID_32_" class="st6" d="M416.1,136.1c-1.4-1.3-2.6-2.7-3.7-4.3c1.7,2.6,3.7,5,6.1,7.1c0.8,0.8,1.7,1.5,2.6,2.1
			c-0.4-0.3-0.7-0.6-1.1-0.9C418.6,138.9,417.3,137.6,416.1,136.1z"/>
		<path id="XMLID_31_" class="st6" d="M419.9,139.3c-0.9-0.7-1.7-1.4-2.6-2.1c-0.4-0.4-0.8-0.7-1.2-1.1c1.2,1.4,2.5,2.8,3.9,4.1
			c0.4,0.3,0.7,0.6,1.1,0.9c3.5,2.7,7.3,4.8,11.3,6.2h5.4C431.2,146.1,425.3,143.5,419.9,139.3z"/>
		<path id="XMLID_30_" class="st6" d="M482.1,133.3c8.9-11,13.4-24.4,13.4-40.1c0-10.1-2.5-18.6-7.5-25.5c4.2,6.6,6.3,14.5,6.3,23.7
			c0,15.7-4.5,29.1-13.4,40.1c-7.1,8.7-15.9,14-26.4,15.8h8.1C470.2,144.7,476.7,140,482.1,133.3z"/>
		<path id="XMLID_29_" class="st6" d="M439.7,88.1c2.8-9.7,7.7-14.5,14.7-14.5c3.3,0,6,1,8.2,3.1c0.2,0.1,0.4,0.3,0.6,0.4
			c-0.3-0.6-0.7-1.1-1.1-1.5c-0.2-0.2-0.4-0.4-0.6-0.6c-2.1-2-4.8-3.1-8.2-3.1c-7,0-11.9,4.8-14.7,14.5c-2.8,9.7-4.2,18.3-4.2,25.7
			c0,4.8,1,8.4,3,10.7c-1.2-2.3-1.8-5.3-1.8-9C435.5,106.4,436.9,97.8,439.7,88.1z"/>
		<path id="XMLID_28_" class="st6" d="M446,148c-2.8,0-5.5-0.2-8.2-0.7h-5.4c4.6,1.6,9.5,2.5,14.8,2.5c5.6,0,10.7-0.8,15.5-2.5h-8.1
			C451.8,147.8,449,148,446,148z"/>
		<path id="XMLID_27_" class="st6" d="M537.9,72.2h10.9c4,0,6.8,0.9,8.5,2.5c-0.3-0.6-0.6-1.1-1-1.6c-1.7-1.8-4.5-2.7-8.7-2.7h-10.9
			L534,86.7h1.5L537.9,72.2z"/>
		<path id="XMLID_26_" class="st6" d="M580,88.8c-3.7,4.1-8.6,6.8-14.8,8.2c0.9,0.3,1.7,0.6,2.5,1c0.2,0.1,0.4,0.2,0.6,0.3
			c5.3-1.5,9.6-4.1,12.9-7.7c3.7-4.1,5.5-9,5.5-14.8c0-5.2-1.5-9.7-4.4-13.6c2.1,3.5,3.2,7.4,3.2,11.8
			C585.6,79.8,583.7,84.7,580,88.8z"/>
		<path id="XMLID_25_" class="st6" d="M574.6,139c5-5.6,7.5-12.1,7.5-19.5c0-5.1-1.4-9.4-4-12.8c1.9,3.1,2.8,6.8,2.8,11.1
			c0,7.4-2.5,13.9-7.5,19.5c-5,5.6-13.3,8.4-24.9,8.4h-50.2h-0.3l-0.3,1.8h1.7h50.2C561.3,147.3,569.6,144.5,574.6,139z"/>
		<path id="XMLID_24_" class="st6" d="M531.9,108.4h11.9c3.6,0,6.4,0.8,8.2,2.5c0.1,0.1,0.3,0.3,0.4,0.4c0.1,0.1,0.2,0.2,0.3,0.3
			c-0.4-0.8-0.9-1.4-1.5-2.1c-0.1-0.1-0.3-0.3-0.4-0.4c-1.8-1.7-4.6-2.5-8.2-2.5h-11.9l-3,17.9h1.5L531.9,108.4z"/>
		<path id="XMLID_23_" class="st6" d="M606.3,139.4c-0.9-0.7-1.7-1.4-2.6-2.1c-1.8-1.6-3.4-3.4-4.9-5.4c1.7,2.6,3.7,5,6.1,7.1
			c0.8,0.8,1.7,1.5,2.6,2.1c3.5,2.7,7.3,4.8,11.3,6.2h5.4C617.6,146.1,611.7,143.5,606.3,139.4z"/>
		<path id="XMLID_22_" class="st6" d="M621.9,113.8c0-7.5,1.4-16,4.2-25.7c2.8-9.7,7.7-14.5,14.7-14.5c3.3,0,6,1,8.2,3.1
			c0.2,0.2,0.4,0.4,0.6,0.6c0.1,0.1,0.2,0.2,0.3,0.3c-0.4-0.8-0.9-1.5-1.5-2.1c-0.2-0.2-0.4-0.4-0.6-0.6c-2.1-2-4.8-3.1-8.2-3.1
			c-7,0-11.9,4.8-14.7,14.5c-2.8,9.7-4.2,18.3-4.2,25.7c0,4.8,1,8.4,3,10.7C622.5,120.5,621.9,117.6,621.9,113.8z"/>
		<path id="XMLID_21_" class="st6" d="M632.4,148c-2.8,0-5.6-0.2-8.2-0.7h-5.4c4.6,1.6,9.5,2.5,14.8,2.5c5.6,0,10.7-0.8,15.5-2.5
			H641C638.2,147.8,635.4,148,632.4,148z"/>
		<path id="XMLID_20_" class="st6" d="M668.5,133.3c8.9-11,13.4-24.4,13.4-40.1c0-10.1-2.5-18.6-7.5-25.5c4.2,6.6,6.3,14.5,6.3,23.7
			c0,15.7-4.5,29.1-13.4,40.1c-7.1,8.7-15.9,14-26.4,15.8h8.1C656.5,144.7,663,140,668.5,133.3z"/>
		<path id="XMLID_19_" class="st6" d="M726.2,83.1l0.4-0.7c-0.5-1.4-0.9-2.7-1.4-3.8l-9.5-25.2l-0.5-1.2h-0.5l9.3,24.7
			C724.8,78.6,725.5,80.7,726.2,83.1z"/>
		<polygon id="XMLID_18_" class="st6" points="774.2,53.3 775.1,52.1 772.6,52.1 734.6,104.3 727.6,145.6 701,145.6 700.7,145.6 
			700.4,147.3 702.2,147.3 728.8,147.3 735.8,106.1 		"/>
	</g>
	<g id="XMLID_3_">
		<polygon id="XMLID_16_" class="st4" points="302.8,70.2 306,51.1 306.1,50.6 306.3,49.3 237.9,49.3 222,144.6 223.5,144.6 
			223.7,144.6 292.2,144.6 295.6,124.4 295.7,123.9 295.9,122.6 255,122.6 254.8,122.6 253.3,122.6 256.1,105.8 290.3,105.8 
			293.5,86.9 293.6,86.3 293.8,85.1 261.2,85.1 261,85.1 259.5,85.1 262,70.2 		"/>
		<path id="XMLID_15_" class="st4" d="M371.7,85.5c-1.3,7.6-1.9,12.8-1.9,15.5c0,0.1,0,0.2,0,0.3c0,0.5,0,1,0.1,1.6
			c0,0.7,0.1,1.4,0.1,2.3c-2.2-7.3-6.9-18.6-14.2-33.8l-9.6-20.3l-0.2-0.5l-0.6-1.2h-25.7l-15.9,95.2h1.5h0.2H327l7.8-46.7
			c0.7-4.3,1-7.7,1-10.3c0-0.8,0-1.9-0.1-3.3c0.3,1.4,0.8,3,1.3,4.7c0.1,0.3,0.2,0.6,0.3,1c1.7,5,4.3,11,7.8,18l18.3,36.6h0.3h0.6
			h20.3l15.6-93.5l0.1-0.5l0.2-1.2h-22.8L371.7,85.5z"/>
		<path id="XMLID_12_" class="st4" d="M482.3,60.5c-0.9-0.9-1.8-1.7-2.7-2.5c-7.1-6-15.8-9-26.2-9c-14.6,0-26.4,5.5-35.5,16.4
			c-9.1,10.9-13.6,24.2-13.6,39.8c0,10.4,2.4,19,7.3,25.6c1.1,1.5,2.3,2.9,3.7,4.3c0.4,0.4,0.8,0.8,1.2,1.1c0.8,0.8,1.7,1.5,2.6,2.1
			c5.4,4.1,11.3,6.8,17.9,8c2.6,0.5,5.4,0.7,8.2,0.7c3,0,5.8-0.3,8.6-0.7c10.5-1.8,19.3-7.1,26.4-15.8c8.9-11,13.4-24.4,13.4-40.1
			c0-9.2-2.1-17.1-6.3-23.7C485.9,64.5,484.2,62.4,482.3,60.5z M433.6,111.1c0-7.5,1.4-16,4.2-25.7c2.8-9.7,7.7-14.5,14.7-14.5
			c3.3,0,6,1,8.2,3.1c0.2,0.2,0.4,0.4,0.6,0.6c0.4,0.5,0.8,1,1.1,1.6c-0.2-0.1-0.4-0.3-0.6-0.4c0.2,0.2,0.4,0.4,0.6,0.6
			c0.1,0.1,0.2,0.2,0.3,0.3c1.2,2.3,1.8,5.2,1.8,8.8c0,2.8-0.7,8.1-2.2,16c-1.5,7.9-3.4,13.8-5.9,17.9c-2.5,4.1-6.2,6.1-11,6.1
			c-2.8,0-5-0.6-6.8-1.7c-0.8-0.5-1.4-1.1-2-1.8C434.6,119.4,433.6,115.8,433.6,111.1z"/>
		<path id="XMLID_8_" class="st4" d="M579.3,87.8c3.7-4.1,5.5-9,5.5-14.8c0-4.4-1.1-8.4-3.2-11.8c-0.4-0.7-0.9-1.4-1.4-2.1
			c-1-1.2-2-2.3-3.1-3.3c-2.4-2.1-5.2-3.7-8.3-4.5c-4.6-1.3-10.4-1.9-17.6-1.9h-39.4l-15.9,95.2h1.5h0.3h50.2
			c11.6,0,19.9-2.8,24.9-8.4c5-5.6,7.5-12.1,7.5-19.5c0-4.3-1-8-2.8-11.1c-1-1.7-2.2-3.2-3.7-4.5c-1.7-1.5-3.7-2.8-6.1-3.9
			c-0.2-0.1-0.4-0.2-0.6-0.3c-0.8-0.3-1.6-0.7-2.5-1C570.7,94.6,575.6,91.9,579.3,87.8z M544.2,85.7H535h-0.3h-1.5l2.7-16.3h10.9
			c4.1,0,7,0.9,8.7,2.7c0.4,0.5,0.7,1,1,1.6c0.4,1,0.7,2,0.7,3.3C557.3,82.8,552.9,85.7,544.2,85.7z M529.9,105.6h11.9
			c3.6,0,6.4,0.8,8.2,2.5c0.1,0.1,0.3,0.3,0.4,0.4c0.6,0.6,1.1,1.3,1.5,2.1c0.6,1.2,0.9,2.5,0.9,4.1c0,2.2-0.8,4.2-2.5,6.1
			c-1.7,1.9-4.7,2.8-9.1,2.8h-12.5h-0.3H527L529.9,105.6z"/>
		<path id="XMLID_5_" class="st4" d="M668.7,60.5c-0.9-0.9-1.8-1.7-2.7-2.5c-7.1-6-15.8-9-26.2-9c-14.6,0-26.4,5.5-35.5,16.4
			c-9,10.9-13.6,24.2-13.6,39.8c0,10.4,2.4,19,7.3,25.6c1.4,1.9,3,3.7,4.9,5.4c0.9,0.8,1.7,1.5,2.6,2.1c5.4,4.1,11.3,6.8,17.9,8
			c2.6,0.5,5.4,0.7,8.2,0.7c3,0,5.8-0.3,8.6-0.7c10.5-1.8,19.3-7.1,26.4-15.8c8.9-11,13.4-24.4,13.4-40.1c0-9.2-2.1-17.1-6.3-23.7
			C672.2,64.5,670.6,62.4,668.7,60.5z M620,111.1c0-7.5,1.4-16,4.2-25.7c2.8-9.7,7.7-14.5,14.7-14.5c3.3,0,6,1,8.2,3.1
			c0.2,0.2,0.4,0.4,0.6,0.6c0.6,0.6,1,1.3,1.5,2.1c1.2,2.3,1.8,5.2,1.8,8.8c0,2.8-0.7,8.1-2.2,16c-1.5,7.9-3.4,13.8-5.9,17.9
			c-2.5,4.1-6.2,6.1-11,6.1c-2.8,0-5-0.6-6.8-1.7c-0.8-0.5-1.4-1.1-2-1.8C621,119.4,620,115.9,620,111.1z"/>
		<path id="XMLID_4_" class="st4" d="M747.2,49.3l-17,25.4l-4,6.2l-0.3,0.5l-0.4,0.7c-0.7-2.4-1.4-4.5-2.2-6.3L714,51.1l-0.2-0.5
			l-0.5-1.2h-30.1l22.4,52.6l-7.1,42.6h1.5h0.2h26.6l7-41.3l38-52.2l0.4-0.5l0.9-1.2H747.2z"/>
	</g>
</g>
</svg>
