<?xml version="1.0" encoding="utf-8"?>
<!-- Generator: Adobe Illustrator 19.0.0, SVG Export Plug-In . SVG Version: 6.00 Build 0)  -->
<svg version="1.1" id="Capa_1" xmlns="http://www.w3.org/2000/svg" xmlns:xlink="http://www.w3.org/1999/xlink" x="0px" y="0px"
	 viewBox="-653 235 612 612" style="enable-background:new -653 235 612 612;" xml:space="preserve">
<style type="text/css">
	.st0{fill:#808080;}
</style>
<g>
	<path class="st0" d="M-111.7,735.2v-94.4c0-20.3-16.4-36.7-36.7-36.7h-9.6V259.6c0-3.1-1.5-6-4.1-7.7l-23.3-15.4
		c-6.1-4-14.2,0.3-14.2,7.7v110.7l-6.9-18.7c-9.3-25.2-33.4-41.9-60.2-41.9h-160.6c-27,0-51.2,16.9-60.4,42.3l-6.7,18.3V244.2
		c0-7.3-8.1-11.7-14.2-7.7l-23.3,15.4c-2.6,1.7-4.1,4.6-4.1,7.7v344.5h-9.6c-20.3,0-36.7,16.4-36.7,36.7v94.4H-598
		c-5.1,0-9.2,4.1-9.2,9.2v50.7c0,5.1,4.1,9.2,9.2,9.2h39.6v24.3c0,10.1,8.2,18.4,18.4,18.4h48.6c10.1,0,18.4-8.2,18.4-18.4v-24.3
		h252v24.3c0,10.1,8.2,18.4,18.4,18.4h48.6c10.1,0,18.4-8.2,18.4-18.4v-24.3H-96c5.1,0,9.2-4.1,9.2-9.2v-50.7c0-5.1-4.1-9.2-9.2-9.2
		H-111.7L-111.7,735.2z M-482.2,406h270.4v90.4h-270.4V406z M-488.5,709.5h-31.4c-9.6,0-17.3-7.8-17.3-17.3v-0.4
		c0-9.6,7.8-17.3,17.3-17.3h31.4c9.6,0,17.3,7.8,17.3,17.3v0.4C-471.1,701.8-478.9,709.5-488.5,709.5z M-284.6,714.6h-124.8
		c-10.1,0-18.4-8.2-18.4-18.4V580c0-10.1,8.2-18.4,18.4-18.4h124.8c10.1,0,18.4,8.2,18.4,18.4v116.3
		C-266.2,706.4-274.5,714.6-284.6,714.6z M-174.2,709.5h-31.4c-9.6,0-17.3-7.8-17.3-17.3v-0.4c0-9.6,7.8-17.3,17.3-17.3h31.4
		c9.6,0,17.3,7.8,17.3,17.3v0.4C-156.8,701.8-164.6,709.5-174.2,709.5z M-287.4,628.8h-119.5c-5,0-9.1-4.1-9.1-9.1v-0.2
		c0-5,4.1-9.1,9.1-9.1h119.5c5,0,9.1,4.1,9.1,9.1v0.2C-278.3,624.7-282.4,628.8-287.4,628.8z M-287.4,592.1h-119.5
		c-5,0-9.1-4.1-9.1-9.1v-0.2c0-5,4.1-9.1,9.1-9.1h119.5c5,0,9.1,4.1,9.1,9.1v0.2C-278.3,588-282.4,592.1-287.4,592.1z M-287.4,702.2
		h-119.5c-5,0-9.1-4.1-9.1-9.1v-0.2c0-5,4.1-9.1,9.1-9.1h119.5c5,0,9.1,4.1,9.1,9.1v0.2C-278.3,698.2-282.4,702.2-287.4,702.2z
		 M-287.4,665.5h-119.5c-5,0-9.1-4.1-9.1-9.1v-0.2c0-5,4.1-9.1,9.1-9.1h119.5c5,0,9.1,4.1,9.1,9.1v0.2
		C-278.3,661.4-282.4,665.5-287.4,665.5z"/>
</g>
</svg>
