<?xml version="1.0" encoding="utf-8"?>
<!-- Generator: Adobe Illustrator 19.0.0, SVG Export Plug-In . SVG Version: 6.00 Build 0)  -->
<svg version="1.1" id="Layer_1" xmlns="http://www.w3.org/2000/svg" xmlns:xlink="http://www.w3.org/1999/xlink" x="0px" y="0px"
	 viewBox="0 0 40.6 76.1" style="enable-background:new 0 0 40.6 76.1;" xml:space="preserve">
<style type="text/css">
	.st0{fill:#FFFFFF;}
</style>
<g id="XMLID_1772_">
	<g id="XMLID_1860_">
		<path id="XMLID_455_" class="st0" d="M22.4,10.5c0,1.2,0,2.5,0,3.7c0,0.1,0,0.2,0,0.3c0,0.2-0.2,0.3-0.4,0.2
			c-0.1,0-0.1-0.1-0.2-0.2c-2.7-2.7-5.3-5.3-8-8c-0.3-0.3-0.3-0.5,0-0.8c0.8-0.8,1.5-1.5,2.3-2.3c1.1-1,2.6-1,3.7,0
			C20.5,4.3,21.2,5,22,5.8c0.3,0.3,0.4,0.6,0.4,1C22.4,8,22.4,9.3,22.4,10.5z"/>
	</g>
	<g id="XMLID_1859_">
		<path id="XMLID_453_" class="st0" d="M23.9,13.6c0-1.8,0-3.6,0-5.4c0-0.1,0-0.2,0-0.3c0-0.1,0.1-0.2,0.2-0.1c0,0,0.1,0.1,0.1,0.1
			c1.3,1.3,2.5,2.5,3.8,3.8c1,1,1,2.6,0,3.7c-1.3,1.3-2.5,2.5-3.8,3.8c0,0-0.1,0.1-0.1,0.1c-0.1,0.1-0.2,0-0.2-0.1
			c0-0.1,0-0.2,0-0.2C23.9,17.2,23.9,15.4,23.9,13.6z"/>
	</g>
	<g id="XMLID_1858_">
		<path id="XMLID_451_" class="st0" d="M11.9,13.7c0,1.8,0,3.6,0,5.4c0,0.1,0,0.2,0,0.2c0,0.1-0.1,0.1-0.2,0.1c0,0-0.1-0.1-0.1-0.1
			C10.3,18,9,16.8,7.7,15.5c-1.1-1.1-1-2.6,0-3.7C9,10.5,10.2,9.3,11.5,8c0.1-0.1,0.2-0.1,0.3-0.1c0,0.1,0.1,0.2,0.1,0.3
			C11.9,10,11.9,11.8,11.9,13.7z"/>
	</g>
	<g id="XMLID_1857_">
		<path id="XMLID_449_" class="st0" d="M37.6,13.2C37.6,13.2,37.6,13.2,37.6,13.2C37.7,13.2,37.7,13.2,37.6,13.2
			C37.7,13.2,37.6,13.2,37.6,13.2L37.6,13.2z"/>
	</g>
	<g id="XMLID_1827_">
		<path id="XMLID_418_" class="st0" d="M34.9,66.3c-0.1,0-0.3,0-0.4,0c-9.5,0-18.9,0-28.4,0c-0.1,0-0.3,0-0.4,0
			c-3-0.1-5.3-2.5-5.5-5.5c0-0.1,0-0.2,0-0.4c0-18.2,0-36.4,0-54.5c0-0.1,0-0.2,0-0.4c0.1-3,2.5-5.4,5.5-5.5C5.9,0,6,0,6.1,0
			c9.5,0,18.9,0,28.4,0c0.1,0,0.3,0,0.4,0c3,0.1,5.3,2.5,5.5,5.5c0,0.1,0,0.2,0,0.4c0,18.2,0,36.4,0,54.5c0,0.1,0,0.2,0,0.4
			C40.2,63.7,37.9,66.1,34.9,66.3z M39.4,52.9c0-0.1,0-0.1,0-0.2c0-15.6,0-31.3,0-46.9c0-0.3,0-0.7-0.1-1C38.8,2.6,36.9,1,34.6,1
			c-9.5,0-19,0-28.5,0C5.7,1,5.2,1.1,4.8,1.2C2.7,1.8,1.3,3.6,1.3,5.9c0,15.6,0,31.2,0,46.9c0,0.1,0,0.1,0,0.2
			C14,52.9,26.7,52.9,39.4,52.9z M31.7,59c0.1-1-0.6-1.8-1.4-1.9c-0.9-0.2-1.9,0.5-2,1.4c-0.1,0.9,0.5,1.9,1.4,2
			c0.9,0.1,1.8-0.4,1.9-1.1c-0.2,0-0.5,0-0.7,0c0,0-0.1,0-0.1,0.1c-0.2,0.3-0.5,0.4-0.9,0.3c-0.4,0-0.7-0.3-0.8-0.8
			C30,59,30.8,59,31.7,59z M10.4,58.5c0-0.4,0-0.8,0-1.3c0-0.1-0.1-0.2-0.1-0.3c-0.2-0.3-0.5-0.5-0.8-0.8c-0.3-0.3-0.8-0.3-1.2,0
			c-0.3,0.3-0.5,0.5-0.8,0.8c-0.1,0.1-0.1,0.2,0,0.3c0.9,0.9,1.8,1.8,2.7,2.7c0,0,0.1,0.1,0.2,0.1c0-0.1,0-0.1,0-0.2
			C10.4,59.4,10.4,59,10.4,58.5z M7.4,60.6c0,0.4,0,0.8,0,1.2c0,0.1,0.1,0.2,0.1,0.3C7.8,62.5,8,62.7,8.3,63c0.4,0.3,0.9,0.4,1.2,0
			c0.3-0.2,0.5-0.5,0.8-0.8c0.1-0.1,0.1-0.2,0-0.3c-0.9-0.9-1.8-1.8-2.6-2.6c0,0-0.1-0.1-0.2-0.1c0,0.1-0.1,0.1-0.1,0.2
			C7.4,59.8,7.4,60.2,7.4,60.6z M20.9,60.5c1,0,1.7-0.8,1.7-1.7c0-0.9-0.8-1.7-1.7-1.7c-0.9,0-1.7,0.8-1.7,1.7
			C19.2,59.7,19.9,60.5,20.9,60.5z M35.4,58.3c-0.2-0.9-1-1.4-1.9-1.2c-0.9,0.1-1.5,1-1.4,1.9c0.1,0.9,0.9,1.6,1.8,1.6
			c0.8,0,1.5-0.6,1.5-1.3c-0.2,0-0.5,0-0.7,0c0,0-0.1,0-0.1,0.1c-0.2,0.5-0.7,0.5-1.1,0.4c-0.4-0.1-0.6-0.5-0.6-0.9
			c0-0.4,0.3-0.8,0.6-0.9c0.4-0.1,0.8,0,1.1,0.4c0,0,0.1,0.1,0.1,0.1C34.9,58.3,35.1,58.3,35.4,58.3z M18.8,58.3
			C18.7,57.6,18,57,17.1,57c-0.9,0-1.6,0.8-1.7,1.6c0,1,0.6,1.7,1.6,1.8c0.9,0.1,1.6-0.5,1.8-1.3c-0.2,0-0.4,0-0.7,0
			c-0.1,0-0.1,0-0.2,0.1c-0.1,0.2-0.2,0.3-0.4,0.4c-0.5,0.2-1,0-1.2-0.4c-0.2-0.5-0.1-1.1,0.4-1.3c0.4-0.2,1-0.1,1.3,0.3
			c0,0,0.1,0.1,0.1,0.1C18.3,58.3,18.6,58.3,18.8,58.3z M26,60.4C26,60.4,26,60.4,26,60.4c0-0.8,0-1.5,0-2.2c0-0.5-0.3-0.9-0.8-1
			c-0.5-0.2-0.9-0.1-1.3,0.3c0,0,0,0-0.1,0c0-0.1,0-0.2,0-0.3c-0.3,0-0.5,0-0.7,0c0,1.1,0,2.2,0,3.3c0.2,0,0.5,0,0.7,0
			c0-0.5,0-1.1,0-1.6c0-0.2,0-0.4,0.1-0.5c0.1-0.4,0.3-0.5,0.7-0.5c0.3,0,0.5,0.2,0.6,0.5c0,0.2,0,0.5,0.1,0.7c0,0.4,0,0.9,0,1.3
			C25.5,60.4,25.7,60.4,26,60.4z M27.6,60.4c0-0.9,0-1.7,0-2.6c0.2,0,0.3,0,0.5,0c0-0.2,0-0.5,0-0.7c-0.2,0-0.3,0-0.5,0
			c0-0.4,0-0.8,0-1.2c-0.3,0-0.5,0-0.8,0c0,0.4,0,0.8,0,1.2c-0.2,0-0.3,0-0.5,0c0,0.2,0,0.5,0,0.7c0.2,0,0.3,0,0.5,0
			c0,0.9,0,1.7,0,2.6C27.1,60.4,27.4,60.4,27.6,60.4z M6.9,61.5c0-1.3,0-2.6,0-3.9c-0.1,0.1-0.1,0.1-0.2,0.1
			c-0.4,0.4-0.8,0.8-1.2,1.2c-0.4,0.4-0.4,0.9,0,1.3c0.4,0.4,0.8,0.8,1.2,1.2C6.8,61.5,6.8,61.5,6.9,61.5z M10.9,57.6
			c0,1.3,0,2.6,0,3.9c0.1-0.1,0.1-0.1,0.1-0.1c0.4-0.4,0.8-0.8,1.2-1.2c0.4-0.4,0.4-0.9,0-1.3c-0.4-0.4-0.8-0.8-1.2-1.2
			C11,57.7,11,57.7,10.9,57.6z M14.2,57.1c0,1.1,0,2.2,0,3.3c0.3,0,0.5,0,0.8,0c0-1.1,0-2.2,0-3.3C14.7,57.1,14.4,57.1,14.2,57.1z
			 M24.8,61.9c-0.3-0.2-0.6-0.2-0.8-0.1c-0.3,0.2-0.4,0.5-0.3,0.8c0.2,0.5,0.6,0.6,1.1,0.4c0,0,0,0.1,0,0.1c0.1,0,0.2,0,0.3,0
			c0-0.5,0-0.9,0-1.4c-0.1,0-0.2,0-0.3,0C24.8,61.9,24.8,61.9,24.8,61.9z M34,61.9c-0.3-0.2-0.6-0.2-0.8-0.1
			c-0.3,0.2-0.4,0.5-0.3,0.9c0.2,0.5,0.6,0.6,1.1,0.4c0,0,0,0.1,0,0.1c0.1,0,0.2,0,0.3,0c0-0.5,0-0.9,0-1.4c-0.1,0-0.2,0-0.3,0
			C34,61.9,34,61.9,34,61.9z M18.7,62.6c0.4,0,0.7,0,1.1,0c0-0.4-0.2-0.8-0.6-0.8c-0.4,0-0.7,0.2-0.8,0.6c-0.1,0.4,0.2,0.8,0.6,0.8
			c0.4,0.1,0.7-0.1,0.8-0.5c-0.2,0-0.3,0-0.4,0.1C19.1,63.1,18.7,62.9,18.7,62.6z M28.8,62.5c0,0.4,0.3,0.8,0.7,0.8
			c0.4,0,0.7-0.3,0.7-0.8c0-0.4-0.3-0.7-0.7-0.7C29.2,61.8,28.8,62.1,28.8,62.5z M21.7,63.2c0.1,0,0.2,0,0.3,0c0-0.2,0-0.3,0-0.4
			c0-0.2,0-0.3,0-0.5c0-0.1,0.1-0.2,0.3-0.2c0.2,0,0.2,0.1,0.3,0.2c0,0.1,0,0.2,0,0.4c0,0.2,0,0.3,0,0.5c0.1,0,0.2,0,0.3,0
			c0-0.3,0-0.6,0-0.8c0-0.2-0.1-0.4-0.3-0.5c-0.2-0.1-0.4-0.1-0.6,0.1c0-0.1,0-0.1,0-0.1c-0.1,0-0.2,0-0.3,0
			C21.7,62.3,21.7,62.7,21.7,63.2z M31,61.8c0,0.5,0,0.9,0,1.4c0.1,0,0.2,0,0.3,0c0-0.1,0-0.2,0-0.3c0-0.2,0-0.4,0-0.6
			c0-0.2,0.1-0.2,0.3-0.2c0.1,0,0.2,0.1,0.2,0.3c0,0.2,0,0.4,0,0.6c0,0.1,0,0.2,0,0.3c0.1,0,0.2,0,0.3,0c0-0.3,0-0.6,0-0.8
			c0-0.2-0.1-0.4-0.3-0.5c-0.2-0.1-0.4-0.1-0.6,0.1c0-0.1,0-0.1,0-0.1C31.2,61.8,31.1,61.8,31,61.8z M27.2,62.7
			c-0.1,0-0.3-0.1-0.4,0.1c-0.1,0.2-0.4,0.2-0.6,0.1c-0.2-0.1-0.2-0.4-0.1-0.6c0.1-0.2,0.4-0.2,0.6,0c0.1,0.2,0.3,0.1,0.4,0.1
			c-0.1-0.4-0.4-0.6-0.8-0.5c-0.4,0-0.7,0.4-0.6,0.7c0,0.4,0.3,0.7,0.7,0.7C26.8,63.3,27.1,63.1,27.2,62.7z M15.2,61.8
			c0,0.5,0,0.9,0,1.4c0.1,0,0.2,0,0.3,0c0-0.1,0-0.2,0-0.3c0-0.2,0-0.4,0-0.6c0-0.2,0.1-0.2,0.3-0.2c0.2,0,0.2,0.1,0.3,0.2
			c0,0.1,0,0.2,0,0.2c0,0.2,0,0.4,0,0.6c0.1,0,0.2,0,0.3,0c0-0.3,0-0.7,0-1c0-0.2-0.2-0.4-0.4-0.4c-0.2,0-0.3,0.1-0.5,0.1
			C15.5,61.7,15.3,61.8,15.2,61.8z M17.6,61.8c0-0.2,0-0.3,0-0.5c-0.1,0-0.2,0-0.3,0c0,0.2,0,0.3,0,0.5c-0.1,0-0.1,0-0.2,0
			c0,0.1,0,0.2,0,0.3c0.1,0,0.1,0,0.2,0c0,0.4,0,0.7,0,1.1c0.1,0,0.2,0,0.3,0c0-0.4,0-0.7,0-1.1c0.1,0,0.1,0,0.2,0
			c0-0.1,0-0.2,0-0.3C17.7,61.8,17.7,61.8,17.6,61.8z M14.6,56.9c0.3,0,0.5-0.2,0.5-0.5c0-0.3-0.2-0.5-0.5-0.5
			c-0.3,0-0.5,0.2-0.5,0.5C14.1,56.7,14.3,56.9,14.6,56.9z M20.8,63.2c0-0.2,0-0.4,0-0.6c0-0.3,0-0.4,0.3-0.5c0-0.1,0-0.2,0-0.3
			c-0.1,0-0.1,0-0.2,0c-0.1,0-0.1,0.1-0.2,0.1c0,0,0-0.1,0-0.1c-0.1,0-0.2,0-0.3,0c0,0.5,0,0.9,0,1.4C20.6,63.2,20.7,63.2,20.8,63.2
			z M35.1,63.2c0.1,0,0.2,0,0.3,0c0-0.6,0-1.2,0-1.8c-0.1,0-0.2,0-0.3,0C35.1,62,35.1,62.6,35.1,63.2z M28.2,63.2c0-0.5,0-0.9,0-1.4
			c-0.1,0-0.2,0-0.3,0c0,0.5,0,0.9,0,1.4C28,63.2,28.1,63.2,28.2,63.2z M14.5,63.2c0-0.5,0-0.9,0-1.4c-0.1,0-0.2,0-0.3,0
			c0,0.5,0,0.9,0,1.4C14.3,63.2,14.4,63.2,14.5,63.2z M28,61.3c-0.1,0-0.2,0.1-0.2,0.2c0,0.1,0.1,0.2,0.2,0.2c0.1,0,0.2-0.1,0.2-0.2
			C28.2,61.4,28.1,61.3,28,61.3z M14.5,61.5c0-0.1-0.1-0.2-0.2-0.2c-0.1,0-0.2,0.1-0.2,0.2c0,0.1,0.1,0.2,0.2,0.2
			C14.4,61.7,14.5,61.6,14.5,61.5z"/>
	</g>
	<g id="XMLID_1826_">
		<path id="XMLID_416_" class="st0" d="M37.6,13.2c-0.1,0-0.1,0.1-0.2,0.1c-2.1,1.4-4.1,2.9-6.1,4.4C28.6,20,26,22.4,23.7,25
			c-1.8,2-3.4,4.1-4.7,6.4c-0.2,0.4-0.8,0.6-1.2,0.5c-0.3-0.1-0.6-0.2-0.8-0.5c-3.1-3.1-6.3-6.3-9.4-9.4C7.1,21.5,6.9,21,7,20.3
			c0.1-0.8,0.9-1.3,1.8-1.1c0.4,0.1,0.8,0.3,1.1,0.6c2.1,2.1,4.2,4.2,6.2,6.3c0.6,0.6,1.2,1.2,1.8,1.9c0.1-0.1,0.1-0.2,0.2-0.2
			c2.2-2.5,4.6-4.8,7.2-6.9c3.6-2.9,7.4-5.4,11.6-7.3C37.2,13.3,37.4,13.3,37.6,13.2L37.6,13.2z"/>
	</g>
	<g id="XMLID_1825_">
		<path id="XMLID_414_" class="st0" d="M18,24.6c-0.8,0-1.5-0.3-2-0.8c-0.8-0.8-1.5-1.5-2.3-2.3c-0.2-0.2-0.3-0.5-0.3-0.8
			c0-2.5,0-5.1,0-7.6c0-0.1,0-0.2,0-0.3c0-0.2,0.2-0.3,0.3-0.1c0.1,0,0.2,0.1,0.2,0.2c0.2,0.2,0.4,0.4,0.6,0.6
			c2.4,2.4,4.9,4.9,7.3,7.3c0.1,0.1,0.1,0.1,0.1,0.2c0.1,0.2,0.2,0.4,0,0.6c0,0.1-0.1,0.1-0.1,0.1c-0.7,0.8-1.5,1.5-2.2,2.2
			C19.2,24.3,18.5,24.6,18,24.6z"/>
	</g>
	<g id="XMLID_1824_">
		<path id="XMLID_412_" class="st0" d="M7.8,38.8c-0.3,0-0.5,0-0.8,0c0-0.2,0-0.3-0.1-0.5c-0.1-0.4-0.3-0.6-0.6-0.6
			c-0.4-0.1-0.7,0.1-0.8,0.4c-0.1,0.2-0.2,0.5-0.2,0.8c-0.1,0.5-0.1,1.1,0.1,1.6c0.2,0.5,0.4,0.7,0.9,0.6c0.3,0,0.4-0.1,0.5-0.4
			C6.9,40.5,7,40.2,7.1,40c0.1,0,0.2,0,0.4,0c0.1,0,0.3,0,0.4,0C8,41,7.1,41.9,6,41.8c-0.7-0.1-1.2-0.5-1.4-1.1
			c-0.2-0.8-0.3-1.7,0-2.5c0.2-0.6,0.5-1,1.1-1.1c0.8-0.2,1.7,0.1,2,1.3C7.8,38.5,7.8,38.6,7.8,38.8z"/>
	</g>
	<g id="XMLID_1821_">
		<path id="XMLID_408_" class="st0" d="M6.5,44.8c0-0.2,0-0.5,0-0.7c0-0.2,0-0.4,0-0.6c0.2,0,0.5,0,0.7,0c0,1.5,0,3.1,0,4.6
			c-0.2,0-0.4,0-0.6,0c0-0.1,0-0.3,0-0.4c0,0,0,0,0,0c-0.2,0.6-1.1,0.6-1.4,0.2c-0.3-0.2-0.4-0.6-0.5-0.9c-0.1-0.6-0.1-1.3,0.1-1.9
			c0.2-0.5,0.6-0.8,1-0.8C6.2,44.4,6.3,44.5,6.5,44.8z M6.5,46.3C6.5,46.3,6.5,46.3,6.5,46.3c0-0.2,0-0.3,0-0.5c0-0.2,0-0.3-0.1-0.5
			c-0.2-0.3-0.6-0.3-0.8,0c0,0.1-0.1,0.2-0.1,0.3c-0.1,0.4-0.1,0.8,0,1.1c0,0.2,0.1,0.3,0.1,0.5c0.1,0.1,0.2,0.3,0.3,0.3
			c0.3,0.1,0.6-0.1,0.6-0.5C6.5,46.8,6.5,46.5,6.5,46.3z"/>
	</g>
	<g id="XMLID_1818_">
		<path id="XMLID_404_" class="st0" d="M13.9,46.4c0,0.6,0,1.2,0,1.7c-0.3,0-0.5,0-0.8,0c0-1.5,0-3.1,0-4.6c0,0,0.1,0,0.1,0
			c0.5,0,1.1,0,1.6,0.1c0.6,0.1,1.1,0.5,1.2,1.1c0.1,0.7-0.1,1.3-0.6,1.6c-0.3,0.1-0.5,0.2-0.8,0.2C14.3,46.4,14.1,46.4,13.9,46.4z
			 M13.9,45.7c0.2,0,0.5,0,0.7,0c0.3,0,0.4-0.2,0.5-0.4c0.1-0.2,0.1-0.4,0-0.7c-0.1-0.2-0.2-0.4-0.4-0.4c-0.3,0-0.5,0-0.8,0
			C13.9,44.7,13.9,45.2,13.9,45.7z"/>
	</g>
	<g id="XMLID_1815_">
		<path id="XMLID_400_" class="st0" d="M24.6,38c0.2,0,0.4,0,0.7,0c0,1.2,0,2.4,0,3.7c0,0-0.1,0-0.1,0c-0.2,0-0.3,0-0.5,0
			c0-0.1,0-0.3,0-0.4c0,0,0,0,0,0c-0.3,0.5-0.9,0.6-1.4,0.2c-0.3-0.3-0.4-0.6-0.5-0.9c-0.1-0.6-0.1-1.2,0.1-1.8
			c0.1-0.2,0.2-0.4,0.4-0.6c0.5-0.3,1-0.3,1.3,0.3C24.6,38.3,24.6,38.1,24.6,38z M24.5,39.9C24.5,39.9,24.5,39.9,24.5,39.9
			c0-0.2,0-0.4,0-0.6c0-0.1,0-0.3-0.1-0.4c-0.1-0.3-0.5-0.3-0.7-0.1c-0.1,0.1-0.1,0.2-0.2,0.3c0,0.1-0.1,0.3-0.1,0.4
			c0,0.4,0,0.8,0.1,1.2c0.1,0.2,0.3,0.4,0.5,0.3c0.2,0,0.3-0.1,0.4-0.4C24.5,40.4,24.5,40.1,24.5,39.9z"/>
	</g>
	<g id="XMLID_1812_">
		<path id="XMLID_396_" class="st0" d="M9.1,40.1c0.1,0.2,0.1,0.5,0.2,0.7c0.1,0.2,0.2,0.3,0.5,0.3c0.2,0,0.4-0.1,0.5-0.3
			c0,0,0,0,0,0c0-0.1,0-0.2,0.1-0.3c0.1,0,0.2,0,0.3,0c0.1,0,0.2,0,0.3,0c0,0,0,0,0,0c0,0.7-0.5,1.3-1.1,1.3c-0.6,0-1.1-0.2-1.3-0.8
			c-0.3-0.8-0.3-1.5,0-2.3c0.3-0.6,0.9-0.9,1.6-0.7c0.4,0.1,0.7,0.4,0.8,0.8c0.1,0.4,0.1,0.8,0.1,1.2C10.5,40.1,9.8,40.1,9.1,40.1z
			 M10.3,39.5c0-0.5-0.2-0.8-0.6-0.8c-0.4,0-0.6,0.3-0.6,0.8C9.6,39.5,10,39.5,10.3,39.5z"/>
	</g>
	<g id="XMLID_1809_">
		<path id="XMLID_392_" class="st0" d="M27,46.5c-0.7,0-1.3,0-2,0c0.1,0.2,0.1,0.5,0.2,0.7c0.1,0.2,0.2,0.3,0.4,0.3
			c0.2,0,0.4-0.1,0.5-0.3c0-0.1,0.1-0.2,0.1-0.3c0.2,0,0.5,0,0.7,0c0,0.7-0.5,1.4-1.5,1.3c-0.4-0.1-0.7-0.3-0.9-0.6
			c-0.4-0.8-0.4-1.7,0-2.5c0.3-0.5,0.7-0.7,1.3-0.7c0.5,0.1,0.9,0.4,1,0.9C27,45.7,27,46.1,27,46.5z M26.3,45.9
			c0-0.5-0.2-0.8-0.6-0.8c-0.4,0-0.6,0.3-0.6,0.8C25.5,45.9,25.9,45.9,26.3,45.9z"/>
	</g>
	<g id="XMLID_1806_">
		<path id="XMLID_388_" class="st0" d="M10.6,46.5c-0.6,0-1.3,0-1.9,0c0,0.3,0,0.5,0.2,0.7c0.2,0.3,0.7,0.3,0.9,0c0,0,0-0.1,0.1-0.1
			c0.1-0.2,0.1-0.2,0.3-0.2c0.2,0,0.3,0,0.5,0c0,0.5-0.4,1.1-0.9,1.3c-0.6,0.2-1.2,0-1.5-0.6c-0.3-0.5-0.4-1-0.3-1.5
			c0-0.3,0.1-0.6,0.2-0.9c0.3-0.6,0.7-0.8,1.3-0.8c0.5,0,0.9,0.4,1.1,0.9C10.6,45.7,10.6,46.2,10.6,46.5z M9.8,45.9
			c0-0.6-0.2-0.8-0.6-0.8c-0.3,0-0.6,0.4-0.5,0.8C9,45.9,9.4,45.9,9.8,45.9z"/>
	</g>
	<g id="XMLID_1803_">
		<path id="XMLID_384_" class="st0" d="M21,46.3c0,0.4-0.1,0.8-0.2,1.1c-0.2,0.5-0.6,0.8-1.2,0.8c-0.6,0-1-0.3-1.2-0.8
			c-0.3-0.7-0.3-1.5,0-2.3c0.2-0.5,0.6-0.8,1.2-0.8c0.6,0,0.9,0.3,1.2,0.8C21,45.5,21,45.9,21,46.3z M19,46.3c0,0.3,0.1,0.5,0.1,0.8
			c0,0.2,0.2,0.4,0.4,0.4c0.3,0,0.5-0.1,0.6-0.4c0.1-0.4,0.1-0.8,0.1-1.2c0-0.2-0.1-0.4-0.1-0.5c-0.1-0.2-0.3-0.3-0.6-0.3
			c-0.2,0.1-0.4,0.2-0.4,0.5C19,45.8,19,46,19,46.3z"/>
	</g>
	<g id="XMLID_1800_">
		<path id="XMLID_380_" class="st0" d="M33.2,46.3c0,0.4-0.1,0.9-0.3,1.3c-0.5,0.9-1.7,0.9-2.2,0c-0.2-0.4-0.3-0.8-0.3-1.3
			c0-0.4,0.1-0.8,0.2-1.1c0.2-0.5,0.6-0.7,1.2-0.7c0.5,0,0.9,0.3,1.2,0.7C33.1,45.5,33.2,45.9,33.2,46.3z M32.4,46.3
			c0-0.2-0.1-0.5-0.1-0.8c0-0.2-0.1-0.3-0.3-0.4c-0.3-0.1-0.6,0.1-0.7,0.4c-0.1,0.4-0.1,0.8-0.1,1.2c0,0.2,0,0.3,0.1,0.5
			c0.1,0.3,0.3,0.4,0.6,0.3c0.2,0,0.4-0.2,0.4-0.5C32.4,46.8,32.4,46.5,32.4,46.3z"/>
	</g>
	<g id="XMLID_1797_">
		<path id="XMLID_376_" class="st0" d="M33,39.9c0,0.5-0.1,0.9-0.3,1.3c-0.5,0.8-1.7,0.8-2.2,0c-0.2-0.4-0.3-0.8-0.3-1.3
			c0-0.5,0.1-0.9,0.3-1.3c0.5-0.8,1.7-0.8,2.2,0C32.9,38.9,33,39.4,33,39.9z M32.2,39.9c0-0.3-0.1-0.6-0.1-0.8
			c0-0.2-0.2-0.4-0.4-0.4c-0.3-0.1-0.6,0.1-0.7,0.5c-0.1,0.4-0.1,0.8,0,1.2c0,0.2,0.1,0.3,0.1,0.5c0.1,0.1,0.2,0.3,0.3,0.3
			c0.3,0.1,0.6,0,0.7-0.4C32.2,40.4,32.2,40.1,32.2,39.9z"/>
	</g>
	<g id="XMLID_1796_">
		<path id="XMLID_374_" class="st0" d="M34.3,41.7c-0.3,0-0.5,0-0.7,0c0-1.2,0-2.4,0-3.7c0.2,0,0.4,0,0.7,0c0,0.1,0,0.2,0,0.3
			c0,0,0,0,0,0c0.2-0.4,0.6-0.5,1-0.4c0.4,0.1,0.7,0.4,0.7,0.9c0,0.9,0,1.9,0,2.8c-0.2,0-0.5,0-0.7,0c0-0.1,0-0.1,0-0.2
			c0-0.8,0-1.5,0-2.3c0-0.1,0-0.1,0-0.2c0-0.2-0.1-0.4-0.3-0.4c-0.2-0.1-0.5,0-0.6,0.3c-0.1,0.1-0.1,0.3-0.1,0.4c0,0.7,0,1.5,0,2.2
			C34.3,41.6,34.3,41.6,34.3,41.7z"/>
	</g>
	<g id="XMLID_1795_">
		<path id="XMLID_372_" class="st0" d="M27.5,47c0.2,0,0.5,0,0.7,0c0.1,0.4,0.4,0.6,0.8,0.4c0.2-0.1,0.2-0.2,0.2-0.3
			c0-0.2,0-0.3-0.2-0.4c-0.2-0.1-0.3-0.1-0.5-0.2c-0.1,0-0.3-0.1-0.4-0.1c-0.5-0.2-0.7-0.7-0.6-1.2c0.1-0.5,0.5-0.8,1-0.9
			c0.2,0,0.4,0,0.6,0c0.5,0.1,0.8,0.5,0.8,1c-0.2,0-0.5,0-0.7,0c-0.1-0.3-0.2-0.4-0.5-0.4c-0.2,0-0.3,0.1-0.3,0.2
			c-0.1,0.2,0,0.3,0.1,0.4c0.1,0.1,0.3,0.1,0.4,0.2c0.1,0,0.1,0,0.2,0.1c0.7,0.2,0.9,0.6,0.9,1.2c-0.1,0.6-0.5,0.9-1.1,1
			C28.1,48.3,27.6,47.8,27.5,47C27.5,47.1,27.5,47.1,27.5,47z"/>
	</g>
	<g id="XMLID_1794_">
		<path id="XMLID_370_" class="st0" d="M33.6,47c0.2,0,0.5,0,0.7,0c0,0,0,0,0,0c0,0.4,0.4,0.5,0.7,0.4c0.2,0,0.3-0.2,0.3-0.3
			c0-0.2,0-0.3-0.2-0.4c-0.2-0.1-0.3-0.1-0.5-0.2c-0.1,0-0.2-0.1-0.3-0.1c-0.6-0.2-0.8-0.7-0.7-1.3c0.1-0.5,0.5-0.8,1-0.8
			c0.6,0,1.1,0.3,1.2,0.9c0,0.1,0,0.1,0,0.2c-0.2,0-0.5,0-0.7,0c-0.1-0.3-0.3-0.4-0.5-0.4c-0.2,0-0.3,0.1-0.3,0.2
			c0,0.2,0,0.3,0.2,0.4c0.2,0.1,0.3,0.1,0.5,0.2c0.1,0,0.2,0.1,0.3,0.1c0.5,0.2,0.8,0.6,0.7,1.1c0,0.6-0.4,0.9-0.9,1
			c-0.3,0.1-0.7,0-1-0.1C33.8,47.8,33.6,47.4,33.6,47z"/>
	</g>
	<g id="XMLID_1793_">
		<path id="XMLID_368_" class="st0" d="M27.7,40.4c0.2,0,0.5,0,0.7,0c0.1,0.5-0.3,1.1-0.8,1.3c-0.5,0.2-1.1,0-1.4-0.4
			c-0.2-0.3-0.3-0.6-0.3-1c-0.1-0.5,0-1,0.1-1.5c0.2-0.6,0.6-0.9,1.2-0.8c0.5,0,1,0.4,1.1,1c0,0.1,0,0.2,0,0.3c-0.2,0-0.5,0-0.7,0
			c0-0.1-0.1-0.3-0.1-0.4c-0.1-0.2-0.2-0.3-0.4-0.3c-0.2,0-0.3,0.1-0.4,0.3c0,0.1-0.1,0.3-0.1,0.5c0,0.4,0,0.8,0.1,1.2
			c0,0.3,0.2,0.5,0.4,0.5c0.2,0,0.4-0.2,0.5-0.5C27.7,40.5,27.7,40.4,27.7,40.4z"/>
	</g>
	<g id="XMLID_1792_">
		<path id="XMLID_366_" class="st0" d="M23.2,46.8c0.2,0,0.4,0,0.7,0c0.1,0.5-0.2,1.1-0.7,1.3c-0.5,0.2-1.1,0.1-1.4-0.4
			c-0.2-0.3-0.3-0.7-0.4-1.1c0-0.5,0-1,0.2-1.4c0.2-0.6,0.6-0.8,1.2-0.8c0.5,0,0.9,0.4,1,1c0,0.1,0,0.3,0.1,0.4c-0.2,0-0.5,0-0.7,0
			c0-0.1-0.1-0.3-0.1-0.4c-0.1-0.2-0.2-0.3-0.4-0.3c-0.2,0-0.3,0.1-0.4,0.3c-0.1,0.2-0.1,0.4-0.1,0.6c0,0.4,0,0.9,0.1,1.3
			c0.1,0.2,0.2,0.3,0.4,0.3c0.2,0,0.3-0.1,0.4-0.3C23.2,47.1,23.2,46.9,23.2,46.8z"/>
	</g>
	<g id="XMLID_1791_">
		<path id="XMLID_364_" class="st0" d="M21.6,40.4c0.2,0,0.5,0,0.7,0c0.1,0.5-0.3,1.1-0.8,1.3c-0.6,0.2-1.1,0-1.4-0.5
			c-0.3-0.5-0.3-1.1-0.3-1.7c0-0.3,0.1-0.5,0.2-0.8c0.2-0.6,0.6-0.8,1.2-0.8c0.5,0,0.9,0.4,1.1,1c0,0.1,0,0.2,0.1,0.4
			c-0.2,0-0.5,0-0.7,0c0-0.1-0.1-0.3-0.1-0.4c-0.1-0.2-0.2-0.3-0.4-0.3c-0.2,0-0.3,0.1-0.4,0.3c-0.1,0.2-0.1,0.4-0.1,0.6
			c0,0.4,0,0.9,0.1,1.3c0.1,0.2,0.2,0.3,0.4,0.3c0.2,0,0.3-0.1,0.4-0.3c0-0.1,0-0.1,0.1-0.2C21.6,40.5,21.6,40.4,21.6,40.4z"/>
	</g>
	<g id="XMLID_1790_">
		<path id="XMLID_362_" class="st0" d="M16.9,38.7c-0.1,0-0.3,0-0.4,0c0-0.2,0-0.5,0-0.7c0.1,0,0.2,0,0.4,0c0-0.3,0-0.7,0.3-0.9
			c0.3-0.2,0.6-0.2,1-0.2c0,0.2,0,0.4,0,0.7c-0.2,0-0.5,0-0.5,0.4c0.2,0,0.3,0,0.5,0c0,0.2,0,0.5,0,0.7c-0.2,0-0.3,0-0.5,0
			c0,1,0,2,0,3c-0.3,0-0.5,0-0.7,0C16.9,40.7,16.9,39.7,16.9,38.7z"/>
	</g>
	<g id="XMLID_1789_">
		<path id="XMLID_360_" class="st0" d="M14.9,38c0,0.2,0,0.5,0,0.7c-0.2,0-0.3,0-0.5,0c0,1,0,2,0,3c-0.3,0-0.5,0-0.8,0c0-1,0-2,0-3
			c-0.1,0-0.3,0-0.4,0c0-0.2,0-0.5,0-0.7c0.1,0,0.3,0,0.4,0c0-0.3,0-0.5,0-0.8c0.3,0,0.5,0,0.7,0c0,0.2,0,0.5,0,0.8
			C14.6,38,14.7,38,14.9,38z"/>
	</g>
	<g id="XMLID_1788_">
		<path id="XMLID_358_" class="st0" d="M13.1,37.9c0,0.3,0,0.5,0,0.8c0,0-0.1,0-0.1,0c-0.4,0-0.6,0.3-0.6,0.6c0,0.7,0,1.4,0,2.1
			c0,0.1,0,0.2,0,0.2c-0.3,0-0.5,0-0.7,0c0-1.2,0-2.4,0-3.7c0.2,0,0.4,0,0.7,0c0,0.2,0,0.3,0,0.5C12.6,38.2,12.7,37.9,13.1,37.9z"/>
	</g>
	<g id="XMLID_1787_">
		<path id="XMLID_356_" class="st0" d="M18,45.1c-0.5,0.1-0.7,0.3-0.7,0.8c0,0.6,0,1.3,0,1.9c0,0.1,0,0.1,0,0.2c-0.2,0-0.5,0-0.7,0
			c0-1.2,0-2.4,0-3.7c0.2,0,0.4,0,0.7,0c0,0.2,0,0.3,0,0.5c0.2-0.3,0.3-0.6,0.7-0.6C18,44.6,18,44.9,18,45.1z"/>
	</g>
	<g id="XMLID_1786_">
		<path id="XMLID_354_" class="st0" d="M16,41.7c-0.2,0-0.5,0-0.7,0c0-1.2,0-2.4,0-3.7c0.2,0,0.5,0,0.7,0C16,39.2,16,40.5,16,41.7z"
			/>
	</g>
	<g id="XMLID_1785_">
		<path id="XMLID_352_" class="st0" d="M28.9,38c0.3,0,0.5,0,0.7,0c0,1.2,0,2.4,0,3.7c-0.2,0-0.5,0-0.7,0
			C28.9,40.5,28.9,39.2,28.9,38z"/>
	</g>
	<g id="XMLID_1784_">
		<path id="XMLID_350_" class="st0" d="M18.5,41.7c0-1.2,0-2.4,0-3.7c0.2,0,0.5,0,0.7,0c0,1.2,0,2.4,0,3.7
			C19,41.7,18.8,41.7,18.5,41.7z"/>
	</g>
	<g id="XMLID_1783_">
		<path id="XMLID_348_" class="st0" d="M32.5,36.7c-0.3,0.3-0.6,0.6-0.9,0.8c0,0-0.1,0-0.1,0c-0.1,0-0.3,0-0.5,0
			c0.1-0.2,0.3-0.4,0.3-0.5c0.1-0.3,0.4-0.4,0.7-0.4C32.3,36.7,32.4,36.7,32.5,36.7C32.5,36.7,32.5,36.7,32.5,36.7z"/>
	</g>
	<g id="XMLID_1782_">
		<path id="XMLID_346_" class="st0" d="M15.3,37c0.2,0,0.5,0,0.7,0c0,0.2,0,0.5,0,0.7c-0.2,0-0.5,0-0.7,0
			C15.3,37.4,15.3,37.2,15.3,37z"/>
	</g>
	<g id="XMLID_1781_">
		<path id="XMLID_344_" class="st0" d="M29.6,37c0,0.2,0,0.5,0,0.7c-0.2,0-0.5,0-0.7,0c0-0.2,0-0.5,0-0.7C29.1,37,29.4,37,29.6,37z"
			/>
	</g>
	<g id="XMLID_1780_">
		<path id="XMLID_342_" class="st0" d="M18.5,37.7c0-0.2,0-0.5,0-0.7c0.2,0,0.5,0,0.7,0c0,0.2,0,0.5,0,0.7
			C19,37.7,18.8,37.7,18.5,37.7z"/>
	</g>
	<g id="XMLID_1779_">
		<path id="XMLID_340_" class="st0" d="M30.9,58.4c-0.6,0-1.2,0-1.7,0c0-0.3,0.4-0.6,0.8-0.7C30.4,57.7,30.8,58,30.9,58.4z"/>
	</g>
	<g id="XMLID_1778_">
		<path id="XMLID_338_" class="st0" d="M20,58.7c0-0.5,0.3-0.9,0.7-1c0.5-0.1,0.9,0.1,1.1,0.5c0.3,0.6-0.1,1.3-0.7,1.4
			C20.4,59.8,20,59.4,20,58.7z"/>
	</g>
	<g id="XMLID_1777_">
		<path id="XMLID_336_" class="st0" d="M23.9,62.5c0-0.2,0.2-0.4,0.4-0.4c0.2,0,0.4,0.2,0.4,0.4c0,0.2-0.2,0.4-0.4,0.4
			C24.1,62.9,23.9,62.7,23.9,62.5z"/>
	</g>
	<g id="XMLID_1775_">
		<path id="XMLID_334_" class="st0" d="M33.2,62.5c0-0.2,0.2-0.4,0.4-0.4c0.2,0,0.4,0.2,0.4,0.4c0,0.2-0.2,0.4-0.4,0.4
			C33.4,62.9,33.2,62.7,33.2,62.5z"/>
	</g>
	<g id="XMLID_1774_">
		<path id="XMLID_332_" class="st0" d="M18.7,62.3c0.1-0.2,0.2-0.3,0.4-0.3c0.2,0,0.3,0.1,0.3,0.3C19.2,62.3,19,62.3,18.7,62.3z"/>
	</g>
	<g id="XMLID_1773_">
		<path id="XMLID_330_" class="st0" d="M29.6,62.1c0.2,0,0.4,0.2,0.4,0.4c0,0.3-0.2,0.4-0.4,0.4c-0.2,0-0.4-0.2-0.4-0.4
			C29.2,62.3,29.3,62.1,29.6,62.1z"/>
	</g>
</g>
<g id="XMLID_5_">
	<path id="XMLID_37_" class="st0" d="M9.3,68.5c-0.1-0.2-0.2-0.6-0.8-0.6c-0.4,0-0.9,0.2-0.9,1.3c0,0.7,0.3,1.3,0.9,1.3
		c0.4,0,0.7-0.2,0.8-0.7h0.8c-0.2,0.8-0.7,1.4-1.6,1.4c-1,0-1.7-0.7-1.7-2c0-1.3,0.8-2,1.7-2c1.1,0,1.6,0.8,1.6,1.3H9.3z"/>
	<path id="XMLID_39_" class="st0" d="M11.6,71h-0.8v-3.7h1.7c0.7,0,1.2,0.5,1.2,1.2c0,0.3-0.2,1.2-1.2,1.2h-0.9V71z M12.4,69
		c0.6,0,0.6-0.4,0.6-0.6c0-0.4-0.2-0.5-0.7-0.5h-0.6V69H12.4z"/>
	<path id="XMLID_42_" class="st0" d="M15.7,69.9h-1.4v-0.7h1.4V69.9z"/>
	<path id="XMLID_44_" class="st0" d="M17.5,67.3c0.9,0,1.3,0.6,1.3,1.9c0,1.3-0.4,1.9-1.3,1.9c-0.9,0-1.3-0.6-1.3-1.9
		C16.2,67.9,16.6,67.3,17.5,67.3z M17.5,70.5c0.4,0,0.5-0.4,0.5-1.3c0-0.9-0.1-1.3-0.5-1.3S17,68.3,17,69.2
		C17,70.2,17.1,70.5,17.5,70.5z"/>
	<path id="XMLID_47_" class="st0" d="M20.8,67.3c0.9,0,1.3,0.6,1.3,1.9c0,1.3-0.4,1.9-1.3,1.9c-0.9,0-1.3-0.6-1.3-1.9
		C19.5,67.9,19.9,67.3,20.8,67.3z M20.8,70.5c0.4,0,0.5-0.4,0.5-1.3c0-0.9-0.1-1.3-0.5-1.3s-0.5,0.4-0.5,1.3
		C20.3,70.2,20.4,70.5,20.8,70.5z"/>
	<path id="XMLID_50_" class="st0" d="M24.1,67.3c0.9,0,1.3,0.6,1.3,1.9c0,1.3-0.4,1.9-1.3,1.9c-0.9,0-1.3-0.6-1.3-1.9
		C22.8,67.9,23.2,67.3,24.1,67.3z M24.1,70.5c0.4,0,0.5-0.4,0.5-1.3c0-0.9-0.1-1.3-0.5-1.3s-0.5,0.4-0.5,1.3
		C23.6,70.2,23.7,70.5,24.1,70.5z"/>
	<path id="XMLID_53_" class="st0" d="M28.5,70.2h-0.4V71h-0.7v-0.8h-1.5v-0.6l1.4-2.2h0.8v2.3h0.4V70.2z M27.3,69.6
		c0-0.9,0-1.5,0-1.6h0l-0.9,1.6H27.3z"/>
	<path id="XMLID_56_" class="st0" d="M30.4,69.9H29v-0.7h1.4V69.9z"/>
	<path id="XMLID_58_" class="st0" d="M31.1,68h0.1c0.7,0,0.9-0.4,0.9-0.6h0.6V71H32v-2.5h-0.9V68z"/>
	<path id="XMLID_60_" class="st0" d="M9.3,73.5c-0.1-0.2-0.2-0.6-0.8-0.6c-0.4,0-0.9,0.2-0.9,1.3c0,0.7,0.3,1.3,0.9,1.3
		c0.4,0,0.7-0.2,0.8-0.7h0.8c-0.2,0.8-0.7,1.4-1.6,1.4c-1,0-1.7-0.7-1.7-2c0-1.3,0.8-2,1.7-2c1.1,0,1.6,0.8,1.6,1.3H9.3z"/>
	<path id="XMLID_62_" class="st0" d="M11.6,76h-0.8v-3.7h1.7c0.7,0,1.2,0.5,1.2,1.2c0,0.3-0.2,1.2-1.2,1.2h-0.9V76z M12.4,74
		c0.6,0,0.6-0.4,0.6-0.6c0-0.4-0.2-0.5-0.7-0.5h-0.6V74H12.4z"/>
	<path id="XMLID_65_" class="st0" d="M15.7,74.9h-1.4v-0.7h1.4V74.9z"/>
	<path id="XMLID_67_" class="st0" d="M17.5,72.3c0.9,0,1.3,0.6,1.3,1.9c0,1.3-0.4,1.9-1.3,1.9c-0.9,0-1.3-0.6-1.3-1.9
		C16.2,72.9,16.6,72.3,17.5,72.3z M17.5,75.5c0.4,0,0.5-0.4,0.5-1.3s-0.1-1.3-0.5-1.3S17,73.2,17,74.2S17.1,75.5,17.5,75.5z"/>
	<path id="XMLID_70_" class="st0" d="M20.8,72.3c0.9,0,1.3,0.6,1.3,1.9c0,1.3-0.4,1.9-1.3,1.9c-0.9,0-1.3-0.6-1.3-1.9
		C19.5,72.9,19.9,72.3,20.8,72.3z M20.8,75.5c0.4,0,0.5-0.4,0.5-1.3s-0.1-1.3-0.5-1.3s-0.5,0.4-0.5,1.3S20.4,75.5,20.8,75.5z"/>
	<path id="XMLID_73_" class="st0" d="M24.1,72.3c0.9,0,1.3,0.6,1.3,1.9c0,1.3-0.4,1.9-1.3,1.9c-0.9,0-1.3-0.6-1.3-1.9
		C22.8,72.9,23.2,72.3,24.1,72.3z M24.1,75.5c0.4,0,0.5-0.4,0.5-1.3s-0.1-1.3-0.5-1.3s-0.5,0.4-0.5,1.3S23.7,75.5,24.1,75.5z"/>
	<path id="XMLID_76_" class="st0" d="M28.5,75.2h-0.4V76h-0.7v-0.8h-1.5v-0.6l1.4-2.2h0.8v2.3h0.4V75.2z M27.3,74.6
		c0-0.9,0-1.5,0-1.6h0l-0.9,1.6H27.3z"/>
	<path id="XMLID_79_" class="st0" d="M30.4,74.9H29v-0.7h1.4V74.9z"/>
	<path id="XMLID_81_" class="st0" d="M30.9,73.6c0-1.2,0.9-1.3,1.2-1.3c0.7,0,1.3,0.4,1.3,1.2c0,0.6-0.4,1-0.8,1.2
		c-0.5,0.3-0.7,0.5-0.8,0.7h1.6V76h-2.5c0-0.4,0.1-0.9,0.9-1.5c0.7-0.5,0.9-0.7,0.9-1.1c0-0.2-0.2-0.5-0.5-0.5
		c-0.5,0-0.5,0.4-0.5,0.7H30.9z"/>
</g>
</svg>
