<?xml version="1.0" encoding="utf-8"?>
<!-- Generator: Adobe Illustrator 19.0.0, SVG Export Plug-In . SVG Version: 6.00 Build 0)  -->
<svg version="1.1" id="Layer_1" xmlns="http://www.w3.org/2000/svg" xmlns:xlink="http://www.w3.org/1999/xlink" x="0px" y="0px"
	 viewBox="0 0 397.1 656.2" style="enable-background:new 0 0 397.1 656.2;" xml:space="preserve">
<style type="text/css">
	.st0{fill:#FFFFFF;}
</style>
<g id="XMLID_459_">
	<path id="XMLID_4957_" class="st0" d="M397.1,328.2c0,89.9,0,179.9,0,269.8c0,12.6-3.3,24.1-10.7,34.2c-9.1,12.5-21.2,20.3-36.5,23
		c-3.2,0.6-6.5,0.9-9.7,0.9c-94.8,0-189.5,0.1-284.3,0c-14.3,0-26.7-5.3-37.2-14.9c-9.3-8.4-15.1-18.9-17.6-31.1
		c-0.6-3.1-1-6.3-1-9.4C0,567,0,533.2,0,499.5c0-146.8,0-293.7,0-440.5C0,48.2,2.1,38,7.6,28.8c9-15.2,22.2-24.6,39.6-27.8
		C50.4,0.3,53.7,0,56.9,0c94.8,0,189.5-0.1,284.3,0c14.3,0,26.7,5.3,37.2,14.9c9.3,8.4,15.1,18.9,17.6,31.1c0.6,2.9,1,6,1,8.9
		C397.1,146.1,397.1,237.1,397.1,328.2C397.1,328.2,397.1,328.2,397.1,328.2z M9.9,524.2c0.9,0,1.6,0,2.4,0c30.9,0,61.8,0,92.7,0
		c93.4,0,186.8,0,280.2,0c2.1,0,2.1,0,2.1-1.8c0-155.3,0-310.7,0-466c0-3.1-0.3-6.2-1-9.2C381.4,25,361.6,9.7,339.4,9.8
		c-93.9,0.1-187.8,0-281.7,0.1c-3.2,0-6.4,0.3-9.5,0.9C26.4,14.7,9.9,34.4,9.9,56.5c0,155.3,0,310.6,0,465.8
		C9.9,522.9,9.9,523.4,9.9,524.2z M310.4,587.6c-2.7,0-5.3,0-7.8,0c-0.3,0-0.6,0.3-0.8,0.5c-2.6,3.3-5.9,4-9.8,3.3
		c-3.6-0.7-6.4-3.9-6.1-7.1c8.5,0,17.1,0,25.6,0c1.2-9.7-5.1-18.2-14.9-19.6c-8.9-1.3-17,5.2-18.8,13.7c-1.9,8.9,3.7,18,12.6,20.2
		C298.9,600.8,307.9,596,310.4,587.6z M70.5,600.3c0,4,0,8,0,12c0,1.5,0.4,2.7,1.5,3.8c2.5,2.4,4.8,5,7.3,7.4
		c3.7,3.6,8.8,3.6,12.5,0c2.3-2.3,4.5-4.5,6.8-6.8c1.8-1.8,1.8-2.4,0-4.2c-8.3-8.3-16.7-16.7-25-25c-0.4-0.4-0.8-0.8-1.2-1.1
		c-1-0.7-1.5-0.5-1.8,0.7c-0.1,0.5-0.1,1-0.1,1.5C70.5,592.5,70.5,596.4,70.5,600.3z M100.6,579.6c0-4,0-7.9,0-11.9
		c0-1.6-0.5-3-1.7-4.2c-2.3-2.3-4.6-4.6-6.9-7c-3.9-3.9-9-3.9-12.9,0c-2.2,2.2-4.4,4.4-6.6,6.6c-1.8,1.8-1.8,2.4,0,4.2
		c8.3,8.3,16.7,16.7,25,25c0.4,0.4,0.7,0.7,1.1,1c1.1,0.9,1.7,0.7,1.9-0.7c0.1-0.5,0.1-1,0.1-1.5
		C100.6,587.3,100.6,583.4,100.6,579.6z M187,581.6c-0.4,8.5,6.9,17.5,16.8,17.5c9.9-0.1,17.4-7.4,17.4-17.4
		c0-9.6-7.6-17.1-17.2-17.1C194.6,564.5,187,572.1,187,581.6z M254.6,598.1c0-7,0.1-13.8,0-20.6c-0.1-3.2-1-6.3-3.2-8.9
		c-3.9-4.6-12.9-5.4-17.2-0.8c-0.1,0.2-0.4,0.3-0.7,0.5c-0.1-1.1-0.2-1.9-0.2-3c-2,0-3.9,0.1-5.8,0c-1.5-0.1-1.9,0.4-1.9,1.9
		c0.1,9.7,0,19.4,0,29.1c0,0.4-0.1,0.7,0,1c0.1,0.3,0.5,0.7,0.7,0.7c2.2,0.1,4.5,0,6.8,0c0-0.6,0.1-1,0.1-1.4
		c0-4.2-0.1-8.4,0.1-12.6c0.1-2.7,0.5-5.4,1.2-8c0.8-2.8,3.1-3.9,6.6-3.6c2.5,0.2,4.3,1.6,4.9,4.3c0.3,1.5,0.6,3,0.6,4.4
		c0.1,5.2,0,10.3,0.1,15.5c0,0.5,0.4,1.3,0.7,1.3C249.8,598.2,252.1,598.1,254.6,598.1z M347.7,577.1c-1-7.6-9-13.4-17.4-12.8
		c-8.9,0.6-16.9,8.4-16.2,18.7c0.6,7.6,6.4,15.4,15.7,16c9.2,0.6,17-5.2,17.8-13c-2.4,0-4.7-0.1-7,0c-0.5,0-1.3,0.5-1.6,1
		c-1.1,1.9-2.5,3.2-4.6,3.8c-5.8,1.8-11.1-1.5-12.1-7.4c-0.8-4.6,1.4-9,5.2-10.6c3.4-1.4,8.8-0.9,11.5,3.6c0.2,0.3,0.7,0.7,1,0.7
		C342.6,577.2,345.1,577.1,347.7,577.1z M183.7,577.3c0.3-5.7-7.5-12.4-14.3-12.8c-10.6-0.7-19.1,7.6-19,17.3
		c0.1,9.6,7.8,17.7,18.2,17.3c8.9-0.4,14.6-7.5,15.1-13.1c-2.5,0-4.9,0-7.4,0c-0.3,0-0.9,0.4-1,0.7c-1.6,4.1-6.6,5.3-10.5,4.1
		c-3.8-1.1-6.2-4.6-6.4-8.7c-0.2-5,2.8-8.5,6.1-9.5c4-1.3,8.1,0.2,10.5,3.7c0.3,0.4,0.8,0.9,1.2,0.9
		C178.8,577.4,181.3,577.3,183.7,577.3z M263.3,565.5c-1.4,0-2.7,0-3.9,0c-0.8,0-1.1,0.3-1.1,1.1c0,1.6,0,3.2,0,4.8
		c0,0.9,0.3,1.3,1.2,1.2c1.2-0.1,2.5,0,3.8,0c0,8.7,0,17.1,0,25.5c2.7,0,5.2,0,7.9,0c0-8.5,0-16.9,0-25.5c1.7,0,3.2,0,4.8,0
		c0-2.4,0-4.7,0-7.1c-1.6,0-3.2,0-4.8,0c0-0.7,0-1.3,0-1.8c0-2.7-0.1-5.4,0-8.1c0.1-1.4-0.5-1.8-1.8-1.8c-1.5,0.1-3.1,0.1-4.7,0
		c-1.1-0.1-1.5,0.3-1.5,1.4C263.3,558.5,263.3,561.9,263.3,565.5z M105.5,609.4c0.6-0.4,1-0.6,1.2-0.8c4.3-4.3,8.7-8.6,12.9-13
		c3.1-3.3,3-8.3-0.2-11.6c-4.1-4.2-8.3-8.4-12.5-12.6c-0.1-0.1-0.3-0.3-0.4-0.4c-0.6-0.5-1-0.3-1.2,0.4c-0.1,0.4-0.1,0.8-0.1,1.2
		c0,11.5,0,23.1,0,34.6C105.2,607.9,105.3,608.5,105.5,609.4z M65.6,609.6c0.1-1,0.2-1.6,0.2-2.1c0-11.7,0-23.4,0-35.1
		c0-0.5-0.2-1-0.3-1.5c-0.5,0.3-1.1,0.4-1.5,0.8c-4,3.9-7.9,7.9-11.8,11.8c-3.9,3.9-3.9,9,0,13c3.9,3.9,7.8,7.8,11.7,11.7
		C64.2,608.6,64.7,608.9,65.6,609.6z M137.4,565.5c0,11,0,21.8,0,32.6c2.7,0,5.4,0,8.2,0c0-0.7,0-1.3,0-1.8c0-9.6,0-19.2,0-28.8
		c0-0.4,0.1-0.8,0-1c-0.2-0.4-0.5-0.9-0.8-0.9C142.3,565.4,139.9,565.5,137.4,565.5z M242.3,625c0.3,1.9,1.7,1,2.7,1.1
		c1.1,0.1,0.9-0.9,0.9-1.5c0-3.7,0-7.3,0-11c0-0.6-0.4-1.6-0.7-1.6c-1.1,0-2.4-0.7-3.1,0.8c-3.5-2.1-7.2-1.6-9.7,1.4
		c-2.3,2.8-2.1,7.1,0.3,9.8C235.2,626.7,239.2,627.2,242.3,625z M334,625c0.2,1.9,1.7,1,2.6,1.1c1.1,0.1,0.9-0.8,0.9-1.5
		c0-3.8,0-7.5,0-11.3c0-0.5-0.1-1.1-0.4-1.3c-0.7-0.6-2.9,0.1-3.4,0.8c-3.1-2.1-6.9-1.7-9.3,1.1c-2.5,2.8-2.5,7.2,0,10
		C326.7,626.7,330.7,627.2,334,625z M182.7,620.1c3.3,0,6.5,0,9.7,0c0.8,0,1.3-0.1,1.3-1.1c-0.2-4.4-3.4-7.6-7.7-7.5
		c-3.2,0-6,2.3-6.8,5.5c-0.9,3.2,0.5,6.6,3.3,8.3c2.9,1.7,6.4,1.5,8.7-0.8c0.8-0.8,1.4-1.9,2.3-3.2c-2.1-0.1-3.6-0.4-5,0.9
		C186.4,624.1,183.2,622.9,182.7,620.1z M297.5,619c0-4.2-3.1-7.4-7.3-7.5c-4.1,0-7.5,3.2-7.5,7.3c-0.1,4.1,3.4,7.6,7.5,7.6
		C294.2,626.4,297.5,623.2,297.5,619z M156.8,626.1c1,0,1.7,0,2.5,0c0.8,0,1.2-0.3,1.1-1.2c0-2.6,0.1-5.1-0.1-7.7
		c-0.1-3.2-1.7-5.3-4.4-5.6c-1.5-0.2-3,0.4-4.6,0.7c-0.8-1.1-2.2-0.3-3.4-0.5c0,4.8,0,9.5,0,14.1c3.3,0.5,3.3,0.5,3.3-2.5
		c0-0.3,0-0.5,0-0.8c0-1.6,0-3.2,0.1-4.8c0.1-1.9,1.2-2.9,2.8-2.8c1.5,0.1,2.3,1,2.4,2.8c0.1,1.2,0.1,2.4,0.1,3.6
		C156.8,623,156.8,624.5,156.8,626.1z M307.1,625.8c0-0.6,0-1.4,0-2.2c0.1-2.1,0.1-4.2,0.3-6.3c0.3-2.1,2.8-3.1,4.2-1.7
		c0.6,0.6,1,1.7,1,2.7c0.2,2.2,0.1,4.4,0.1,6.6c0,1.3,0.8,1.3,1.7,1.2c0.9-0.1,2.1,0.4,2-1.2c-0.1-3,0-5.9-0.3-8.9
		c-0.2-2.1-1.4-3.5-3.4-4.2c-2-0.7-3.7-0.3-5.3,1c-0.5-1-1.7-1.4-3-0.9c-0.4,0.1-0.7,1.1-0.7,1.6c-0.1,3.3,0,6.5,0,9.8
		c0,3,0.1,3.1,3.1,2.7C306.8,626,306.9,626,307.1,625.8z M215.7,612.9c-0.5-1.7-1.8-0.8-2.7-1c-0.2,0-0.8,0.6-0.8,0.9
		c-0.1,4.1-0.1,8.2,0,12.3c0,0.3,0.6,0.9,0.9,1c2.3,0.3,2.4,0.2,2.5-2.1c0.1-2.2,0.1-4.5,0.3-6.7c0.1-1.3,1.1-2.1,2.5-2.2
		c1.4,0,2.3,0.6,2.6,2c0.1,0.5,0.2,1.1,0.2,1.6c0,2.1,0,4.1,0.1,6.2c0,0.4,0.3,1.1,0.7,1.2c2.2,0.6,2.9,0,2.9-2.2c0-0.7,0-1.3,0-2
		c0-1.6-0.2-3.1-0.1-4.7C224.9,612.8,219.8,609.7,215.7,612.9z M266.4,617c-0.4-3.7-3.9-5.9-8.1-5.5c-3.8,0.4-6.6,4.3-6.1,8.6
		c0.4,3.7,4.2,6.6,8.1,6.3c2.9-0.2,6.2-2.6,6-5.8c-1.3,0.4-2.7-0.7-3.8,0.9c-1.2,1.7-3.5,2-5.2,0.7c-1.8-1.4-2.2-4.1-0.7-5.9
		c1.2-1.6,4-2,5.2-0.5C263.1,617.5,264.6,617.1,266.4,617z M168.4,626c0.5,0.1,0.7,0.1,0.9,0.1c3.1,0,2.5,0.1,2.5-2.4
		c0-2.8,0-5.7,0-8.6c0.8-0.1,1.4-0.2,2-0.2c0-1.1,0-2,0-2.9c-0.7-0.1-1.3-0.1-2.1-0.2c0-1.6,0-3.1,0-4.6c-1.2,0-2.2,0-3.4,0
		c0,1.6,0,3.1,0,4.6c-0.8,0.1-1.4,0.2-2,0.2c0,1,0,2,0,2.9c0.7,0.1,1.3,0.1,2,0.2C168.4,618.8,168.4,622.3,168.4,626z M136.7,558.5
		c0,2.7,2,4.8,4.7,4.8c2.6,0,4.8-2.1,4.8-4.7c0-2.6-2.2-4.8-4.7-4.9C138.9,553.7,136.7,555.9,136.7,558.5z M347.8,607.4
		c-0.5,0-0.8-0.1-1.2-0.1c-2.2,0-2.2,0-2.2,2.1c0,5,0,10,0,15c0,1.4,0.5,1.7,1.8,1.6c1.2,0,1.8-0.2,1.8-1.6c-0.1-5.2,0-10.4,0-15.6
		C347.9,608.4,347.8,608,347.8,607.4z M199.7,611.9c0,4.5,0.1,8.7,0,12.9c0,1.6,0.9,1.3,1.8,1.4c1.1,0.1,1.8,0,1.7-1.5
		c-0.1-2.3,0.1-4.6,0.1-6.9c0-1.5,0.9-2.3,2.3-2.7c0.4-0.1,0.9-0.4,1-0.7c0.1-0.8,0-1.7,0-3c-1.4,0.5-2.4,0.9-3.4,1.3
		C202.5,611.1,201.1,612.2,199.7,611.9z M137.3,612.1c0,4.2,0.1,8.4,0,12.6c0,1.3,0.5,1.5,1.6,1.5c1-0.1,2,0.2,1.9-1.5
		c-0.1-3.4,0-6.7,0-10.1c0-2.9,0-2.9-3-2.7C137.7,611.9,137.6,612,137.3,612.1z M272.9,611.9c0,4.5-0.1,8.9,0,13.3
		c0,1.5,1.4,0.7,2.1,0.8c0.8,0.2,1.3-0.1,1.3-1.1c0-2.9,0-5.7,0-8.6c0-1.5,0-3,0-4.5C275.2,611.9,274.2,611.9,272.9,611.9z
		 M276.7,609.1c0-1-1-2-2-2c-1,0-2.1,1.1-2,2.1c0.1,1.1,0.8,1.8,1.9,1.9C275.6,611.2,276.6,610.1,276.7,609.1z M140.9,609
		c0-1-1.1-2-2.1-1.9c-1.1,0.1-1.9,1-1.8,2.1c0.1,1.2,0.8,1.8,1.9,1.9C140,611.1,141,610.1,140.9,609z"/>
	<path id="XMLID_4883_" class="st0" d="M369.4,130.9c-6.4,4.4-12.6,8.6-18.7,12.9c-37.1,25.9-71.9,54.5-103.4,87.1
		c-22.8,23.5-43.4,48.8-60.5,76.9c-0.7,1.2-1.5,2.4-2.1,3.6c-1.8,3.9-7.2,5.4-10.8,4.6c-3.3-0.7-6.1-2.2-8.5-4.7
		c-30.9-31-61.8-62-92.7-92.9c-4.6-4.6-6.6-10-6.3-16.4c0.4-6.9,7.3-12.7,14.5-12.4c5.7,0.3,10.4,2.4,14.4,6.5
		c20.5,20.6,41,41.1,61.5,61.6c5.7,5.8,11.5,11.5,17.3,17.2c0.4,0.3,0.7,0.7,1.2,1.1c1.7-1.9,3.4-3.8,5.1-5.6c7-7.3,14-14.5,21-21.8
		c17.9-18.5,37.2-35.5,57.5-51.3c31.2-24.3,64.4-45.3,100.3-62c3.2-1.5,6.4-2.9,9.6-4.3C368.9,130.8,369,130.9,369.4,130.9z"/>
	<path id="XMLID_4882_" class="st0" d="M129.9,166.1c0-11.9,0-23.9,0-35.8c0-1.5,0.1-3,0.3-4.5c0.2-2.1,1.6-2.8,3.3-1.7
		c0.9,0.6,1.8,1.3,2.6,2.1c26.2,26.2,52.4,52.4,78.6,78.6c2.9,2.9,2.9,5,0,7.9c-8,8-15.8,16.1-24.1,23.9c-9.3,8.8-25,8.3-34-0.7
		c-7.9-7.9-15.7-15.9-23.5-23.8c-2.4-2.4-3.2-5.3-3.3-8.6C129.9,191,129.9,178.5,129.9,166.1z"/>
	<path id="XMLID_4881_" class="st0" d="M218.7,104c0,12.7,0,25.4,0,38.1c0,0.9-0.1,1.8-0.3,2.7c-0.4,1.8-1.5,2.2-3,1.3
		c-1.2-0.7-2.2-1.7-3.2-2.7c-17.7-17.7-35.3-35.4-53-53.1c-8.2-8.2-16.5-16.5-24.7-24.7c-0.3-0.3-0.6-0.6-0.8-0.9
		c-2.1-2.3-2.2-4.7,0-6.9c8.1-8.2,16.2-16.5,24.6-24.4c9.5-8.9,25-8.2,34.2,1c7.6,7.7,15.2,15.4,22.9,23.1c2.4,2.4,3.6,5.2,3.6,8.6
		C218.6,78.8,218.7,91.4,218.7,104z"/>
	<path id="XMLID_4880_" class="st0" d="M114.7,135.2c0,17.7,0,35.4,0,53.2c0,0.9-0.1,1.9-0.3,2.8c-0.2,1-0.8,1.2-1.7,0.7
		c-0.5-0.3-1-0.7-1.4-1.1c-12.4-12.4-24.8-24.9-37.3-37.3c-5.8-5.8-8.4-12.7-7.7-20.8c0.5-5.9,3-11,7.1-15.2
		c12.7-12.7,25.4-25.4,38.1-38.1c0.4-0.4,0.9-0.9,1.3-0.9c0.5,0,1.3,0.4,1.4,0.8c0.3,0.9,0.3,1.9,0.3,2.8
		C114.7,99.7,114.7,117.5,114.7,135.2z"/>
	<path id="XMLID_4879_" class="st0" d="M233.8,135.2c0-17.7,0-35.4,0-53.2c0-0.8,0-1.6,0.1-2.4c0.1-1.3,0.9-1.7,2.1-1
		c0.4,0.3,0.8,0.6,1.1,1c12.5,12.5,24.9,24.9,37.4,37.4c5,5,7.7,11,7.7,18c0,7.1-2.6,13.2-7.6,18.2c-12.5,12.6-25.1,25.1-37.7,37.7
		c-0.3,0.3-0.7,0.6-1,0.8c-1.1,0.6-1.8,0.3-1.9-0.9c-0.1-0.8-0.1-1.7-0.1-2.6C233.8,170.6,233.8,152.9,233.8,135.2z"/>
	<path id="XMLID_4878_" class="st0" d="M67.2,396c2.4,0,4.8,0,7.6,0c-0.2,1.6-0.4,3.2-0.7,4.7c-1.4,7-6.4,11.9-12.8,12.6
		c-9.6,1-15.7-3-18.1-12.3c-2-7.7-2.1-15.5,0.6-23.1c1.8-5.2,5-9.5,10.6-11.1c8.6-2.5,17.3,1.4,19.7,11.7c0.4,1.7,0.5,3.5,0.8,5.6
		c-2.6,0-5,0-7.4,0c-0.2,0-0.4-0.7-0.5-1.1c-0.3-1.7-0.5-3.4-0.9-5c-1.8-6.5-9.4-6.6-12.8-2.6c-2.1,2.5-3,5.5-3.5,8.7
		c-0.8,5.2-0.6,10.4,0.8,15.5c0.3,1.2,0.9,2.4,1.5,3.4c1.6,2.6,4,3.9,7,3.7c3.3-0.2,5.5-1.9,6.6-5C66.3,399.8,66.7,397.9,67.2,396z"
		/>
	<path id="XMLID_4875_" class="st0" d="M61.8,443.7c0-4.5,0-8.7,0-12.9c2.4,0,4.6,0,7,0c0,15.1,0,30.3,0,45.5c-2,0-3.9,0-6,0
		c0-1.4,0-2.6,0-4.4c-0.4,0.6-0.7,0.8-0.8,1.1c-1.4,3.5-4.3,4.3-7.6,4.1c-5.1-0.3-8.1-3.5-9.7-8c-2.4-7.3-2.2-14.6,0.3-21.8
		c1.1-3.1,3-5.5,6.2-6.8C55.4,438.6,58.6,439.5,61.8,443.7z M62,458.4c-0.1,0-0.1,0-0.2,0c0-1.9,0-3.7,0-5.6c0-0.5-0.2-1.1-0.3-1.6
		c-0.6-3.3-2.5-4.9-5.5-4.7c-2.1,0.1-3.9,1.8-4.5,4.6c-1,4.5-0.9,9-0.3,13.6c0.1,0.5,0.3,1.1,0.4,1.6c0.9,2.9,2.7,4.3,5.1,4.2
		c2.4-0.1,4.3-2,4.7-4.8C61.8,463.2,61.8,460.8,62,458.4z"/>
	<path id="XMLID_4872_" class="st0" d="M127.3,476.4c0-15.4,0-30.5,0-45.8c0.6,0,1.1,0,1.6,0c4.8,0.1,9.5,0,14.3,0.3
		c7.3,0.6,12,5.9,12.3,13.3c0.1,4.9-1.1,9.2-5.2,12.3c-2.1,1.6-4.6,2.4-7.3,2.5c-2.2,0.1-4.3,0.1-6.5,0c-1.4-0.1-1.7,0.4-1.7,1.7
		c0.1,4.6,0,9.2,0.1,13.9c0,1.3-0.3,1.8-1.7,1.7C131.3,476.3,129.4,476.4,127.3,476.4z M134.9,437.5c0,4.8,0,9.4,0,14.1
		c0,0.8,0.4,1,1.1,1c1.5,0,2.9,0,4.4,0c4.8-0.1,7.5-2.7,7.6-7.6c0.1-3.9-1.9-7-5.1-7.5C140.3,437.2,137.7,437.5,134.9,437.5z"/>
	<path id="XMLID_4869_" class="st0" d="M241.2,376.4c1.8,0,3.6-0.1,5.3,0.1c0.3,0,0.8,0.8,0.8,1.3c0.1,3.2,0,6.4,0,9.6
		c0,7.8,0,15.6,0,23.3c0,0.6,0,1.2,0,1.9c-2.1,0-4,0-6.2,0c0-1.4,0-2.7,0-4.5c-0.5,0.5-0.7,0.7-0.7,0.8c-2.5,5.2-7.6,5.3-11.6,3
		c-2.7-1.5-4.3-3.9-5.3-6.7c-2.4-7.4-2.3-14.9,0.5-22.2c1.5-3.9,4.2-6.5,8.6-7.1c2.8-0.4,5,0.4,6.8,2.6c0.5,0.6,0.9,1.2,1.6,1.8
		C241,379.1,241.1,377.9,241.2,376.4z M240.4,394.7c-0.1,0-0.2,0-0.2,0c0-1.5,0-3,0-4.5c0-0.8-0.2-1.6-0.2-2.4
		c-0.3-3.5-2.5-5.6-5.3-5.2c-2.2,0.3-4,2.2-4.4,5.1c-0.4,3.3-0.6,6.7-0.6,10c0,1.9,0.6,4,1.3,5.8c0.9,2.3,2.7,3.2,5.1,3
		c1.7-0.2,3.1-1.5,3.5-3.8C240,400.1,240.1,397.4,240.4,394.7z"/>
	<path id="XMLID_4866_" class="st0" d="M107.3,396.8c-6.6,0-12.9,0-19.4,0c0.3,3.3,0.4,6.6,3,8.9c2.1,1.9,5.6,1.4,7.3-1
		c0.3-0.5,0.6-1,0.8-1.5c1.1-2.7,1.1-2.7,4.1-2.7c1.2,0,2.5,0,3.7,0c0.3,5.4-4.6,11.5-9.8,12.4c-6.3,1.2-11.6-1.4-14.2-7.2
		c-3.4-7.5-3.4-15.1,0-22.5c3.8-8.3,13.4-9.3,19-5c3.4,2.6,4.7,6.4,5.2,10.5C107.2,391.4,107.2,394,107.3,396.8z M100.2,390.7
		c-0.4-1.8-0.6-3.4-1.1-5c-0.7-2.3-2.5-3.3-4.8-3.5c-2.2-0.2-3.9,0.7-4.8,2.6c-0.8,1.8-1.2,3.7-1.9,5.8
		C92,390.7,95.9,390.7,100.2,390.7z"/>
	<path id="XMLID_4863_" class="st0" d="M265.1,460.6c-6.9,0-13.2,0-19.6,0c0.1,3,0.4,5.8,2.2,8.1c2.2,2.9,6.4,2.5,8.2-0.6
		c0.2-0.4,0.4-0.8,0.6-1.2c1.1-2.6,1-2.6,4-2.6c1.2,0,2.4,0,3.6,0c0.1,0,0.2,0.1,0.3,0.1c-0.5,6.2-4.8,11.4-10,12.4
		c-6.1,1.1-11.4-1.5-14-7.1c-3.4-7.5-3.5-15.2,0-22.7c2.9-6.2,9.2-8.9,15.5-6.8c4.4,1.4,6.9,4.8,7.9,9.1
		C264.5,453,264.7,456.7,265.1,460.6z M245.5,454.7c3.9,0,7.7,0,11.5,0c0.2,0,0.6-0.5,0.6-0.7c-0.3-1.7-0.5-3.5-1.1-5.1
		c-1.5-3.5-6.8-3.9-9-0.8C246.1,450,245.7,452.2,245.5,454.7z"/>
	<path id="XMLID_4860_" class="st0" d="M94.6,464.4c2.3,0,4.5,0,6.8,0c-0.3,5.8-4.5,11.7-10.5,12.5c-7.8,1-12-3.4-13.9-8
		c-2.9-7.2-2.9-14.5,0.3-21.6c4.1-9.1,14.2-9.2,19.2-5.1c2,1.6,3.2,3.7,4,6.1c1.4,4,1.3,8,1.2,12.3c-6.4,0-12.7,0-19.1,0
		c0.2,3,0.4,5.9,2.2,8.2c2.1,2.6,6.2,2.4,8-0.4C93.6,467.2,94,465.8,94.6,464.4z M94.7,454.6c-0.3-3-0.2-6-3-7.8
		c-1.9-1.1-4.1-1.3-5.9,0.1c-2.5,1.9-2.9,4.7-3,7.6C86.8,454.6,90.6,454.6,94.7,454.6z"/>
	<path id="XMLID_4857_" class="st0" d="M323.9,394.6c0.1,4.4-0.7,8.7-3,12.5c-5,8.4-16.5,8.4-21.6,0.1c-1.8-2.9-2.7-6.1-2.9-9.4
		c-0.4-4.8-0.1-9.6,2.1-14.1c2.3-4.8,6-7.5,11.3-7.9c4.6-0.3,9.3,2.5,11.7,7.3C323.2,386.7,324,390.5,323.9,394.6z M316.6,394.3
		c-0.4-2.5-0.8-5.3-1.4-8c-0.4-1.8-1.5-3.1-3.4-3.7c-3.4-1.1-6.4,0.8-7.3,4.5c-1.1,4.6-1,9.2-0.2,13.9c0.4,2.2,1.1,4.3,3.4,5.4
		c3.3,1.6,6.9-0.3,7.8-4.2C316,399.7,316.2,397.1,316.6,394.3z"/>
	<path id="XMLID_4854_" class="st0" d="M325.7,458.3c0.1,4.1-0.6,8-2.5,11.5c-2.4,4.7-6.2,7.2-11.4,7.2c-5.2,0-9.1-2.6-11.2-7.2
		c-3.6-7.6-3.6-15.4,0-23c2.2-4.7,6.1-7.2,11.4-7.2c5.2,0,8.9,2.6,11.3,7.2C325.1,450.4,325.8,454.4,325.7,458.3z M318.4,457.8
		c-0.5-2.5-0.9-5.5-1.7-8.3c-0.6-2.1-2.2-3.3-4.5-3.3c-3.1-0.1-5.1,1.4-5.8,4.7c-1.1,5-1.1,10,0,15c0.5,2.1,1.5,3.9,3.7,4.5
		c3.4,1,6.3-0.7,7.1-4.5C317.8,463.4,318,460.9,318.4,457.8z"/>
	<path id="XMLID_4851_" class="st0" d="M177.8,458.3c-0.1-3.9,0.5-7.7,2.3-11.2c2.4-4.9,6.3-7.6,11.8-7.4c5.3,0.1,9,2.8,11.1,7.6
		c3.3,7.4,3.3,15,0,22.4c-2.2,4.9-6.1,7.5-11.5,7.5c-5.3,0-9.1-2.7-11.4-7.4C178.3,466.1,177.7,462.2,177.8,458.3z M198,458
		c-0.4-2.5-0.6-5.4-1.4-8.1c-0.7-2.6-2.6-3.7-5.2-3.7c-2.5,0-4.2,1.1-5,3.7c-0.6,1.7-0.9,3.6-1.1,5.4c-0.4,3.7-0.2,7.4,0.8,11
		c0.5,1.9,1.6,3.5,3.6,4.1c3.4,1,6.4-0.8,7.2-4.7C197.5,463.3,197.7,460.9,198,458z"/>
	<path id="XMLID_4850_" class="st0" d="M330.1,376.5c2.1,0,4.2,0,6.4,0c0,1.2,0,2.4,0,3.5c0.2-0.1,0.4-0.1,0.4-0.1
		c2-3.7,5.7-4.7,9.9-3.8c3.8,0.9,6.6,4,6.9,8c0.2,2.4,0.3,4.9,0.3,7.4c0,7,0,14,0,21.1c-2.3,0-4.6,0-7.1,0c0-0.6,0-1.1,0-1.7
		c0-7.5,0-15,0-22.4c0-0.7,0-1.4-0.1-2.1c-0.4-2.6-1.6-3.8-3.8-4c-2.2-0.2-4.4,1-5.2,3c-0.4,1-0.6,2.1-0.6,3.2
		c-0.1,7.4,0,14.9,0,22.3c0,0.5,0,1.1,0,1.8c-2.4,0-4.6,0-7,0C330.1,400.6,330.1,388.6,330.1,376.5z"/>
	<path id="XMLID_4849_" class="st0" d="M329.8,465.9c2.4,0,4.6,0,6.9,0c0.1,0.3,0.2,0.5,0.2,0.7c0.8,4.1,4.8,4.7,7.8,3.4
		c1.4-0.6,2.1-1.6,2.2-3.1c0.2-1.6-0.2-3.1-1.7-3.9c-1.6-0.8-3.2-1.3-4.9-1.9c-1.2-0.4-2.5-0.7-3.7-1.2c-6.4-2.6-8.6-11.1-4.3-16.4
		c3.2-4,7.6-4.6,12.3-3.5c4.3,1,7.2,3.8,8.1,8.3c0.1,0.5,0.2,1.1,0.4,1.9c-2.3,0-4.4,0-6.6,0c-0.3,0-0.6-0.5-0.7-0.9
		c-1-2.5-3.5-3.8-6.1-3c-1.3,0.4-2.1,1.3-2.3,2.7c-0.2,1.5,0.1,3,1.5,3.8c1.4,0.7,2.9,1.1,4.3,1.7c2.2,0.8,4.5,1.5,6.5,2.6
		c2.7,1.5,4,4,4.1,7.1c0.1,1.9,0.1,3.9-0.5,5.6c-1.3,4.4-4.7,6.6-9.1,7.1c-2.2,0.3-4.5,0.1-6.7-0.4
		C333,475.1,330.2,471.2,329.8,465.9z"/>
	<path id="XMLID_4848_" class="st0" d="M269.7,465.8c2.2,0,4.2,0,6.1,0c1,0,0.9,0.6,1.1,1.2c0.5,2.3,2.4,3.6,4.9,3.6
		c2.7,0,4.5-1.2,5-3.4c0.4-1.7-0.2-3.4-1.8-4.2c-1.5-0.7-3.2-1.2-4.7-1.8c-0.9-0.3-1.9-0.6-2.9-0.9c-6-1.9-7.7-6.4-7.1-11.5
		c0.7-5.8,4.9-9.2,10.7-9.2c6.1,0,10.5,3.2,11.7,8.7c0.1,0.5,0.1,1.1,0.2,1.8c-2.2,0-4.3,0-6.4,0c-0.3,0-0.6-0.6-0.8-0.9
		c-1-2.5-3.5-3.7-6.1-3c-1.5,0.5-2.2,1.6-2.4,3c-0.2,1.5,0.4,2.9,1.7,3.5c1.7,0.8,3.4,1.3,5.2,1.9c1.3,0.5,2.7,0.8,4,1.4
		c4.8,2,6.2,6.3,5.8,11c-0.6,7.3-7,10.6-13.6,9.9c-5.7-0.6-9.2-3.6-10.4-8.8C269.7,467.4,269.7,466.7,269.7,465.8z"/>
	<path id="XMLID_4847_" class="st0" d="M234,463.5c0.5,7.4-4.5,13.4-11.6,13.6c-4.5,0.2-7.7-2.1-9.9-6c-2.6-4.6-3.3-9.7-2.8-14.8
		c0.2-3,0.7-6,1.7-8.8c1.9-5.7,6.5-8.5,12.2-7.8c5.3,0.6,9.3,4.6,10.2,10.1c0.2,1,0.2,2,0.4,3.2c-2.2,0-4.1,0-6.1,0
		c-0.3,0-0.7-0.6-0.8-1c-0.3-0.9-0.4-2-0.7-2.9c-0.7-2.1-2-2.9-4-3c-2.2,0-3.5,0.7-4.2,2.9c-0.6,1.8-1.1,3.8-1.1,5.7
		c0,3.6,0.3,7.2,0.5,10.8c0.1,0.9,0.5,1.7,0.8,2.6c0.6,1.6,1.9,2.5,3.6,2.5c1.7,0.1,3.1-0.6,3.8-2.2c0.6-1.2,0.8-2.7,1.3-4
		c0.1-0.4,0.6-1,0.9-1C230.1,463.4,232,463.5,234,463.5z"/>
	<path id="XMLID_4846_" class="st0" d="M218.3,389.1c-2.5,0-4.6,0-6.7,0c-0.4-1.5-0.7-2.9-1.2-4.2c-0.7-1.8-2.1-2.6-4-2.6
		c-1.8,0-3.3,0.8-3.9,2.6c-0.6,1.7-1,3.5-1.1,5.2c-0.4,4.5-0.5,9.1,1,13.5c0.7,2.2,2,3.2,3.9,3.2c2,0,3.6-1,4.4-3.1
		c0.4-1.2,0.6-2.4,0.9-3.8c2,0,4.2,0,6.4,0c1,5.3-3.5,11.9-9,13c-5.4,1.1-9.8-0.9-12.5-5.8c-2.5-4.6-3.2-9.6-2.8-14.7
		c0.2-3,0.7-6.1,1.7-8.9c2.3-6.3,6.4-7.8,10.9-7.8c5.5,0,9.6,3.4,11.1,8.7C217.8,385.9,218,387.4,218.3,389.1z"/>
	<path id="XMLID_4845_" class="st0" d="M278.4,389.1c-2.3,0-4.5,0-6.7,0c-0.2-1-0.4-2.1-0.7-3.1c-0.8-2.6-2.2-3.8-4.4-3.7
		c-2.2,0-3.9,1.3-4.3,3.8c-0.5,2.7-0.8,5.5-0.7,8.2c0,3,0.4,6,1,8.9c0.6,2.6,2,3.6,4.1,3.6c2.1,0,3.6-1.2,4.4-3.6
		c0.3-1,0.5-2.1,0.8-3.3c2.1,0,4.3,0,6.4,0c0.4,6.1-3.5,12-9.1,13.1c-5.8,1.2-10.6-1.3-13-7.1c-3.1-7.4-3.1-15.1-0.3-22.5
		c2.3-6.1,6.5-7.6,10.9-7.5c5.5,0.1,9.7,3.5,11.1,8.9C278,386.1,278.2,387.6,278.4,389.1z"/>
	<path id="XMLID_4844_" class="st0" d="M176.4,383.2c-1.6,0-3.1,0-4.7,0c0,9.9,0,19.6,0,29.4c-2.4,0-4.7,0-7.2,0c0-0.6,0-1.2,0-1.8
		c0-8.5,0-17,0-25.4c0-2.2,0-2.2-2.2-2.2c-0.4,0-0.8,0-1.5,0c0-2.1,0-4.1,0-6.2c0-0.2,0.5-0.5,0.9-0.6c0.8-0.1,1.7,0,2.7,0
		c0-3.4-0.3-6.8,3-8.9c2.8-1.8,5.9-1.5,9.1-1.4c0,2.2,0,4.2,0,6.3c-4.7,1-5.2,1.3-4.9,4c1.5,0,3,0,4.6,0
		C176.4,378.7,176.4,380.8,176.4,383.2z"/>
	<path id="XMLID_4843_" class="st0" d="M132.6,368.9c2.5,0,4.7,0,7.2,0c0,2.1,0.1,4,0,6c-0.1,1.2,0.3,1.6,1.5,1.5
		c1.1-0.1,2.3,0,3.5,0c0,2.3,0,4.4,0,6.7c-1.2,0-2.3,0.1-3.3,0c-1.3-0.1-1.7,0.3-1.7,1.7c0.1,5.3,0,10.5,0,15.8c0,3.4,0,6.8,0,10.2
		c0,0.5,0,1.1,0,1.7c-2.4,0-4.6,0-7.1,0c0-9.7,0-19.5,0-29.4c-1.4,0-2.6,0-3.9,0c0-2.3,0-4.4,0-6.8c1.2,0,2.4,0,3.8,0
		C132.6,373.9,132.6,371.5,132.6,368.9z"/>
	<path id="XMLID_4842_" class="st0" d="M120.5,412.6c-2.4,0-4.7,0-7,0c0-12,0-24,0-36.1c2.1,0,4.1,0,6.4,0c0,1.7,0,3.3,0,4.9
		c0.1,0.1,0.2,0.1,0.3,0.2c1.7-2.8,2.8-6.2,7-6.1c0,2.6,0,5,0,7.6c-0.5,0.1-1,0.3-1.5,0.4c-2.9,0.7-4.6,2.5-5,5.5
		c-0.2,2.3-0.3,4.6-0.3,6.9C120.4,401.3,120.5,406.9,120.5,412.6z"/>
	<path id="XMLID_4841_" class="st0" d="M161.4,440.3c2.1,0,4.1,0,6.4,0c0,1.6,0,3.2,0,4.8c1.9-2.7,3.1-6,7.2-5.9c0,2.6,0,5.1,0,7.6
		c-4.5,0.7-6.5,3-6.6,7.5c0,6.6,0,13.2,0,19.9c0,0.6,0,1.2,0,2c-2.3,0-4.6,0-7,0C161.4,464.3,161.4,452.4,161.4,440.3z"/>
	<path id="XMLID_4840_" class="st0" d="M181,376.5c2.3,0,4.6,0,6.9,0c0,12,0,24,0,36.1c-2.2,0-4.5,0-6.9,0
		C181,400.6,181,388.7,181,376.5z"/>
	<path id="XMLID_4839_" class="st0" d="M290.7,412.6c-2.4,0-4.7,0-7,0c0-12,0-24,0-36.2c2.1,0,4.2,0,6.3,0c0.2,0,0.6,0.5,0.6,0.8
		c0.1,0.6,0,1.3,0,2c0,10.5,0,21,0,31.5C290.7,411.3,290.7,411.9,290.7,412.6z"/>
	<path id="XMLID_4838_" class="st0" d="M156,412.7c-2.1,0-4.1,0-6.1,0c-0.3,0-0.6-0.5-0.8-0.8c-0.1-0.1,0-0.4,0-0.6
		c0-11.1,0-22.3,0-33.4c0-1,0.3-1.5,1.4-1.4c1.8,0.1,3.7,0,5.6,0C156,388.6,156,400.5,156,412.7z"/>
	<path id="XMLID_4837_" class="st0" d="M319.3,363.9c-2.8,2.7-5.6,5.4-8.5,8c-0.3,0.3-1,0.3-1.5,0.3c-1.1,0-2.2,0-3.6,0
		c0.4-0.7,0.7-1.3,1.1-1.9c1.3-2,2.5-4.1,3.8-6.1c0.2-0.4,0.7-0.9,1-0.9c2.4-0.1,4.9,0,7.3,0C319,363.6,319.2,363.8,319.3,363.9z"/>
	<path id="XMLID_4836_" class="st0" d="M187.9,372.6c-2.3,0-4.6,0-6.9,0c0-2.1,0-4.2,0-6.4c2.3,0,4.6,0,6.9,0
		C187.9,368.3,187.9,370.3,187.9,372.6z"/>
	<path id="XMLID_4835_" class="st0" d="M290.6,366.2c0,2.2,0,4.2,0,6.3c-2.3,0-4.5,0-6.9,0c0-2.1,0-4.1,0-6.3
		C285.9,366.2,288.2,366.2,290.6,366.2z"/>
	<path id="XMLID_4834_" class="st0" d="M156,366.1c0,2.3,0,4.3,0,6.6c-2.1,0-4.2,0-6.3,0c-0.2,0-0.6-0.6-0.6-1c-0.1-1.5-0.1-3,0-4.5
		c0-0.4,0.6-1,0.9-1C151.9,366,153.9,366.1,156,366.1z"/>
	<path id="XMLID_4833_" class="st0" d="M302.9,578.1c-0.3,0-0.7,0.1-1,0.1c-5.2,0-10.5,0-15.8,0c0.5-3.5,4.1-6.2,8.1-6.3
		C298.7,571.7,302.2,574.2,302.9,578.1z"/>
	<path id="XMLID_4832_" class="st0" d="M213.1,581.8c-0.1,4.8-2.4,8.2-6.3,9.2c-7.5,1.8-12.6-3.4-11.6-10.9c1-7.7,9.6-9.7,14.5-5.9
		C212,575.9,213.2,578.6,213.1,581.8z"/>
	<path id="XMLID_4831_" class="st0" d="M241.9,618.9c0,2.2-1.5,3.8-3.7,3.8c-2.2,0-3.7-1.6-3.8-3.8c0-2.2,1.6-4,3.8-4
		C240.3,615,241.9,616.8,241.9,618.9z"/>
	<path id="XMLID_4830_" class="st0" d="M333.6,619c0,2.2-1.6,3.8-3.8,3.7c-2.1,0-3.7-1.7-3.7-3.9c0-2.1,1.7-3.8,3.7-3.9
		C331.9,615,333.6,616.8,333.6,619z"/>
	<path id="XMLID_4829_" class="st0" d="M189.7,617.3c-2.3,0-4.5,0-6.7,0c0.3-1.4,1.3-2.4,2.8-2.5
		C187.2,614.6,189.3,615.3,189.7,617.3z"/>
	<path id="XMLID_4828_" class="st0" d="M293.8,618.9c0,2.5-1.6,4.2-3.8,4.1c-2.2-0.1-3.7-1.7-3.7-4.1c0-2.4,1.5-3.9,3.8-3.9
		C292.4,615,293.8,616.5,293.8,618.9z"/>
</g>
</svg>
