<?xml version="1.0" encoding="utf-8"?>
<!-- Generator: Adobe Illustrator 19.0.0, SVG Export Plug-In . SVG Version: 6.00 Build 0)  -->
<svg version="1.1" id="Capa_1" xmlns="http://www.w3.org/2000/svg" xmlns:xlink="http://www.w3.org/1999/xlink" x="0px" y="0px"
	 viewBox="-719 300.3 480.7 480.7" style="enable-background:new -719 300.3 480.7 480.7;" xml:space="preserve">
<style type="text/css">
	.st0{fill:#808080;}
</style>
<g>
	<g>
		<path class="st0" d="M-464.7,712.5L-464.7,712.5L-464.7,712.5L-464.7,712.5z"/>
		<path class="st0" d="M-567.7,458.2c0.3,7.9,2.2,16.5,6.6,24c4.3,7.5,11,14,19.6,19.1c8.6,5.1,18.9,9,30.3,11.8
			c36.5,8.8,57.1,10.8,85.2,22c7.7,3.1,15.3,6.7,23,10.7c7.6,4.1,15.2,8.8,22.6,14.1c7.4,5.3,14.5,11.4,21.3,18.3
			c6.7,6.8,13,14.5,18.5,22.7c5.5,8.3,10.2,17.2,14,26.4c3.8,9.2,6.5,18.7,8.4,28s2.8,18.5,3.1,27.3c0.3,8.8-0.1,17.1-0.8,25
			c0,0.1,0,0.3,0,0.4h77.7c0,0-137.9-339-240.3-339c-26.2,0-54.7,22.1-82.6,55c-1.2,3.1-2.8,7.4-4.1,12.9
			C-566.8,443-567.9,450.3-567.7,458.2z"/>
		<path class="st0" d="M-368.7,701.4c1-4.7,2.2-11,2.7-17.5c0.6-6.4,0.6-12.9,0.3-17.8c-0.2-2.4-0.3-4.5-0.5-5.9s-0.3-2.2-0.3-2.2
			l-17.3,1.9c0,0,0.1,0.7,0.1,1.9c0.1,1.2,0.1,2.9,0.2,5c0.1,4.1-0.2,9.6-1,15.1c-0.7,5.5-2,10.9-3.1,14.9c-0.6,2-1.1,3.7-1.4,4.8
			c-0.4,1.2-0.6,1.8-0.6,1.8l15.6,4.7h3.6c0.1-0.3,0.2-0.7,0.3-1.1C-369.6,705.7-369.2,703.7-368.7,701.4z"/>
		<path class="st0" d="M-447.7,696c3.3-4.2,6.7-9,9.5-14.1c2.8-5.1,5.2-10.4,6.7-15.9c1.5-5.6,2.1-11.5,1-18.5
			c-1.2-7-4.4-15.1-10-23.5c-2.8-4.2-6.2-8.4-9.9-12.6c-3.9-4.1-8.1-8.3-12.6-12.3c-9.2-8-19.7-15.5-30.7-22.4
			c-6.2-3.8-20.3-11.4-22-12.4c-1.7-0.9-3.3-1.9-5-2.8c-1.6-1-3.3-1.9-4.9-2.9c-1.6-1-3.2-2-4.8-3c-6.4-4.1-12.5-8.5-18.3-13.4
			c-5.7-4.8-11.1-10.1-15.8-15.7c-4.7-5.6-8.7-11.7-11.9-18c-1.5-3.2-2.9-6.3-4-9.6c-0.6-1.6-1-3.2-1.5-4.8
			c-0.4-1.6-0.8-3.2-1.1-4.8c-0.6-3.2-1-6.3-1.1-9.3c-0.2-3-0.1-5.9,0.1-8.7c0.4-5.6,1.5-10.7,2.9-15.3c1.7-5.6,3.8-10.4,5.9-14.5
			c-76,99.9-143.8,266.6-143.8,266.6h260.1c0.6-0.5,1.2-1.1,1.8-1.7C-454.3,703.7-451.1,700.2-447.7,696z"/>
		<path class="st0" d="M-553.2,510.3c-0.6-0.6-1.4-1.3-2.1-2.1c-3.1-3.1-6.9-7.5-9.9-12.4c-3.1-4.9-5.2-10.3-6.4-14.5
			c-0.6-2.1-1-3.9-1.2-5.1c-0.2-1.3-0.3-2-0.3-2l-2.9,0.4c0,0,0.1,0.8,0.2,2.1c0.2,1.3,0.5,3.2,1,5.5c1,4.5,3,10.4,6,15.8
			c3,5.4,6.8,10.4,9.9,13.8c0.8,0.9,1.5,1.6,2.2,2.3c0.6,0.7,1.2,1.3,1.7,1.7c1,0.9,1.5,1.5,1.5,1.5l3.5-4c0,0-0.6-0.5-1.5-1.3
			C-552,511.4-552.6,510.9-553.2,510.3z"/>
		<path class="st0" d="M-385.5,609.9c-0.2-0.3-0.5-0.8-0.9-1.3c-0.8-1.1-2-2.7-3.5-4.6c-3-3.7-7.2-8.5-11.7-12.8
			c-1.1-1.1-2.3-2.1-3.4-3.2c-0.6-0.5-1.1-1-1.7-1.6c-0.6-0.5-1.1-1-1.7-1.4c-1.1-0.9-2.2-1.9-3.2-2.7c-1-0.8-2-1.6-3-2.3
			c-0.9-0.7-1.8-1.4-2.5-2c-0.8-0.6-1.4-1-2-1.4c-1.1-0.8-1.7-1.2-1.7-1.2l-7.5,10.1c0,0,0.6,0.4,1.6,1.2c0.5,0.4,1.1,0.9,1.8,1.4
			c0.7,0.6,1.4,1.2,2.2,1.9c0.8,0.7,1.7,1.5,2.6,2.3c0.9,0.8,1.9,1.7,2.8,2.6c0.5,0.5,1,0.9,1.5,1.4s1,1,1.5,1.5c1,1,2,2,3,3
			c3.9,4.2,7.4,8.6,9.9,12c1.2,1.7,2.2,3.2,2.9,4.2c0.4,0.5,0.6,0.9,0.8,1.2c0.2,0.3,0.3,0.4,0.3,0.4l12.5-8.2
			C-385.1,610.3-385.3,610.2-385.5,609.9z"/>
		<path class="st0" d="M-470.7,548.5c-1.1-0.4-2.2-0.9-3.4-1.4c-1.2-0.5-2.5-1-3.8-1.5c-2.7-1-5.5-2.1-8.4-3.1
			c-5.2-1.6-11.2-3.7-12.4-4c-1.2-0.4-2.3-0.7-3.4-1.1c-1-0.3-2-0.6-2.8-0.9c-0.8-0.3-1.6-0.5-2.2-0.8c-1.2-0.4-1.9-0.7-1.9-0.7
			l-2.8,7.2c0,0,0.7,0.3,1.9,0.8c0.6,0.2,1.4,0.6,2.2,0.9c0.9,0.3,1.9,0.7,2.9,1.1c1.1,0.4,7,2.6,11.2,4.1c1.4,0.5,2.7,1.1,4.1,1.7
			c2.8,1.1,5.4,2.3,8,3.4c1.3,0.6,2.5,1.1,3.6,1.6c1.1,0.5,2.2,1,3.2,1.5c2,0.9,3.7,1.7,4.8,2.3c1.1,0.6,1.8,0.9,1.8,0.9l4.3-9.2
			c0,0-0.7-0.3-1.9-0.8C-466.8,550.1-468.6,549.4-470.7,548.5z"/>
	</g>
</g>
</svg>
