<?xml version="1.0" encoding="utf-8"?>
<!-- Generator: Adobe Illustrator 19.0.0, SVG Export Plug-In . SVG Version: 6.00 Build 0)  -->
<svg version="1.1" id="Layer_1" xmlns="http://www.w3.org/2000/svg" xmlns:xlink="http://www.w3.org/1999/xlink" x="0px" y="0px"
	 viewBox="0 0 39.9 39.9" style="enable-background:new 0 0 39.9 39.9;" xml:space="preserve">
<style type="text/css">
	.st0{fill:#497BBA;}
	.st1{fill:#FFFFFF;}
</style>
<path id="XMLID_2_" class="st0" d="M0.1,16.9L0.8,19c0.2,0.5,0.2,1.4,0,1.9L0.1,23c-0.2,0.5,0,1.3,0.3,1.7l1.5,1.7
	c0.4,0.4,0.7,1.2,0.7,1.8l0.1,2.2c0,0.5,0.5,1.2,1,1.4l2,1c0.5,0.2,1.1,0.8,1.3,1.3l1,2c0.2,0.5,0.9,0.9,1.4,1l2.2,0.1
	c0.5,0,1.3,0.4,1.8,0.7l1.7,1.5c0.4,0.4,1.2,0.5,1.7,0.3l2.1-0.7c0.5-0.2,1.4-0.2,1.9,0l2.1,0.7c0.5,0.2,1.3,0,1.7-0.3l1.7-1.5
	c0.4-0.4,1.2-0.7,1.8-0.7l2.2-0.1c0.5,0,1.2-0.5,1.4-1l1-2c0.2-0.5,0.8-1.1,1.3-1.3l2-1c0.5-0.2,0.9-0.9,1-1.4l0.1-2.2
	c0-0.5,0.4-1.3,0.7-1.8l1.5-1.7c0.4-0.4,0.5-1.2,0.3-1.7l-0.7-2.1c-0.2-0.5-0.2-1.4,0-1.9l0.7-2.1c0.2-0.5,0-1.3-0.3-1.7L38,13.5
	c-0.4-0.4-0.7-1.2-0.7-1.8l-0.1-2.2c0-0.5-0.5-1.2-1-1.4l-2-1c-0.5-0.2-1.1-0.8-1.3-1.3l-1-2c-0.2-0.5-0.9-0.9-1.4-1l-2.2-0.1
	c-0.5,0-1.3-0.4-1.8-0.7l-1.7-1.5c-0.4-0.4-1.2-0.5-1.7-0.3l-2.1,0.7C20.4,1,19.5,1,19,0.8l-2.1-0.7c-0.5-0.2-1.3,0-1.7,0.3
	l-1.7,1.5c-0.4,0.4-1.2,0.7-1.8,0.7L9.5,2.8c-0.5,0-1.2,0.5-1.4,1l-1,2C6.8,6.2,6.2,6.8,5.7,7.1l-2,1C3.2,8.3,2.8,9,2.8,9.5
	l-0.1,2.2c0,0.5-0.4,1.3-0.7,1.8l-1.5,1.7C0.1,15.6-0.1,16.3,0.1,16.9z M19.9,4.9c8.3,0,15,6.7,15,15c0,8.3-6.7,15-15,15
	c-8.3,0-15-6.7-15-15C4.9,11.6,11.6,4.9,19.9,4.9z"/>
<circle id="XMLID_1_" class="st1" cx="19.9" cy="19.9" r="15"/>
</svg>
