<?xml version="1.0" encoding="utf-8"?>
<!-- Generator: Adobe Illustrator 19.0.0, SVG Export Plug-In . SVG Version: 6.00 Build 0)  -->
<svg version="1.1" id="Layer_4" xmlns="http://www.w3.org/2000/svg" xmlns:xlink="http://www.w3.org/1999/xlink" x="0px" y="0px"
	 viewBox="0 0 1938.9 259.7" style="enable-background:new 0 0 1938.9 259.7;" xml:space="preserve">
<style type="text/css">
	.st0{fill:#FFBC02;}
	.st1{opacity:0.4;clip-path:url(#XMLID_13_);}
	.st2{fill:#004A7C;}
	.st3{opacity:0.4;clip-path:url(#XMLID_15_);}
	.st4{opacity:0.4;clip-path:url(#XMLID_16_);}
	.st5{opacity:0.4;clip-path:url(#XMLID_18_);}
	.st6{opacity:0.4;clip-path:url(#XMLID_20_);}
	.st7{opacity:0.4;clip-path:url(#XMLID_21_);fill:#004A7C;}
	.st8{fill:#FFFFFF;}
</style>
<g id="XMLID_340_">
	<path id="XMLID_343_" class="st0" d="M1124.8,174.2v-36.8H1090V122h34.9V85.4h14.9V122h34.9v15.4h-34.9v36.8H1124.8z"/>
</g>
<g id="XMLID_202_">
	<path id="XMLID_203_" class="st0" d="M252.1,174.3v-36.8h-34.9V122h34.9V85.5h14.9V122h34.9v15.4h-34.9v36.8H252.1z"/>
</g>
<g id="XMLID_207_">
	<path id="XMLID_208_" class="st0" d="M563.3,174.2v-36.8h-34.9V122h34.9V85.4h14.9V122h34.9v15.4h-34.9v36.8H563.3z"/>
</g>
<g id="XMLID_231_">
	<path id="XMLID_232_" class="st0" d="M822.9,174.2v-36.8H788V122h34.9V85.4h14.9V122h34.9v15.4h-34.9v36.8H822.9z"/>
</g>
<g id="XMLID_765_">
	<defs>
		<path id="XMLID_455_" d="M249.1,177.3v-36.8h-34.9V119h34.9V82.5h10.5V0.1h-217C19.1,0.1,0,19.1,0,42.7V217
			c0,23.5,19.1,42.6,42.6,42.6h217v-82.4H249.1z"/>
	</defs>
	<use xlink:href="#XMLID_455_"  style="overflow:visible;fill:#109CE2;"/>
	<clipPath id="XMLID_13_">
		<use xlink:href="#XMLID_455_"  style="overflow:visible;"/>
	</clipPath>
	<g id="XMLID_841_" class="st1">
		<path id="XMLID_860_" class="st2" d="M283.5,215.1c-0.1-2.2-1.3-3.8-2.9-3.7c0,0-0.1,0.1-0.1,0.1c-0.2-2.8-0.5-5.5-0.9-8.2
			c0,0,0.1,0,0.1,0c1.4-0.6,2.3-2.8,1.9-5c-1-5.4-2.3-10.8-3.9-16c-0.6-2-3.9-2.9-3.9-2.9s-1.5-3.8-2.5-6.1c0,0,0.1,0,0.1,0
			c1.2-1.3,1.6-3.8,0.7-5.7c-2.2-4.6-4.6-9.1-7.2-13.1c-1-1.6-5-1.4-5-1.4c-0.4-0.6-1.6-2.2-3.1-3.9c0-0.1,0.1,0,0.1-0.1
			c0.9-1.8,0.6-4.4-0.6-5.7c-3-3.3-6.3-6.2-9.7-8.6c-1.3-1-7.2-0.1-7.2-0.1l-1.5-0.8c0,0,0.1-0.1,0.1-0.1c0.4-2.2-0.4-4.4-1.9-5.1
			c-3.6-1.5-7.3-2.6-11.1-3.2c-1.1-0.2-5-0.3-7.9-0.3c-5.8,2-11.3,4.7-16.6,8.1c5.1,0.6-6.4,8.7-5.5,3.9c-3.3,2.6-6.4,5.4-9.4,8.6
			c4.8,0.5-4.2,11.9-5.7,6.6c-3.8,5-7.2,10.4-10.2,16.3c4.4-1.3-0.9,13.2-4,9.1c-2.4,6.3-4.4,13.1-5.8,20.3
			c4.1-1.5,2.2,11.7-1.5,9.8c-0.6,5.4-1,11.1-1,16.9c0,1.2,0,2.4,0,3.6c4-1.7,5.9,10.4,0.6,10.5c0.7,7.3,1.9,14.2,3.7,20.7
			c2.4-2.4,8.7,8.1,3,9.7c2.1,5.8,4.6,11.2,7.5,16.1c1.5-2.9,9.1,6.5,4.8,7.5c3.3,4.7,7.1,9,11.1,12.9c0.7-2.7,8.6,3.2,5.5,4.8
			c6.8,5.5,14.3,9.7,22.2,12.7c4,0,6.6,0,6.6,0c4-0.2,6-0.6,7.6-1.1c1.5-0.4,4.4-5,4.4-5s5.3-0.3,6.4-0.3c0.3,0,0.7-0.1,1-0.3
			c3.5-2,6.9-4.5,10.1-7.4c1.3-1.2,1.7-3.7,0.9-5.6c0,0-0.1,0-0.1-0.1c1.5-1.5,1.8-1.9,3.3-3.6c0,0,2.5,0.3,3.2,0.3
			c0.6,0,1.2-0.3,1.8-1c2.8-3.7,5.5-7.8,7.9-12.2c0.9-1.8,0.8-4.3-0.4-5.7c0-0.1-0.1,0-0.1-0.1c1.1-2.2,1.9-3.7,2.9-6.1
			c0,0,1.2-0.1,1.7-0.1c0.9,0,1.8-0.7,2.3-2c1.9-4.9,3.5-10.1,4.7-15.5c0.5-2.1-0.3-4.5-1.6-5.2c0,0,0,0-0.1,0c0.5-2.6,1-5.3,1.4-8
			c0,0,0,0.1,0.1,0.1c0.1,0,0.3,0,0.4,0c1.3,0,2.5-1.4,2.7-3.4c0.6-5.6,1-11.3,1-17C283.8,221.1,283.7,218.1,283.5,215.1
			L283.5,215.1z M222.9,287.3c-20.8,0-37.6-28.2-37.6-63c0-34.8,16.9-63,37.6-63c20.8,0,37.6,28.2,37.6,63
			C260.5,259.1,243.6,287.3,222.9,287.3L222.9,287.3z M222.9,287.3"/>
		<path id="XMLID_861_" class="st2" d="M188,312.9c-3.4,0.3-6.4,0.2-7-0.1c-0.5-0.3,0.6-1.5,2.1-2.7c1.7-1.4,0.2-2.9-0.7-3.6
			c-2.8-2.5-5.4-5.1-7.9-8c-0.6-0.7-2-2.1-4.8-2.1c-4.4,0.1-9.9,0.3-10.5-0.1c-0.5-0.2,2.4-2.6,5.2-4.9c2.5-2,1.4-4.5,0.7-5.7
			c-2.3-3.7-4.3-7.7-6.2-11.8c-0.4-0.9-1.5-2.5-4.2-2.5c-4.1-0.1-8.8,0.2-9.5-0.1c-0.5-0.2,3.2-3.6,6.8-6.7c0.9-0.7,2.2-2.4,1.4-5.6
			c-1.2-4.8-2.4-9.6-3.2-14.6c-0.2-1.2-1.2-3.7-4-3.6c-3.7,0.1-7.5,0.1-8.1-0.1c-0.5-0.2,3.2-3.6,7.4-6.7c1.1-0.8,2.9-1.4,3.2-5.7
			c0.1-1.2-0.1-2.4-0.1-3.6c0-4.1,0.1-8.2,0.6-12.2c0.4-3.7-1.8-4.5-3-4.4c-3.8,0.2-7.6,0.4-8.1,0.1c-0.6-0.3,4.9-4.2,10.2-7.4
			c1.1-0.7,2.9-1.9,3.9-5.2c1.4-4.6,2.5-9.2,4.2-13.5c1.6-3.9-1.6-4.6-3.2-4.6c-4.1,0.1-7.4,0.3-8,0c-0.6-0.3,6.3-4.3,12.8-7
			c1.5-0.6,4.2-1.9,6.9-6c1.9-3.1,4.1-6,6.1-9c2-2.9-0.2-3.3-1.5-3.3c-5,0-9.3,0.4-10.1,0c-0.7-0.3,10.3-4.6,17-6.3
			c1.4-0.4,3.5-0.9,6.1-3.1c2.3-1.9,4.4-3.9,6.8-5.5c2.1-1.5,0.4-1.8-0.6-1.8c-5.5-0.1-10.5,0.4-11.4,0c-0.8-0.4,14.1-3.1,20-3.5
			c5.1-2.9,13.9-5.3,19.6-7c-1.5,0-2.7,0-3.2,0h-33c-1.9,0.3-9.8-0.1-11.2,0c-3.8,0.4-6.3,0.8-9.9,2.2c-2.3,1-3.1,4-1.5,4.7
			c1.8,0.7,8.6,3,7.7,3.5c-0.7,0.3-9.6,0-15.3-0.4c-2.2-0.2-5.4-0.4-6.7,0.6c-3.3,2.4-2.3,1.9-5.4,5c-1.2,1.3-1.6,3.9,0.2,4.8
			c1.7,0.8,10.1,6.4,8.9,6.9c-1,0.5-12.5,1.3-15.4,1c-2.8-0.3-4.3-0.1-5.4,1.5c-2.7,3.9-3,5.2-5.2,9.8c-0.9,1.8-0.8,5,0.5,5.7
			c1.4,0.7,7.8,3.7,11.7,7c-4.4-0.4-12.9,1.4-14.8,1.4c-1.9,0-3.4,0.1-4.1,2.1c-1.7,5.1-2,7-3.1,12.4c-0.4,2.2,0.3,4.4,2,5.3
			c1.7,1,14.3,9.5,13,9.5c-2.2-0.1-13.2,2.5-14.9,2.5c-1.7,0-2.8,1.3-2.9,3.5c-0.3,4.1-0.2,4.1-0.2,8.3c0,1.5,0,3,0.1,4.5
			c0.1,2.2,2,4.6,3.9,5.4c2.5,1.2,15.3,7.5,14.2,8.1c-0.9,0.5-12.5,1.9-13.7,1.9c-2.7,0.1-3,2.8-2.7,5c0.8,5.5,0.9,6.5,2.3,11.8
			c0.4,1.6,1.8,3,3.2,3.5c1.4,0.5,19.6,7.9,18.4,8.5c-1,0.5-11.8,2.5-13.5,2.6c-2.3,0.2-2,3.4-1,5.7c2.1,4.7,1.1,3.3,3.6,7.5
			c0.5,0.9,2.8,2.3,3.6,2.5c1.4,0.3,22.1,6.1,20.9,6.7c-1,0.5-12,1-14,1.2c-2,0.1-1.8,3.2-0.6,4.5c2.9,3.5,2.2,2.9,5.5,5.7
			c1.8,1.6,6.1,1.5,6.3,1.7c4.2,0.7,22.1,3,21,3.6c-0.9,0.5-7.5,1.2-13.8,2c-2-0.1-0.4,2.7,1,3.4c3.5,1.8,7.2,3.1,10.9,4
			c0.1,0,0.3,0,0.4,0c1.3,0,9.6,0.8,11.1,0.8c1.9,0,27.4,0.1,39.8,0.2c-7.3-2.1-17-5.3-23.7-9.5C191.5,313.6,190,312.8,188,312.9
			L188,312.9z M188,312.9"/>
	</g>
</g>
<g id="XMLID_863_">
	<defs>
		<polygon id="XMLID_206_" points="560.3,177.3 560.3,140.4 525.4,140.4 525.4,119 560.3,119 560.3,82.5 570.8,82.5 570.8,0 
			259.6,0 259.6,82.5 270.1,82.5 270.1,119 304.9,119 304.9,140.4 270.1,140.4 270.1,177.3 259.6,177.3 259.6,259.6 570.8,259.6 
			570.8,177.3 		"/>
	</defs>
	<linearGradient id="XMLID_14_" gradientUnits="userSpaceOnUse" x1="259.595" y1="129.7975" x2="570.7727" y2="129.7975">
		<stop  offset="0" style="stop-color:#006BAD"/>
		<stop  offset="6.275070e-002" style="stop-color:#0470B3"/>
		<stop  offset="0.2274" style="stop-color:#0A78BB"/>
		<stop  offset="0.5222" style="stop-color:#0C7ABD"/>
		<stop  offset="0.7762" style="stop-color:#0A77BA"/>
		<stop  offset="0.95" style="stop-color:#036FB1"/>
		<stop  offset="1" style="stop-color:#006BAD"/>
	</linearGradient>
	<use xlink:href="#XMLID_206_"  style="overflow:visible;fill:url(#XMLID_14_);"/>
	<clipPath id="XMLID_15_">
		<use xlink:href="#XMLID_206_"  style="overflow:visible;"/>
	</clipPath>
	<g id="XMLID_903_" class="st3">
		<path id="XMLID_933_" class="st2" d="M567.1,163.5l3-3l3.6,3.6l9.7-9.7L566.2,137l-9.7,9.7l4,4l-3.2,3.2
			c-16.7-13.9-37.7-21.5-59.5-21.5c-51.4,0-93.2,41.8-93.2,93.2c0,51.4,41.8,93.2,93.2,93.2c51.4,0,93.2-41.8,93.2-93.2
			C591,202.6,582.6,180.6,567.1,163.5L567.1,163.5z M505.1,304.8v-15.6h-14.7v15.6c-38-3.5-68.5-34.3-71.8-72.2h12.8v-13.8h-12.8
			c3.3-38.2,34.1-69,72.3-72.3v13.6h13.8v-13.6c38.2,3.3,69,34.1,72.3,72.3h-11.9v13.8h11.9C573.6,270.5,543,301.3,505.1,304.8
			L505.1,304.8z M505.1,304.8"/>
		<path id="XMLID_905_" class="st2" d="M501.4,215.2v-48.8c0-2.1-1.4-3.8-3-3.8c-1.7,0-3,1.7-3,3.8v48.4c-5,1.1-8.8,5.5-8.8,10.9
			c0,5.3,3.8,9.8,8.8,10.9v4.8c0,2.1,1.3,3.8,3,3.8c1.7,0,3-1.7,3-3.8v-5.3c4.3-1.5,7.4-5.6,7.4-10.5
			C508.9,220.8,505.8,216.7,501.4,215.2L501.4,215.2z M501.4,215.2"/>
		<rect id="XMLID_864_" x="488.5" y="103.8" class="st2" width="16" height="24.5"/>
	</g>
</g>
<g id="XMLID_904_">
	<defs>
		<polygon id="XMLID_219_" points="819.9,177.3 819.9,140.4 785,140.4 785,119 819.9,119 819.9,82.5 830.4,82.5 830.4,0 570.8,0 
			570.8,82.5 581.2,82.5 581.2,119 616.1,119 616.1,140.4 581.2,140.4 581.2,177.3 570.8,177.3 570.8,259.6 830.4,259.6 
			830.4,177.3 		"/>
	</defs>
	<use xlink:href="#XMLID_219_"  style="overflow:visible;fill:#109CE2;"/>
	<clipPath id="XMLID_16_">
		<use xlink:href="#XMLID_219_"  style="overflow:visible;"/>
	</clipPath>
	<g id="XMLID_956_" class="st4">
		<path id="XMLID_960_" class="st2" d="M793.1,166.1c-6.2-5.7-13.3-10.1-21-13.3c-1,1.5-2.1,2.9-3.4,4.2c-1.7,1.7-3.6,3.2-5.7,4.4
			c2.2,0.7,4.4,1.6,6.4,2.5c2.1,1,2.9,3.5,1.7,5.5c-1,1.8-3.2,2.5-5.1,1.6c-14-6.6-29.5-5.4-36.4-4.3c-2,0.3-3.9-1-4.4-3v0
			c-0.5-2.2,1-4.5,3.2-4.8c1.2-0.2,2.7-0.4,4.4-0.5c-0.5-0.4-1-0.9-1.5-1.4c-2.4-2.4-4.3-5.2-5.7-8.4c-0.1-0.3-0.3-0.7-0.4-1
			c-2.1,0.4-4.1,0.8-6.2,1.3c-11.7-6.8-25.8-6.8-34.1-6c-3.6,0.3-5.8,4.2-4.2,7.5L688,165c-7.9,6.9-13.8,15.3-17.2,24.6l-8.6,0
			c-2.9,0-5.3,2.3-5.3,5.2v19.4c0,2,1.1,3.7,2.8,4.7l11.2,5.8c4.7,12.9,14.4,24,27.2,31.7v17.2c0,3.4,2.7,6.1,6.1,6.1H720
			c2.4,0,4.6-1.5,5.6-3.7l3.9-9c3.4,0.4,6.8,0.6,10.4,0.6c5.6,0,11-0.5,16.2-1.5v7.5c0,3.4,2.7,6.1,6.1,6.1h15.6
			c2.3,0,4.3-1.2,5.4-3.2c8.3-15.6,17.4-31.3,24.1-47.7c3.4-8.3,4.6-17.1,3.9-25.7C810,189.1,803.7,175.8,793.1,166.1L793.1,166.1z
			 M699.2,198.7c-4.4,0-7.9-3.5-7.9-7.9c0-4.4,3.5-7.9,7.9-7.9c4.4,0,7.9,3.5,7.9,7.9C707,195.2,703.5,198.7,699.2,198.7
			L699.2,198.7z M699.2,198.7"/>
		<path id="XMLID_957_" class="st2" d="M742.3,158c2.4,0.9,5,1.5,7.8,1.5c1.3,0,2.7-0.1,3.9-0.4c5.4-1,10-4,13.1-8.2
			c2.6-3.5,4.1-7.8,4.1-12.5c0-11.7-9.4-21.1-21.1-21.1c-11.7,0-21.1,9.4-21.1,21.1c0,3,0.6,5.9,1.8,8.5
			C733,152,737.2,156,742.3,158L742.3,158z M742.3,158"/>
	</g>
</g>
<g id="XMLID_955_">
	<defs>
		<polygon id="XMLID_394_" points="1124.8,177.3 1124.8,140.4 1090,140.4 1090,119 1124.8,119 1124.8,82.5 1135.3,82.5 1135.3,0 
			830.4,0 830.4,82.5 840.8,82.5 840.8,119 875.7,119 875.7,140.4 840.8,140.4 840.8,177.3 830.4,177.3 830.4,259.6 1135.3,259.6 
			1135.3,177.3 		"/>
	</defs>
	<linearGradient id="XMLID_17_" gradientUnits="userSpaceOnUse" x1="830.3677" y1="129.7975" x2="1135.3051" y2="129.7975">
		<stop  offset="0" style="stop-color:#006BAD"/>
		<stop  offset="6.275070e-002" style="stop-color:#0470B3"/>
		<stop  offset="0.2274" style="stop-color:#0A78BB"/>
		<stop  offset="0.5222" style="stop-color:#0C7ABD"/>
		<stop  offset="0.7762" style="stop-color:#0A77BA"/>
		<stop  offset="0.95" style="stop-color:#036FB1"/>
		<stop  offset="1" style="stop-color:#006BAD"/>
	</linearGradient>
	<use xlink:href="#XMLID_394_"  style="overflow:visible;fill:url(#XMLID_17_);"/>
	<clipPath id="XMLID_18_">
		<use xlink:href="#XMLID_394_"  style="overflow:visible;"/>
	</clipPath>
	<g id="XMLID_958_" class="st5">
		<path id="XMLID_963_" class="st2" d="M981.3,208.7l-32.9-8.9c-0.7-0.2-1.5-0.1-2.2,0.3c-0.7,0.4-1.1,1-1.3,1.7
			c-2.7,10-4.1,20.3-4.1,30.7c0,1.8,0,3.6,0.1,5.5c0.1,1.5,1.3,2.7,2.8,2.7c0,0,0.1,0,0.1,0l34-1.6c0.7,0,1.5-0.4,2-0.9
			c0.5-0.6,0.8-1.3,0.7-2c-0.1-1.3-0.1-2.5-0.1-3.6c0-6.9,0.9-13.7,2.7-20.3C983.7,210.7,982.8,209.1,981.3,208.7L981.3,208.7z
			 M981.3,208.7"/>
		<path id="XMLID_959_" class="st2" d="M1108.5,127.1c-12.4-6-25.6-9.7-39.3-11c-0.8-0.1-1.5,0.2-2.1,0.6c-0.6,0.5-0.9,1.2-1,1.9
			l-3.3,33.9c-0.2,1.6,1,2.9,2.6,3.1c9,0.9,17.7,3.3,25.9,7.2c0.4,0.2,0.8,0.3,1.2,0.3c0.3,0,0.6-0.1,0.9-0.2
			c0.7-0.2,1.3-0.8,1.6-1.4l14.8-30.7C1110.5,129.5,1109.9,127.8,1108.5,127.1L1108.5,127.1z M1108.5,127.1"/>
		<path id="XMLID_974_" class="st2" d="M1007.8,172.6c0-0.8-0.2-1.5-0.7-2.1l-22.5-25.6c-0.5-0.6-1.2-0.9-1.9-1
			c-0.8,0-1.5,0.2-2.1,0.7c-10.3,9.1-18.9,19.8-25.5,31.8c-0.4,0.7-0.4,1.4-0.2,2.2c0.2,0.7,0.7,1.3,1.4,1.7l29.9,16.3
			c0.4,0.2,0.9,0.3,1.4,0.3c1,0,2-0.5,2.5-1.5c4.3-8,10-15,16.9-21C1007.4,174,1007.7,173.3,1007.8,172.6L1007.8,172.6z
			 M1007.8,172.6"/>
		<path id="XMLID_971_" class="st2" d="M1017.8,163.1c0.5,1,1.5,1.5,2.5,1.5c0.4,0,0.9-0.1,1.3-0.3c8-4.2,16.6-7,25.6-8.2
			c1.6-0.2,2.6-1.6,2.4-3.2l-4.6-33.7c-0.2-1.6-1.6-2.6-3.2-2.4c-13.6,1.9-26.7,6.1-38.9,12.5c-1.4,0.7-1.9,2.5-1.2,3.8
			L1017.8,163.1z M1017.8,163.1"/>
		<path id="XMLID_968_" class="st2" d="M1158.5,174.7c0.2-0.7,0.1-1.5-0.3-2.1c-7-11.8-16-22.1-26.7-30.8c-0.6-0.5-1.3-0.7-2.1-0.6
			c-0.7,0.1-1.4,0.4-1.9,1l-21.5,26.4c-0.5,0.6-0.7,1.3-0.6,2.1c0.1,0.7,0.4,1.4,1,1.9c7.1,5.7,13,12.6,17.7,20.4
			c0.5,0.9,1.5,1.4,2.4,1.4c0.5,0,1-0.1,1.5-0.4l29.2-17.5C1157.8,176.1,1158.3,175.5,1158.5,174.7L1158.5,174.7z M1158.5,174.7"/>
		<path id="XMLID_965_" class="st2" d="M1169.3,197.5c-0.5-1.5-2.1-2.3-3.6-1.9l-32.5,10.2c-1.5,0.5-2.3,2.1-1.9,3.6
			c2.3,7.4,3.5,15.2,3.5,23.1c0,1.2,0,2.3-0.1,3.6c0,0.8,0.2,1.5,0.7,2c0.5,0.6,1.2,0.9,2,0.9l34,1.6c0,0,0.1,0,0.1,0
			c1.5,0,2.8-1.2,2.8-2.7c0.1-1.9,0.1-3.7,0.1-5.5C1174.6,220.6,1172.9,208.8,1169.3,197.5L1169.3,197.5z M1169.3,197.5"/>
		<path id="XMLID_977_" class="st2" d="M1057.7,226.5c-0.5,0-1,0-1.5,0l-46.1-27.2c-1.1-0.7-2.6-0.5-3.5,0.4
			c-0.9,0.9-1.2,2.3-0.6,3.5l25.1,47.1c-0.1,0.9-0.1,1.8-0.1,2.7c0,7.1,2.8,13.8,7.8,18.8c5,5,11.7,7.8,18.8,7.8
			c7.1,0,13.8-2.8,18.8-7.8c5-5,7.8-11.7,7.8-18.8c0-7.1-2.8-13.8-7.8-18.8C1071.4,229.2,1064.8,226.5,1057.7,226.5L1057.7,226.5z
			 M1057.7,226.5"/>
	</g>
</g>
<g id="XMLID_245_">
	<rect id="XMLID_201_" x="1400.2" y="108.4" class="st0" width="70" height="15.5"/>
	<rect id="XMLID_247_" x="1400.2" y="135.7" class="st0" width="70" height="15.5"/>
</g>
<g id="XMLID_102_">
	<defs>
		<path id="XMLID_456_" d="M1896.2,0h-462v105.9h38.5v20.5h-38.5v6.8h38.5v20.5h-38.5v105.9h462c23.5,0,42.6-19.1,42.6-42.6V42.6
			C1938.9,19.1,1919.8,0,1896.2,0z"/>
	</defs>
	<linearGradient id="XMLID_19_" gradientUnits="userSpaceOnUse" x1="1434.2423" y1="129.7975" x2="1938.8607" y2="129.7975">
		<stop  offset="0" style="stop-color:#006BAD"/>
		<stop  offset="0.1162" style="stop-color:#0672B4"/>
		<stop  offset="0.3501" style="stop-color:#0B78BB"/>
		<stop  offset="1" style="stop-color:#0C7ABD"/>
	</linearGradient>
	<use xlink:href="#XMLID_456_"  style="overflow:visible;fill:url(#XMLID_19_);"/>
	<clipPath id="XMLID_20_">
		<use xlink:href="#XMLID_456_"  style="overflow:visible;"/>
	</clipPath>
	<g id="XMLID_298_" class="st6">
		<path id="XMLID_862_" class="st2" d="M1841.1,67.2c-12.7-1.6-25.7,6.9-36.8,22.1c-5.2,7.1-10,15.7-14.2,25.5
			c5.4-11,11.6-19.8,18-25.5c6.5-5.8,13.3-8.5,20-7.5c4.8,0.7,9.2,3.3,13.2,7.5h26C1860.7,76.5,1851.8,68.5,1841.1,67.2z"/>
		<path id="XMLID_478_" class="st2" d="M1827.5,49.5c-0.6-0.1-1.2-0.2-1.8-0.3c-36.5-4.8-73.2,43.5-83.7,108.7l27.7,30.9
			c0.4-6.5,1.1-13.2,2-20c8.9-62.6,39.8-110,68.9-105.9c8.9,1.2,16.5,7.1,22.7,16.4C1854.3,63,1842.1,52.1,1827.5,49.5z"/>
		<path id="XMLID_477_" class="st2" d="M1794.8,300.9L1794.8,300.9c-1.8,0-3.7-0.1-5.5-0.3c-37.5-4.9-60.6-64-51.7-132.2
			c0-0.2,0.1-0.5,0.1-0.7l0,0c0,0,0-0.1,0-0.1l-32.1,33.1c0,0,0,0,0,0l-21.9,22.7h23.5c1.7,13.2,4.6,25.5,8.8,36.6
			c8.5,21.3,21.8,36.5,39.5,40.2c7.6,1.6,21.1,2.1,32,1.4h0l0.1,0c0.2,0,0.4,0,0.6,0c0,0,0,0-0.1,0L1794.8,300.9z"/>
		<path id="XMLID_475_" class="st2" d="M1820.7,48.9c-0.7-0.1-2.7-0.3-2.7-0.3c-9.1-1-20.5-0.9-30,0c-4.6,0.4-8.8,1-12,1.8
			c-12.2,2.8-23.2,10.8-32.6,22.4c-16.3,21.9-28.9,51.5-34.6,85.1c-1.3,7.7-2.2,15.4-2.7,22.9c-0.2,2.4-0.3,6.7-0.4,9.1l33-31.7
			l0-0.1c10.6-65.3,47.3-113.5,83.7-108.7c0.6,0.1,1.2,0.2,1.8,0.3l0.1,0C1824.3,49.5,1822.6,49.2,1820.7,48.9z"/>
		<path id="XMLID_470_" class="st2" d="M1964.3,140.3c0-14.7-4.7-26.3-14.1-34.8c-0.5-0.5-1.1-0.9-1.6-1.4
			c-9.4-7.6-23.3-11.4-41.7-11.4h-38.8h-26.7l-30.5,164.3c-4.5,13.4-11.6,16.4-17.7,14.9c-4.3-1.1-8.1-5.6-11.4-12.8
			c6.2,17,15.6,28.1,27.1,29.7c14,2,28.2-10.5,39.6-31.8h0c0-0.1,0.1-0.1,0.1-0.2c6.2-14.7,15.1-62.3,15.1-62.3l20.7-0.1l0.7,2.3h0
			l24.8,60.2h4.6l36.9,0l-28.7-64C1945.9,184.6,1964.3,163.8,1964.3,140.3z M1890,160.1c-0.2,0-0.4,0-0.7,0h-13.2h-1.4h-3.7
			l6.3-32.5h6.2h11c7.9,0,13.6,1.4,17.3,4.3l1.4,1.6c1.8,2.3,2.7,5.1,2.7,8.6C1916,153.9,1907.4,159.9,1890,160.1z"/>
		<path id="XMLID_469_" class="st2" d="M1815,292.6c-0.7,0.2-1.5,0.3-2.2,0.4c-1.5,0.1-3.1,0-4.6-0.2c-20.7-2.9-34.9-30.9-38.2-69.4
			h21.2l-24.8-27.6l-25.3-28.2c0,0.1,0,0.1,0,0.2c-9.1,68.5,14,128,51.6,132.9c1.8,0.2,3.6,0.3,5.5,0.3c7.6-0.1,15-2.7,22.4-6.5
			c5.3-2.8,10.3-6.5,14.7-11.6c0.2-0.2,0.4-0.5,0.6-0.7c4.8-5.8,8.9-13.2,12.2-21.7C1840.3,278,1829.1,289.6,1815,292.6z"/>
		<g id="XMLID_347_">
			<path id="XMLID_461_" class="st2" d="M1967.9,144c0-12.6-3.5-23-10.4-31.1c5.7,7.7,8.5,17.3,8.5,28.7c0,23.5-18.5,44.3-41.5,52.6
				l28.7,64l-36.9,0h-3.7l1,2.4h4.6l36.9,0l-28.7-64C1949.4,188.3,1967.9,167.5,1967.9,144z"/>
			<path id="XMLID_460_" class="st2" d="M1886.1,195.7l-20.7,0.1c0,0-8.7,46.3-14.9,61.7c-0.5,1.3-0.9,2.6-1.4,3.8
				c-4.1,10.2-12.4,23.7-23,30.9c6.3-3.8,11.4-8.9,15.6-14.4c5.3-6.9,9-14.2,11.5-20c0,0,0,0,0,0v0c6.1-17.1,14.1-59.6,14.1-59.6
				l19.5-0.1l0-0.1h0L1886.1,195.7z"/>
			<path id="XMLID_458_" class="st2" d="M1912.5,132.9c0.1,0,0.2,0.1,0.3,0.1c-3.7-2.7-9.4-4.1-17-4.1h-10.9h-6.2l-6.2,32h2.3h0.7
				l5.7-29.7l6.9,0h10.9c6,0,10.7,0.8,14.3,2.5C1913,133.5,1912.8,133.2,1912.5,132.9z"/>
		</g>
	</g>
</g>
<g id="XMLID_981_">
	<defs>
		<polygon id="XMLID_454_" points="1397.7,153.7 1397.7,133.2 1434.2,133.2 1434.2,126.4 1397.7,126.4 1397.7,105.9 1434.2,105.9 
			1434.2,0 1132.3,0 1132.3,82.5 1142.8,82.5 1142.8,119 1177.6,119 1177.6,140.4 1142.8,140.4 1142.8,177.3 1132.3,177.3 
			1132.3,259.6 1434.2,259.6 1434.2,153.7 		"/>
	</defs>
	<use xlink:href="#XMLID_454_"  style="overflow:visible;fill:#109CE2;"/>
	<clipPath id="XMLID_21_">
		<use xlink:href="#XMLID_454_"  style="overflow:visible;"/>
	</clipPath>
	<path id="XMLID_988_" class="st7" d="M1307.5,157.9c-36.6,21.2-34.5,55.9-33.3,68.7c47.3-56,118.1-53.3,118.1-53.3
		s-100.3,34.4-129.8,103.4c-2.3,5.4,10.9,12.5,13.9,6.1c9-19.2,21.6-33.6,21.6-33.6c18.5,6.9,50.6,15,73.4-1
		c30.2-21.2,27.1-68.4,70.2-91.3C1451.8,151.5,1357.2,129.1,1307.5,157.9L1307.5,157.9z M1307.5,157.9"/>
</g>
<g id="XMLID_246_">
	<g id="XMLID_731_">
		<path id="XMLID_934_" class="st8" d="M46,128.5c-0.9,0.5-2.8,0.9-5.2,0.9c-5.5,0-9.7-3.5-9.7-9.9c0-6.2,4.2-10.3,10.3-10.3
			c2.4,0,4,0.5,4.7,0.9l-0.6,2.1c-1-0.5-2.3-0.8-4-0.8c-4.6,0-7.7,2.9-7.7,8.1c0,4.8,2.8,7.9,7.6,7.9c1.5,0,3.1-0.3,4.1-0.8
			L46,128.5z"/>
		<path id="XMLID_929_" class="st8" d="M52.5,122.9l-2,6.2h-2.6l6.7-19.7h3.1l6.7,19.7h-2.7l-2.1-6.2H52.5z M58.9,121l-1.9-5.7
			c-0.4-1.3-0.7-2.4-1-3.6h-0.1c-0.3,1.2-0.6,2.4-1,3.6L53,121H58.9z"/>
		<path id="XMLID_927_" class="st8" d="M67.1,109.5h2.5V127h8.4v2.1H67.1V109.5z"/>
		<path id="XMLID_925_" class="st8" d="M83.4,109.5v19.7h-2.5v-19.7H83.4z"/>
		<path id="XMLID_922_" class="st8" d="M87.9,109.7c1.5-0.2,3.4-0.4,5.4-0.4c3.6,0,6.2,0.8,8,2.4c1.7,1.6,2.8,3.9,2.8,7.1
			c0,3.2-1,5.8-2.8,7.6c-1.8,1.8-4.9,2.8-8.7,2.8c-1.8,0-3.3-0.1-4.6-0.2V109.7z M90.4,127.1c0.6,0.1,1.6,0.1,2.6,0.1
			c5.4,0,8.4-3,8.4-8.3c0-4.6-2.6-7.6-8-7.6c-1.3,0-2.3,0.1-3,0.3V127.1z"/>
		<path id="XMLID_919_" class="st8" d="M110.1,122.9l-2,6.2h-2.6l6.7-19.7h3.1l6.7,19.7h-2.7l-2.1-6.2H110.1z M116.5,121l-1.9-5.7
			c-0.4-1.3-0.7-2.4-1-3.6h-0.1c-0.3,1.2-0.6,2.4-1,3.6l-1.9,5.7H116.5z"/>
		<path id="XMLID_916_" class="st8" d="M124.7,109.7c1.5-0.2,3.4-0.4,5.4-0.4c3.6,0,6.2,0.8,8,2.4c1.7,1.6,2.8,3.9,2.8,7.1
			c0,3.2-1,5.8-2.8,7.6c-1.8,1.8-4.9,2.8-8.7,2.8c-1.8,0-3.3-0.1-4.6-0.2V109.7z M127.3,127.1c0.6,0.1,1.6,0.1,2.6,0.1
			c5.4,0,8.4-3,8.4-8.3c0-4.6-2.6-7.6-8-7.6c-1.3,0-2.3,0.1-3,0.3V127.1z"/>
		<path id="XMLID_758_" class="st8" d="M150.3,109.7c1.5-0.2,3.4-0.4,5.4-0.4c3.6,0,6.2,0.8,8,2.4c1.7,1.6,2.8,3.9,2.8,7.1
			c0,3.2-1,5.8-2.8,7.6c-1.8,1.8-4.9,2.8-8.7,2.8c-1.8,0-3.3-0.1-4.6-0.2V109.7z M152.9,127.1c0.6,0.1,1.6,0.1,2.6,0.1
			c5.4,0,8.4-3,8.4-8.3c0-4.6-2.6-7.6-8-7.6c-1.3,0-2.3,0.1-3,0.3V127.1z"/>
		<path id="XMLID_756_" class="st8" d="M179.9,119.9h-7.6v7.1h8.5v2.1h-11.1v-19.7h10.6v2.1h-8.1v6.2h7.6V119.9z"/>
		<path id="XMLID_754_" class="st8" d="M184.1,109.5h2.5V127h8.4v2.1h-10.9V109.5z"/>
		<path id="XMLID_751_" class="st8" d="M34.8,144.7c1.3-0.3,3.1-0.4,4.9-0.4c2.7,0,4.5,0.5,5.7,1.6c1,0.9,1.5,2.2,1.5,3.7
			c0,2.6-1.6,4.3-3.7,5v0.1c1.5,0.5,2.4,1.9,2.9,4c0.6,2.7,1.1,4.6,1.5,5.4H45c-0.3-0.6-0.8-2.2-1.3-4.7c-0.6-2.7-1.6-3.7-3.9-3.8
			h-2.4v8.5h-2.5V144.7z M37.3,153.7h2.6c2.7,0,4.4-1.5,4.4-3.7c0-2.5-1.8-3.6-4.5-3.7c-1.2,0-2.1,0.1-2.5,0.2V153.7z"/>
		<path id="XMLID_749_" class="st8" d="M60.6,154.9H53v7.1h8.5v2.1H50.5v-19.7h10.6v2.1H53v6.2h7.6V154.9z"/>
		<path id="XMLID_747_" class="st8" d="M75,154.9h-7.6v7.1h8.5v2.1H64.8v-19.7h10.6v2.1h-8.1v6.2H75V154.9z"/>
		<path id="XMLID_745_" class="st8" d="M79.2,164.1v-19.7h2.8l6.3,9.9c1.5,2.3,2.6,4.4,3.5,6.4l0.1,0c-0.2-2.6-0.3-5-0.3-8.1v-8.2
			h2.4v19.7h-2.6l-6.2-10c-1.4-2.2-2.7-4.4-3.7-6.6l-0.1,0c0.1,2.5,0.2,4.8,0.2,8.1v8.4H79.2z"/>
		<path id="XMLID_743_" class="st8" d="M112.1,163.5c-0.9,0.5-2.8,0.9-5.2,0.9c-5.5,0-9.7-3.5-9.7-9.9c0-6.2,4.2-10.3,10.3-10.3
			c2.4,0,4,0.5,4.7,0.9l-0.6,2.1c-1-0.5-2.3-0.8-4-0.8c-4.6,0-7.7,2.9-7.7,8.1c0,4.8,2.8,7.9,7.6,7.9c1.5,0,3.1-0.3,4.1-0.8
			L112.1,163.5z"/>
		<path id="XMLID_740_" class="st8" d="M118.5,157.9l-2,6.2h-2.6l6.7-19.7h3.1l6.7,19.7h-2.7l-2.1-6.2H118.5z M125,156l-1.9-5.7
			c-0.4-1.3-0.7-2.4-1-3.6H122c-0.3,1.2-0.6,2.4-1,3.6l-1.9,5.7H125z"/>
		<path id="XMLID_738_" class="st8" d="M134.9,144.5v11.6c0,4.4,2,6.3,4.6,6.3c2.9,0,4.8-1.9,4.8-6.3v-11.6h2.6v11.5
			c0,6-3.2,8.5-7.4,8.5c-4,0-7.1-2.3-7.1-8.4v-11.6H134.9z"/>
		<path id="XMLID_736_" class="st8" d="M165,163.5c-0.9,0.5-2.8,0.9-5.2,0.9c-5.5,0-9.7-3.5-9.7-9.9c0-6.2,4.2-10.3,10.3-10.3
			c2.4,0,4,0.5,4.7,0.9l-0.6,2.1c-1-0.5-2.3-0.8-4-0.8c-4.6,0-7.7,2.9-7.7,8.1c0,4.8,2.8,7.9,7.6,7.9c1.5,0,3.1-0.3,4.1-0.8
			L165,163.5z"/>
		<path id="XMLID_734_" class="st8" d="M170.7,144.5v8.2h9.5v-8.2h2.6v19.7h-2.6v-9.2h-9.5v9.2h-2.5v-19.7H170.7z"/>
		<path id="XMLID_732_" class="st8" d="M197.4,154.9h-7.6v7.1h8.5v2.1h-11.1v-19.7h10.6v2.1h-8.1v6.2h7.6V154.9z"/>
	</g>
</g>
<g id="XMLID_215_">
	<g id="XMLID_504_">
		<path id="XMLID_527_" class="st8" d="M330.7,116.3c1.3-0.3,3.1-0.4,4.9-0.4c2.7,0,4.5,0.5,5.7,1.6c1,0.9,1.5,2.2,1.5,3.7
			c0,2.6-1.6,4.3-3.7,5v0.1c1.5,0.5,2.4,1.9,2.9,4c0.6,2.7,1.1,4.6,1.5,5.4h-2.6c-0.3-0.6-0.8-2.2-1.3-4.7c-0.6-2.7-1.6-3.7-3.9-3.8
			h-2.4v8.5h-2.5V116.3z M333.3,125.2h2.6c2.7,0,4.4-1.5,4.4-3.7c0-2.5-1.8-3.6-4.5-3.7c-1.2,0-2.1,0.1-2.5,0.2V125.2z"/>
		<path id="XMLID_525_" class="st8" d="M356.6,126.4H349v7.1h8.5v2.1h-11.1V116H357v2.1H349v6.2h7.6V126.4z"/>
		<path id="XMLID_523_" class="st8" d="M360.8,135.7V116h2.8l6.3,9.9c1.5,2.3,2.6,4.4,3.5,6.4l0.1,0c-0.2-2.6-0.3-5-0.3-8.1V116h2.4
			v19.7H373l-6.2-10c-1.4-2.2-2.7-4.4-3.7-6.6l-0.1,0c0.1,2.5,0.2,4.8,0.2,8.1v8.4H360.8z"/>
		<path id="XMLID_520_" class="st8" d="M380,116.3c1.5-0.2,3.4-0.4,5.4-0.4c3.6,0,6.2,0.8,8,2.4c1.7,1.6,2.8,3.9,2.8,7.1
			c0,3.2-1,5.8-2.8,7.6c-1.8,1.8-4.9,2.8-8.7,2.8c-1.8,0-3.3-0.1-4.6-0.2V116.3z M382.5,133.6c0.6,0.1,1.6,0.1,2.6,0.1
			c5.4,0,8.4-3,8.4-8.3c0-4.6-2.6-7.6-8-7.6c-1.3,0-2.3,0.1-3,0.3V133.6z"/>
		<path id="XMLID_518_" class="st8" d="M401.9,116v19.7h-2.5V116H401.9z"/>
		<path id="XMLID_516_" class="st8" d="M422.9,127c-0.1-2.7-0.3-6-0.3-8.5h-0.1c-0.7,2.3-1.5,4.8-2.5,7.5l-3.5,9.5h-1.9l-3.2-9.4
			c-0.9-2.8-1.7-5.3-2.3-7.6h-0.1c-0.1,2.4-0.2,5.7-0.4,8.7l-0.5,8.4h-2.4l1.4-19.7h3.2l3.4,9.5c0.8,2.4,1.5,4.6,2,6.6h0.1
			c0.5-2,1.2-4.1,2.1-6.6l3.5-9.5h3.2l1.2,19.7h-2.5L422.9,127z"/>
		<path id="XMLID_514_" class="st8" d="M432.3,116v19.7h-2.5V116H432.3z"/>
		<path id="XMLID_512_" class="st8" d="M446.9,126.4h-7.6v7.1h8.5v2.1h-11.1V116h10.6v2.1h-8.1v6.2h7.6V126.4z"/>
		<path id="XMLID_510_" class="st8" d="M451.1,135.7V116h2.8l6.3,9.9c1.5,2.3,2.6,4.4,3.5,6.4l0.1,0c-0.2-2.6-0.3-5-0.3-8.1V116h2.4
			v19.7h-2.6l-6.2-10c-1.4-2.2-2.7-4.4-3.7-6.6l-0.1,0c0.1,2.5,0.2,4.8,0.2,8.1v8.4H451.1z"/>
		<path id="XMLID_508_" class="st8" d="M474,118.2h-6V116h14.6v2.2h-6v17.5H474V118.2z"/>
		<path id="XMLID_505_" class="st8" d="M500.8,125.6c0,6.8-4.1,10.4-9.1,10.4c-5.2,0-8.8-4-8.8-10c0-6.2,3.9-10.3,9.1-10.3
			C497.3,115.7,500.8,119.8,500.8,125.6z M485.5,126c0,4.2,2.3,8,6.3,8c4,0,6.3-3.7,6.3-8.2c0-3.9-2-8-6.3-8
			C487.6,117.8,485.5,121.6,485.5,126z"/>
	</g>
</g>
<g id="XMLID_191_">
	<g id="XMLID_404_">
		<path id="XMLID_417_" class="st8" d="M658,116.3c1.2-0.2,2.8-0.4,4.9-0.4c2.5,0,4.3,0.6,5.5,1.6c1.1,0.9,1.7,2.4,1.7,4.1
			c0,1.8-0.5,3.2-1.5,4.2c-1.3,1.4-3.5,2.2-6,2.2c-0.8,0-1.5,0-2-0.2v7.9H658V116.3z M660.6,125.8c0.6,0.1,1.3,0.2,2.1,0.2
			c3.1,0,4.9-1.5,4.9-4.2c0-2.6-1.8-3.8-4.6-3.8c-1.1,0-2,0.1-2.4,0.2V125.8z"/>
		<path id="XMLID_414_" class="st8" d="M673.5,116.3c1.3-0.3,3.1-0.4,4.9-0.4c2.7,0,4.5,0.5,5.7,1.6c1,0.9,1.5,2.2,1.5,3.7
			c0,2.6-1.6,4.3-3.7,5v0.1c1.5,0.5,2.4,1.9,2.9,4c0.6,2.7,1.1,4.6,1.5,5.4h-2.6c-0.3-0.6-0.8-2.2-1.3-4.7c-0.6-2.7-1.6-3.7-3.9-3.8
			h-2.4v8.5h-2.5V116.3z M676.1,125.3h2.6c2.7,0,4.4-1.5,4.4-3.7c0-2.5-1.8-3.6-4.5-3.7c-1.2,0-2.1,0.1-2.5,0.2V125.3z"/>
		<path id="XMLID_412_" class="st8" d="M699.4,126.5h-7.6v7.1h8.5v2.1h-11.1v-19.7h10.6v2.1h-8.1v6.2h7.6V126.5z"/>
		<path id="XMLID_410_" class="st8" d="M717.3,135.1c-0.9,0.5-2.8,0.9-5.2,0.9c-5.5,0-9.7-3.5-9.7-9.9c0-6.2,4.2-10.3,10.3-10.3
			c2.4,0,4,0.5,4.7,0.9l-0.6,2.1c-1-0.5-2.3-0.8-4-0.8c-4.6,0-7.7,2.9-7.7,8.1c0,4.8,2.8,7.9,7.6,7.9c1.5,0,3.1-0.3,4.1-0.8
			L717.3,135.1z"/>
		<path id="XMLID_408_" class="st8" d="M723,116.1v19.7h-2.5v-19.7H723z"/>
		<path id="XMLID_405_" class="st8" d="M744.2,125.7c0,6.8-4.1,10.4-9.1,10.4c-5.2,0-8.8-4-8.8-10c0-6.2,3.9-10.3,9.1-10.3
			C740.8,115.7,744.2,119.9,744.2,125.7z M729,126c0,4.2,2.3,8,6.3,8c4,0,6.3-3.7,6.3-8.2c0-3.9-2-8-6.3-8
			C731.1,117.8,729,121.7,729,126z"/>
	</g>
</g>
<g id="XMLID_148_">
	<g id="XMLID_606_">
		<path id="XMLID_647_" class="st8" d="M924.7,123.2c-0.9,0.5-2.8,0.9-5.2,0.9c-5.5,0-9.7-3.5-9.7-9.9c0-6.2,4.2-10.3,10.3-10.3
			c2.4,0,4,0.5,4.7,0.9l-0.6,2.1c-1-0.5-2.3-0.8-4-0.8c-4.6,0-7.7,2.9-7.7,8.1c0,4.8,2.8,7.9,7.6,7.9c1.5,0,3.1-0.3,4.1-0.8
			L924.7,123.2z"/>
		<path id="XMLID_644_" class="st8" d="M944,113.9c0,6.8-4.1,10.4-9.1,10.4c-5.2,0-8.8-4-8.8-10c0-6.2,3.9-10.3,9.1-10.3
			C940.6,103.9,944,108,944,113.9z M928.8,114.2c0,4.2,2.3,8,6.3,8c4,0,6.3-3.7,6.3-8.2c0-3.9-2-8-6.3-8
			C930.9,106,928.8,109.9,928.8,114.2z"/>
		<path id="XMLID_642_" class="st8" d="M947,120.8c1.1,0.7,2.8,1.3,4.5,1.3c2.6,0,4.1-1.4,4.1-3.4c0-1.8-1-2.9-3.7-3.9
			c-3.2-1.1-5.2-2.8-5.2-5.6c0-3.1,2.5-5.3,6.4-5.3c2,0,3.5,0.5,4.3,1l-0.7,2.1c-0.6-0.3-2-0.9-3.7-0.9c-2.7,0-3.7,1.6-3.7,2.9
			c0,1.8,1.2,2.7,3.9,3.8c3.3,1.3,5,2.9,5,5.8c0,3-2.2,5.7-6.9,5.7c-1.9,0-4-0.6-5-1.3L947,120.8z"/>
		<path id="XMLID_640_" class="st8" d="M965.4,106.4h-6v-2.2H974v2.2h-6v17.5h-2.6V106.4z"/>
		<path id="XMLID_637_" class="st8" d="M992.2,113.9c0,6.8-4.1,10.4-9.1,10.4c-5.2,0-8.8-4-8.8-10c0-6.2,3.9-10.3,9.1-10.3
			C988.7,103.9,992.2,108,992.2,113.9z M977,114.2c0,4.2,2.3,8,6.3,8c4,0,6.3-3.7,6.3-8.2c0-3.9-2-8-6.3-8
			C979.1,106,977,109.9,977,114.2z"/>
		<path id="XMLID_634_" class="st8" d="M1001.7,104.5c1.2-0.2,2.8-0.4,4.9-0.4c2.5,0,4.3,0.6,5.5,1.6c1.1,0.9,1.7,2.4,1.7,4.1
			c0,1.8-0.5,3.2-1.5,4.2c-1.3,1.4-3.5,2.2-6,2.2c-0.8,0-1.5,0-2-0.2v7.9h-2.5V104.5z M1004.2,113.9c0.6,0.1,1.3,0.2,2.1,0.2
			c3.1,0,4.9-1.5,4.9-4.2c0-2.6-1.8-3.8-4.6-3.8c-1.1,0-2,0.1-2.4,0.2V113.9z"/>
		<path id="XMLID_631_" class="st8" d="M1034,113.9c0,6.8-4.1,10.4-9.1,10.4c-5.2,0-8.8-4-8.8-10c0-6.2,3.9-10.3,9.1-10.3
			C1030.5,103.9,1034,108,1034,113.9z M1018.7,114.2c0,4.2,2.3,8,6.3,8c4,0,6.3-3.7,6.3-8.2c0-3.9-2-8-6.3-8
			C1020.8,106,1018.7,109.9,1018.7,114.2z"/>
		<path id="XMLID_628_" class="st8" d="M1037.3,104.5c1.3-0.3,3.1-0.4,4.9-0.4c2.7,0,4.5,0.5,5.7,1.6c1,0.9,1.5,2.2,1.5,3.7
			c0,2.6-1.6,4.3-3.7,5v0.1c1.5,0.5,2.4,1.9,2.9,4c0.6,2.7,1.1,4.6,1.5,5.4h-2.6c-0.3-0.6-0.8-2.2-1.3-4.7c-0.6-2.7-1.6-3.7-3.9-3.8
			h-2.4v8.5h-2.5V104.5z M1039.8,113.4h2.6c2.7,0,4.4-1.5,4.4-3.7c0-2.5-1.8-3.6-4.5-3.7c-1.2,0-2.1,0.1-2.5,0.2V113.4z"/>
		<path id="XMLID_626_" class="st8" d="M913,139.2h2.5v9.5h0.1c0.5-0.8,1-1.5,1.5-2.1l6-7.4h3.1l-7.1,8.3l7.7,11.3h-3l-6.5-9.7
			l-1.9,2.2v7.5H913V139.2z"/>
		<path id="XMLID_624_" class="st8" d="M931.3,139.2v19.7h-2.5v-19.7H931.3z"/>
		<path id="XMLID_622_" class="st8" d="M935.8,139.2h2.5v17.5h8.4v2.1h-10.9V139.2z"/>
		<path id="XMLID_619_" class="st8" d="M965.2,148.8c0,6.8-4.1,10.4-9.1,10.4c-5.2,0-8.8-4-8.8-10c0-6.2,3.9-10.3,9.1-10.3
			C961.7,138.9,965.2,143,965.2,148.8z M949.9,149.2c0,4.2,2.3,8,6.3,8c4,0,6.3-3.7,6.3-8.2c0-3.9-2-8-6.3-8
			C952,141,949.9,144.8,949.9,149.2z"/>
		<path id="XMLID_617_" class="st8" d="M985.1,150.2c-0.1-2.7-0.3-6-0.3-8.5h-0.1c-0.7,2.3-1.5,4.8-2.5,7.5l-3.5,9.5h-1.9l-3.2-9.4
			c-0.9-2.8-1.7-5.3-2.3-7.6h-0.1c-0.1,2.4-0.2,5.7-0.4,8.7l-0.5,8.4H968l1.4-19.7h3.2l3.4,9.5c0.8,2.4,1.5,4.6,2,6.6h0.1
			c0.5-2,1.2-4.1,2.1-6.6l3.5-9.5h3.2l1.2,19.7h-2.5L985.1,150.2z"/>
		<path id="XMLID_615_" class="st8" d="M1002.1,149.7h-7.6v7.1h8.5v2.1h-11.1v-19.7h10.6v2.1h-8.1v6.2h7.6V149.7z"/>
		<path id="XMLID_613_" class="st8" d="M1010.5,141.4h-6v-2.2h14.6v2.2h-6v17.5h-2.6V141.4z"/>
		<path id="XMLID_610_" class="st8" d="M1021.2,139.5c1.3-0.3,3.1-0.4,4.9-0.4c2.7,0,4.5,0.5,5.7,1.6c1,0.9,1.5,2.2,1.5,3.7
			c0,2.6-1.6,4.3-3.7,5v0.1c1.5,0.5,2.4,1.9,2.9,4c0.6,2.7,1.1,4.6,1.5,5.4h-2.6c-0.3-0.6-0.8-2.2-1.3-4.7c-0.6-2.7-1.6-3.7-3.9-3.8
			h-2.4v8.5h-2.5V139.5z M1023.8,148.4h2.6c2.7,0,4.4-1.5,4.4-3.7c0-2.5-1.8-3.6-4.5-3.7c-1.2,0-2.1,0.1-2.5,0.2V148.4z"/>
		<path id="XMLID_607_" class="st8" d="M1053.8,148.8c0,6.8-4.1,10.4-9.1,10.4c-5.2,0-8.8-4-8.8-10c0-6.2,3.9-10.3,9.1-10.3
			C1050.3,138.9,1053.8,143,1053.8,148.8z M1038.6,149.2c0,4.2,2.3,8,6.3,8c4,0,6.3-3.7,6.3-8.2c0-3.9-2-8-6.3-8
			C1040.7,141,1038.6,144.8,1038.6,149.2z"/>
	</g>
</g>
<g id="XMLID_82_">
	<g id="XMLID_761_">
		<path id="XMLID_914_" class="st8" d="M1550.1,126c1.1,0.7,2.8,1.3,4.5,1.3c2.6,0,4.1-1.4,4.1-3.4c0-1.8-1-2.9-3.7-3.9
			c-3.2-1.1-5.2-2.8-5.2-5.6c0-3.1,2.5-5.3,6.4-5.3c2,0,3.5,0.5,4.3,1l-0.7,2.1c-0.6-0.3-2-0.9-3.7-0.9c-2.7,0-3.7,1.6-3.7,2.9
			c0,1.8,1.2,2.7,3.9,3.8c3.3,1.3,5,2.9,5,5.8c0,3-2.2,5.7-6.9,5.7c-1.9,0-4-0.6-5-1.3L1550.1,126z"/>
		<path id="XMLID_912_" class="st8" d="M1575,119.9h-7.6v7.1h8.5v2.1h-11.1v-19.7h10.6v2.1h-8.1v6.2h7.6V119.9z"/>
		<path id="XMLID_909_" class="st8" d="M1579.1,109.7c1.3-0.3,3.1-0.4,4.9-0.4c2.7,0,4.5,0.5,5.7,1.6c1,0.9,1.5,2.2,1.5,3.7
			c0,2.6-1.6,4.3-3.7,5v0.1c1.5,0.5,2.4,1.9,2.9,4c0.6,2.7,1.1,4.6,1.5,5.4h-2.6c-0.3-0.6-0.8-2.2-1.3-4.7c-0.6-2.7-1.6-3.7-3.9-3.8
			h-2.4v8.5h-2.5V109.7z M1581.7,118.7h2.6c2.7,0,4.4-1.5,4.4-3.7c0-2.5-1.8-3.6-4.5-3.7c-1.2,0-2.1,0.1-2.5,0.2V118.7z"/>
		<path id="XMLID_907_" class="st8" d="M1599.6,129.1l-6.4-19.7h2.7l3.1,9.7c0.8,2.7,1.6,5,2.1,7.3h0.1c0.6-2.3,1.4-4.8,2.2-7.3
			l3.3-9.7h2.7l-7,19.7H1599.6z"/>
		<path id="XMLID_899_" class="st8" d="M1614.1,109.5v19.7h-2.5v-19.7H1614.1z"/>
		<path id="XMLID_897_" class="st8" d="M1632.3,128.5c-0.9,0.5-2.8,0.9-5.2,0.9c-5.5,0-9.7-3.5-9.7-9.9c0-6.2,4.2-10.3,10.3-10.3
			c2.5,0,4,0.5,4.7,0.9l-0.6,2.1c-1-0.5-2.3-0.8-4-0.8c-4.6,0-7.7,2.9-7.7,8.1c0,4.8,2.8,7.9,7.6,7.9c1.5,0,3.1-0.3,4.1-0.8
			L1632.3,128.5z"/>
		<path id="XMLID_895_" class="st8" d="M1638,109.5v19.7h-2.5v-19.7H1638z"/>
		<path id="XMLID_892_" class="st8" d="M1659.2,119.1c0,6.8-4.1,10.4-9.1,10.4c-5.2,0-8.8-4-8.8-10c0-6.2,3.9-10.3,9.1-10.3
			C1655.7,109.2,1659.2,113.3,1659.2,119.1z M1643.9,119.4c0,4.2,2.3,8,6.3,8c4,0,6.3-3.7,6.3-8.2c0-3.9-2-8-6.3-8
			C1646,111.2,1643.9,115.1,1643.9,119.4z"/>
		<path id="XMLID_889_" class="st8" d="M1668.7,109.7c1.5-0.2,3.4-0.4,5.4-0.4c3.6,0,6.2,0.8,8,2.4c1.7,1.6,2.8,3.9,2.8,7.1
			c0,3.2-1,5.8-2.8,7.6c-1.8,1.8-4.9,2.8-8.7,2.8c-1.8,0-3.3-0.1-4.6-0.2V109.7z M1671.2,127.1c0.6,0.1,1.6,0.1,2.6,0.1
			c5.4,0,8.4-3,8.4-8.3c0-4.6-2.6-7.6-8-7.6c-1.3,0-2.3,0.1-3,0.3V127.1z"/>
		<path id="XMLID_887_" class="st8" d="M1698.3,119.9h-7.6v7.1h8.5v2.1h-11.1v-19.7h10.6v2.1h-8.1v6.2h7.6V119.9z"/>
		<path id="XMLID_884_" class="st8" d="M1708.6,109.7c1.3-0.3,3.1-0.4,4.9-0.4c2.7,0,4.5,0.5,5.7,1.6c1,0.9,1.5,2.2,1.5,3.7
			c0,2.6-1.6,4.3-3.7,5v0.1c1.5,0.5,2.4,1.9,2.9,4c0.6,2.7,1.1,4.6,1.5,5.4h-2.6c-0.3-0.6-0.8-2.2-1.3-4.7c-0.6-2.7-1.6-3.7-3.9-3.8
			h-2.4v8.5h-2.5V109.7z M1711.2,118.7h2.6c2.7,0,4.4-1.5,4.4-3.7c0-2.5-1.8-3.6-4.5-3.7c-1.2,0-2.1,0.1-2.5,0.2V118.7z"/>
		<path id="XMLID_882_" class="st8" d="M1734.5,119.9h-7.6v7.1h8.5v2.1h-11.1v-19.7h10.6v2.1h-8.1v6.2h7.6V119.9z"/>
		<path id="XMLID_880_" class="st8" d="M1748.8,119.9h-7.6v7.1h8.5v2.1h-11.1v-19.7h10.6v2.1h-8.1v6.2h7.6V119.9z"/>
		<path id="XMLID_878_" class="st8" d="M1753,129.1v-19.7h2.8l6.3,9.9c1.5,2.3,2.6,4.4,3.5,6.4l0.1,0c-0.2-2.6-0.3-5-0.3-8.1v-8.2
			h2.4v19.7h-2.6l-6.2-10c-1.4-2.2-2.7-4.4-3.7-6.6l-0.1,0c0.1,2.5,0.2,4.8,0.2,8.1v8.4H1753z"/>
		<path id="XMLID_876_" class="st8" d="M1785.9,128.5c-0.9,0.5-2.8,0.9-5.2,0.9c-5.5,0-9.7-3.5-9.7-9.9c0-6.2,4.2-10.3,10.3-10.3
			c2.5,0,4,0.5,4.7,0.9l-0.6,2.1c-1-0.5-2.3-0.8-4-0.8c-4.6,0-7.7,2.9-7.7,8.1c0,4.8,2.8,7.9,7.6,7.9c1.5,0,3.1-0.3,4.1-0.8
			L1785.9,128.5z"/>
		<path id="XMLID_873_" class="st8" d="M1792.4,122.9l-2,6.2h-2.6l6.7-19.7h3.1l6.7,19.7h-2.7l-2.1-6.2H1792.4z M1798.8,121
			l-1.9-5.7c-0.4-1.3-0.7-2.4-1-3.6h-0.1c-0.3,1.2-0.6,2.4-1,3.6l-1.9,5.7H1798.8z"/>
		<path id="XMLID_788_" class="st8" d="M1808.8,109.5v11.6c0,4.4,2,6.3,4.6,6.3c2.9,0,4.8-1.9,4.8-6.3v-11.6h2.6v11.5
			c0,6-3.2,8.5-7.4,8.5c-4,0-7.1-2.3-7.1-8.4v-11.6H1808.8z"/>
		<path id="XMLID_786_" class="st8" d="M1838.8,128.5c-0.9,0.5-2.8,0.9-5.2,0.9c-5.5,0-9.7-3.5-9.7-9.9c0-6.2,4.2-10.3,10.3-10.3
			c2.5,0,4,0.5,4.7,0.9l-0.6,2.1c-1-0.5-2.3-0.8-4-0.8c-4.6,0-7.7,2.9-7.7,8.1c0,4.8,2.8,7.9,7.6,7.9c1.5,0,3.1-0.3,4.1-0.8
			L1838.8,128.5z"/>
		<path id="XMLID_784_" class="st8" d="M1844.5,109.5v8.2h9.5v-8.2h2.6v19.7h-2.6v-9.2h-9.5v9.2h-2.5v-19.7H1844.5z"/>
		<path id="XMLID_782_" class="st8" d="M1871.2,119.9h-7.6v7.1h8.5v2.1H1861v-19.7h10.6v2.1h-8.1v6.2h7.6V119.9z"/>
		<path id="XMLID_779_" class="st8" d="M1652.8,144.7c1.3-0.3,3.1-0.4,4.9-0.4c2.7,0,4.5,0.5,5.7,1.6c1,0.9,1.5,2.2,1.5,3.7
			c0,2.6-1.6,4.3-3.7,5v0.1c1.5,0.5,2.4,1.9,2.9,4c0.6,2.7,1.1,4.6,1.5,5.4h-2.6c-0.3-0.6-0.8-2.2-1.3-4.7c-0.6-2.7-1.6-3.7-3.9-3.8
			h-2.4v8.5h-2.5V144.7z M1655.3,153.7h2.6c2.7,0,4.4-1.5,4.4-3.7c0-2.5-1.8-3.6-4.5-3.7c-1.2,0-2.1,0.1-2.5,0.2V153.7z"/>
		<path id="XMLID_777_" class="st8" d="M1678.7,154.9h-7.6v7.1h8.5v2.1h-11.1v-19.7h10.6v2.1h-8.1v6.2h7.6V154.9z"/>
		<path id="XMLID_775_" class="st8" d="M1682.8,164.1v-19.7h2.8l6.3,9.9c1.5,2.3,2.6,4.4,3.5,6.4l0.1,0c-0.2-2.6-0.3-5-0.3-8.1v-8.2
			h2.4v19.7h-2.6l-6.2-10c-1.4-2.2-2.7-4.4-3.7-6.6l-0.1,0c0.1,2.5,0.2,4.8,0.2,8.1v8.4H1682.8z"/>
		<path id="XMLID_772_" class="st8" d="M1718.8,154.1c0,6.8-4.1,10.4-9.1,10.4c-5.2,0-8.8-4-8.8-10c0-6.2,3.9-10.3,9.1-10.3
			C1715.4,144.1,1718.8,148.3,1718.8,154.1z M1703.6,154.4c0,4.2,2.3,8,6.3,8c4,0,6.3-3.7,6.3-8.2c0-3.9-2-8-6.3-8
			C1705.7,146.2,1703.6,150.1,1703.6,154.4z"/>
		<path id="XMLID_768_" class="st8" d="M1722.1,144.7c1.1-0.2,2.9-0.4,4.6-0.4c2.5,0,4.2,0.4,5.4,1.4c1,0.8,1.6,1.9,1.6,3.5
			c0,1.9-1.3,3.6-3.3,4.3v0.1c1.9,0.5,4.1,2,4.1,4.9c0,1.7-0.7,3-1.7,3.9c-1.4,1.3-3.6,1.8-6.8,1.8c-1.7,0-3.1-0.1-3.9-0.2V144.7z
			 M1724.7,152.8h2.3c2.7,0,4.3-1.4,4.3-3.3c0-2.3-1.7-3.2-4.3-3.2c-1.2,0-1.8,0.1-2.2,0.2V152.8z M1724.7,162.2
			c0.5,0.1,1.2,0.1,2.1,0.1c2.6,0,5-1,5-3.8c0-2.7-2.3-3.8-5.1-3.8h-2.1V162.2z"/>
		<path id="XMLID_764_" class="st8" d="M1754.7,154.1c0,6.8-4.1,10.4-9.1,10.4c-5.2,0-8.8-4-8.8-10c0-6.2,3.9-10.3,9.1-10.3
			C1751.2,144.1,1754.7,148.3,1754.7,154.1z M1739.5,154.4c0,4.2,2.3,8,6.3,8c4,0,6.3-3.7,6.3-8.2c0-3.9-2-8-6.3-8
			C1741.6,146.2,1739.5,150.1,1739.5,154.4z"/>
		<path id="XMLID_762_" class="st8" d="M1761.6,164.1v-8.3l-6.2-11.3h2.9l2.8,5.4c0.8,1.5,1.3,2.7,2,4.1h0.1c0.6-1.3,1.2-2.6,2-4.1
			l2.8-5.4h2.9l-6.6,11.3v8.4H1761.6z"/>
	</g>
</g>
<g id="XMLID_1_">
	<g id="XMLID_789_">
		<path id="XMLID_869_" class="st8" d="M1192.7,79.9c1.2-0.2,2.8-0.4,4.9-0.4c2.5,0,4.3,0.6,5.5,1.6c1.1,0.9,1.7,2.4,1.7,4.1
			c0,1.8-0.5,3.2-1.5,4.2c-1.3,1.4-3.5,2.2-6,2.2c-0.8,0-1.5,0-2-0.2v7.9h-2.5V79.9z M1195.2,89.3c0.6,0.1,1.3,0.2,2.1,0.2
			c3.1,0,4.9-1.5,4.9-4.2c0-2.6-1.8-3.8-4.6-3.8c-1.1,0-2,0.1-2.4,0.2V89.3z"/>
		<path id="XMLID_857_" class="st8" d="M1208.2,79.9c1.3-0.3,3.1-0.4,4.9-0.4c2.7,0,4.5,0.5,5.7,1.6c1,0.9,1.5,2.2,1.5,3.7
			c0,2.6-1.6,4.3-3.7,5v0.1c1.5,0.5,2.4,1.9,2.9,4c0.6,2.7,1.1,4.6,1.5,5.4h-2.6c-0.3-0.6-0.8-2.2-1.3-4.7c-0.6-2.7-1.6-3.7-3.9-3.8
			h-2.4v8.5h-2.5V79.9z M1210.7,88.8h2.6c2.7,0,4.4-1.5,4.4-3.7c0-2.5-1.8-3.6-4.5-3.7c-1.2,0-2.1,0.1-2.5,0.2V88.8z"/>
		<path id="XMLID_855_" class="st8" d="M1234.1,90.1h-7.6v7.1h8.5v2.1h-11.1V79.6h10.6v2.1h-8.1V88h7.6V90.1z"/>
		<path id="XMLID_853_" class="st8" d="M1237.9,96.2c1.1,0.7,2.8,1.3,4.5,1.3c2.6,0,4.1-1.4,4.1-3.4c0-1.8-1-2.9-3.7-3.9
			c-3.2-1.1-5.2-2.8-5.2-5.6c0-3.1,2.5-5.3,6.4-5.3c2,0,3.5,0.5,4.3,1l-0.7,2.1c-0.6-0.3-2-0.9-3.7-0.9c-2.7,0-3.7,1.6-3.7,2.9
			c0,1.8,1.2,2.7,3.9,3.8c3.3,1.3,5,2.9,5,5.8c0,3-2.2,5.7-6.9,5.7c-1.9,0-4-0.6-5-1.3L1237.9,96.2z"/>
		<path id="XMLID_851_" class="st8" d="M1262.8,90.1h-7.6v7.1h8.5v2.1h-11.1V79.6h10.6v2.1h-8.1V88h7.6V90.1z"/>
		<path id="XMLID_848_" class="st8" d="M1267,79.9c1.3-0.3,3.1-0.4,4.9-0.4c2.7,0,4.5,0.5,5.7,1.6c1,0.9,1.5,2.2,1.5,3.7
			c0,2.6-1.6,4.3-3.7,5v0.1c1.5,0.5,2.4,1.9,2.9,4c0.6,2.7,1.1,4.6,1.5,5.4h-2.6c-0.3-0.6-0.8-2.2-1.3-4.7c-0.6-2.7-1.6-3.7-3.9-3.8
			h-2.4v8.5h-2.5V79.9z M1269.5,88.8h2.6c2.7,0,4.4-1.5,4.4-3.7c0-2.5-1.8-3.6-4.5-3.7c-1.2,0-2.1,0.1-2.5,0.2V88.8z"/>
		<path id="XMLID_846_" class="st8" d="M1287.4,99.3l-6.4-19.7h2.7l3.1,9.7c0.8,2.7,1.6,5,2.1,7.3h0.1c0.6-2.3,1.4-4.8,2.2-7.3
			l3.3-9.7h2.7l-7,19.7H1287.4z"/>
		<path id="XMLID_838_" class="st8" d="M1300.9,93.1l-2,6.2h-2.6l6.7-19.7h3.1l6.7,19.7h-2.7l-2.1-6.2H1300.9z M1307.3,91.1
			l-1.9-5.7c-0.4-1.3-0.7-2.4-1-3.6h-0.1c-0.3,1.2-0.6,2.4-1,3.6l-1.9,5.7H1307.3z"/>
		<path id="XMLID_836_" class="st8" d="M1328.9,98.6c-0.9,0.5-2.8,0.9-5.2,0.9c-5.5,0-9.7-3.5-9.7-9.9c0-6.2,4.2-10.3,10.3-10.3
			c2.5,0,4,0.5,4.7,0.9l-0.6,2.1c-1-0.5-2.3-0.8-4-0.8c-4.6,0-7.7,2.9-7.7,8.1c0,4.8,2.8,7.9,7.6,7.9c1.5,0,3.1-0.3,4.1-0.8
			L1328.9,98.6z"/>
		<path id="XMLID_834_" class="st8" d="M1334.6,79.6v19.7h-2.5V79.6H1334.6z"/>
		<path id="XMLID_830_" class="st8" d="M1355.8,89.2c0,6.8-4.1,10.4-9.1,10.4c-5.2,0-8.8-4-8.8-10c0-6.2,3.9-10.3,9.1-10.3
			C1352.3,79.3,1355.8,83.4,1355.8,89.2z M1340.6,89.6c0,4.2,2.3,8,6.3,8c4,0,6.3-3.7,6.3-8.2c0-3.9-2-8-6.3-8
			C1342.7,81.4,1340.6,85.2,1340.6,89.6z M1351.1,75.1l-3.7,3.4h-2.1l2.7-3.4H1351.1z"/>
		<path id="XMLID_828_" class="st8" d="M1359.1,99.3V79.6h2.8l6.3,9.9c1.5,2.3,2.6,4.4,3.5,6.4l0.1,0c-0.2-2.6-0.3-5-0.3-8.1v-8.2
			h2.4v19.7h-2.6l-6.2-10c-1.4-2.2-2.7-4.4-3.7-6.6l-0.1,0c0.1,2.5,0.2,4.8,0.2,8.1v8.4H1359.1z"/>
		<path id="XMLID_825_" class="st8" d="M1216.5,114.9c1.5-0.2,3.4-0.4,5.4-0.4c3.6,0,6.2,0.8,8,2.4c1.8,1.6,2.8,3.9,2.8,7.1
			c0,3.2-1,5.8-2.8,7.6c-1.8,1.8-4.9,2.8-8.7,2.8c-1.8,0-3.3-0.1-4.6-0.2V114.9z M1219,132.2c0.6,0.1,1.6,0.1,2.6,0.1
			c5.4,0,8.4-3,8.4-8.3c0-4.6-2.6-7.6-8-7.6c-1.3,0-2.3,0.1-3,0.3V132.2z"/>
		<path id="XMLID_823_" class="st8" d="M1246.1,125h-7.6v7.1h8.5v2.1h-11.1v-19.7h10.6v2.1h-8.1v6.2h7.6V125z"/>
		<path id="XMLID_821_" class="st8" d="M1250.3,114.6h2.5v17.5h8.4v2.1h-10.9V114.6z"/>
		<path id="XMLID_819_" class="st8" d="M1286.8,125.6c-0.1-2.7-0.3-6-0.3-8.5h-0.1c-0.7,2.3-1.5,4.8-2.5,7.5l-3.5,9.5h-1.9l-3.2-9.4
			c-0.9-2.8-1.7-5.3-2.3-7.6h-0.1c-0.1,2.4-0.2,5.7-0.4,8.7l-0.5,8.4h-2.4l1.4-19.7h3.2l3.4,9.5c0.8,2.4,1.5,4.6,2,6.6h0.1
			c0.5-2,1.2-4.1,2.1-6.6l3.5-9.5h3.2l1.2,19.7h-2.5L1286.8,125.6z"/>
		<path id="XMLID_817_" class="st8" d="M1303.8,125h-7.6v7.1h8.5v2.1h-11.1v-19.7h10.6v2.1h-8.1v6.2h7.6V125z"/>
		<path id="XMLID_814_" class="st8" d="M1308,114.9c1.5-0.2,3.4-0.4,5.4-0.4c3.6,0,6.2,0.8,8,2.4c1.7,1.6,2.8,3.9,2.8,7.1
			c0,3.2-1,5.8-2.8,7.6c-1.8,1.8-4.9,2.8-8.7,2.8c-1.8,0-3.3-0.1-4.6-0.2V114.9z M1310.5,132.2c0.6,0.1,1.6,0.1,2.6,0.1
			c5.4,0,8.4-3,8.4-8.3c0-4.6-2.6-7.6-8-7.6c-1.3,0-2.3,0.1-3,0.3V132.2z"/>
		<path id="XMLID_812_" class="st8" d="M1330,114.6v19.7h-2.5v-19.7H1330z"/>
		<path id="XMLID_809_" class="st8" d="M1351.2,124.2c0,6.8-4.1,10.4-9.1,10.4c-5.2,0-8.8-4-8.8-10c0-6.2,3.9-10.3,9.1-10.3
			C1347.7,114.3,1351.2,118.4,1351.2,124.2z M1335.9,124.6c0,4.2,2.3,8,6.3,8c4,0,6.3-3.7,6.3-8.2c0-3.9-2-8-6.3-8
			C1338,116.4,1335.9,120.2,1335.9,124.6z"/>
		<path id="XMLID_806_" class="st8" d="M1225.5,163.1l-2,6.2h-2.6l6.7-19.7h3.1l6.7,19.7h-2.7l-2.1-6.2H1225.5z M1232,161.1
			l-1.9-5.7c-0.4-1.3-0.7-2.4-1-3.6h-0.1c-0.3,1.2-0.6,2.4-1,3.6l-1.9,5.7H1232z"/>
		<path id="XMLID_804_" class="st8" d="M1256.6,160.6c-0.1-2.7-0.3-6-0.3-8.5h-0.1c-0.7,2.3-1.5,4.8-2.5,7.5l-3.5,9.5h-1.9l-3.2-9.4
			c-0.9-2.8-1.7-5.3-2.3-7.6h-0.1c-0.1,2.4-0.2,5.7-0.4,8.7l-0.5,8.4h-2.4l1.4-19.7h3.2l3.4,9.5c0.8,2.4,1.5,4.6,2,6.6h0.1
			c0.5-2,1.2-4.1,2.1-6.6l3.5-9.5h3.2l1.2,19.7h-2.5L1256.6,160.6z"/>
		<path id="XMLID_800_" class="st8" d="M1263.5,149.9c1.1-0.2,2.9-0.4,4.6-0.4c2.5,0,4.2,0.4,5.4,1.4c1,0.8,1.6,1.9,1.6,3.5
			c0,1.9-1.3,3.6-3.3,4.3v0.1c1.9,0.5,4.1,2,4.1,4.9c0,1.7-0.7,3-1.7,3.9c-1.4,1.3-3.6,1.8-6.8,1.8c-1.7,0-3.1-0.1-3.9-0.2V149.9z
			 M1266,157.9h2.3c2.7,0,4.3-1.4,4.3-3.3c0-2.3-1.7-3.2-4.3-3.2c-1.2,0-1.8,0.1-2.2,0.2V157.9z M1266,167.3
			c0.5,0.1,1.2,0.1,2.1,0.1c2.6,0,5-1,5-3.8c0-2.7-2.3-3.8-5.1-3.8h-2.1V167.3z"/>
		<path id="XMLID_798_" class="st8" d="M1281.8,149.6v19.7h-2.5v-19.7H1281.8z"/>
		<path id="XMLID_796_" class="st8" d="M1296.5,160h-7.6v7.1h8.5v2.1h-11.1v-19.7h10.6v2.1h-8.1v6.2h7.6V160z"/>
		<path id="XMLID_794_" class="st8" d="M1300.6,169.2v-19.7h2.8l6.3,9.9c1.5,2.3,2.6,4.4,3.5,6.4l0.1,0c-0.2-2.6-0.3-5-0.3-8.1v-8.2
			h2.4v19.7h-2.6l-6.2-10c-1.4-2.2-2.7-4.4-3.7-6.6l-0.1,0c0.1,2.5,0.2,4.8,0.2,8.1v8.4H1300.6z"/>
		<path id="XMLID_792_" class="st8" d="M1323.5,151.8h-6v-2.2h14.6v2.2h-6v17.5h-2.6V151.8z"/>
		<path id="XMLID_790_" class="st8" d="M1344.5,160h-7.6v7.1h8.5v2.1h-11.1v-19.7h10.6v2.1h-8.1v6.2h7.6V160z"/>
	</g>
</g>
</svg>
