<?xml version="1.0" encoding="utf-8"?>
<!-- Generator: Adobe Illustrator 19.0.0, SVG Export Plug-In . SVG Version: 6.00 Build 0)  -->
<svg version="1.1" id="Capa_1" xmlns="http://www.w3.org/2000/svg" xmlns:xlink="http://www.w3.org/1999/xlink" x="0px" y="0px"
	 viewBox="-717 299.7 483.3 483.3" style="enable-background:new -717 299.7 483.3 483.3;" xml:space="preserve">
<style type="text/css">
	.st0{fill:#808080;}
</style>
<g>
	<g>
		<path class="st0" d="M-503.4,500.7c1.1-2.3,2.3-5,3.9-7.5c0.6-1.1,1.4-2.1,2.1-3.2l-0.1-0.1c-0.8,0.9-1.6,2-2.4,3
			c-1.6,2.2-3.2,4.6-4.8,7.7c-2.3,4.1-4,8.7-5.1,13.4l2.4,0.4C-506.7,509.6-505.3,504.9-503.4,500.7z"/>
		<path class="st0" d="M-469.4,598.5l-9.2,5.6c0.4,0.7,0.7,1.3,1,2c1.6,3,2.9,5.7,4.1,8.4c1.8,4,3.6,8.3,5.5,13.3l12.2-4.9
			C-460.4,613.4-464.8,605.5-469.4,598.5z"/>
		<path class="st0" d="M-508.4,549.3c2.5,9,6.9,17.5,11.4,25.4l6.4-4.5c-4.6-6.6-9.5-14.2-12.6-22.6L-508.4,549.3z"/>
		<path class="st0" d="M-459.4,660.4c1.4,8,2.2,16.6,2.5,25.4l18.5-1.2c-1.1-9.7-2.8-19-5.2-27.8L-459.4,660.4z"/>
		<path class="st0" d="M-249.3,443.2v-23.9h-50v-37h-65.3v16h-73.8v58h-16.7c-20.7,11.1-32.2,26.5-35.7,34.6
			c-2.8,6.5-4.3,13-4.3,19.1c-0.1,12.3,8,25.6,23.9,39.5l0.1,0.1c18.7,16.3,65.1,59.7,87.9,121.7c6.1,16.5,9.4,40.9,9.4,40.9h141.2
			v-269H-249.3z M-382.5,493.4c-0.2,0.2-0.4,0.3-0.6,0.5h-32.2v-25h32.8L-382.5,493.4L-382.5,493.4z M-382.5,444h-32.8v-25h32.8V444
			z M-320.3,506.7h-25.1v-19.1h25.1V506.7L-320.3,506.7z M-320.3,476.7h-25.1v-19.1h25.1V476.7L-320.3,476.7z M-320.3,446.7h-25.1
			v-19.1h25.1V446.7L-320.3,446.7z M-320.3,416.7h-25.1v-19.1h25.1V416.7L-320.3,416.7z M-264.3,547.7h-25.1v-19.1h25.1V547.7
			L-264.3,547.7z M-264.3,517.7h-25.1v-19.1h25.1V517.7L-264.3,517.7z M-264.3,487.7h-25.1v-19.1h25.1V487.7L-264.3,487.7z
			 M-264.3,457.7h-25.1v-19.1h25.1V457.7L-264.3,457.7z"/>
		<path class="st0" d="M-533,573.8c-3.4-13.1-4.6-25.6-3.8-36.9c0.9-12.8,4.2-24.3,9.5-33.4c3.6-6.1,6.9-10.7,10.6-14.4
			c4.4-4.5,8.7-8.1,13.3-11.1c1.9-1.3,5.2-3.7,8.7-5.8v-95.9h-78.4v88.5h-13.5l0.1-94.2h-62.8v94.2h-3.9v-32.8H-716v280.2h184.2
			c0,0,19.4-21.9,17.1-61.9C-516.7,616.1-526.9,597.3-533,573.8z M-672.3,557.7h-25.1v-19.1h25.1V557.7z M-672.3,527.7h-25.1v-19.1
			h25.1V527.7z M-672.3,497.7h-25.1v-19.1h25.1V497.7z M-672.3,467.7h-25.1v-19.1h25.1V467.7z M-630.7,387.2h25.1v19.1h-25.1V387.2z
			 M-630.7,417.2h25.1v19.1h-25.1V417.2z M-630.7,447.2h25.1v17.5h-25.1V447.2z M-590.6,560.8h-32.8v-25h32.8
			C-590.6,535.8-590.6,560.8-590.6,560.8z M-590.6,510.8h-32.8v-25h32.8C-590.6,485.8-590.6,510.8-590.6,510.8z M-550.3,403h32.8v25
			h-32.8V403z M-550.3,453h32.8v24.5c-0.2,0.2-0.4,0.3-0.6,0.5h-32.2L-550.3,453L-550.3,453z"/>
	</g>
</g>
</svg>
